<svg width="64" height="64" viewBox="0 0 64 64" fill="none" xmlns="http://www.w3.org/2000/svg">
<path d="M64 22H58.1828V28.6653H64V22Z" fill="white"/>
<path d="M52.3621 28.6653H46.5448V35.3307H52.3621V28.6653Z" fill="white"/>
<path d="M17.4552 28.6653H11.6379V35.3307H17.4552V28.6653Z" fill="white"/>
<path d="M34.9104 2H29.0931V8.66534H34.9104V2Z" fill="white"/>
<path d="M34.9104 48.6693H29.0931V55.3347H34.9104V48.6693Z" fill="white"/>
<path d="M46.5448 48.6693H40.7276V55.3347H46.5448V48.6693Z" fill="white"/>
<path d="M23.2724 48.6693H17.4552V55.3347H23.2724V48.6693Z" fill="white"/>
<path d="M40.7276 55.3347H34.9104V62H40.7276V55.3347Z" fill="white"/>
<path d="M29.0896 55.3347H23.2724V62H29.0896V55.3347Z" fill="white"/>
<path d="M58.1828 15.3307V22H40.7276V42H23.2724V22H5.81724V15.3307H29.0896V35.3307H34.9104V15.3307H58.1828Z" fill="white"/>
<path d="M5.81724 22H0V28.6653H5.81724V22Z" fill="white"/>
</svg>
