<svg width="48" height="48" viewBox="0 0 48 48" fill="none" xmlns="http://www.w3.org/2000/svg">
<path d="M48 16.6667H43.6371V21.5546H48V16.6667Z" fill="#F31C33"/>
<path d="M39.2715 21.5546H34.9086V26.4425H39.2715V21.5546Z" fill="#F31C33"/>
<path d="M13.0914 21.5546H8.72845V26.4425H13.0914V21.5546Z" fill="#F31C33"/>
<path d="M26.1828 2H21.8198V6.88792H26.1828V2Z" fill="#F31C33"/>
<path d="M26.1828 36.2242H21.8198V41.1121H26.1828V36.2242Z" fill="#F31C33"/>
<path d="M34.9086 36.2242H30.5457V41.1121H34.9086V36.2242Z" fill="#F31C33"/>
<path d="M17.4543 36.2242H13.0914V41.1121H17.4543V36.2242Z" fill="#F31C33"/>
<path d="M30.5457 41.1121H26.1828V46H30.5457V41.1121Z" fill="#F31C33"/>
<path d="M21.8172 41.1121H17.4543V46H21.8172V41.1121Z" fill="#F31C33"/>
<path d="M43.6371 11.7758V16.6667H30.5457V31.3333H17.4543V16.6667H4.36293V11.7758H21.8172V26.4425H26.1828V11.7758H43.6371Z" fill="#F31C33"/>
<path d="M4.36293 16.6667H0V21.5546H4.36293V16.6667Z" fill="#F31C33"/>
</svg>
