<svg width="1248" height="162" viewBox="0 0 1248 162" fill="none" xmlns="http://www.w3.org/2000/svg">
<path d="M138.264 0L138.264 163H102.059L44.3192 78.5164H43.3829V163H0V0H36.8287L93.6322 86.368H94.8806V0H138.264Z" fill="#F0F1FA"/>
<path d="M158.785 162.812V1.19209e-06H273.952V36.1804H202.168V63.8181H268.022V98.9935H202.168V126.631H273.64V162.812H158.785Z" fill="#F0F1FA"/>
<path d="M339.208 0L371.934 115.576H373.183L405.999 0H455L402.209 163H342.908L290.207 0H339.208Z" fill="#F0F1FA"/>
<path d="M470.346 162.802V0H585.513V36.1753H513.729V63.8131H579.583V98.9884H513.729V126.626H585.201V162.802H470.346Z" fill="#F0F1FA"/>
<path d="M607.029 163V0H650.412V127.825H715.018V163H607.029Z" fill="#F0F1FA"/>
<path d="M774.065 163H727.249L779.995 0H839.296L892.042 163H845.226L810.27 44.2832H809.021L774.065 163ZM765.326 97.3603H853.341V130.023H765.326V97.3603Z" fill="#F0F1FA"/>
<path d="M987.352 51.4489C986.935 46.2145 984.985 42.1317 981.5 39.2004C978.066 36.2691 972.839 34.8035 965.816 34.8035C961.343 34.8035 957.675 35.3531 954.814 36.4523C952.005 37.4992 949.925 38.9387 948.572 40.7707C947.22 42.6028 946.518 44.6965 946.466 47.052C946.361 48.9888 946.7 50.7423 947.48 52.3126C948.312 53.8306 949.613 55.2177 951.381 56.474C953.15 57.6779 955.413 58.7771 958.17 59.7717C960.927 60.7662 964.204 61.6561 968.001 62.4412L981.109 65.2678C989.952 67.1522 997.521 69.6386 1003.82 72.7269C1010.11 75.8152 1015.26 79.4531 1019.26 83.6407C1023.27 87.7759 1026.21 92.4345 1028.08 97.6166C1030.01 102.799 1030.99 108.452 1031.05 114.576C1030.99 125.15 1028.37 134.101 1023.17 141.429C1017.96 148.757 1010.53 155.332 1000.85 159.153C991.227 162.974 979.653 163 966.128 163C952.24 163 940.119 162.817 929.768 158.682C919.468 154.546 911.458 147.187 905.736 138.602C900.066 129.965 897.205 119.921 897.153 106.468L938.351 105.468C938.611 110.389 939.833 114.524 942.018 117.874C944.203 121.224 947.272 123.763 951.225 125.49C955.231 127.217 959.99 128.081 965.504 128.081C970.134 128.081 974.009 127.505 977.13 126.354C980.251 125.202 982.618 123.605 984.23 121.564C985.843 119.523 986.675 117.193 986.727 114.576C986.675 112.116 985.869 109.97 984.309 108.138C982.8 106.253 980.303 104.578 976.818 103.113C973.333 101.595 968.625 100.181 962.695 98.8728L946.778 95.4181C932.629 92.3298 921.471 87.1739 913.304 79.9504C905.189 72.6745 901.158 62.7553 901.21 50.1927C901.158 39.9856 903.863 31.0609 909.325 23.4186C914.839 15.724 922.459 9.73057 932.187 5.43834C941.966 1.14611 953.176 0 965.816 0C978.717 0 989.874 1.17229 999.29 5.51686C1008.7 9.86143 1015.96 15.9857 1021.06 23.8897C1026.21 31.7413 1028.81 40.9277 1028.86 51.4489H987.352Z" fill="#F0F1FA"/>
<path d="M1047.55 163V0H1090.93V67.21H1093.12L1141.18 0H1191.74L1137.75 73.8054L1192.99 163H1141.18L1105.29 102.699L1090.93 121.543V163H1047.55Z" fill="#F0F1FA"/>
<path d="M1248 0V163H1204.62V0H1248Z" fill="#F0F1FA"/>
</svg>
