<svg width="241" height="56" viewBox="0 0 241 56" fill="none" xmlns="http://www.w3.org/2000/svg">
<path d="M6.72555 35.432C10.1284 35.432 13.4271 35.48 16.7259 35.4C18.0069 35.368 19.328 35.2 20.553 34.848C25.9335 33.32 29.7206 28.064 29.6486 22.344C29.5765 16.856 25.5732 11.832 20.0166 10.376C18.7756 10.056 17.4625 9.91201 16.1814 9.88801C13.0668 9.81601 9.95223 9.87202 6.75758 9.87202C6.75758 8.95202 6.75758 8.11202 6.75758 7.27202C6.80562 7.24002 6.86167 7.15201 6.91771 7.15201C11.5776 7.24801 16.2775 6.57602 20.8893 7.74402C28.2794 9.62402 32.9553 15.944 32.6431 23.528C32.3148 31.384 25.4371 38.048 17.5666 38.096C14.444 38.112 11.3294 38.096 8.20678 38.096C6.64549 38.096 6.64549 38.096 6.6615 36.496C6.66951 36.216 6.70153 35.928 6.72555 35.432Z" fill="#B13289"/>
<path d="M60.8665 26.768H39.4648C39.713 29.168 40.7218 31.152 42.5233 32.712C44.3088 34.272 46.4065 35.048 48.8405 35.016C52.6037 34.96 55.2859 33.208 56.9032 29.784H60.29C59.3933 32.352 57.8881 34.384 55.7823 35.896C53.6605 37.4 51.3066 38.176 48.7204 38.208C45.4617 38.264 42.5713 37.064 40.0653 34.624C37.5592 32.184 36.2781 29.272 36.2221 25.896C36.134 22.328 37.399 19.248 40.0012 16.664C42.6034 14.08 45.6779 12.888 49.2169 13.08C52.3955 13.272 55.1498 14.584 57.4957 17.024C59.7536 19.424 60.8825 22.104 60.8825 25.064V26.768H60.8665ZM57.7359 23.832C57.2876 21.6 56.2387 19.784 54.6053 18.4C52.956 17.016 50.9863 16.312 48.7044 16.288C46.4225 16.256 44.4129 16.944 42.7075 18.344C40.994 19.744 39.9131 21.568 39.4728 23.832H57.7359Z" fill="#505050"/>
<path d="M72.6202 16.464C71.147 16.52 69.938 16.928 69.0252 17.68C68.1124 18.432 67.4799 19.088 67.1436 19.648C66.6152 20.568 66.351 21.8 66.351 23.336V37.616H63.0122V13.744H65.9827V17.128C66.6472 15.84 67.6401 14.848 68.9531 14.152C70.1461 13.52 71.3872 13.216 72.6362 13.272V16.456H72.6202V16.464Z" fill="#505050"/>
<path d="M107.225 37.608H103.918V22.952C103.918 21.112 103.39 19.536 102.325 18.224C101.26 16.912 99.8749 16.256 98.1375 16.256C96.384 16.256 94.8708 16.824 93.5977 17.976C92.3247 19.128 91.6921 20.544 91.6921 22.24V37.608H88.3454V22.232C88.3454 20.536 87.7048 19.104 86.4478 17.968C85.1747 16.816 83.6695 16.248 81.908 16.248C80.1786 16.248 78.8014 16.896 77.7766 18.2C76.7437 19.496 76.2313 21.088 76.2313 22.952V37.608H72.9246V23.328C72.9246 20.344 73.7733 17.944 75.4787 16.128C77.072 14.432 79.1617 13.464 81.7559 13.24C85.2068 12.96 87.977 14.44 90.0348 17.68C92.1005 14.448 94.8548 12.96 98.3136 13.24C100.908 13.464 103.006 14.424 104.631 16.128C106.352 17.944 107.225 20.344 107.225 23.328V37.608Z" fill="#505050"/>
<path d="M134.696 25.672C134.696 29.112 133.455 32.072 130.957 34.576C128.458 37.072 125.504 38.264 122.069 38.16C118.754 38.072 115.952 36.816 113.646 34.392C111.34 31.96 110.195 29.072 110.195 25.72C110.195 22.232 111.436 19.24 113.918 16.736C116.392 14.24 119.355 13.048 122.774 13.152C126.088 13.264 128.907 14.544 131.221 16.984C133.543 19.424 134.696 22.32 134.696 25.672ZM131.517 25.424C131.429 22.904 130.532 20.744 128.819 18.944C127.105 17.144 125.032 16.248 122.598 16.248C120.051 16.216 117.89 17.104 116.096 18.92C114.311 20.72 113.398 22.904 113.366 25.456C113.31 27.976 114.135 30.184 115.832 32.08C117.537 33.968 119.619 34.96 122.077 35.04C124.695 35.184 126.945 34.272 128.803 32.312C130.66 30.352 131.573 28.056 131.517 25.424Z" fill="#505050"/>
<path d="M151.173 30.488C151.333 32.64 150.589 34.504 148.915 36.08C147.25 37.656 145.32 38.376 143.151 38.232C141.149 38.096 139.468 37.288 138.106 35.808C136.745 34.328 136.081 32.568 136.081 30.536H139.388V31.336C139.388 32.16 139.828 32.992 140.733 33.88C141.621 34.76 142.574 35.176 143.575 35.144C144.912 35.112 145.977 34.712 146.754 33.928C147.45 33.2 147.811 32.248 147.843 31.072C147.875 29.024 146.714 27.624 144.368 26.872L141.573 25.984C138.643 25.072 137.114 23.072 136.978 20C136.889 18.16 137.514 16.584 138.851 15.272C140.18 13.96 141.782 13.264 143.647 13.176C145.264 13.088 146.778 13.616 148.195 14.752C149.604 15.88 150.365 17.28 150.485 18.96V19.672H147.138V19.12C147.138 18.272 146.778 17.584 146.065 17.064C145.352 16.544 144.544 16.28 143.615 16.28C142.718 16.312 141.95 16.624 141.293 17.248C140.637 17.864 140.3 18.64 140.276 19.568C140.164 21.28 141.181 22.504 143.335 23.224L146.089 24.152C149.244 25.208 150.941 27.336 151.173 30.488Z" fill="#505050"/>
<path d="M177.259 25.624V37.6H174.081V33.872C171.494 36.824 168.332 38.256 164.585 38.136C161.31 38.024 158.524 36.752 156.218 34.32C153.912 31.888 152.767 29 152.767 25.648C152.767 22.16 154.008 19.168 156.49 16.672C158.972 14.176 161.934 12.992 165.393 13.136C168.74 13.248 171.582 14.528 173.928 16.968C176.258 19.424 177.363 22.304 177.259 25.624ZM174.081 25.4C174.024 22.88 173.128 20.728 171.398 18.944C169.661 17.16 167.579 16.256 165.153 16.256C162.607 16.256 160.445 17.152 158.66 18.944C156.874 20.728 155.953 22.904 155.929 25.448C155.873 27.968 156.698 30.168 158.428 32.064C160.141 33.952 162.215 34.952 164.657 35.064C167.275 35.176 169.525 34.264 171.382 32.312C173.24 30.36 174.137 28.056 174.081 25.4Z" fill="#505050"/>
<path d="M183.32 37.608H180.142V5.32001H183.32V37.608Z" fill="#505050"/>
<path d="M207.532 27.344C207.532 30.448 206.539 33.024 204.546 35.088C202.552 37.152 200.03 38.192 196.995 38.192C193.961 38.192 191.439 37.16 189.445 35.088C187.452 33.016 186.459 30.448 186.459 27.344V13.728H189.637V27.744C189.637 29.76 190.366 31.488 191.847 32.928C193.32 34.368 195.034 35.088 196.995 35.088C198.957 35.088 200.679 34.36 202.144 32.928C203.617 31.488 204.354 29.76 204.354 27.744V13.744H207.532V27.344Z" fill="#505050"/>
<path d="M234.45 25.8C234.539 29.232 233.306 32.2 230.767 34.696C228.229 37.192 225.251 38.384 221.816 38.28C218.501 38.192 215.699 36.936 213.393 34.52C211.087 32.088 209.942 29.2 209.942 25.848C209.942 22.36 211.175 19.368 213.657 16.872C216.131 14.368 219.086 13.184 222.505 13.288C226.011 13.432 228.934 14.832 231.272 17.52V5.48804H234.45V25.8ZM231.272 25.544C231.216 23.024 230.327 20.864 228.614 19.064C226.9 17.264 224.81 16.368 222.352 16.368C219.838 16.336 217.677 17.224 215.875 19.04C214.074 20.856 213.153 23.024 213.129 25.576C213.097 28.096 213.937 30.304 215.643 32.2C217.348 34.096 219.43 35.08 221.888 35.168C224.506 35.312 226.756 34.392 228.614 32.432C230.471 30.472 231.36 28.184 231.272 25.544Z" fill="#505050"/>
<path d="M14.0677 47.224C14.0837 48.2 13.7394 49.048 13.0188 49.76C12.2982 50.472 11.4495 50.816 10.4647 50.784C9.51991 50.76 8.71924 50.4 8.0627 49.712C7.40615 49.024 7.07788 48.2 7.07788 47.24C7.07788 46.24 7.43818 45.4 8.13476 44.68C8.83934 43.968 9.68004 43.624 10.6488 43.656C11.6497 43.696 12.4824 44.104 13.1469 44.864V41.44H14.0517V47.224H14.0677ZM13.1549 47.144C13.1389 46.432 12.8827 45.808 12.3943 45.304C11.9059 44.792 11.3054 44.544 10.6088 44.544C9.89622 44.528 9.27971 44.784 8.76728 45.304C8.25486 45.816 7.99865 46.44 7.98263 47.168C7.97463 47.896 8.21482 48.52 8.69522 49.064C9.17562 49.608 9.77612 49.88 10.4807 49.912C11.2333 49.952 11.8659 49.688 12.4023 49.128C12.9387 48.56 13.187 47.904 13.1549 47.144Z" fill="#505050"/>
<path d="M22.0582 47.496H15.9571C16.0292 48.184 16.3174 48.744 16.8298 49.184C17.3423 49.624 17.9348 49.848 18.6313 49.84C19.7042 49.824 20.4729 49.328 20.9373 48.352H21.8981C21.6498 49.088 21.2095 49.664 20.617 50.088C20.0085 50.512 19.3439 50.736 18.5993 50.744C17.6705 50.76 16.8459 50.416 16.1333 49.72C15.4207 49.024 15.0524 48.192 15.0284 47.232C15.0123 46.216 15.3646 45.336 16.1093 44.592C16.8539 43.856 17.7266 43.52 18.7434 43.568C19.6482 43.624 20.4328 44 21.1054 44.688C21.7539 45.376 22.0662 46.136 22.0662 46.976V47.488H22.0582V47.496ZM21.1695 46.664C21.0413 46.024 20.7451 45.52 20.2727 45.12C19.8003 44.72 19.2398 44.52 18.5993 44.52C17.9428 44.512 17.3743 44.704 16.8939 45.112C16.4135 45.52 16.0932 46.024 15.9651 46.672H21.1695V46.664Z" fill="#505050"/>
<path d="M25.5331 44.56C25.1088 44.576 24.7725 44.696 24.5083 44.904C24.2441 45.112 24.0679 45.312 23.9718 45.464C23.8117 45.728 23.7477 46.072 23.7477 46.52V50.584H22.7869V43.784H23.6356V44.752C23.8277 44.384 24.108 44.104 24.4843 43.904C24.8206 43.72 25.1809 43.632 25.5331 43.648V44.56Z" fill="#505050"/>
<path d="M35.5335 50.584H34.5887V46.4C34.5887 45.88 34.4366 45.424 34.1323 45.048C33.8361 44.672 33.4277 44.488 32.9393 44.488C32.4429 44.488 32.0026 44.656 31.6503 44.984C31.282 45.312 31.1058 45.72 31.1058 46.2V50.584H30.153V46.2C30.153 45.72 29.9689 45.312 29.6166 44.984C29.2483 44.656 28.8239 44.488 28.3275 44.488C27.8311 44.488 27.4388 44.672 27.1505 45.048C26.8623 45.416 26.7102 45.872 26.7102 46.4V50.584H25.7654V46.52C25.7654 45.672 26.0056 44.984 26.486 44.464C26.9424 43.976 27.5349 43.704 28.2715 43.64C29.2563 43.568 30.0409 43.976 30.6334 44.904C31.2179 43.976 32.0106 43.56 32.9954 43.64C33.74 43.712 34.3405 43.976 34.7969 44.464C35.2853 44.984 35.5415 45.664 35.5415 46.52V50.584H35.5335Z" fill="#505050"/>
<path d="M43.484 47.176V50.592H42.5793V49.528C41.8507 50.368 40.9379 50.768 39.873 50.744C38.9363 50.712 38.1436 50.352 37.4951 49.656C36.8385 48.96 36.5103 48.144 36.5103 47.184C36.5103 46.192 36.8706 45.344 37.5671 44.624C38.2717 43.912 39.1204 43.584 40.1052 43.624C41.058 43.656 41.8667 44.024 42.5393 44.712C43.1958 45.408 43.5161 46.232 43.484 47.176ZM42.5793 47.104C42.5633 46.392 42.3071 45.776 41.8187 45.264C41.3303 44.752 40.7298 44.504 40.0332 44.504C39.3046 44.504 38.6881 44.76 38.1836 45.264C37.6712 45.776 37.415 46.392 37.415 47.12C37.399 47.832 37.6392 48.464 38.1276 49C38.616 49.536 39.2085 49.824 39.8971 49.856C40.6497 49.888 41.2822 49.624 41.8187 49.072C42.3471 48.528 42.5873 47.856 42.5793 47.104Z" fill="#505050"/>
<path d="M46.9189 50.728C45.2695 50.728 44.4448 50.024 44.4448 48.616V41.392H45.3496V43.768H46.9189V44.616H45.3496V48.456C45.3496 49.472 45.87 49.968 46.9189 49.968V50.728Z" fill="#505050"/>
<path d="M53.7004 47.184C53.7004 48.16 53.3401 49.008 52.6276 49.728C51.915 50.44 51.0743 50.776 50.0894 50.752C49.1447 50.736 48.344 50.368 47.6875 49.68C47.0309 48.984 46.7026 48.168 46.7026 47.208C46.7026 46.216 47.0629 45.368 47.7595 44.648C48.4641 43.936 49.3128 43.592 50.2816 43.624C51.2264 43.656 52.0271 44.024 52.6916 44.712C53.3722 45.408 53.7004 46.232 53.7004 47.184ZM52.7957 47.104C52.7797 46.392 52.5155 45.776 52.0271 45.264C51.5387 44.752 50.9462 44.504 50.2576 44.504C49.537 44.496 48.9125 44.744 48.408 45.264C47.8956 45.776 47.6394 46.408 47.6234 47.128C47.6074 47.848 47.8476 48.48 48.328 49.016C48.8084 49.552 49.4089 49.84 50.1135 49.864C50.8661 49.904 51.4986 49.64 52.0351 49.08C52.5555 48.52 52.8197 47.856 52.7957 47.104Z" fill="#505050"/>
<path d="M55.5261 50.584H54.6213V41.384H55.5261V50.584Z" fill="#505050"/>
<path d="M63.5408 47.184C63.5408 48.16 63.1805 49.008 62.4679 49.728C61.7553 50.44 60.9146 50.776 59.9298 50.752C58.985 50.736 58.1843 50.368 57.5278 49.68C56.8712 48.984 56.543 48.168 56.543 47.208C56.543 46.216 56.9033 45.368 57.5998 44.648C58.3044 43.936 59.1531 43.592 60.1299 43.624C61.0747 43.656 61.8754 44.024 62.5399 44.712C63.1965 45.408 63.5408 46.232 63.5408 47.184ZM62.628 47.104C62.612 46.392 62.3478 45.776 61.8594 45.264C61.371 44.752 60.7785 44.504 60.0899 44.504C59.3613 44.496 58.7448 44.744 58.2404 45.264C57.7279 45.776 57.4717 46.408 57.4557 47.128C57.4397 47.848 57.6799 48.48 58.1603 49.016C58.6407 49.552 59.2412 49.84 59.9458 49.864C60.6984 49.904 61.3309 49.64 61.8674 49.08C62.3878 48.52 62.636 47.856 62.628 47.104Z" fill="#505050"/>
<path d="M71.4272 47.128V50.264C71.4272 51.12 71.0829 51.832 70.3783 52.4C69.6737 52.96 68.873 53.232 67.9683 53.2C67.1596 53.168 66.455 52.92 65.8705 52.456C65.3101 52.016 64.9418 51.44 64.7496 50.744H65.6303C65.7665 51.216 66.0627 51.616 66.5351 51.952C66.9995 52.296 67.5199 52.464 68.0644 52.464C68.7289 52.456 69.3054 52.224 69.7858 51.768C70.2822 51.312 70.5224 50.76 70.5224 50.128V49.48C69.8579 50.232 69.0252 50.64 68.0243 50.68C67.0555 50.712 66.2148 50.368 65.5102 49.664C64.8057 48.96 64.4534 48.104 64.4534 47.104C64.4534 46.152 64.7816 45.328 65.4382 44.648C66.0947 43.952 66.8954 43.592 67.8402 43.568C68.809 43.544 69.6577 43.88 70.3863 44.6C71.0989 45.304 71.4512 46.144 71.4272 47.128ZM70.5304 47.192C70.5464 46.44 70.2982 45.792 69.7698 45.232C69.2413 44.672 68.6008 44.408 67.8562 44.44C67.1516 44.472 66.5671 44.76 66.0707 45.296C65.5743 45.84 65.3421 46.464 65.3581 47.176C65.3741 47.904 65.6384 48.52 66.1428 49.032C66.6552 49.544 67.2637 49.792 67.9843 49.792C68.6889 49.792 69.2734 49.544 69.7698 49.032C70.2582 48.52 70.5064 47.912 70.5304 47.192Z" fill="#505050"/>
<path d="M73.2206 50.64H72.3879V43.648H73.2206V50.64Z" fill="#505050"/>
<path d="M81.1313 47.176V50.592H80.2265V49.528C79.4979 50.368 78.5851 50.768 77.5203 50.744C76.5835 50.712 75.7988 50.352 75.1423 49.656C74.4857 48.96 74.1575 48.144 74.1575 47.184C74.1575 46.192 74.5178 45.344 75.2143 44.624C75.9189 43.912 76.7676 43.584 77.7444 43.624C78.6972 43.656 79.5059 44.024 80.1785 44.712C80.843 45.408 81.1553 46.232 81.1313 47.176ZM80.2265 47.104C80.2105 46.392 79.9543 45.776 79.4659 45.264C78.9775 44.752 78.377 44.504 77.6804 44.504C76.9598 44.504 76.3353 44.76 75.8309 45.264C75.3184 45.776 75.0622 46.392 75.0622 47.12C75.0462 47.832 75.2864 48.464 75.7748 49C76.2712 49.544 76.8557 49.824 77.5523 49.856C78.3049 49.888 78.9374 49.624 79.4659 49.072C79.9943 48.528 80.2425 47.856 80.2265 47.104Z" fill="#505050"/>
<path d="M83.6133 49.048L82.5964 51.464H81.6597L82.7005 49.048H83.6133Z" fill="#505050"/>
<path d="M100.267 50.584H99.3223V46.4C99.3223 45.88 99.1702 45.424 98.866 45.048C98.5697 44.672 98.1614 44.488 97.673 44.488C97.1766 44.488 96.7362 44.656 96.3839 44.984C96.0156 45.312 95.8475 45.72 95.8475 46.2V50.584H94.8867V46.2C94.8867 45.72 94.7025 45.312 94.3502 44.984C93.9819 44.656 93.5576 44.488 93.0612 44.488C92.5727 44.488 92.1724 44.672 91.8842 45.048C91.5959 45.416 91.4438 45.872 91.4438 46.4V50.584H90.499V46.52C90.499 45.672 90.7392 44.984 91.2196 44.464C91.676 43.976 92.2685 43.704 93.0051 43.64C93.9899 43.568 94.7826 43.976 95.3671 44.904C95.9516 43.976 96.7442 43.56 97.729 43.64C98.4736 43.712 99.0661 43.976 99.5305 44.464C100.019 44.984 100.275 45.664 100.275 46.52V50.584H100.267Z" fill="#505050"/>
<path d="M108.266 47.496H102.165C102.229 48.184 102.525 48.744 103.029 49.184C103.534 49.624 104.134 49.848 104.831 49.84C105.904 49.824 106.672 49.328 107.137 48.352H108.098C107.849 49.088 107.409 49.664 106.817 50.088C106.208 50.512 105.543 50.736 104.799 50.744C103.87 50.76 103.045 50.416 102.333 49.72C101.62 49.024 101.252 48.192 101.236 47.232C101.22 46.216 101.572 45.336 102.317 44.592C103.061 43.856 103.934 43.52 104.951 43.568C105.856 43.624 106.64 44 107.313 44.688C107.961 45.376 108.282 46.136 108.282 46.976V47.488H108.266V47.496ZM107.377 46.664C107.249 46.024 106.953 45.52 106.48 45.12C106.008 44.72 105.447 44.52 104.807 44.52C104.15 44.512 103.582 44.704 103.101 45.112C102.613 45.52 102.301 46.024 102.173 46.672H107.377V46.664Z" fill="#505050"/>
<path d="M115.88 47.224C115.896 48.2 115.552 49.048 114.831 49.76C114.103 50.472 113.262 50.816 112.277 50.784C111.332 50.76 110.532 50.4 109.875 49.712C109.219 49.024 108.89 48.2 108.89 47.24C108.89 46.24 109.251 45.4 109.947 44.68C110.644 43.96 111.493 43.624 112.461 43.656C113.462 43.696 114.295 44.104 114.959 44.864V41.44H115.864V47.224H115.88ZM114.975 47.144C114.959 46.432 114.703 45.808 114.215 45.304C113.726 44.792 113.126 44.544 112.429 44.544C111.717 44.528 111.1 44.784 110.588 45.304C110.075 45.816 109.819 46.44 109.811 47.168C109.803 47.896 110.043 48.52 110.524 49.064C111.004 49.608 111.605 49.88 112.309 49.912C113.062 49.952 113.694 49.688 114.223 49.128C114.751 48.56 115.007 47.904 114.975 47.144Z" fill="#505050"/>
<path d="M117.754 42.976H116.849V41.392H117.754V42.976ZM117.754 50.584H116.849V43.784H117.754V50.584Z" fill="#505050"/>
<path d="M125.784 48.576L125.688 48.776C124.976 50.096 123.871 50.744 122.374 50.736C121.389 50.728 120.54 50.376 119.827 49.696C119.115 49.008 118.747 48.184 118.739 47.208C118.723 46.224 119.075 45.376 119.787 44.672C120.508 43.968 121.365 43.608 122.374 43.592C123.086 43.584 123.751 43.776 124.375 44.152C124.96 44.52 125.392 44.984 125.64 45.536L125.776 45.84H124.744C124.231 44.952 123.454 44.504 122.398 44.48C121.693 44.464 121.068 44.72 120.508 45.24C119.932 45.784 119.643 46.424 119.643 47.16C119.643 47.904 119.916 48.544 120.452 49.072C120.988 49.6 121.637 49.864 122.366 49.856C123.422 49.84 124.215 49.416 124.736 48.584H125.776V48.576H125.784Z" fill="#505050"/>
<path d="M127.169 42.976H126.265V41.392H127.169V42.976ZM127.169 50.584H126.265V43.784H127.169V50.584Z" fill="#505050"/>
<path d="M134.151 50.584H133.247V46.608C133.247 46.04 133.03 45.544 132.614 45.128C132.198 44.712 131.709 44.512 131.149 44.512C130.58 44.512 130.092 44.712 129.66 45.128C129.243 45.544 129.035 46.032 129.035 46.608V50.584H128.13V46.704C128.13 45.824 128.419 45.088 128.987 44.504C129.556 43.92 130.276 43.624 131.149 43.624C132.006 43.624 132.718 43.912 133.287 44.504C133.855 45.096 134.143 45.832 134.143 46.704V50.584H134.151Z" fill="#505050"/>
<path d="M142.078 47.176V50.592H141.173V49.528C140.444 50.368 139.532 50.768 138.467 50.744C137.53 50.712 136.737 50.352 136.089 49.656C135.432 48.96 135.104 48.144 135.104 47.184C135.104 46.192 135.464 45.344 136.161 44.624C136.865 43.912 137.714 43.584 138.691 43.624C139.644 43.656 140.452 44.024 141.125 44.712C141.79 45.408 142.102 46.232 142.078 47.176ZM141.165 47.104C141.149 46.392 140.893 45.776 140.404 45.264C139.916 44.752 139.315 44.504 138.635 44.504C137.914 44.504 137.29 44.76 136.785 45.264C136.273 45.776 136.017 46.392 136.017 47.12C136.001 47.832 136.241 48.464 136.729 49C137.226 49.544 137.81 49.824 138.507 49.856C139.259 49.888 139.892 49.624 140.42 49.072C140.925 48.52 141.173 47.856 141.165 47.104Z" fill="#505050"/>
<path d="M156.017 47.496H149.916C149.98 48.184 150.285 48.744 150.781 49.184C151.294 49.624 151.894 49.848 152.583 49.84C153.656 49.824 154.424 49.328 154.873 48.352H155.833C155.585 49.088 155.153 49.664 154.552 50.088C153.944 50.512 153.279 50.736 152.535 50.744C151.606 50.76 150.781 50.416 150.069 49.72C149.356 49.024 148.988 48.192 148.972 47.232C148.94 46.216 149.308 45.336 150.053 44.592C150.797 43.856 151.67 43.52 152.687 43.568C153.591 43.624 154.376 44 155.049 44.688C155.689 45.376 156.009 46.136 156.009 46.976V47.496H156.017ZM155.113 46.664C154.985 46.024 154.688 45.52 154.216 45.12C153.744 44.72 153.183 44.52 152.535 44.52C151.878 44.512 151.31 44.704 150.829 45.112C150.341 45.512 150.029 46.024 149.9 46.672H155.105V46.664H155.113Z" fill="#505050"/>
<path d="M160.765 48.56C160.813 49.168 160.597 49.696 160.117 50.152C159.644 50.592 159.092 50.808 158.467 50.768C157.899 50.728 157.419 50.496 157.034 50.072C156.65 49.648 156.458 49.144 156.458 48.568H157.403V48.8C157.403 49.032 157.531 49.272 157.787 49.528C158.043 49.784 158.307 49.896 158.596 49.888C158.98 49.88 159.284 49.76 159.5 49.544C159.7 49.344 159.797 49.056 159.805 48.728C159.813 48.152 159.492 47.744 158.812 47.528L158.011 47.28C157.17 47.024 156.738 46.448 156.698 45.568C156.682 45.048 156.85 44.592 157.226 44.216C157.603 43.84 158.067 43.648 158.596 43.616C159.06 43.584 159.492 43.744 159.885 44.056C160.293 44.376 160.501 44.784 160.541 45.256V45.456H159.588V45.304C159.588 45.064 159.484 44.872 159.276 44.712C159.076 44.56 158.844 44.488 158.58 44.488C158.331 44.496 158.107 44.584 157.915 44.768C157.731 44.936 157.635 45.16 157.627 45.424C157.595 45.904 157.883 46.264 158.491 46.464L159.284 46.72C160.221 47.048 160.701 47.656 160.765 48.56Z" fill="#505050"/>
<path d="M164.12 50.728C162.471 50.728 161.646 50.024 161.646 48.616V41.392H162.551V43.768H164.12V44.616H162.551V48.456C162.551 49.472 163.071 49.968 164.12 49.968V50.728Z" fill="#505050"/>
<path d="M170.966 47.496H164.865C164.937 48.184 165.233 48.744 165.737 49.184C166.25 49.624 166.842 49.848 167.539 49.84C168.612 49.824 169.38 49.328 169.837 48.352H170.798C170.549 49.088 170.109 49.664 169.517 50.088C168.908 50.512 168.244 50.736 167.499 50.744C166.57 50.76 165.745 50.416 165.033 49.72C164.32 49.024 163.952 48.192 163.928 47.232C163.896 46.216 164.264 45.336 165.009 44.592C165.753 43.856 166.626 43.52 167.643 43.568C168.548 43.624 169.332 44 170.005 44.688C170.654 45.376 170.974 46.136 170.974 46.976V47.496H170.966ZM170.069 46.664C169.941 46.024 169.645 45.52 169.172 45.12C168.7 44.72 168.139 44.52 167.499 44.52C166.842 44.512 166.274 44.704 165.793 45.112C165.305 45.512 164.993 46.024 164.865 46.672H170.069V46.664Z" fill="#505050"/>
<path d="M174.256 50.728C172.607 50.728 171.774 50.024 171.774 48.616V41.392H172.679V43.768H174.248V44.616H172.679V48.456C172.679 49.472 173.2 49.968 174.248 49.968V50.728H174.256Z" fill="#505050"/>
<path d="M175.946 42.976H175.041V41.392H175.946V42.976ZM175.946 50.584H175.041V43.784H175.946V50.584Z" fill="#505050"/>
<path d="M183.985 48.576L183.889 48.776C183.176 50.096 182.063 50.744 180.574 50.736C179.589 50.728 178.74 50.376 178.02 49.696C177.307 49.008 176.939 48.184 176.939 47.208C176.923 46.224 177.275 45.376 177.988 44.672C178.716 43.968 179.573 43.608 180.574 43.592C181.286 43.584 181.951 43.776 182.583 44.152C183.168 44.52 183.592 44.984 183.84 45.536L183.977 45.84H182.944C182.431 44.952 181.655 44.504 180.598 44.48C179.893 44.464 179.269 44.72 178.708 45.24C178.132 45.784 177.835 46.424 177.835 47.16C177.835 47.904 178.108 48.544 178.644 49.072C179.189 49.6 179.829 49.864 180.558 49.856C181.615 49.84 182.407 49.416 182.928 48.584H183.969V48.576H183.985Z" fill="#505050"/>
<path d="M191.095 47.176V50.592H190.19V49.528C189.453 50.368 188.548 50.768 187.476 50.744C186.539 50.712 185.754 50.352 185.098 49.656C184.441 48.96 184.113 48.144 184.113 47.184C184.113 46.192 184.473 45.344 185.17 44.624C185.874 43.912 186.723 43.584 187.7 43.624C188.661 43.656 189.461 44.024 190.134 44.712C190.814 45.408 191.135 46.232 191.095 47.176ZM190.19 47.104C190.166 46.392 189.918 45.776 189.429 45.264C188.941 44.752 188.34 44.504 187.66 44.504C186.939 44.504 186.315 44.76 185.81 45.264C185.298 45.776 185.042 46.392 185.042 47.12C185.018 47.832 185.258 48.464 185.754 49C186.243 49.544 186.835 49.824 187.524 49.856C188.276 49.888 188.909 49.624 189.437 49.072C189.942 48.52 190.206 47.856 190.19 47.104Z" fill="#505050"/>
<path d="M204.41 43.784L200.566 52.952H199.606L200.622 50.368L198.02 43.768H199.005L201.175 49.184L203.473 43.768H204.418V43.784H204.41Z" fill="#505050"/>
<path d="M212.016 50.584H211.119V41.384H212.024V50.584H212.016Z" fill="#505050"/>
<path d="M220.015 47.176V50.592H219.11V49.528C218.381 50.368 217.468 50.768 216.404 50.744C215.467 50.712 214.674 50.352 214.026 49.656C213.369 48.96 213.041 48.144 213.041 47.184C213.041 46.192 213.401 45.344 214.098 44.624C214.802 43.912 215.651 43.584 216.636 43.624C217.589 43.656 218.397 44.024 219.07 44.712C219.726 45.408 220.039 46.232 220.015 47.176ZM219.11 47.104C219.094 46.392 218.838 45.776 218.349 45.264C217.861 44.752 217.26 44.504 216.58 44.504C215.851 44.504 215.235 44.76 214.73 45.264C214.218 45.776 213.962 46.392 213.962 47.12C213.946 47.832 214.186 48.464 214.674 49C215.171 49.544 215.755 49.824 216.444 49.856C217.196 49.888 217.829 49.624 218.365 49.072C218.87 48.52 219.118 47.856 219.11 47.104Z" fill="#505050"/>
<path d="M225.267 48.56C225.315 49.168 225.099 49.696 224.618 50.152C224.146 50.592 223.601 50.808 222.969 50.768C222.4 50.728 221.92 50.496 221.536 50.072C221.151 49.648 220.959 49.144 220.959 48.568H221.904V48.8C221.904 49.032 222.032 49.272 222.288 49.528C222.553 49.776 222.809 49.896 223.097 49.888C223.481 49.88 223.786 49.76 224.002 49.544C224.202 49.344 224.306 49.056 224.314 48.728C224.322 48.152 223.994 47.744 223.321 47.528L222.521 47.28C221.68 47.024 221.247 46.448 221.207 45.568C221.191 45.048 221.36 44.592 221.736 44.216C222.112 43.84 222.577 43.648 223.105 43.616C223.569 43.584 224.002 43.744 224.394 44.056C224.802 44.376 225.011 44.784 225.051 45.256V45.456H224.098V45.304C224.098 45.064 223.994 44.872 223.786 44.712C223.585 44.56 223.353 44.488 223.089 44.488C222.841 44.496 222.617 44.584 222.424 44.768C222.24 44.936 222.144 45.16 222.136 45.424C222.104 45.904 222.392 46.264 223.009 46.464L223.794 46.72C224.714 47.048 225.203 47.656 225.267 48.56Z" fill="#505050"/>
<path d="M232.881 47.496H226.78C226.844 48.184 227.149 48.744 227.645 49.184C228.157 49.624 228.758 49.848 229.446 49.84C230.519 49.824 231.288 49.328 231.744 48.352H232.705C232.457 49.088 232.017 49.664 231.424 50.088C230.816 50.512 230.151 50.736 229.406 50.744C228.478 50.76 227.653 50.416 226.94 49.72C226.228 49.024 225.859 48.192 225.843 47.232C225.811 46.216 226.18 45.336 226.924 44.592C227.669 43.856 228.542 43.52 229.559 43.568C230.463 43.624 231.248 44 231.921 44.688C232.561 45.376 232.881 46.136 232.881 46.976V47.496ZM231.985 46.664C231.856 46.024 231.56 45.52 231.088 45.12C230.615 44.72 230.055 44.52 229.414 44.52C228.758 44.512 228.189 44.704 227.709 45.112C227.213 45.512 226.908 46.024 226.78 46.672H231.985V46.664Z" fill="#505050"/>
<path d="M236.356 44.56C235.932 44.576 235.596 44.696 235.339 44.904C235.075 45.12 234.899 45.312 234.795 45.464C234.643 45.728 234.563 46.072 234.563 46.52V50.584H233.61V43.784H234.459V44.752C234.651 44.384 234.931 44.104 235.307 43.904C235.644 43.72 236.004 43.632 236.356 43.648V44.56Z" fill="#505050"/>
</svg>
