<svg width="229" height="56" viewBox="0 0 229 56" fill="none" xmlns="http://www.w3.org/2000/svg">
<g clip-path="url(#clip0_58_5918)">
<path d="M13.4154 17.4767V37.4768H14.8308V17.4767L19.077 9.72278H9.16919L13.4154 17.4767Z" fill="#F39200"/>
<path d="M42.6464 16.4305H39.7541H39.3849H38.031V31.0153H39.3849H39.7541H42.6464C43.8772 31.0153 44.8618 30.8306 45.7234 30.3999C46.5234 29.9691 47.2003 29.4152 47.5695 28.6152C48.0003 27.8152 48.1849 26.8922 48.1849 25.7229V21.5998C48.1849 19.8767 47.6926 18.5844 46.7695 17.7229C45.8464 16.8613 44.4311 16.4305 42.6464 16.4305ZM46.4003 25.846C46.4003 27.0152 46.0926 27.8768 45.4772 28.4306C44.8618 29.046 43.9387 29.3537 42.708 29.3537H39.7541V18.0921H42.708C43.9387 18.0921 44.8618 18.3998 45.4772 19.0152C46.0926 19.6306 46.4003 20.4921 46.4003 21.5998V25.846Z" fill="black"/>
<path d="M56.3694 20.6767C56.0002 20.5536 55.5694 20.4921 55.0771 20.4921C54.4002 20.4921 53.7848 20.6767 53.2309 20.9844C52.8002 21.2921 52.3694 21.6613 52.0617 22.0921V20.6151H50.3386V31.0152H52.0617V24.4306C52.0617 23.6921 52.2463 23.1382 52.6771 22.7075C53.1079 22.2767 53.6617 22.0921 54.4617 22.0921C54.831 22.0921 55.2002 22.1536 55.5079 22.2767C55.8156 22.3998 56.0617 22.5844 56.2464 22.769L57.3541 21.2305C57.0464 20.9844 56.7387 20.7998 56.3694 20.6767Z" fill="black"/>
<path d="M58.4004 29.1075H56.4927V31.0153H58.4004V29.1075Z" fill="black"/>
<path d="M67.4465 18.9536C68.0619 18.2767 68.8619 17.9075 69.8465 17.9075C70.3388 17.9075 70.7696 18.0305 71.2003 18.2152C71.6311 18.3998 72.0003 18.7075 72.3696 19.1382C72.7388 19.569 72.9234 19.9998 73.108 20.4921H74.8927C74.708 19.6305 74.4004 18.8921 73.908 18.2767C73.4157 17.6613 72.8619 17.169 72.185 16.7998C71.508 16.4305 70.708 16.2459 69.8465 16.2459C68.8003 16.2459 67.9388 16.4921 67.2003 16.9228C66.4618 17.3536 65.8465 18.0305 65.4157 18.8305C64.9849 19.6305 64.8003 20.6152 64.8003 21.7229V25.7229C64.8003 26.8306 64.9849 27.7537 65.4157 28.6152C65.8465 29.4768 66.4618 30.0922 67.2003 30.5229C67.9388 30.9537 68.8619 31.1999 69.8465 31.1999C70.708 31.1999 71.4465 31.0152 72.185 30.646C72.9234 30.2768 73.4773 29.7845 73.908 29.1691C74.3388 28.5537 74.708 27.8152 74.8927 26.9537H73.108C72.8619 27.7537 72.4926 28.4306 71.8157 28.8614C71.2003 29.2922 70.5234 29.5383 69.8465 29.5383C68.8619 29.5383 68.0619 29.1691 67.4465 28.4921C66.8311 27.8152 66.5234 26.8921 66.5234 25.7229V21.7229C66.5234 20.6152 66.8311 19.6921 67.4465 18.9536Z" fill="black"/>
<path d="M81.2927 20.4305C80.6158 20.4305 80.0004 20.6152 79.4465 20.9229C79.0158 21.2305 78.585 21.5998 78.2773 22.0306V20.5536H76.5542V30.9537H78.2773V24.4306C78.2773 23.6921 78.4619 23.1383 78.8927 22.7075C79.3234 22.2767 79.8773 22.0921 80.6773 22.0921C81.0465 22.0921 81.4158 22.1536 81.7235 22.2767C82.0312 22.3998 82.2773 22.5844 82.4619 22.769L83.5696 21.2305C83.2619 20.9844 82.9542 20.7382 82.585 20.6152C82.2158 20.4921 81.785 20.4305 81.2927 20.4305Z" fill="black"/>
<path d="M86.1542 16.4305H84.4312V18.1536H86.1542V16.4305Z" fill="black"/>
<path d="M86.1542 20.6152H84.4312V31.0152H86.1542V20.6152Z" fill="black"/>
<path d="M95.2004 25.4767C94.8312 25.2921 94.4004 25.1691 93.9697 25.1075C93.5389 25.046 93.1081 24.9844 92.6774 24.9844C92.185 24.9844 91.6927 24.9229 91.262 24.8614C90.8312 24.7998 90.462 24.6767 90.2158 24.5537C89.9696 24.369 89.8466 24.1229 89.8466 23.7537C89.8466 23.1998 90.0312 22.8306 90.462 22.5229C90.8927 22.2152 91.4466 22.0921 92.2466 22.0921C92.7389 22.0921 93.2312 22.1536 93.7235 22.3383C94.2158 22.5229 94.7697 22.769 95.262 23.0767L96.3081 21.846C95.7543 21.4152 95.0774 21.1075 94.4004 20.9229C93.7235 20.7383 92.985 20.6152 92.2466 20.6152C90.8927 20.6152 89.9081 20.9229 89.1696 21.4152C88.4312 21.9075 88.1235 22.769 88.1235 23.8152C88.1235 24.4306 88.2466 24.8614 88.4312 25.2306C88.6158 25.5998 88.9235 25.846 89.2312 26.0306C89.5389 26.2152 89.9696 26.3383 90.3389 26.3998C90.7081 26.4614 91.2004 26.5229 91.5697 26.5229C92.1235 26.5844 92.6774 26.5844 93.1081 26.646C93.6004 26.7075 93.9697 26.8306 94.2774 27.0152C94.5851 27.1998 94.7081 27.5075 94.7081 27.9998C94.7081 28.5537 94.462 28.9845 93.9697 29.2922C93.4774 29.5998 92.8004 29.7229 91.8774 29.7229C91.3235 29.7229 90.7696 29.5998 90.1543 29.4152C89.5389 29.2306 88.985 28.9229 88.4312 28.4921L87.385 29.7229C87.9389 30.2152 88.6158 30.5845 89.3543 30.8306C90.0927 31.0768 90.9543 31.1999 91.8158 31.1999C93.2312 31.1999 94.3389 30.8922 95.0774 30.3383C95.8158 29.7845 96.1851 28.9845 96.1851 27.9383C96.1851 27.2614 96.062 26.7691 95.8158 26.3383C95.8774 25.9691 95.5697 25.6614 95.2004 25.4767Z" fill="black"/>
<path d="M100.062 17.5382H98.3389V20.5536H97.2312V22.1536H98.3389V28.3075C98.3389 29.2306 98.5235 29.9075 98.8927 30.3383C99.262 30.8306 99.8774 31.0768 100.739 31.0768H101.908V29.4152H100.924C100.616 29.4152 100.431 29.2921 100.247 29.1075C100.124 28.9229 100 28.6152 100 28.3075V22.1536H101.908V20.6152H100V17.5382H100.062Z" fill="black"/>
<path d="M105.601 20.6152H103.877V31.0152H105.601V20.6152Z" fill="black"/>
<path d="M105.601 16.4305H103.877V18.1536H105.601V16.4305Z" fill="black"/>
<path d="M111.57 20.4305C110.77 20.4305 110.093 20.5536 109.416 20.7998C108.739 21.0459 108.247 21.4152 107.878 21.9075L109.17 22.769C109.539 22.5229 109.908 22.2767 110.339 22.1536C110.77 22.0306 111.201 21.969 111.693 21.969C112.431 21.969 113.047 22.1536 113.416 22.5844C113.785 23.0152 114.031 23.6306 114.031 24.369V24.7998H110.893C109.724 24.7998 108.862 25.046 108.308 25.5998C107.693 26.0921 107.385 26.8921 107.385 27.8767C107.385 28.9229 107.693 29.7229 108.37 30.2768C109.047 30.8306 109.97 31.0768 111.201 31.0768C111.693 31.0768 112.062 31.0152 112.493 30.9537C112.862 30.8922 113.231 30.7691 113.478 30.5845C113.662 30.4614 113.847 30.3383 114.031 30.1537V30.8922H115.755V24.3075C115.755 23.0767 115.385 22.1536 114.647 21.4152C113.908 20.7998 112.862 20.4305 111.57 20.4305ZM113.293 29.4152C112.862 29.5998 112.185 29.6614 111.385 29.6614C110.585 29.6614 110.031 29.5383 109.601 29.2306C109.17 28.9229 108.985 28.4921 108.985 27.9383C108.985 27.446 109.108 27.0152 109.478 26.769C109.785 26.5229 110.278 26.3383 110.831 26.3383H113.97V28.6152C113.97 28.9844 113.785 29.2306 113.293 29.4152Z" fill="black"/>
<path d="M122.585 20.4305C121.909 20.4305 121.293 20.6152 120.678 20.9229C120.185 21.169 119.816 21.5382 119.508 22.0306V20.5536H117.785V30.9537H119.508V24.4306C119.508 23.6921 119.693 23.1383 120.124 22.7075C120.555 22.2767 121.109 22.0921 121.909 22.0921C122.709 22.0921 123.324 22.3382 123.755 22.769C124.185 23.1998 124.432 23.8767 124.432 24.6767V31.0152H126.155V24.6767C126.155 23.3229 125.847 22.2767 125.232 21.5382C124.616 20.7998 123.693 20.4305 122.585 20.4305Z" fill="black"/>
<path d="M135.324 18.9536C135.939 18.2767 136.739 17.9075 137.724 17.9075C138.216 17.9075 138.647 18.0305 139.078 18.2152C139.509 18.3998 139.939 18.7075 140.247 19.1382C140.555 19.569 140.801 19.9998 140.986 20.4921H142.77C142.586 19.6305 142.278 18.8921 141.786 18.2767C141.293 17.6613 140.739 17.169 140.001 16.7998C139.324 16.4305 138.524 16.2459 137.662 16.2459C136.678 16.2459 135.755 16.4921 135.016 16.9228C134.278 17.3536 133.662 18.0305 133.232 18.8305C132.801 19.6305 132.616 20.6152 132.616 21.7229V25.7229C132.616 26.8306 132.801 27.7537 133.232 28.6152C133.662 29.4152 134.216 30.0922 135.016 30.5229C135.816 30.9537 136.678 31.1999 137.662 31.1999C138.524 31.1999 139.262 31.0152 140.001 30.646C140.739 30.2768 141.293 29.7845 141.786 29.1691C142.278 28.5537 142.586 27.8152 142.77 26.9537H140.986C140.739 27.7537 140.37 28.4306 139.693 28.8614C139.078 29.2922 138.401 29.5383 137.724 29.5383C136.739 29.5383 135.939 29.1691 135.324 28.4921C134.709 27.8152 134.401 26.8921 134.401 25.7229V21.7229C134.401 20.6152 134.709 19.6921 135.324 18.9536Z" fill="black"/>
<path d="M148.37 20.4305C147.016 20.4305 145.97 20.7998 145.17 21.5998C144.37 22.3998 144.062 23.5075 144.062 24.9229V26.646C144.062 28.0614 144.432 29.2306 145.17 29.9691C145.909 30.7691 146.955 31.1383 148.37 31.1383C149.786 31.1383 150.77 30.7691 151.509 29.9691C152.247 29.1691 152.616 28.0614 152.616 26.646V24.9229C152.616 23.5075 152.247 22.3998 151.509 21.5998C150.832 20.8613 149.786 20.4305 148.37 20.4305ZM150.955 26.646C150.955 27.5691 150.709 28.246 150.278 28.7383C149.847 29.2306 149.17 29.4768 148.37 29.4768C147.57 29.4768 146.955 29.2306 146.524 28.7383C146.093 28.246 145.847 27.5075 145.847 26.646V24.9229C145.847 23.9998 146.093 23.3229 146.524 22.8306C146.955 22.3382 147.57 22.0921 148.37 22.0921C149.17 22.0921 149.847 22.3382 150.278 22.8306C150.709 23.3229 150.955 23.9998 150.955 24.9229V26.646Z" fill="black"/>
<path d="M159.324 20.4305C158.647 20.4305 158.032 20.6152 157.478 20.9229C157.047 21.2305 156.616 21.5998 156.309 22.0306V20.5536H154.585V30.9537H156.309V24.4306C156.309 23.6921 156.493 23.1383 156.924 22.7075C157.355 22.2767 157.909 22.0921 158.709 22.0921C159.078 22.0921 159.447 22.1536 159.755 22.2767C160.062 22.3998 160.309 22.5844 160.493 22.769L161.601 21.2305C161.293 20.9844 160.985 20.7382 160.616 20.6152C160.247 20.4921 159.816 20.4305 159.324 20.4305Z" fill="black"/>
<path d="M168.37 21.969C168.063 21.4767 167.693 21.169 167.201 20.8613C166.647 20.5536 166.032 20.4306 165.355 20.4306C164.247 20.4306 163.386 20.7998 162.77 21.5383C162.155 22.2767 161.847 23.3229 161.847 24.6768V26.9537C161.847 28.3075 162.155 29.3537 162.77 30.0922C163.386 30.8306 164.309 31.1999 165.416 31.1999C166.155 31.1999 166.832 31.0153 167.324 30.7076C167.755 30.4614 168.063 30.0922 168.309 29.6614V31.0153H170.032V16.4305H168.309V21.969H168.37ZM168.063 28.4306C167.878 28.7999 167.632 29.1075 167.263 29.2922C166.893 29.5383 166.463 29.5999 165.97 29.5999C165.17 29.5999 164.616 29.3537 164.186 28.9229C163.755 28.4306 163.57 27.8152 163.57 26.9537V24.6768C163.57 23.8152 163.755 23.1383 164.186 22.646C164.616 22.1537 165.232 21.9075 165.97 21.9075C166.463 21.9075 166.893 22.0306 167.263 22.2152C167.632 22.3998 167.878 22.7075 168.063 23.0767C168.247 23.446 168.37 23.8152 168.37 24.3075V27.1383C168.37 27.6306 168.247 28.0614 168.063 28.4306Z" fill="black"/>
<path d="M176.247 20.4305C174.832 20.4305 173.786 20.8613 172.986 21.7229C172.186 22.5844 171.816 23.7536 171.816 25.3537V26.5229C171.816 27.9998 172.186 29.1691 172.986 29.9691C173.786 30.7691 174.893 31.1998 176.37 31.1998C177.047 31.1998 177.663 31.0768 178.34 30.7691C179.016 30.4614 179.57 30.0921 180.063 29.5998L178.893 28.4306C178.586 28.7383 178.155 29.046 177.724 29.2306C177.293 29.4152 176.863 29.5383 176.37 29.5383C175.447 29.5383 174.709 29.2921 174.216 28.7383C173.724 28.246 173.478 27.5075 173.478 26.5229H180.37V25.5998C180.37 23.9383 180.001 22.7075 179.263 21.7844C178.586 20.9229 177.601 20.4305 176.247 20.4305ZM178.77 25.046H173.539C173.539 24.1229 173.786 23.3844 174.216 22.8306C174.709 22.2767 175.386 22.0306 176.247 22.0306C176.986 22.0306 177.601 22.2767 178.032 22.8306C178.463 23.3844 178.709 24.0613 178.77 25.046Z" fill="black"/>
<path d="M186.955 20.4305C186.278 20.4305 185.663 20.6152 185.109 20.9229C184.678 21.2305 184.247 21.5998 183.94 22.0306V20.5536H182.155V30.9537H183.878V24.4306C183.878 23.6921 184.063 23.1383 184.493 22.7075C184.924 22.2767 185.478 22.0921 186.278 22.0921C186.647 22.0921 187.017 22.1536 187.324 22.2767C187.632 22.3998 187.878 22.5844 188.063 22.769L189.17 21.2305C188.863 20.9844 188.555 20.7382 188.186 20.6152C187.817 20.4921 187.386 20.4305 186.955 20.4305Z" fill="black"/>
<path d="M193.724 20.4305C192.37 20.4305 191.324 20.7998 190.524 21.5998C189.724 22.3998 189.417 23.5075 189.417 24.9229V26.646C189.417 28.0614 189.786 29.2306 190.524 29.9691C191.263 30.7691 192.309 31.1383 193.724 31.1383C195.14 31.1383 196.124 30.7691 196.863 29.9691C197.601 29.1691 197.97 28.0614 197.97 26.646V24.9229C197.97 23.5075 197.601 22.3998 196.863 21.5998C196.124 20.8613 195.078 20.4305 193.724 20.4305ZM196.247 26.646C196.247 27.5691 196.001 28.246 195.57 28.7383C195.14 29.2306 194.463 29.4768 193.663 29.4768C192.863 29.4768 192.247 29.2306 191.817 28.7383C191.386 28.246 191.14 27.5075 191.14 26.646V24.9229C191.14 23.9998 191.386 23.3229 191.817 22.8306C192.247 22.3382 192.863 22.0921 193.663 22.0921C194.463 22.0921 195.14 22.3382 195.57 22.8306C196.001 23.3229 196.247 23.9998 196.247 24.9229V26.646Z" fill="black"/>
<path d="M206.955 18.9536C207.571 18.2767 208.371 17.9075 209.355 17.9075C209.848 17.9075 210.278 18.0305 210.709 18.2152C211.14 18.3998 211.571 18.7075 211.878 19.1382C212.186 19.569 212.432 19.9998 212.617 20.4921H214.401C214.217 19.6305 213.909 18.8921 213.417 18.2767C212.925 17.6613 212.371 17.169 211.632 16.7998C210.955 16.4305 210.155 16.2459 209.294 16.2459C208.309 16.2459 207.386 16.4921 206.648 16.9228C205.909 17.3536 205.294 18.0305 204.863 18.8305C204.432 19.6305 204.248 20.6152 204.248 21.7229V25.7229C204.248 26.8306 204.432 27.7537 204.863 28.6152C205.294 29.4152 205.848 30.0922 206.648 30.5229C207.386 30.9537 208.309 31.1999 209.294 31.1999C210.155 31.1999 210.894 31.0152 211.632 30.646C212.371 30.2768 212.925 29.7845 213.417 29.1691C213.909 28.5537 214.217 27.8152 214.401 26.9537H212.617C212.371 27.7537 212.001 28.4306 211.386 28.8614C210.771 29.2922 210.094 29.5383 209.417 29.5383C208.432 29.5383 207.632 29.1691 207.017 28.4921C206.401 27.8152 206.094 26.8921 206.094 25.7229V21.7229C206.032 20.6152 206.34 19.6921 206.955 18.9536Z" fill="black"/>
<path d="M217.171 29.1075H215.263V31.0153H217.171V29.1075Z" fill="black"/>
<path d="M131.447 40.2461H127.57V43.2615H131.816L131.693 43.9384H126.77V36.3076H131.632V36.9845H127.57V39.5692H131.447V40.2461Z" fill="black"/>
<path d="M133.539 38.3999C134.401 39.6922 134.77 40.2461 134.955 40.6153C135.201 40.2461 135.693 39.5076 136.432 38.3999H137.293L135.385 41.0461L137.293 43.9384H136.432C135.693 42.8307 135.139 41.9692 134.893 41.5999C134.709 41.9076 134.216 42.6461 133.416 43.9384H132.555L134.462 41.1692L132.616 38.3999C132.678 38.3999 133.539 38.3999 133.539 38.3999Z" fill="black"/>
<path d="M137.847 38.4H138.832V36.7384H139.57V38.4H140.863V39.0153H139.57V42.4615C139.57 43.0154 139.693 43.3846 140.247 43.3846C140.37 43.3846 140.616 43.3846 140.801 43.3231V43.9385C140.616 44 140.309 44.0615 140.063 44.0615C139.263 44.0615 138.893 43.6923 138.893 42.7692V39.0769H137.847V38.4Z" fill="black"/>
<path d="M142.217 41.2923C142.217 42.5846 142.893 43.4461 143.878 43.4461C144.863 43.4461 145.17 42.9538 145.355 42.4615H146.093C145.847 43.2 145.293 44.0615 143.817 44.0615C142.093 44.0615 141.417 42.6461 141.417 41.2307C141.417 39.6307 142.217 38.2769 143.878 38.2769C145.601 38.2769 146.217 39.7538 146.217 40.8615C146.217 41.0461 146.217 41.1692 146.217 41.2923H142.217ZM145.478 40.7384C145.478 39.6922 144.924 38.8922 143.878 38.8922C142.832 38.8922 142.34 39.6307 142.217 40.7384H145.478Z" fill="black"/>
<path d="M147.509 39.8153C147.509 39.323 147.509 38.8307 147.509 38.3999H148.247C148.247 38.5846 148.309 39.1999 148.309 39.3846C148.555 38.8922 148.986 38.2769 150.093 38.2769C151.078 38.2769 151.94 38.8922 151.94 40.3692V43.9384H151.201V40.4307C151.201 39.5076 150.832 38.8922 149.909 38.8922C148.74 38.8922 148.309 39.8769 148.309 41.0461V43.9384H147.57L147.509 39.8153Z" fill="black"/>
<path d="M153.786 42.4C153.97 43.0769 154.463 43.4461 155.263 43.4461C156.186 43.4461 156.555 43.0153 156.555 42.4615C156.555 41.9076 156.309 41.6 155.139 41.3538C153.663 40.9846 153.293 40.5538 153.293 39.8153C153.293 39.0153 153.847 38.2769 155.201 38.2769C156.555 38.2769 157.109 39.0769 157.232 39.8769H156.493C156.432 39.4461 156.063 38.8922 155.201 38.8922C154.339 38.8922 154.093 39.323 154.093 39.7538C154.093 40.2461 154.339 40.4307 155.386 40.7384C156.986 41.1076 157.355 41.6615 157.355 42.4615C157.355 43.4461 156.555 44.123 155.263 44.123C153.909 44.123 153.232 43.4461 153.047 42.4615L153.786 42.4Z" fill="black"/>
<path d="M163.263 41.1692C163.263 42.7692 162.401 44.0615 160.74 44.0615C159.201 44.0615 158.278 42.8307 158.278 41.1692C158.278 39.5692 159.201 38.2769 160.801 38.2769C162.278 38.2769 163.263 39.4461 163.263 41.1692ZM158.955 41.1692C158.955 42.4615 159.632 43.4461 160.74 43.4461C161.847 43.4461 162.463 42.523 162.463 41.1692C162.463 39.8769 161.847 38.8922 160.678 38.8922C159.57 38.9538 158.955 39.8769 158.955 41.1692Z" fill="black"/>
<path d="M164.555 39.9384C164.555 39.0769 164.555 38.6461 164.555 38.4H165.293C165.293 38.5846 165.293 38.9538 165.293 39.5692C165.601 38.7692 166.278 38.2769 167.201 38.2153V38.9538C166.032 39.0153 165.293 39.6923 165.293 41.0461V43.8154H164.555V39.9384Z" fill="black"/>
<path d="M171.509 41.8461C171.755 42.8307 172.371 43.3846 173.601 43.3846C174.894 43.3846 175.448 42.7692 175.448 41.9692C175.448 41.1692 175.078 40.6769 173.417 40.2461C171.694 39.8153 171.017 39.2615 171.017 38.1538C171.017 37.1076 171.817 36.123 173.478 36.123C175.263 36.123 175.94 37.1691 176.063 38.1538H175.263C175.078 37.4153 174.647 36.7999 173.417 36.7999C172.371 36.7999 171.817 37.2922 171.817 38.0922C171.817 38.8922 172.309 39.1999 173.663 39.5076C175.817 40.0615 176.186 40.923 176.186 41.8461C176.186 43.0153 175.324 44 173.478 44C171.571 44 170.771 42.8923 170.647 41.7846H171.509V41.8461Z" fill="black"/>
<path d="M178.032 41.2923C178.032 42.5846 178.709 43.4461 179.693 43.4461C180.678 43.4461 180.986 42.9538 181.17 42.4615H181.909C181.663 43.2 181.109 44.0615 179.632 44.0615C177.909 44.0615 177.232 42.6461 177.232 41.2307C177.232 39.6307 178.032 38.2769 179.693 38.2769C181.417 38.2769 182.032 39.7538 182.032 40.8615C182.032 41.0461 182.032 41.1692 182.032 41.2923H178.032ZM181.294 40.7384C181.294 39.6922 180.74 38.8922 179.755 38.8922C178.709 38.8922 178.217 39.6307 178.093 40.7384H181.294Z" fill="black"/>
<path d="M184.063 43.1999V46.1538H183.324V39.8153C183.324 39.3845 183.324 38.8922 183.324 38.4615H184.063C184.063 38.6461 184.063 39.0153 184.063 39.3845C184.37 38.7692 184.986 38.3384 185.97 38.3384C187.263 38.3384 188.186 39.4461 188.186 41.1076C188.186 43.0769 187.14 44.123 185.786 44.123C184.863 44.123 184.37 43.6923 184.063 43.1999ZM187.447 41.1076C187.447 39.8769 186.832 38.9538 185.847 38.9538C184.617 38.9538 184.063 39.7538 184.063 41.1692C184.063 42.5846 184.493 43.4461 185.724 43.4461C186.832 43.4461 187.447 42.523 187.447 41.1076Z" fill="black"/>
<path d="M188.74 38.4H189.724V36.7384H190.463V38.4H191.755V39.0153H190.463V42.4615C190.463 43.0154 190.586 43.3846 191.14 43.3846C191.263 43.3846 191.509 43.3846 191.694 43.3231V43.9385C191.509 44 191.201 44.0615 190.955 44.0615C190.155 44.0615 189.786 43.6923 189.786 42.7692V39.0769H188.801L188.74 38.4Z" fill="black"/>
<path d="M196.801 42.8307C196.801 43.323 196.863 43.8154 196.863 43.9384H196.186C196.124 43.8154 196.124 43.5692 196.063 43.1384C195.878 43.5077 195.386 44.0615 194.278 44.0615C192.986 44.0615 192.432 43.2 192.432 42.4C192.432 41.1692 193.355 40.6153 195.017 40.6153C195.448 40.6153 195.817 40.6153 196.001 40.6153V40.123C196.001 39.6307 195.817 38.8922 194.709 38.8922C193.663 38.8922 193.54 39.4461 193.417 39.8769H192.678C192.74 39.1999 193.171 38.2769 194.709 38.2769C196.001 38.2769 196.74 38.8307 196.74 40.0615L196.801 42.8307ZM196.063 41.1692C195.878 41.1692 195.386 41.1692 195.078 41.1692C193.909 41.1692 193.232 41.4769 193.232 42.3384C193.232 42.9538 193.663 43.4461 194.401 43.4461C195.878 43.4461 196.063 42.4615 196.063 41.3538V41.1692Z" fill="black"/>
<path d="M198.524 43.9384V35.8768H199.263V44H198.524V43.9384Z" fill="black"/>
<path d="M208.001 37.4153H204.924C204.863 38.0923 204.617 39.323 204.555 39.7538C204.863 39.3846 205.355 39.0769 206.155 39.0769C207.448 39.0769 208.309 39.9384 208.309 41.4769C208.309 42.8923 207.571 44.1231 205.909 44.1231C204.678 44.1231 203.755 43.3846 203.571 42.2154H204.309C204.494 42.9538 204.986 43.5077 205.909 43.5077C206.955 43.5077 207.509 42.7692 207.509 41.6C207.509 40.6154 207.078 39.8153 206.032 39.8153C205.109 39.8153 204.678 40.1846 204.371 40.8615L203.694 40.6154C203.94 39.6307 204.186 37.5999 204.309 36.7384H208.124L208.001 37.4153Z" fill="black"/>
<path d="M210.278 42.4615C210.524 43.1384 210.894 43.4461 211.694 43.4461C213.232 43.4461 213.355 41.2922 213.417 40.3692C213.048 41.0461 212.432 41.3538 211.571 41.3538C210.278 41.3538 209.417 40.3692 209.417 39.0768C209.417 37.7845 210.278 36.6768 211.755 36.6768C213.478 36.6768 214.155 38.0307 214.155 39.9999C214.155 41.8461 213.786 44.1846 211.694 44.1846C210.34 44.1846 209.724 43.3846 209.54 42.523L210.278 42.4615ZM210.155 38.9538C210.155 39.9384 210.709 40.6153 211.632 40.6153C212.74 40.6153 213.232 39.9999 213.232 39.0153C213.232 38.5845 213.109 37.2307 211.694 37.2307C210.586 37.2307 210.155 38.0307 210.155 38.9538Z" fill="black"/>
<path d="M215.509 38.3999C215.632 37.4768 216.248 36.6153 217.724 36.6153C219.14 36.6153 219.817 37.5384 219.817 38.4615C219.817 39.323 219.263 39.8153 218.832 39.9999C219.571 40.2461 220.125 40.7999 220.125 41.8461C220.125 43.0153 219.386 44.123 217.663 44.123C216.124 44.123 215.386 43.1384 215.263 42.1538H216.001C216.186 42.8307 216.678 43.4461 217.724 43.4461C218.894 43.4461 219.325 42.7076 219.325 41.8461C219.325 40.7999 218.648 40.3076 217.601 40.3076H217.109V39.6922H217.478C218.525 39.6922 218.955 39.2615 218.955 38.4615C218.955 37.723 218.463 37.2307 217.601 37.2307C216.678 37.2307 216.309 37.723 216.124 38.3999H215.509Z" fill="black"/>
<path d="M122.585 35.446H121.601V45.3538H122.585V35.446Z" fill="#F39200"/>
<path d="M220.924 21.1075C220.924 21.1075 220.74 26.1537 223.94 30.0922C227.14 34.0922 228.863 35.5076 229.109 36.6153C229.294 37.723 229.478 38.5845 226.278 38.9538C223.14 39.323 222.832 39.7538 222.647 43.7538" stroke="black" stroke-miterlimit="10"/>
<path d="M218.832 18.5229C220.939 18.5229 222.648 16.8146 222.648 14.7074C222.648 12.6002 220.939 10.892 218.832 10.892C216.725 10.892 215.017 12.6002 215.017 14.7074C215.017 16.8146 216.725 18.5229 218.832 18.5229Z" stroke="black" stroke-miterlimit="10"/>
<path d="M220.371 16.6152L219.201 15.0767H217.848V16.6152H217.355V12.7997H219.324C219.755 12.7997 220.063 12.9228 220.371 13.1074C220.678 13.3536 220.801 13.5997 220.801 13.9074C220.801 14.1536 220.678 14.3998 220.494 14.5844C220.309 14.769 220.063 14.8921 219.755 15.0151L220.986 16.6152H220.371ZM217.848 13.169V14.769H219.324C219.571 14.769 219.817 14.7074 220.001 14.5228C220.186 14.3998 220.309 14.2151 220.309 13.969C220.309 13.7228 220.186 13.5382 220.001 13.4151C219.817 13.2921 219.571 13.169 219.324 13.169H217.848Z" fill="black"/>
<path d="M20.1848 26.1536V45.5384C20.1848 46.8922 19.0771 47.9999 17.7232 47.9999H10.4616C9.10776 47.9999 8.00006 46.8922 8.00006 45.5384V33.1691L0 37.7845V45.5384C0 51.323 4.67696 56 10.4616 56H17.7232C23.5079 56 28.1848 51.323 28.1848 45.5384V21.5382L20.1848 26.1536Z" fill="#F39200"/>
<path d="M8.00006 27.8152V10.4612C8.00006 9.10737 9.10776 7.99967 10.4616 7.99967H17.7232C19.0771 7.99967 20.1848 9.10737 20.1848 10.4612V20.7998L28.1848 16.1843V10.4612C28.1848 4.67657 23.5079 -0.00038385 17.7232 -0.00038385H10.4616C4.67696 -0.0619227 0 4.67657 0 10.4612V32.4306L8.00006 27.8152Z" fill="#F39200"/>
</g>
<defs>
<clipPath id="clip0_58_5918">
<rect width="229" height="56" fill="white"/>
</clipPath>
</defs>
</svg>
