<svg width="55" height="56" viewBox="0 0 55 56" fill="none" xmlns="http://www.w3.org/2000/svg">
<g clip-path="url(#clip0_58_5921)">
<path d="M27.3543 20.6075C22.2939 20.6075 18.218 24.8292 18.4878 29.9293C18.7174 34.2526 22.1773 37.8463 26.5084 38.2456C31.2771 38.6849 35.3567 35.3634 36.1041 30.9203V28.4918C36.1041 28.245 35.9036 28.0454 35.6557 28.0454H27.0298V30.9203H33.0307C32.3562 33.4903 29.9646 35.3743 27.1537 35.2799C24.1132 35.1783 21.594 32.6736 21.4955 29.6498C21.3825 26.332 24.0548 23.6095 27.3579 23.6095V20.6075H27.3543Z" fill="#575756"/>
<path d="M27.3541 17.9358C20.9703 17.9358 15.7897 23.094 15.7897 29.4501C15.7897 35.8063 20.9703 40.9609 27.3541 40.9609V44.6163C18.9433 44.6163 12.1221 37.8245 12.1221 29.4501C12.1221 21.0757 18.9433 14.284 27.3541 14.284V17.9358Z" fill="#575756"/>
<path d="M42.5205 28.0453H38.8274C38.4664 25.0397 36.9352 22.3971 34.7113 20.5639C34.5399 20.4332 34.3686 20.3062 34.2045 20.1719C32.1629 18.5565 30.4093 16.6 29.0348 14.3784C26.9203 10.9698 25.6953 6.95142 25.6953 2.64624C25.6953 1.75326 25.7464 0.871171 25.8521 0.00360107H29.4833C29.3593 0.867541 29.2973 1.74963 29.2973 2.64624C29.2973 8.30178 31.8093 13.3729 35.7758 16.8105C36.392 17.3477 37.081 17.7942 37.6972 18.3315C39.4508 19.8633 40.7633 21.8743 41.5945 24.0342C42.0721 25.2974 42.3966 26.6405 42.5205 28.0453Z" fill="#3C7DB8"/>
<path d="M27.3541 30.9203H23.3255C23.3255 30.9203 22.7677 28.4701 24.3755 26.9055C25.9797 25.341 27.2921 25.5697 27.2921 25.5697L27.3541 30.9203Z" fill="#3C7DB8"/>
<path d="M0 53.9163C0 52.6676 0.769256 51.8327 1.98694 51.8327C2.92755 51.8327 3.60566 52.3954 3.74055 53.2629H3.04057C2.90567 52.7475 2.51558 52.4244 1.95778 52.4244C1.17394 52.4244 0.692695 53.0379 0.692695 53.9163C0.692695 54.7875 1.163 55.4083 1.93955 55.4083C2.50829 55.4083 2.90567 55.0924 3.03328 54.5697H3.73326C3.60566 55.4373 2.90567 55.9999 1.94684 55.9999C0.747382 55.9999 0 55.1759 0 53.9163Z" fill="#585857"/>
<path d="M4.62646 55.9673V51.869H5.30093V55.3683H7.06913V55.9673H4.62646Z" fill="#585857"/>
<path d="M7.89673 51.869H8.5712V55.9673H7.89673V51.869ZM8.00246 51.5278L8.47276 50.7183H9.2092L8.48734 51.5278H8.00246Z" fill="#585857"/>
<path d="M9.66138 55.9673V51.869H10.2775L12.2827 54.773V51.869H12.9462V55.9673H12.3301L10.3249 53.0633V55.9673H9.66138Z" fill="#585857"/>
<path d="M14.0361 51.869H14.7106V55.9673H14.0361V51.869Z" fill="#585857"/>
<path d="M15.6404 53.9163C15.6404 52.6676 16.4096 51.8327 17.6273 51.8327C18.5679 51.8327 19.246 52.3954 19.3809 53.2629H18.6809C18.5461 52.7475 18.156 52.4244 17.5982 52.4244C16.8143 52.4244 16.3331 53.0379 16.3331 53.9163C16.3331 54.7875 16.8034 55.4083 17.5799 55.4083C18.1487 55.4083 18.5461 55.0924 18.6737 54.5697H19.3736C19.246 55.4373 18.5461 55.9999 17.5872 55.9999C16.3878 55.9999 15.6404 55.1759 15.6404 53.9163Z" fill="#585857"/>
<path d="M19.793 55.9673L21.3351 51.869H22.1408L23.6757 55.9673H22.9538L22.5674 54.9545H20.8794L20.4966 55.9673H19.793ZM21.0617 54.381H22.3742L21.7143 52.595L21.0617 54.381Z" fill="#585857"/>
<path d="M26.1145 53.9163C26.1145 52.6676 26.8911 51.8327 28.1124 51.8327C29.0639 51.8327 29.7603 52.3954 29.8806 53.2629H29.1806C29.0566 52.7402 28.6629 52.4244 28.0942 52.4244C27.314 52.4244 26.8072 53.0379 26.8072 53.9163C26.8072 54.7948 27.2994 55.4083 28.0905 55.4083C28.7249 55.4083 29.2353 55.0525 29.2717 54.3882V54.2902H28.1306V53.7239H29.917V55.9673H29.392L29.3337 55.4155C29.1332 55.7095 28.7103 55.9999 28.0577 55.9999C26.9056 55.9999 26.1145 55.165 26.1145 53.9163Z" fill="#585857"/>
<path d="M30.9817 51.869H31.6561V54.2467C31.6561 55.009 31.9514 55.4046 32.5967 55.4046C33.2566 55.4046 33.5483 55.0053 33.5483 54.2467V51.869H34.2228V54.2104C34.2228 55.3756 33.665 56.0036 32.5931 56.0036C31.5285 56.0036 30.978 55.3756 30.978 54.2104V51.869H30.9817Z" fill="#585857"/>
<path d="M35.291 51.869H35.9655V55.9673H35.291V51.869Z" fill="#585857"/>
<path d="M37.0557 55.9673V51.869H37.7338V55.3683H39.502V55.9673H37.0557Z" fill="#585857"/>
<path d="M40.0488 55.9673L41.591 51.869H42.3967L43.9316 55.9673H43.2097L42.8233 54.9545H41.1353L40.7525 55.9673H40.0488ZM41.3176 54.381H42.63L41.9701 52.595L41.3176 54.381Z" fill="#585857"/>
<path d="M44.686 51.869H46.3084C47.1652 51.869 47.7412 52.3772 47.7412 53.1758C47.7412 53.7276 47.424 54.1668 46.9428 54.3338L47.8141 55.9673H47.0631L46.2683 54.479H45.3641V55.9673H44.686V51.869ZM45.3641 52.4534V53.8946H46.2574C46.7386 53.8946 47.0521 53.6151 47.0521 53.1758C47.0521 52.7366 46.7386 52.4571 46.2574 52.4571H45.3641V52.4534Z" fill="#585857"/>
<path d="M48.197 51.869H51.4126V52.468H50.1439V55.9673H49.4657V52.468H48.197V51.869Z" fill="#585857"/>
<path d="M52.2439 51.869H54.9308V52.468H52.9184V53.6042H54.5772V54.185H52.9184V55.372H55.0001V55.9709H52.2439V51.869Z" fill="#585857"/>
</g>
<defs>
<clipPath id="clip0_58_5921">
<rect width="55" height="56" fill="white"/>
</clipPath>
</defs>
</svg>
