<svg width="190" height="56" viewBox="0 0 190 56" fill="none" xmlns="http://www.w3.org/2000/svg">
<g clip-path="url(#clip0_58_5925)">
<path d="M33.1507 53.7093V53.6893C33.6402 53.5241 34.0263 53.1175 34.0263 52.504C34.0263 52.1446 33.8958 51.8287 33.6619 51.6218C33.3719 51.3604 32.9585 51.2424 32.3186 51.2424C31.9052 51.2424 31.4719 51.2769 31.1692 51.3386V55.9256H31.7693V53.9126H32.3349C32.8787 53.9325 33.1271 54.1739 33.2649 54.8165C33.3954 55.3956 33.4988 55.7967 33.5749 55.9274H34.1949C34.0988 55.7477 33.9882 55.2993 33.836 54.6513C33.7236 54.1649 33.5096 53.8345 33.1507 53.7093ZM32.3802 53.4551H31.7674V51.7579C31.8635 51.7307 32.0702 51.7035 32.3603 51.7035C32.9948 51.7107 33.4281 51.9721 33.4281 52.573C33.4262 53.103 33.0202 53.4551 32.3802 53.4551Z" fill="#606060"/>
<path d="M37.5886 51.2751H36.9885V55.9237H37.5886V51.2751Z" fill="#606060"/>
<path d="M43.6707 53.221C43.6707 53.9452 43.6852 54.5097 43.7396 55.1305L43.7251 55.1378C43.5039 54.6622 43.2356 54.1721 42.8911 53.6276L41.4027 51.2751H40.7483V55.9237H41.3139V53.9379C41.3139 53.1647 41.2994 52.6074 41.265 52.0211L41.2849 52.0139C41.5188 52.5167 41.8288 53.0485 42.1533 53.5658L43.6272 55.9237H44.2345V51.2751H43.6689V53.221H43.6707Z" fill="#606060"/>
<path d="M49.2781 51.1989C48.0381 51.1989 47.1226 52.1645 47.1226 53.6403C47.1226 55.047 47.9837 55.9982 49.2092 55.9982C50.3948 55.9982 51.3647 55.1505 51.3647 53.5495C51.3647 52.1718 50.5453 51.1989 49.2781 51.1989ZM49.2436 55.5099C48.2991 55.5099 47.7625 54.6205 47.7625 53.6276C47.7625 52.6074 48.2592 51.689 49.2509 51.689C50.2498 51.689 50.732 52.6546 50.732 53.5786C50.732 54.6332 50.1936 55.5099 49.2436 55.5099Z" fill="#606060"/>
<path d="M56.7108 51.6272C56.4352 51.3786 56.002 51.2406 55.4091 51.2406C54.9269 51.2406 54.548 51.2823 54.2598 51.3295V55.9219H54.8598V54.0596C54.9976 54.0941 55.1626 54.1013 55.3421 54.1013C55.9276 54.1013 56.4443 53.9289 56.7616 53.5913C56.9954 53.3498 57.1205 53.0195 57.1205 52.5983C57.1169 52.1863 56.9664 51.8469 56.7108 51.6272ZM55.3548 53.6203C55.1553 53.6203 54.9904 53.6058 54.858 53.5713V51.7652C54.9614 51.738 55.1608 51.7162 55.4236 51.7162C56.0853 51.7162 56.5186 52.012 56.5186 52.6274C56.5186 53.2681 56.0781 53.6203 55.3548 53.6203Z" fill="#606060"/>
<path d="M60.6376 51.2751H60.0393V55.9237H62.6209V55.4209H60.6376V51.2751Z" fill="#606060"/>
<path d="M66.6309 51.2751L65.0537 55.9237H65.6737L66.156 54.4625H67.8021L68.2988 55.9237H68.9387L67.3543 51.2751H66.6309ZM66.2792 53.9924L66.7343 52.6474C66.8231 52.3642 66.8992 52.081 66.9681 51.8051H66.9826C67.0515 52.0738 67.1204 52.3497 67.2237 52.6528L67.6788 53.9906H66.2792V53.9924Z" fill="#606060"/>
<path d="M73.1284 53.2899C72.4884 53.0413 72.2056 52.8271 72.2056 52.3933C72.2056 52.0756 72.4467 51.6962 73.0812 51.6962C73.5018 51.6962 73.8118 51.8342 73.9623 51.9177L74.1273 51.4276C73.9206 51.3096 73.5761 51.2007 73.1012 51.2007C72.1983 51.2007 71.6001 51.738 71.6001 52.4622C71.6001 53.1175 72.0678 53.5114 72.8256 53.78C73.4529 54.0215 73.7012 54.2701 73.7012 54.704C73.7012 55.1723 73.3423 55.4972 72.7295 55.4972C72.3162 55.4972 71.9228 55.3593 71.6545 55.1941L71.5022 55.6969C71.7506 55.8621 72.24 55.9927 72.6878 55.9927C73.7828 55.9927 74.314 55.372 74.314 54.655C74.3122 53.9725 73.9133 53.5931 73.1284 53.2899Z" fill="#606060"/>
<path d="M76.7161 51.7851H78.1283V55.9237H78.7356V51.7851H80.1533V51.2751H76.7161V51.7851Z" fill="#606060"/>
<path d="M83.3857 51.2751H82.7856V55.9237H83.3857V51.2751Z" fill="#606060"/>
<path d="M87.773 51.2751L86.1958 55.9237H86.8158L87.298 54.4625H88.9441L89.4409 55.9237H90.0808L88.4964 51.2751H87.773ZM87.4231 53.9924L87.8782 52.6474C87.967 52.3642 88.0431 52.081 88.112 51.8051H88.1265C88.1954 52.0738 88.2643 52.3497 88.3676 52.6528L88.8227 53.9906H87.4231V53.9924Z" fill="#606060"/>
<path d="M99.265 54.0269C99.265 55.0543 98.8245 55.5099 98.1356 55.5099C97.5155 55.5099 97.0533 55.0688 97.0533 54.0269V51.2751H96.4478V54.0124C96.4478 55.4536 97.1638 55.9982 98.1138 55.9982C99.12 55.9982 99.8705 55.4119 99.8705 53.9851V51.2751H99.265V54.0269Z" fill="#606060"/>
<path d="M103.625 51.2751H103.027V55.9237H105.608V55.4209H103.625V51.2751Z" fill="#606060"/>
<path d="M107.256 51.7851H108.668V55.9237H109.274V51.7851H110.693V51.2751H107.256V51.7851Z" fill="#606060"/>
<path d="M115.309 53.7093V53.6893C115.798 53.5241 116.185 53.1175 116.185 52.504C116.185 52.1446 116.054 51.8287 115.82 51.6218C115.53 51.3604 115.117 51.2424 114.477 51.2424C114.063 51.2424 113.63 51.2769 113.327 51.3386V55.9256H113.927V53.9126H114.493C115.037 53.9325 115.285 54.1739 115.423 54.8165C115.554 55.3956 115.657 55.7967 115.733 55.9274H116.353C116.257 55.7477 116.146 55.2993 115.994 54.6513C115.88 54.1649 115.666 53.8345 115.309 53.7093ZM114.537 53.4551H113.924V51.7579C114.02 51.7307 114.227 51.7035 114.517 51.7035C115.151 51.7107 115.584 51.9721 115.584 52.573C115.584 53.103 115.178 53.4551 114.537 53.4551Z" fill="#606060"/>
<path d="M120.407 51.2751L118.83 55.9237H119.45L119.932 54.4625H121.578L122.075 55.9237H122.715L121.13 51.2751H120.407ZM120.055 53.9924L120.51 52.6474C120.599 52.3642 120.675 52.081 120.744 51.8051H120.759C120.827 52.0738 120.896 52.3497 121 52.6528L121.455 53.9906H120.055V53.9924Z" fill="#606060"/>
<path d="M126.903 53.2899C126.263 53.0413 125.98 52.8271 125.98 52.3933C125.98 52.0756 126.221 51.6962 126.855 51.6962C127.276 51.6962 127.586 51.8342 127.736 51.9177L127.901 51.4276C127.695 51.3096 127.35 51.2007 126.875 51.2007C125.973 51.2007 125.374 51.738 125.374 52.4622C125.374 53.1175 125.842 53.5114 126.6 53.78C127.227 54.0215 127.475 54.2701 127.475 54.704C127.475 55.1723 127.116 55.4972 126.504 55.4972C126.09 55.4972 125.697 55.3593 125.429 55.1941L125.276 55.6969C125.525 55.8621 126.014 55.9927 126.462 55.9927C127.557 55.9927 128.088 55.372 128.088 54.655C128.088 53.9725 127.688 53.5931 126.903 53.2899Z" fill="#606060"/>
<path d="M132.903 51.1989C131.663 51.1989 130.748 52.1645 130.748 53.6403C130.748 55.047 131.609 55.9982 132.834 55.9982C134.02 55.9982 134.99 55.1505 134.99 53.5495C134.99 52.1718 134.17 51.1989 132.903 51.1989ZM132.869 55.5099C131.924 55.5099 131.388 54.6205 131.388 53.6276C131.388 52.6074 131.884 51.689 132.876 51.689C133.875 51.689 134.357 52.6546 134.357 53.5786C134.357 54.6332 133.819 55.5099 132.869 55.5099Z" fill="#606060"/>
<path d="M140.804 53.221C140.804 53.9452 140.818 54.5097 140.873 55.1305L140.858 55.1378C140.637 54.6622 140.369 54.1721 140.024 53.6276L138.536 51.2751H137.881V55.9237H138.447V53.9379C138.447 53.1647 138.432 52.6074 138.398 52.0211L138.418 52.0139C138.652 52.5167 138.962 53.0485 139.286 53.5658L140.76 55.9237H141.366V51.2751H140.8V53.221H140.804Z" fill="#606060"/>
<path d="M145.131 51.2751H144.531V55.9237H145.131V51.2751Z" fill="#606060"/>
<path d="M150.463 51.7035C150.849 51.7035 151.172 51.787 151.4 51.8959L151.545 51.4058C151.387 51.3223 151.021 51.1989 150.443 51.1989C149.003 51.1989 148.019 52.1845 148.019 53.6403C148.019 55.165 149.003 55.9927 150.312 55.9927C150.878 55.9927 151.319 55.882 151.538 55.7713L151.415 55.2957C151.173 55.4137 150.802 55.4881 150.436 55.4881C149.306 55.4881 148.652 54.7566 148.652 53.6185C148.652 52.3987 149.375 51.7035 150.463 51.7035Z" fill="#606060"/>
<path d="M155.657 51.2751L154.079 55.9237H154.699L155.182 54.4625H156.828L157.324 55.9237H157.964L156.38 51.2751H155.657ZM155.305 53.9924L155.76 52.6474C155.849 52.3642 155.925 52.081 155.994 51.8051H156.008C156.077 52.0738 156.146 52.3497 156.249 52.6528L156.704 53.9906H155.305V53.9924Z" fill="#606060"/>
<path d="M189.739 22.6262C189.041 21.8384 187.868 21.2739 186.933 20.8255C185.91 20.3354 184.839 19.9542 183.751 19.6402C182.526 19.2881 181.28 19.0194 180.022 18.8161C182.955 11.4592 186.05 4.37639 186.944 2.90429C187.308 2.30346 187.787 1.59554 187.979 0.909407C188.082 0.539111 187.868 0.0889477 187.475 0.0108951C187.032 -0.0780485 186.632 0.363039 186.376 0.660728C185.974 1.13086 185.647 1.67904 185.303 2.18911C184.585 3.24735 183.871 4.3056 183.146 5.3584C181.017 8.45328 178.824 11.5046 176.505 14.4597C175.502 15.7394 174.476 17.0064 173.418 18.2462C170.807 18.1844 168.178 18.326 165.658 18.994C162.81 19.7491 160.087 21.2249 158.233 23.5174C157.571 24.3343 157.016 25.2763 156.868 26.3182C156.862 26.3564 156.859 26.3927 156.855 26.4308C156.286 26.4834 155.715 26.5052 155.147 26.4707C154.739 26.4471 154.04 26.3818 153.989 25.8517C153.953 25.4706 154.119 25.0458 154.214 24.681C154.337 24.2036 154.487 23.708 154.486 23.2107C154.486 23.0001 154.424 22.7768 154.261 22.6443C153.954 22.3956 153.494 22.5409 153.215 22.7587C152.838 23.0527 152.558 23.4739 152.277 23.855C152.134 24.0511 151.98 24.258 151.788 24.4087C151.715 24.4668 151.482 24.6083 151.507 24.3869C151.512 24.3415 151.536 24.3016 151.56 24.2616C151.793 23.8696 152.074 23.5102 152.312 23.1199C152.551 22.7278 152.772 22.323 152.963 21.9037C153.061 21.6895 153.151 21.4699 153.191 21.2376C153.244 20.929 153.215 20.5678 152.921 20.3953C152.8 20.3245 152.656 20.2973 152.517 20.2846C151.779 20.2192 150.994 20.477 150.31 20.7329C149.671 20.9725 149.052 21.2666 148.45 21.5915C147.994 21.8366 147.546 22.0998 147.109 22.3793C146.978 22.4628 146.848 22.5463 146.719 22.6334C146.703 22.6443 146.598 22.7351 146.58 22.7296C146.58 22.7296 145.628 22.4356 145.283 22.6389C144.939 22.8422 145.425 23.4303 145.03 23.7026C144.551 24.0347 144.054 24.3451 143.563 24.6592C142.861 25.1075 142.158 25.5559 141.44 25.9752C141.213 26.1077 140.99 26.2311 140.746 26.3255C140.737 26.3291 140.726 26.3328 140.717 26.3291C140.708 26.3255 140.702 26.3146 140.699 26.3037C140.66 26.1894 140.706 26.0786 140.76 25.977C141.355 24.8479 142.2 23.8405 142.598 22.628C142.68 22.3793 142.742 22.1016 142.637 21.8602C142.564 21.6914 142.419 21.5643 142.265 21.4645C141.705 21.1051 141.009 21.0506 140.343 21.007C140.437 20.5115 140.157 19.9688 139.698 19.76C139.377 19.6148 138.927 19.6656 138.764 19.9796C138.659 20.1793 138.701 20.4298 138.813 20.6258C138.926 20.8219 139.1 20.9725 139.27 21.1196C138.532 22.5917 137.37 23.7988 136.237 24.9932C135.519 25.7501 134.731 26.5542 133.701 26.7267C133.447 26.7702 133.128 26.7375 133.019 26.5034C132.976 26.409 132.977 26.3019 132.985 26.1984C133.035 25.4669 133.335 24.7554 133.822 24.2072C134.145 24.4159 134.498 24.6319 134.879 24.6029C135.227 24.5775 135.526 24.3506 135.769 24.1001C136.027 23.8333 136.25 23.5211 136.344 23.1616C136.438 22.8022 136.389 22.3938 136.152 22.1088C135.882 21.7821 135.41 21.6714 134.993 21.7494C134.576 21.8275 134.207 22.0671 133.884 22.3412C133.255 22.8712 132.754 23.5483 132.41 24.2943C132.174 24.8026 132.009 25.358 132.053 25.9171C132.096 26.4762 132.379 27.0352 132.867 27.3093C133.53 27.6814 134.372 27.4473 135.035 27.0752C135.967 26.5524 136.739 25.7864 137.444 24.9823C138.344 23.9567 139.158 22.8549 139.87 21.6914C139.908 21.6278 139.952 21.5607 140.021 21.5353C140.077 21.5135 140.138 21.5244 140.196 21.5353C140.414 21.577 140.626 21.6405 140.831 21.7222C140.9 21.7494 140.97 21.7821 141.018 21.8402C141.103 21.9509 141.07 22.1107 141.021 22.2414C140.873 22.6425 140.622 22.9965 140.403 23.3631C139.921 24.1691 139.576 25.0549 139.384 25.9734C139.332 26.2239 139.294 26.4943 139.406 26.7248C139.556 27.0334 139.932 27.1641 140.273 27.1696C141.242 27.1859 142.06 26.4943 142.823 25.9842C143.311 25.6593 143.791 25.3253 144.265 24.9786C144.265 24.9786 144.022 25.5867 144.032 26.3981C144.043 27.2095 144.984 27.8285 146.018 27.4219C146.581 27.2004 147.058 26.6795 147.399 26.1894C147.776 25.6466 148.097 24.9496 148.122 24.278C148.142 23.757 147.854 23.2252 147.365 23.0128C147.365 23.0128 148.378 22.4646 149.44 21.9582C150.503 21.4518 151.77 21.1268 151.841 21.3392C151.884 21.4699 151.661 21.7839 151.607 21.8892C151.405 22.2777 151.192 22.6588 150.978 23.04C150.483 23.9222 149.973 24.7953 149.495 25.6884C149.228 26.1857 148.898 26.7702 149.094 27.3511C149.143 27.4981 149.235 27.6397 149.377 27.7014C149.482 27.7468 149.602 27.745 149.714 27.7232C150.242 27.6197 150.646 27.1587 151.012 26.7974C151.424 26.3927 151.813 25.9661 152.198 25.5341C152.548 25.1402 152.876 24.7281 153.226 24.3343C153.171 25.0621 153.188 25.9715 153.791 26.4871C153.898 26.5778 154.02 26.6504 154.148 26.7012C154.69 26.9118 155.265 27.0552 155.849 27.0588C156.184 27.0606 156.516 27.0243 156.846 26.9771C156.884 27.8158 157.221 28.6453 157.878 29.159C159.337 30.3026 161.692 29.6128 163.093 28.7088C165.31 27.2785 167.446 25.7682 169.422 24.0093C171.054 22.5554 172.533 20.9834 173.931 19.3316C175.365 19.3026 176.8 19.3607 178.227 19.5004C177.66 21.0651 177.092 22.6298 176.525 24.1945C176.228 25.0131 175.932 25.83 175.635 26.6486C175.289 27.8194 174.948 28.992 174.609 30.1646C173.909 32.5897 173.22 35.0166 172.56 37.4525C172.004 39.5055 171.416 41.5657 171.021 43.6586C170.965 43.9599 170.914 44.2649 170.861 44.568C170.838 44.7042 170.814 44.8439 170.838 44.9819C170.861 45.118 170.945 45.2542 171.074 45.3014C171.552 45.4774 171.67 44.6969 171.723 44.4083C171.723 44.4083 172.604 39.5291 175.773 30.1882C176.813 27.1224 178.218 23.3922 179.688 19.6783C181.318 19.9052 182.932 20.241 184.514 20.6876C185.374 20.929 186.226 21.2049 187.045 21.5588C187.768 21.8711 188.7 22.2504 189.248 22.8385C189.297 22.8912 189.344 22.9529 189.353 23.0255C189.369 23.1544 189.266 23.2633 189.172 23.3504C188.883 23.6173 188.595 23.8859 188.305 24.1527C188.595 24.1691 188.892 24.1782 189.175 24.1092C189.567 24.0148 189.98 23.7189 190.004 23.2833C190.013 23.04 189.899 22.8059 189.739 22.6262ZM134.346 23.6336C134.366 23.4303 135.349 22.4065 135.309 22.864C135.269 23.3196 134.752 23.6336 134.752 23.6336C134.431 23.9095 134.326 23.8351 134.346 23.6336ZM147.114 24.6065C146.719 25.4578 145.564 26.4344 145.564 26.4344C145.564 26.4344 145.311 26.5542 145.211 26.3908C145.109 26.2293 145.14 25.9643 145.575 24.8897C146.01 23.8151 146.598 23.1453 146.931 23.227C147.267 23.3087 147.51 23.7552 147.114 24.6065ZM168.187 23.7116C166.376 25.358 164.397 26.9191 162.154 27.9337C161.443 28.255 160.706 28.4692 159.971 28.7234C159.42 28.9139 158.469 29.1445 158.193 28.4184C157.994 27.892 158.053 27.3166 158.242 26.7539C158.459 26.723 158.677 26.6922 158.895 26.6649C159.288 26.6141 159.703 26.5978 160.086 26.5034C160.852 26.3128 161.599 26.0877 162.348 25.8336C162.718 25.7083 163.088 25.5777 163.463 25.476C163.855 25.3707 164.279 25.3326 164.645 25.1475C164.707 25.1166 164.899 25.0131 164.785 24.9296C164.669 24.8461 164.411 24.9206 164.286 24.9387C164.072 24.9714 163.86 25.0149 163.65 25.0658C163.227 25.1692 162.814 25.2999 162.395 25.4125C161.536 25.6466 160.66 25.8136 159.783 25.9734C159.346 26.0532 158.904 26.1349 158.459 26.2111C158.719 25.6611 159.067 25.1438 159.37 24.7281C160.182 23.61 161.239 22.6752 162.417 21.96C164.504 20.6912 166.924 20.0722 169.339 19.7128C170.361 19.5603 171.389 19.4569 172.419 19.3933C171.079 20.9036 169.678 22.3557 168.187 23.7116ZM174.781 18.2952C175.368 17.5727 175.943 16.8376 176.509 16.0934C177.439 14.8699 178.367 13.6429 179.297 12.4194C179.768 11.7986 180.241 11.1779 180.714 10.5589C181.148 9.99073 181.528 9.25559 182.083 8.79998C181.982 9.32638 181.721 9.8546 181.536 10.3574C181.322 10.9419 181.106 11.5264 180.894 12.1109C180.145 14.1747 179.397 16.2386 178.65 18.3042C178.613 18.4041 178.577 18.5039 178.541 18.6037C177.295 18.4513 176.039 18.3551 174.781 18.2952Z" fill="#606060"/>
<path d="M178.236 26.625C178.126 26.9299 178.205 27.5072 178.205 27.5072C178.205 27.5072 178.267 28.4002 178.934 28.206C179.601 28.0118 179.987 27.4364 179.581 26.9281C179.179 26.4217 178.349 26.3219 178.236 26.625Z" fill="#606060"/>
<path d="M150.309 33.4246C150.508 33.7151 150.457 34.1144 150.312 34.4375C150.124 34.8586 149.856 35.2362 149.584 35.6065C149.303 35.9895 149.036 36.3725 148.791 36.7791C148.777 36.8027 148.764 36.8263 148.761 36.8535C148.755 36.9116 148.851 36.9769 148.893 37.006C148.964 37.0568 149.049 37.0877 149.13 37.0441C149.31 36.9497 149.482 36.8444 149.647 36.7282C150.024 36.4614 150.367 36.1438 150.66 35.7862C151.217 35.1055 151.523 34.1688 151.266 33.3284C151.027 32.5461 150.338 31.9652 149.576 31.6675C148.815 31.3699 147.983 31.3154 147.167 31.2936C143.721 31.2029 140.283 31.6294 136.877 32.154C132.548 32.8202 128.244 33.6479 123.975 34.6335C119.714 35.6174 115.507 36.7918 111.274 37.87C111.143 37.9027 111.013 37.9372 110.882 37.9698C107.695 38.7794 104.446 39.5962 101.132 39.4637C99.8125 39.4111 98.4329 39.1806 97.3887 38.3692C96.4025 37.6032 95.8314 36.3924 95.6429 35.1581C95.4543 33.9238 95.6175 32.6604 95.8858 31.4425C96.6399 28.0317 98.2172 24.8516 100.079 21.8983C104.765 14.4615 111.364 8.24632 119.062 4.01696C120.913 3.00046 122.858 2.08561 124.945 1.76433C125.233 1.72076 125.606 1.73347 125.715 2.00393C125.804 2.22175 125.65 2.45772 125.503 2.64106C123.4 5.29121 121.014 7.71447 118.398 9.86001C117.925 10.2485 117.414 10.6732 117.28 11.2704C117.146 11.8676 117.657 12.6173 118.244 12.4503C118.418 12.4013 118.563 12.2851 118.701 12.1707C118.846 12.0509 118.991 11.9311 119.134 11.8095C121.832 9.53691 124.281 6.97025 126.424 4.16762C126.903 3.54138 127.392 2.8135 127.281 2.03116C127.156 1.13991 126.254 0.52093 125.36 0.426541C124.466 0.333967 123.583 0.646177 122.747 0.978355C114.147 4.39452 106.624 10.3792 101.132 17.8359C98.6051 21.2666 96.4822 25.0385 95.2495 29.119C94.7999 30.6075 94.4681 32.1522 94.5461 33.7042C94.6222 35.2561 95.1407 36.8263 96.2067 37.9571C97.3053 39.1207 98.8915 39.7233 100.476 39.9248C101.558 40.0609 102.653 40.0518 103.737 39.9556C104.758 39.8667 105.826 39.5309 106.845 39.5454C107.787 39.5599 108.757 39.1624 109.667 38.9174C110.721 38.636 111.774 38.3546 112.829 38.0787C117.048 36.9715 121.283 35.9169 125.556 35.0365C129.81 34.1598 134.103 33.4537 138.429 33.0453C140.849 32.8165 143.28 32.6822 145.711 32.6604C146.962 32.6495 148.226 32.6713 149.442 32.9599C149.758 33.0344 150.118 33.1487 150.309 33.4246Z" fill="#606060"/>
<path d="M121.101 24.3615C120.847 24.7027 120.485 24.946 120.131 25.1838C119.8 25.4052 119.468 25.6267 119.138 25.8481C119.078 25.888 119.015 25.9298 118.942 25.928C118.746 25.928 118.694 25.6503 118.739 25.4597C118.831 25.0603 119.062 24.7082 119.192 24.3197C119.406 23.6881 119.343 22.9674 119.022 22.3829C118.717 21.8275 118.135 21.3846 117.503 21.4046C116.904 21.4245 116.393 21.8329 115.974 22.2631C115.102 23.158 114.415 24.2308 113.966 25.398C113.846 25.7102 113.741 26.0387 113.766 26.3727C113.792 26.7067 113.975 27.0461 114.285 27.1696C114.733 27.3475 115.213 27.028 115.586 26.723C116.373 26.0805 117.145 25.4215 117.901 24.7427C117.795 25.3707 117.762 26.1712 118.318 26.4816C118.567 26.6196 118.87 26.6105 119.152 26.5706C119.907 26.4616 120.632 26.1494 121.228 25.6739C121.215 26.5796 122.165 27.3674 123.052 27.1859C123.42 27.1115 123.744 26.9045 124.054 26.694C125.046 26.0206 125.983 25.2691 126.855 24.445C126.799 24.848 126.745 25.2654 126.859 25.6575C126.973 26.0496 127.305 26.4072 127.711 26.4163C127.905 26.4199 128.092 26.3473 128.268 26.2674C128.88 25.9897 129.45 25.6158 129.948 25.162C129.165 27.0389 128.373 28.9448 128.133 30.9651C128.048 31.6785 128.068 32.4917 128.578 32.9963C128.741 33.1578 129.049 33.2558 129.17 33.0616C128.755 32.8783 128.507 32.4281 128.447 31.978C128.387 31.5278 128.489 31.0722 128.603 30.6329C129.116 28.6707 129.912 26.7956 130.708 24.9296C130.972 24.307 131.253 23.6826 131.763 23.2179C132.033 22.9711 132.27 22.6716 132.519 22.3993C133.15 21.7095 133.779 21.0179 134.41 20.3282C135.12 19.5513 135.831 18.7744 136.543 17.9975C137.18 17.3041 137.816 16.6107 138.454 15.9191C139.489 14.7991 140.534 13.7282 141.337 12.4194C141.748 11.7478 142.136 11.0472 142.372 10.2921C142.444 10.0543 142.468 9.78562 142.354 9.56417C142.332 9.52424 142.308 9.48612 142.279 9.45163C142.189 9.3409 142.064 9.25559 141.93 9.20114C140.929 8.78909 139.888 9.63315 139.198 10.2721C138.242 11.1579 137.444 12.2071 136.665 13.2472C135.884 14.2891 135.133 15.3564 134.415 16.4437C133.714 17.5056 133.037 18.5874 132.428 19.7056C132.245 20.0432 132.067 20.3844 131.902 20.7329C131.806 20.9344 131.712 21.1341 131.618 21.3374C131.525 21.5353 131.451 21.7749 131.328 21.9546C131.31 21.9219 131.286 21.8928 131.259 21.8656C130.684 21.2957 129.928 20.9399 129.132 21.292C128.83 21.4263 128.569 21.6532 128.391 21.9328C128.177 22.2686 127.907 22.5536 127.64 22.8494C126.663 23.9349 125.572 24.9187 124.392 25.7773C124.038 26.0351 123.676 26.2819 123.306 26.5179C122.965 26.7339 122.428 26.9009 122.229 26.5488C122.178 26.4598 122.165 26.3564 122.156 26.2565C122.106 25.7283 122.122 25.1801 122.33 24.6918C122.629 23.9948 123.271 23.5174 123.859 23.0382C124.975 22.127 125.987 21.0851 126.883 19.9542C127.789 18.8107 128.561 17.5818 129.237 16.293C129.346 16.0861 129.457 15.881 129.555 15.6686C129.752 15.2439 129.906 14.7846 129.897 14.3163C129.885 13.6411 129.415 12.8351 128.654 12.8678C128.181 12.8878 127.794 13.2363 127.461 13.5739C124.814 16.264 122.8 19.5749 121.627 23.1635C121.491 23.5846 121.362 24.0112 121.101 24.3615ZM118.01 23.2197C117.655 23.757 115.824 25.2164 115.824 25.2164C115.824 25.2164 115.648 25.3253 115.583 25.2509C115.518 25.1747 115.572 25.0404 115.643 24.9206C115.713 24.8008 117.231 23.0056 117.584 22.7224C117.94 22.4374 118.364 22.6806 118.01 23.2197ZM132.932 20.6422C132.932 20.6422 133.026 19.8853 135.606 16.4509C138.184 13.0166 141.007 10.1795 141.168 10.3138C141.329 10.4482 141.411 10.3538 140.479 12.1653C139.547 13.9769 133.121 20.7493 133.121 20.7493C132.689 21.0742 132.932 20.6422 132.932 20.6422ZM128.596 24.0493C128.596 24.0493 129.872 22.1433 130.095 22.1433C130.318 22.1433 130.592 23.3795 130.592 23.3795C130.592 23.3795 128.414 25.5795 128.141 25.2763C127.867 24.9732 128.596 24.0493 128.596 24.0493ZM124.17 20.3173C124.97 18.8161 126.966 15.9064 126.966 15.9064C126.966 15.9064 128.637 13.6955 128.737 14.1929C128.837 14.6902 128.585 15.429 127.187 17.7306C125.789 20.0323 123.654 22.1615 123.532 22.1415C123.411 22.1216 123.371 21.8184 124.17 20.3173Z" fill="#606060"/>
<path d="M146.15 21.4772C146.454 21.5316 146.656 21.2938 146.656 21.2938C146.656 21.2938 147.642 20.7729 148.242 20.1176C148.842 19.4623 148.568 19.1574 148.436 18.9958C148.304 18.8343 147.736 18.847 147.303 19.5494C146.871 20.2519 145.999 20.8673 145.967 21.0088C145.934 21.1522 145.845 21.4227 146.15 21.4772Z" fill="#606060"/>
<path d="M66.4914 11.1325C65.1951 7.37141 62.8057 4.65409 58.2083 2.57571C53.6108 0.497334 46.2613 0.34849 43.1758 0.598984C40.0902 0.849478 34.1041 1.92406 31.8216 3.21465C29.5392 4.50524 28.9518 5.14055 28.8449 5.98643C28.7361 6.83048 29.8093 7.26976 30.074 7.33147C30.3387 7.39319 30.3913 7.29698 30.3514 7.21711C30.3115 7.13725 27.6719 6.70342 30.7502 4.56696C33.8285 2.4305 38.7016 1.74254 46.2087 1.52472C53.7159 1.30872 61.4787 3.5795 63.9624 8.22998C66.446 12.8805 64.9885 17.2877 63.4765 21.194C61.9646 25.1002 58.2645 30.3461 53.337 35.1164C48.4096 39.8867 41.5641 44.1741 36.5279 44.931C31.4917 45.688 29.1168 43.2683 28.6563 39.3475C28.1977 35.4268 29.9924 29.9522 35.4601 23.8695C37.6446 21.439 40.3477 19.5748 42.8621 18.1953C41.6457 21.0578 40.3477 24.1473 39.7023 25.7156C38.4568 28.736 36.604 33.9329 36.1835 35.3469C35.7629 36.7609 35.1211 39.0989 35.1048 39.4183C35.0885 39.7378 35.1392 39.707 35.3822 39.707C35.6251 39.707 36.0294 36.7863 39.3506 29.0827C41.071 25.0912 43.212 20.5841 44.8763 17.1679C47.7696 15.792 50.0883 15.1059 50.527 14.957C51.419 14.6521 51.37 14.5577 51.303 14.4034C51.2359 14.2473 50.4328 14.505 50.4328 14.505C50.4328 14.505 48.0742 15.3019 46.9702 15.7085C46.3955 15.9409 45.8117 16.1932 45.2225 16.4636C46.5913 13.6646 47.5612 11.7551 47.5612 11.7551C47.902 11.0798 48.4422 9.76199 48.3099 9.59863C48.1775 9.43526 47.6917 9.04137 47.2258 9.06133C46.7599 9.0813 46.2939 10.41 45.4546 12.2143C45.0866 13.0039 44.1783 15.1077 43.1703 17.4783C40.4365 18.9359 37.6156 20.8745 34.9217 23.5464C30.9533 27.4799 29.0697 31.82 28.2793 34.5355C27.4888 37.2528 27.6103 40.3241 28.805 42.4842C29.9997 44.6442 32.8858 46.1545 37.3401 45.5264C41.7962 44.8984 45.7954 42.8091 50.5633 39.3312C55.3312 35.8533 58.056 32.7712 59.9903 30.622C61.9247 28.4728 64.8706 23.2415 65.6194 21.223C66.3699 19.2027 67.7876 14.8935 66.4914 11.1325Z" fill="#606060"/>
<path d="M96.4295 22.893C96.4422 22.7786 96.0579 22.6843 95.3436 22.8803C94.6764 23.0636 93.3005 23.5537 92.5807 24.0928C92.5844 23.6318 92.5771 23.1707 92.5717 22.7097C92.5662 22.2994 92.5934 21.94 92.8019 21.577C92.9669 21.292 93.1971 21.047 93.3349 20.7456C93.4999 20.3899 93.4183 20.1612 93.1391 19.9034C92.9651 19.7437 92.724 19.5222 92.4647 19.6003C92.3741 19.6275 92.2979 19.6928 92.2399 19.7673C92.0967 19.9524 92.0278 20.1848 91.8846 20.3717C91.7359 20.5641 91.5583 20.7311 91.3842 20.8999C90.3473 21.891 89.1943 22.7823 88.0394 23.6318C87.7838 23.8278 87.5264 24.0239 87.2672 24.2144C87.24 24.2344 86.9626 24.3996 86.9626 24.4268C86.9626 24.3796 86.7541 22.7042 86.8139 22.6425C86.8738 22.5808 88.3803 20.8709 88.3259 20.5206C88.2715 20.1684 87.3868 19.5331 86.6308 20.4189C85.8749 21.3047 85.7262 22.4537 85.7262 22.4537C85.7262 22.4537 82.9253 24.9605 82.3923 25.4615C81.8593 25.9625 80.9674 26.4616 80.9275 25.9008C80.8876 25.3399 82.2509 23.2651 82.4394 22.9275C82.628 22.5899 82.9398 22.0018 82.2636 21.7386C81.5892 21.4754 81.2919 22.6244 80.3727 23.6046C79.4554 24.5847 78.016 25.8554 77.6987 25.3889C77.3815 24.9224 78.2589 22.5173 77.6171 22.0235C77.2528 21.7422 76.8539 21.9527 76.5348 22.1887C76.1487 22.4737 75.8423 22.8258 75.5468 23.2016C75.2803 23.5428 75.0301 23.9204 74.6766 24.18C74.6585 24.1945 74.6386 24.2072 74.615 24.209C74.5751 24.2126 74.5389 24.1745 74.5316 24.1346C74.5243 24.0947 74.5352 24.0529 74.5479 24.0148C74.8253 23.1435 75.5523 22.3884 75.3746 21.41C75.313 21.0724 75.0972 20.7275 74.7618 20.6658C74.3286 20.5859 73.975 20.9907 73.7158 21.3465C72.4921 23.0201 71.1125 24.5793 69.6042 25.9988C68.9552 26.6087 68.2753 27.1986 67.503 27.6433C67.1966 27.8194 66.8685 27.9737 66.5168 27.9973C66.098 28.0263 65.8479 27.7668 65.8007 27.3638C65.6974 26.4907 66.127 25.4869 66.4842 24.71C66.8613 23.8914 67.3526 23.1272 67.9381 22.4447C68.3261 21.9945 68.7539 21.5806 69.2198 21.2103C69.3195 21.1323 69.4464 21.0506 69.5643 21.0978C69.6857 21.1468 69.722 21.3047 69.7075 21.4354C69.6839 21.6623 69.5733 21.8674 69.4555 22.0635C68.9316 22.942 68.2699 23.7298 67.6118 24.5121C67.581 24.5484 67.5447 24.5866 67.4976 24.5866C67.4214 24.5847 67.3906 24.4904 67.3362 24.4395C67.242 24.3524 67.0842 24.405 66.9972 24.4994C66.7869 24.7281 66.8848 25.1565 67.1713 25.2727C67.4758 25.3961 67.8094 25.1874 68.0596 24.9732C68.7793 24.3633 69.383 23.63 69.9722 22.8948C70.2115 22.5953 70.4526 22.2904 70.6031 21.9382C70.7535 21.5861 70.8097 21.1758 70.6683 20.8201C70.4308 20.2156 69.6821 19.9361 69.044 20.0504C68.4058 20.1648 67.8638 20.5841 67.3997 21.0379C66.3283 22.0834 65.507 23.3885 65.0393 24.8116C64.8381 25.4215 64.7021 26.0659 64.7637 26.7049C64.8254 27.3438 65.1082 27.9828 65.6176 28.3712C66.3863 28.9557 67.242 28.6562 68.0016 28.2369C68.8428 27.7722 69.5679 27.1278 70.2477 26.4544C70.4671 26.2384 70.6828 26.0169 70.8968 25.7955C71.8957 24.7681 72.8927 23.7316 73.7285 22.5681C73.7956 22.4755 73.9243 22.372 74.0059 22.4537C74.053 22.5009 74.0421 22.5808 74.0258 22.6443C73.6741 24.022 72.619 25.162 72.4522 26.5941C72.4432 26.6758 72.4377 26.7575 72.4432 26.8392C72.4577 27.0352 72.5356 27.2367 72.6951 27.3547C72.9526 27.5435 73.2173 27.3856 73.4167 27.2004C74.5171 26.1767 75.293 24.8697 76.2466 23.7171C76.4007 23.5301 76.553 23.3395 76.7451 23.1889C76.7705 23.1689 76.7995 23.1489 76.8303 23.1489C76.8666 23.1489 76.8992 23.1744 76.9174 23.207C76.9355 23.2397 76.9391 23.276 76.9446 23.3123C76.9917 23.7697 76.8612 24.2199 76.8775 24.6773C76.8902 25.0621 77.0479 25.4833 77.3089 25.7682C77.7966 26.3001 78.4928 26.1494 79.0421 25.7918C79.2161 25.6793 79.3775 25.5486 79.5316 25.4125C79.6476 25.3108 79.8289 25.0295 79.9902 25.0204C80.0754 25.0168 80.0718 25.9407 80.0754 26.0187C80.0936 26.3255 80.1788 26.6522 80.4416 26.8392C80.7788 27.077 81.2574 27.0135 81.6236 26.8882C82.1929 26.6958 82.7023 26.3527 83.1646 25.9752C83.6523 25.5758 84.1345 25.171 84.6004 24.7481C84.905 24.4722 85.2005 24.1836 85.4978 23.8986C85.5775 23.8224 85.6573 23.6281 85.7969 23.7316C85.8404 23.7643 85.8676 23.8151 85.8894 23.8659C86.0706 24.2635 86.154 24.7009 86.1849 25.1347C86.1867 25.1511 86.1867 25.1674 86.1849 25.1838C86.1649 25.2927 86.0271 25.378 85.951 25.4451C85.873 25.4451 85.6537 25.7065 85.592 25.7646C85.4561 25.8935 85.3219 26.0278 85.1914 26.1621C84.8705 26.4889 84.5134 26.8138 84.2922 27.2204C84.12 27.5399 84.0402 27.9483 84.0565 28.3113C84.0656 28.5073 84.1309 28.7106 84.2813 28.8341C84.4209 28.9502 84.6149 28.9829 84.7944 28.9611C85.7208 28.8522 86.4078 28.0209 86.8919 27.3002C87.0967 26.9953 87.2001 26.6305 87.2418 26.2692C87.2617 26.0895 87.2672 25.9062 87.2563 25.7265C87.2545 25.6847 87.191 25.3253 87.2146 25.3072C87.8727 24.8171 88.5307 24.3288 89.1943 23.8478C89.8179 23.3958 90.4379 22.9275 91.1014 22.5336C91.1322 22.5154 91.4132 22.3285 91.4477 22.3866C91.5619 22.5753 91.6235 24.6973 91.6235 24.6973C91.6235 24.6973 90.6917 25.2927 90.3418 25.6303C90.0409 25.9189 89.5895 26.1821 89.5732 26.6468C89.5659 26.861 89.6565 27.0371 89.7853 27.2004C89.9104 27.3602 90.0862 27.5017 90.282 27.5598C90.4995 27.6252 90.7334 27.587 90.9364 27.4981C91.5148 27.2458 92.0042 26.7956 92.2907 26.2329C92.5427 25.7392 92.5535 25.2255 92.5644 24.6828C92.8726 24.4069 93.5488 23.8841 94.6112 23.4975C96.1268 22.9402 96.4168 23.0074 96.4295 22.893ZM85.7316 26.8537C85.7135 26.8882 85.6954 26.9245 85.6773 26.959C85.641 27.0298 85.6029 27.0988 85.563 27.1677C85.4905 27.2912 85.3944 27.4709 85.2639 27.5544C85.2458 27.5671 85.2258 27.5762 85.2041 27.5834C85.1624 27.5998 85.1134 27.6034 85.0736 27.5834C85.0282 27.5598 85.001 27.509 84.9956 27.4582C84.9902 27.4001 85.0047 27.3311 85.0391 27.2821C85.1298 27.1532 85.2494 27.0443 85.3636 26.9372C85.4234 26.8828 85.4833 26.8301 85.5449 26.7793C85.5794 26.7503 85.6138 26.7067 85.6609 26.6976C85.7008 26.6885 85.7679 26.7212 85.7679 26.7684C85.7697 26.7974 85.7443 26.8301 85.7316 26.8537ZM91.212 25.8445C91.1685 25.9334 91.1268 26.0224 91.0815 26.1095C91.0325 26.2021 90.9818 26.2946 90.9165 26.3781C90.8766 26.429 90.8313 26.4762 90.7787 26.5143C90.7044 26.5687 90.6192 26.605 90.5231 26.6032C90.4887 26.6014 90.4488 26.5941 90.4288 26.5651C90.4071 26.5342 90.4143 26.4907 90.427 26.4544C90.4633 26.3473 90.534 26.2602 90.6029 26.173C90.6718 26.0859 90.7461 26.0006 90.8259 25.9225C90.9038 25.8463 91.018 25.7247 91.1322 25.7083C91.1794 25.7011 91.2338 25.7301 91.2301 25.7846C91.2319 25.8045 91.2211 25.8245 91.212 25.8445Z" fill="#606060"/>
<path d="M82.0515 20.8745C82.4975 20.7184 82.5773 20.2737 82.7531 20.2265C82.929 20.1793 83.3604 20.2138 83.4221 20.0922C83.4837 19.9706 82.8746 19.1991 82.4775 19.132C82.0787 19.0648 81.756 20.0849 81.756 20.0849C81.5929 20.4897 81.6055 21.0306 82.0515 20.8745Z" fill="#606060"/>
<path d="M33.7089 21.2975C33.7089 21.2975 34.202 20.791 34.0932 20.4044C33.9845 20.0196 33.3717 20.2701 33.0545 20.742C32.7372 21.214 32.8043 21.5534 33.1215 21.5806C33.4388 21.6079 33.7089 21.2975 33.7089 21.2975Z" fill="#606060"/>
<path d="M28.4843 18.1137C28.6058 18.0265 28.9629 18.1754 29.1116 18.2897C29.2892 18.4277 28.9973 18.8597 28.9176 18.9759C28.6366 19.3934 28.2595 19.731 28.2051 20.2628C28.187 20.4353 28.2087 20.6114 28.2631 20.7765C28.3483 21.0397 28.5097 21.283 28.7272 21.4536C29.2493 21.8638 29.9582 21.6841 30.5075 21.4373C30.6072 21.3919 30.7051 21.3429 30.8012 21.2884C31.4846 20.9072 32.0412 20.3554 32.576 19.7909C32.6014 19.7637 32.6267 19.7364 32.6413 19.7038C32.6467 19.6911 32.6503 19.6784 32.6521 19.6638C32.6703 19.5095 32.4763 19.4714 32.3675 19.5041C32.2424 19.5404 32.1355 19.633 32.0357 19.7128C31.7983 19.9071 31.5789 20.1249 31.3487 20.3282C31.0894 20.5551 30.7703 20.7185 30.4549 20.851C30.1377 20.9817 29.8276 21.1087 29.4796 21.1087C29.4524 21.1087 29.4216 21.1069 29.4034 21.0869C29.3762 21.0579 29.3889 21.0125 29.4052 20.9762C29.5213 20.7112 29.7062 20.4734 29.8603 20.2302C30.105 19.8454 30.3606 19.466 30.551 19.0521C30.5709 19.0104 30.5891 18.9686 30.6054 18.9269C30.8773 18.1972 29.7986 17.9195 29.3291 17.669C28.9502 17.4657 29.0934 17.0935 29.1206 17.0609C29.1986 16.9629 29.2947 16.9084 29.3509 16.7868C29.4216 16.6325 29.4052 16.4619 29.311 16.3203C29.2258 16.1932 29.0934 16.1025 28.9538 16.0389C28.8161 15.9754 28.6529 15.9373 28.5151 16.0026C28.187 16.1605 28.2287 16.5744 28.1199 16.8648C28.0329 17.0972 27.8697 17.3223 27.7501 17.5383C27.6286 17.7597 27.5053 17.9794 27.3821 18.2008C26.8636 19.1302 26.356 20.0686 25.8048 20.9798C25.4531 21.5607 24.583 22.9802 24.3201 23.6826C24.2621 23.8369 24.1932 24.0021 24.2059 24.1691C24.2149 24.3089 24.34 24.5031 24.5032 24.4123C24.5721 24.3742 24.6138 24.2998 24.65 24.229C24.7661 23.9967 24.8494 23.7498 24.9582 23.5138C25.1522 23.0891 25.4241 22.7043 25.6761 22.314C25.9408 21.9038 26.2055 21.4953 26.472 21.0887C27.0702 20.1739 27.6667 19.2572 28.2939 18.3624C28.3501 18.2879 28.4082 18.1681 28.4843 18.1137Z" fill="#606060"/>
<path d="M27.6829 15.5143C27.9657 14.153 28.011 12.7535 27.8171 11.3757C27.6611 10.2739 27.1825 9.24291 26.4665 8.3934C25.7304 7.5203 24.7732 6.85232 23.7417 6.37311C22.3222 5.71602 20.7468 5.40381 19.1859 5.40381C17.9676 5.40381 16.7548 5.60892 15.5692 5.87394C14.3346 6.14985 13.12 6.51288 11.9325 6.95215C10.6707 7.41865 9.43978 7.97047 8.25778 8.61122C7.05402 9.26287 5.90102 10.0071 4.82598 10.8566C4.19509 11.354 3.59321 11.8876 3.0294 12.4594C2.12658 13.3724 1.26002 14.3617 0.640014 15.4926C0.244804 16.2114 -0.0688263 17.0318 0.0127537 17.865C0.0544502 18.2897 0.199481 18.7109 0.484105 19.034C0.855748 19.4551 1.4395 19.7074 1.96524 19.878C2.28793 19.9815 2.6215 20.0505 2.9587 20.0831C3.14543 20.1013 3.33216 20.1067 3.5207 20.1067C3.66029 20.1067 3.83433 20.1267 3.96304 20.0614C4.23498 19.9216 3.62584 19.8163 3.56964 19.8109C3.37748 19.7963 3.18531 19.809 2.99315 19.8C2.51998 19.7782 2.05226 19.6439 1.63892 19.4115C1.05879 19.0848 0.576563 18.5275 0.480479 17.8686C0.409777 17.3785 0.554808 16.8794 0.781419 16.4401C1.07692 15.8665 1.49751 15.3764 1.86371 14.8518C2.30969 14.2129 3.20707 13.4051 3.20707 13.4051C3.20707 13.4051 8.27047 8.36255 16.3161 6.82146C20.1231 6.25331 24.3091 6.11899 26.0912 9.15941C26.8163 10.3974 26.7801 11.9602 26.5589 13.3325C26.3051 14.9026 25.7721 16.4346 25.0868 17.8668C24.2275 19.6638 23.022 21.214 21.597 22.5972C20.0724 24.0783 18.419 25.3962 16.6061 26.5052C16.443 26.6051 16.278 26.7031 16.113 26.8011C12.3603 29.0047 11.6443 27.8158 11.6841 26.4762C11.724 25.1366 12.8861 22.5028 13.3176 22.029C13.749 21.5552 13.7907 21.5026 13.8034 21.6769C13.8161 21.8511 12.993 23.65 13.3846 24.2453C13.7762 24.8407 14.3165 24.2726 14.2349 24.0965C14.1533 23.9204 13.3973 24.4214 13.6946 23.7988C13.992 23.1762 15.5855 19.4732 16.0024 18.7835C16.4194 18.0937 20.4984 15.7558 20.4585 15.5125C20.4186 15.2693 20.134 15.3782 19.6355 15.7013C19.1369 16.0244 16.8418 17.364 16.8418 17.364C16.8418 17.364 19.8657 12.6337 20.1086 12.267C20.3516 11.9003 20.3915 11.55 19.9328 11.1997C19.4741 10.8475 19.0952 11.2124 18.7182 11.8894C18.3393 12.5647 14.398 19.8236 14.398 19.8236C14.398 19.8236 12.2244 21.6896 11.3596 24.6628C11.0152 25.8499 10.707 27.6924 11.9869 28.4602C12.4727 28.7524 13.0202 28.8994 13.5877 28.8994C14.4561 28.9013 15.3063 28.5709 16.0895 28.2169C16.8219 27.8866 17.5271 27.4981 18.2105 27.077C19.8621 26.0623 21.403 24.8607 22.8135 23.532C22.9494 23.4049 23.0818 23.276 23.2141 23.1472C24.2892 22.0962 25.2554 20.9272 26.0332 19.6384C26.8036 18.366 27.3783 16.9756 27.6829 15.5143Z" fill="#606060"/>
</g>
<defs>
<clipPath id="clip0_58_5925">
<rect width="190" height="56" fill="white"/>
</clipPath>
</defs>
</svg>
