<svg width="272" height="56" viewBox="0 0 272 56" fill="none" xmlns="http://www.w3.org/2000/svg">
<g clip-path="url(#clip0_58_5911)">
<path d="M8.51007 15.9491C5.63947 15.9491 0 16.1641 0 16.1641V34.8911H6.48144C6.48144 34.8911 11.1264 35.2362 13.3302 31.819C15.534 28.4017 16.0538 26.7383 15.4662 22.6478C14.8841 18.563 11.3863 15.9491 8.51007 15.9491ZM10.8438 29.3748C9.4594 32.1075 4.06291 32.1358 4.06291 32.1358L3.75776 19.1174C3.75776 19.1174 8.21057 18.6874 10.1544 20.6337C12.0983 22.5799 12.2283 26.6478 10.8438 29.3748Z" fill="black"/>
<path d="M27.1293 20.3791C27.1293 20.3791 24.0609 19.966 22.5917 21.3522L21.8119 22.3027V20.8317L18.2236 20.9844V34.9024H22.3487V24.7072C22.3487 24.7072 23.1455 23.7793 27.1236 24.1018V20.3791H27.1293Z" fill="black"/>
<path d="M30.2203 35.1513C31.6653 35.1513 32.8366 33.9076 32.8366 32.3734C32.8366 30.8392 31.6653 29.5955 30.2203 29.5955C28.7754 29.5955 27.604 30.8392 27.604 32.3734C27.604 33.9076 28.7754 35.1513 30.2203 35.1513Z" fill="black"/>
<path d="M54.2079 31.5474C54.2079 31.5474 49.6647 33.4653 45.8391 30.5686C42.0135 27.6718 39.6402 24.4696 39.9623 19.5191C40.2844 14.5686 42.0983 10.6761 47.0879 9.11454C52.0776 7.55867 57.847 9.61242 57.847 9.61242L58.3895 3.38328C58.3895 3.38328 55.9031 2.19516 51.5859 2.17253C44.822 2.13293 40.9964 4.5714 36.9617 8.5714C32.9214 12.5714 31.9947 18.8684 32.6389 23.3437C33.2887 27.8189 35.8768 35.2588 45.2345 37.1202C54.5865 38.9816 60.808 36.1471 60.808 36.1471V19.8416L53.7897 20.3225L54.2079 31.5474Z" fill="black"/>
<path d="M82.3431 16.4639C82.0549 15.2532 79.3764 10.6987 72.7255 11.1853C66.0745 11.6718 62.9609 12.5997 62.9609 12.5997L62.4976 17.3861C62.4976 17.3861 67.8828 16.2885 72.3751 16.5488C76.8675 16.809 76.342 21.8274 76.342 21.8274C76.342 21.8274 66.9052 21.7426 63.3621 25.488C63.3621 25.488 59.4744 29.7822 62.3563 34.8288C65.2382 39.8755 73.6748 37.0806 74.3077 36.5884C74.9406 36.0962 76.698 35.1457 76.698 35.1457L77.1896 36.9618H83.4394C83.4394 36.9618 82.2866 35.4059 82.3431 33.3295C82.3996 31.2588 82.6313 17.6747 82.3431 16.4639ZM76.5228 31.7793C76.5228 31.7793 73.7596 33.4257 70.5047 32.8486C67.2499 32.2716 66.9899 29.6747 68.4309 27.7454C69.8718 25.8161 76.5228 25.437 76.5228 25.437V31.7793Z" fill="black"/>
<path d="M107.399 16.396C104.72 11.3324 99.0581 10.4272 96.73 10.9477C94.4019 11.4682 91.2883 13.1089 91.2883 13.1089L91.4635 0.220651L83.9536 0C83.9536 0 84.9312 6.65912 84.8916 10.7723C84.8464 14.8798 85.0216 35.4682 84.6317 36.4639H90.5481L91.1075 35.4286C91.1075 35.4286 92.5315 37.4201 95.4699 37.4201C98.4083 37.4201 102.855 37.6351 105.924 32.9675C108.992 28.2999 110.077 21.454 107.399 16.396ZM99.6232 31.1004C96.2553 34.2122 91.0905 31.3154 91.0905 31.3154C91.0905 31.3154 91.1527 29.3861 91.1131 27.6096C91.0679 25.8388 90.7232 18.0764 90.7232 18.0764C91.7178 16.6902 98.0692 14.529 100.358 18.0311C102.646 21.5389 102.991 27.9887 99.6232 31.1004Z" fill="black"/>
<path d="M120.791 12.1132C118.112 12.2886 115.824 15.0552 115.824 15.0552L114.875 12.9335L108.698 12.8034C108.698 12.8034 109.992 24.6563 109.478 30.9251C108.958 37.1995 108.958 37.1995 108.958 37.1995H116.129C116.129 37.1995 115.784 22.4951 116.129 20.7186C116.474 18.9477 119.022 18.2518 121.531 18.2971C124.034 18.3423 124.424 18.7101 124.424 18.7101L126.238 12.8034C126.238 12.8034 123.469 11.9378 120.791 12.1132Z" fill="black"/>
<path d="M127.708 24.1358C127.493 29.3239 127.736 37.7539 127.736 37.7539H134.573V12.9335L126.883 13.3239C126.883 13.3239 127.922 18.9477 127.708 24.1358Z" fill="black"/>
<path d="M131.68 1.51624C129.295 1.51624 127.357 3.40591 127.357 5.73123C127.357 8.0622 129.29 9.94622 131.68 9.94622C134.065 9.94622 136.003 8.05655 136.003 5.73123C135.997 3.40025 134.065 1.51624 131.68 1.51624Z" fill="black"/>
<path d="M156.176 13.669C154.492 12.4583 149.655 9.34086 143.304 12.2829C136.952 15.2249 134.794 22.5799 136.003 27.983C137.212 33.3861 141.835 37.3295 148.531 37.8104C155.227 38.2914 158.9 36.594 158.9 36.594L158.945 31.4059C158.945 31.4059 154.498 33.1372 149.011 32.3168C143.524 31.4964 142.919 26.0028 142.919 26.0028L159.38 25.3522C160.584 18.116 157.86 14.8798 156.176 13.669ZM142.914 21.8897C142.914 21.8897 142.869 16.6563 147.581 16.0056C152.294 15.355 153.498 19.8529 153.543 21.8897H142.914Z" fill="black"/>
<path d="M162.008 22.4045C161.578 34.3423 161.013 37.7539 161.013 37.7539H168.444V1.51627L161.013 1.34088C161.013 1.34088 162.437 10.4668 162.008 22.4045Z" fill="black"/>
<path d="M203.134 13.0636C202.315 3.59262 193.454 3.72275 193.454 3.72275H178.768V37.1994H185.893L185.718 24.4752H193.324C193.33 24.4752 203.959 22.5346 203.134 13.0636ZM194.884 17.6464C192.29 21.1485 185.249 19.768 185.249 19.768V9.08626H191.341C191.341 9.08626 192.29 8.74114 194.149 9.82176C196.008 10.9024 197.478 14.1442 194.884 17.6464Z" fill="black"/>
<path d="M224.432 36.6789L223.742 34.3423C223.742 34.3423 223.222 29.669 223.567 22.925C223.912 16.1811 222.403 11.2475 215.662 11.157C208.92 11.0721 204.343 12.3678 204.343 12.3678L203.433 17.2108C203.433 17.2108 209.655 15.7398 213.458 16.5601C217.261 17.3805 217.3 20.4979 216.916 21.6238C216.916 21.6238 208.836 20.8883 204.258 25.1259C199.681 29.3635 202.49 36.0283 207.152 37.0184C211.814 38.0085 215.616 36.413 216.227 35.983C216.831 35.553 217.521 35.0325 217.521 35.0325V36.5488L224.432 36.6789ZM217.091 31.2758C217.091 31.2758 214.328 33.5672 211.085 32.5714C207.847 31.5757 207.977 28.4639 209.485 27.2079C210.994 25.9519 217.091 25.2617 217.091 25.2617V31.2758Z" fill="black"/>
<path d="M239.293 10.9024C234.196 10.6422 227.325 14.9703 226.246 21.3296C225.166 27.6888 227.026 34.4385 234.886 36.9449C242.746 39.4512 248.838 36.8147 248.838 36.8147L249.052 31.2758C249.052 31.2758 245.724 33.3522 239.463 32.1415C233.196 30.9307 232.981 25.2617 232.981 25.2617H249.657C249.657 25.2617 250.521 20.8091 249.397 17.4767C248.272 14.1443 244.396 11.157 239.293 10.9024ZM243.486 21.4088H233.117C233.117 21.4088 233.117 16.3451 238.259 15.9604C243.904 15.4456 243.486 21.4088 243.486 21.4088Z" fill="black"/>
<path d="M260.291 32.2659L271.181 17.9915L271.35 12.9335H252.646V17.9915L264.309 17.6917L252.646 32.3564V37.3465L272 37.1994V32.0962L260.291 32.2659Z" fill="black"/>
<path d="M222.234 0.0848389H214.842L210.135 9.02968H214.888L222.234 0.0848389Z" fill="black"/>
<path d="M29.9549 48.1245C27.9206 48.1245 26.4175 49.7086 26.4175 52.1301C26.4175 54.4385 27.8302 56 29.8419 56C31.7857 56 33.3792 54.6082 33.3792 51.983C33.3792 49.7199 32.0343 48.1245 29.9549 48.1245ZM29.8984 55.1966C28.35 55.1966 27.4685 53.7369 27.4685 52.1075C27.4685 50.4328 28.2822 48.9278 29.9097 48.9278C31.5484 48.9278 32.3395 50.512 32.3395 52.0283C32.3395 53.7595 31.458 55.1966 29.8984 55.1966Z" fill="black"/>
<path d="M38.5891 49.0863H40.9059V55.8756H41.9005V49.0863H44.2286V48.249H38.5891V49.0863Z" fill="black"/>
<path d="M52.9422 48.1245C50.9079 48.1245 49.4048 49.7086 49.4048 52.1301C49.4048 54.4385 50.8175 56 52.8292 56C54.773 56 56.3665 54.6082 56.3665 51.983C56.3665 49.7199 55.0217 48.1245 52.9422 48.1245ZM52.8857 55.1966C51.3373 55.1966 50.4558 53.7369 50.4558 52.1075C50.4558 50.4328 51.2695 48.9278 52.897 48.9278C54.5357 48.9278 55.3268 50.512 55.3268 52.0283C55.3268 53.7595 54.4453 55.1966 52.8857 55.1966Z" fill="black"/>
<path d="M65.9841 52.2433V52.2094C66.7865 51.9378 67.4194 51.2702 67.4194 50.2631C67.4194 49.6747 67.2047 49.1542 66.8204 48.8147C66.3457 48.3847 65.6676 48.1924 64.6166 48.1924C63.9385 48.1924 63.2265 48.249 62.7292 48.3508V55.8756H63.7125V52.5714H64.6392C65.532 52.6054 65.9389 53.0014 66.1649 54.0538C66.3796 55.0043 66.5492 55.6606 66.6735 55.8756H67.6906C67.5324 55.5814 67.3516 54.8458 67.1029 53.7822C66.9221 52.9901 66.5718 52.447 65.9841 52.2433ZM64.7183 51.8246H63.7125V49.041C63.8707 48.9958 64.2098 48.9505 64.6844 48.9505C65.7242 48.9618 66.4362 49.3918 66.4362 50.3763C66.4362 51.2475 65.7694 51.8246 64.7183 51.8246Z" fill="black"/>
<path d="M77.1501 52.2433V52.2094C77.9525 51.9378 78.5854 51.2702 78.5854 50.2631C78.5854 49.6747 78.3707 49.1542 77.9864 48.8147C77.5118 48.3847 76.8337 48.1924 75.7826 48.1924C75.1045 48.1924 74.3925 48.249 73.8953 48.3508V55.8756H74.8785V52.5714H75.8052C76.698 52.6054 77.1049 53.0014 77.3309 54.0538C77.5457 55.0043 77.7152 55.6606 77.8395 55.8756H78.8566C78.6984 55.5814 78.5176 54.8458 78.269 53.7822C78.0881 52.9901 77.7378 52.447 77.1501 52.2433ZM75.8843 51.8246H74.8785V49.041C75.0367 48.9958 75.3758 48.9505 75.8504 48.9505C76.8902 48.9618 77.6022 49.3918 77.6022 50.3763C77.6022 51.2475 76.9354 51.8246 75.8843 51.8246Z" fill="black"/>
<path d="M86.0443 48.249H85.061V55.8756H86.0443V48.249Z" fill="black"/>
<path d="M97.6398 51.4399C97.6398 52.628 97.6624 53.5559 97.7528 54.5743L97.7302 54.5856C97.3685 53.8048 96.9278 53.0014 96.3627 52.1075L93.9216 48.249H92.8479V55.8756H93.7746V52.6167C93.7746 51.3494 93.752 50.4328 93.6955 49.471L93.7294 49.4597C94.1137 50.2857 94.6222 51.157 95.1534 52.0057L97.5719 55.8756H98.5665V48.249H97.6398V51.4399Z" fill="black"/>
<path d="M108.455 48.1245C106.421 48.1245 104.918 49.7086 104.918 52.1301C104.918 54.4385 106.331 56 108.342 56C110.286 56 111.88 54.6082 111.88 51.983C111.88 49.7199 110.535 48.1245 108.455 48.1245ZM108.399 55.1966C106.851 55.1966 105.969 53.7369 105.969 52.1075C105.969 50.4328 106.783 48.9278 108.41 48.9278C110.049 48.9278 110.84 50.512 110.84 52.0283C110.84 53.7595 109.958 55.1966 108.399 55.1966Z" fill="black"/>
<path d="M119.226 48.249H118.242V55.8756H122.481V55.0495H119.226V48.249Z" fill="black"/>
<path d="M130.674 48.249L128.086 55.8756H129.103L129.894 53.4767H132.595L133.409 55.8756H134.46L131.861 48.249H130.674ZM130.098 52.7072L130.844 50.5007C130.991 50.0368 131.115 49.5729 131.228 49.1202H131.251C131.364 49.5616 131.477 50.0142 131.646 50.512L132.392 52.7072H130.098Z" fill="black"/>
<path d="M143.92 52.2433V52.2094C144.722 51.9378 145.355 51.2702 145.355 50.2631C145.355 49.6747 145.14 49.1542 144.756 48.8147C144.281 48.3847 143.603 48.1924 142.552 48.1924C141.874 48.1924 141.162 48.249 140.665 48.3508V55.8756H141.648V52.5714H142.575C143.468 52.6054 143.874 53.0014 144.1 54.0538C144.315 55.0043 144.485 55.6606 144.609 55.8756H145.626C145.468 55.5814 145.287 54.8458 145.039 53.7822C144.858 52.9901 144.507 52.447 143.92 52.2433ZM142.654 51.8246H141.648V49.041C141.806 48.9958 142.145 48.9505 142.62 48.9505C143.66 48.9618 144.372 49.3918 144.372 50.3763C144.372 51.2475 143.705 51.8246 142.654 51.8246Z" fill="black"/>
<path d="M152.814 48.249H151.831V55.8756H152.814V48.249Z" fill="black"/>
<path d="M164.409 51.4399C164.409 52.628 164.432 53.5559 164.522 54.5743L164.5 54.5856C164.138 53.8048 163.697 53.0014 163.132 52.1075L160.691 48.249H159.617V55.8756H160.544V52.6167C160.544 51.3494 160.522 50.4328 160.465 49.471L160.499 49.4597C160.883 50.2857 161.392 51.157 161.923 52.0057L164.341 55.8756H165.336V48.249H164.409V51.4399Z" fill="black"/>
<path d="M175.428 52.662H176.977V54.9364C176.751 55.0495 176.31 55.14 175.666 55.14C173.891 55.14 172.727 53.9972 172.727 52.0622C172.727 50.1499 173.937 48.9958 175.79 48.9958C176.558 48.9958 177.067 49.1429 177.474 49.3239L177.711 48.5205C177.383 48.3621 176.694 48.1697 175.813 48.1697C173.258 48.1697 171.699 49.8331 171.688 52.1075C171.688 53.2956 172.094 54.314 172.75 54.9477C173.496 55.6605 174.445 55.9547 175.598 55.9547C176.626 55.9547 177.497 55.6945 177.937 55.5361V51.8699H175.428V52.662Z" fill="black"/>
<path d="M187.611 48.1245C185.577 48.1245 184.074 49.7086 184.074 52.1301C184.074 54.4385 185.487 56 187.498 56C189.442 56 191.036 54.6082 191.036 51.983C191.036 49.7199 189.691 48.1245 187.611 48.1245ZM187.555 55.1966C186.007 55.1966 185.125 53.7369 185.125 52.1075C185.125 50.4328 185.939 48.9278 187.566 48.9278C189.205 48.9278 189.996 50.512 189.996 52.0283C189.996 53.7595 189.114 55.1966 187.555 55.1966Z" fill="black"/>
<path d="M189.205 46.4951H188.007L186.956 47.8076H187.77L189.205 46.4951Z" fill="black"/>
<path d="M198.382 48.249H197.398V55.8756H201.637V55.0495H198.382V48.249Z" fill="black"/>
<path d="M210.463 48.1245C208.429 48.1245 206.926 49.7086 206.926 52.1301C206.926 54.4385 208.338 56 210.35 56C212.294 56 213.888 54.6082 213.888 51.983C213.888 49.7199 212.543 48.1245 210.463 48.1245ZM210.407 55.1966C208.858 55.1966 207.977 53.7369 207.977 52.1075C207.977 50.4328 208.791 48.9278 210.418 48.9278C212.057 48.9278 212.848 50.512 212.848 52.0283C212.848 53.7595 211.966 55.1966 210.407 55.1966Z" fill="black"/>
<path d="M223.539 52.662H225.087V54.9364C224.861 55.0495 224.42 55.14 223.776 55.14C222.002 55.14 220.838 53.9972 220.838 52.0622C220.838 50.1499 222.047 48.9958 223.901 48.9958C224.669 48.9958 225.178 49.1429 225.584 49.3239L225.822 48.5205C225.494 48.3621 224.805 48.1697 223.923 48.1697C221.369 48.1697 219.809 49.8331 219.798 52.1075C219.798 53.2956 220.205 54.314 220.86 54.9477C221.606 55.6605 222.556 55.9547 223.708 55.9547C224.737 55.9547 225.607 55.6945 226.048 55.5361V51.8699H223.539V52.662Z" fill="black"/>
<path d="M235.722 48.1245C233.688 48.1245 232.185 49.7086 232.185 52.1301C232.185 54.4385 233.597 56 235.609 56C237.553 56 239.146 54.6082 239.146 51.983C239.146 49.7199 237.801 48.1245 235.722 48.1245ZM235.665 55.1966C234.117 55.1966 233.236 53.7369 233.236 52.1075C233.236 50.4328 234.049 48.9278 235.677 48.9278C237.315 48.9278 238.107 50.512 238.107 52.0283C238.107 53.7595 237.225 55.1966 235.665 55.1966Z" fill="black"/>
</g>
<defs>
<clipPath id="clip0_58_5911">
<rect width="272" height="56" fill="white"/>
</clipPath>
</defs>
</svg>
