<svg width="98" height="56" viewBox="0 0 98 56" fill="none" xmlns="http://www.w3.org/2000/svg">
<g clip-path="url(#clip0_58_5919)">
<path d="M46.5955 17.7261V16.5861V9.14155V0H40.8298V9.14155V16.5861V18.0692C40.8298 22.0503 37.592 25.2779 33.5983 25.2779H32.6063C28.9274 25.2779 25.9449 22.3049 25.9449 18.6376V17.5255H20.1792V18.3524C20.1792 24.9494 25.4142 30.3264 31.9687 30.5829L45.8803 21.9577C46.3429 20.6325 46.5955 19.2093 46.5955 17.7261Z" fill="#53A2DA"/>
<path d="M57.9165 0.167236L44.2842 30.4849H50.5459L53.0524 24.7375H68.9994L71.506 30.4849H77.7663L64.1347 0.167236H57.9165ZM55.3498 19.4711L61.0266 6.45638L66.7027 19.4711H55.3498Z" fill="#53A2DA"/>
<path d="M3.04117 39.7051H2.63611C2.63611 39.7051 2.63611 45.27 2.63611 45.3826C2.63611 45.4952 2.63678 45.7904 2.62475 45.921C2.59734 46.2108 2.53184 46.5113 2.19964 46.6266C1.99043 46.6992 1.7518 46.6632 1.58537 46.5546C1.24581 46.3334 1.39019 45.9596 1.05933 45.7271C0.86816 45.5932 0.57339 45.5439 0.336104 45.6691C0.166327 45.7584 0.0125919 45.9437 0.00122888 46.1622C-0.014813 46.456 0.233836 46.6612 0.350809 46.7579C0.739156 47.0783 1.21373 47.0743 1.63817 47.0717C1.99109 47.069 2.65149 46.9664 3.0766 46.6926C3.43821 46.4594 3.90142 45.9023 3.90142 45.1594C3.90142 44.779 3.90142 40.0103 3.90142 40.0103H5.06646V39.7058H4.19418H3.04117V39.7051Z" fill="#53A2DA"/>
<path d="M5.95947 39.8884H7.15994V46.4634H5.97551V46.8092H12.6068V44.7616H12.3014C12.3014 45.7011 11.5374 46.4627 10.5949 46.4627H8.42391V43.3391H11.3997V42.9933H8.42391V40.0509H10.5949C11.5374 40.0509 12.3014 40.8125 12.3014 41.752H12.6068V39.7045H5.95947V39.8884Z" fill="#53A2DA"/>
<path d="M19.6398 40.0516H20.861V45.272L15.5217 39.7051H14.7557V46.4634H13.5071V46.7106V46.8092H16.6092V46.7252V46.4634H15.3619L15.3613 41.203H15.4107L20.8803 46.9724H21.4665V40.0516H22.552V39.7051H19.6398V40.0516Z" fill="#53A2DA"/>
<path d="M29.0116 40.0516H30.2328V45.272L24.8935 39.7051H22.9558V40.0516H24.1275V46.4634H22.8789V46.7106V46.8092H25.981V46.4634H24.7338L24.7331 41.203H24.7825L30.2522 46.9724H30.8384V40.0516H31.9239V39.7051H29.0116V40.0516Z" fill="#53A2DA"/>
<path d="M37.3242 40.0516H38.4264L37.9658 40.7779L36.3362 43.3491L34.2294 40.0516H35.2153V39.7051H32.7957V40.2002L35.3804 44.0161V46.4634H34.2093V46.8092H37.8275V46.4634H36.6624V43.9021L36.6758 43.8808L39.0513 40.0516H39.937V39.7051H37.3242V40.0516Z" fill="#53A2DA"/>
<path d="M47.5274 39.5372H47.1196L43.0737 48.1218H45.7587V47.622H43.9854L46.9499 41.165L49.4778 46.4634H48.4772V46.8092H51.6889V46.4634H50.8427L47.5274 39.5372Z" fill="#53A2DA"/>
<path d="M57.1879 43.5417C57.1879 43.5417 59.1136 43.1039 59.1136 41.6441C59.1136 40.1842 57.8696 39.7051 56.5101 39.7051H53.3037V40.0509V46.4627H52.1948V46.8085H55.6091V46.4627H54.5677V40.0509C54.5677 40.0509 55.8363 40.0509 55.9974 40.0509C56.8824 40.0509 57.7246 40.6479 57.7246 41.5808C57.7246 42.5142 57.0575 43.2112 55.7809 43.2112V43.4864L58.1323 46.8085H60.2238V46.4627H59.3014L57.1879 43.5417Z" fill="#53A2DA"/>
<path d="M65.88 45.4179L62.6649 39.7051H61.7712L61.7692 46.4634H60.6343V46.8092H63.447V46.4634H62.3193L62.3187 41.4695L65.3366 46.8092H65.7797L68.9353 40.9811V46.4634H67.7689V46.8092H71.1832V46.4634H70.2053V40.0516H71.2854V39.7051H68.9086L65.88 45.4179Z" fill="#53A2DA"/>
<path d="M73.2666 46.4633H72.0889V46.8091H75.6054V46.4633H74.5546V40.0223H75.705V39.6765H73.2666V46.4633Z" fill="#53A2DA"/>
<path d="M78.4427 45.3826C78.4427 45.4952 78.4434 45.7904 78.4307 45.921C78.4033 46.2108 78.3377 46.5113 78.0055 46.6266C77.7963 46.6992 77.5577 46.6633 77.3913 46.5546C77.0517 46.3334 77.1961 45.9596 76.8652 45.7271C76.6741 45.5932 76.3793 45.5439 76.142 45.6691C75.9722 45.7584 75.8185 45.9437 75.8071 46.1622C75.7911 46.456 76.0397 46.6613 76.1567 46.7579C76.5451 47.0784 77.0196 47.0744 77.4441 47.0717C77.797 47.069 78.4574 46.9664 78.8825 46.6926C79.2441 46.4594 79.7073 45.9023 79.7073 45.1594C79.7073 44.779 79.7073 40.0103 79.7073 40.0103H80.873V39.7058H78.4434C78.4427 39.7051 78.4427 45.27 78.4427 45.3826Z" fill="#53A2DA"/>
<path d="M89.8653 41.3615C89.6868 41.0877 89.4702 40.8392 89.2156 40.6153C88.9609 40.3914 88.6795 40.1995 88.3707 40.0389C88.0619 39.879 87.7277 39.7558 87.3688 39.6685C87.0092 39.5812 86.6335 39.5372 86.2411 39.5372C85.8448 39.5372 85.4665 39.5812 85.1048 39.6685C84.7432 39.7558 84.4064 39.8797 84.0942 40.0389C83.7814 40.1989 83.498 40.3908 83.2433 40.6153C82.9887 40.8392 82.7714 41.0884 82.5909 41.3615C82.4105 41.6354 82.2714 41.9286 82.1745 42.2417C82.0776 42.5549 82.0288 42.8814 82.0288 43.2205C82.0288 43.5663 82.0776 43.8995 82.1745 44.2193C82.2714 44.5391 82.4105 44.8369 82.5909 45.1141C82.7714 45.3906 82.9893 45.6438 83.2433 45.873C83.498 46.1022 83.7814 46.2981 84.0942 46.4614C84.407 46.6246 84.7439 46.7505 85.1048 46.8398C85.4658 46.9291 85.8448 46.9731 86.2411 46.9731C86.6335 46.9731 87.0092 46.9284 87.3688 46.8398C87.7277 46.7505 88.0619 46.6246 88.3707 46.4614C88.6795 46.2981 88.9609 46.1022 89.2156 45.873C89.4702 45.6438 89.6868 45.3913 89.8653 45.1141C90.0437 44.8369 90.1821 44.5391 90.279 44.2193C90.376 43.8995 90.4247 43.567 90.4247 43.2205C90.4247 42.8814 90.376 42.5549 90.279 42.2417C90.1814 41.9286 90.0437 41.6354 89.8653 41.3615ZM88.7437 44.5784C88.6254 44.9942 88.4523 45.3533 88.225 45.6571C87.9977 45.9603 87.7183 46.1982 87.3861 46.3694C87.0539 46.5406 86.6723 46.6266 86.2411 46.6266C85.7946 46.6266 85.4023 46.5406 85.0641 46.3694C84.7259 46.1982 84.4445 45.9603 84.2192 45.6571C83.9939 45.354 83.8242 44.9942 83.7092 44.5784C83.5949 44.1626 83.5374 43.7096 83.5374 43.2178C83.5374 42.7261 83.5949 42.2764 83.7092 41.8673C83.8235 41.4582 83.9939 41.107 84.2192 40.8138C84.4445 40.52 84.7259 40.2921 85.0641 40.1289C85.4023 39.9657 85.794 39.8837 86.2411 39.8837C86.6723 39.8837 87.0539 39.9657 87.3861 40.1289C87.7183 40.2921 87.9977 40.5207 88.225 40.8138C88.4523 41.1077 88.6247 41.4588 88.7437 41.8673C88.862 42.2764 88.9215 42.7261 88.9215 43.2178C88.9215 43.7096 88.862 44.1626 88.7437 44.5784Z" fill="#53A2DA"/>
<path d="M97.8761 44.3725C97.6355 43.7788 97.1014 43.4883 96.6356 43.2351C96.4845 43.1532 96.2104 43.0379 95.6577 42.82C95.3241 42.6881 94.9979 42.5582 94.6798 42.4296C94.0181 42.1624 93.9439 42.1124 93.8657 42.0544C93.7119 41.9398 93.2942 41.628 93.2721 41.1603C93.2621 40.9457 93.3396 40.7798 93.365 40.7285C93.6832 40.0902 94.8643 39.8423 95.792 40.0969C96.0373 40.1642 96.7512 40.3594 97.1182 41.033C97.2826 41.3348 97.32 41.6267 97.3267 41.8132H97.6736V41.594V39.8843V39.6105H97.3889C97.3127 39.783 97.2371 39.9556 97.1609 40.1282C97.0219 40.0582 96.8267 39.9696 96.5854 39.8877C96.3903 39.8217 95.905 39.6731 95.2506 39.6525C94.5795 39.6318 93.1177 39.5865 92.3945 40.516C92.3069 40.6286 92.0703 40.9404 92.0436 41.3848C92.0075 41.9818 92.3684 42.5009 92.6699 42.7367C92.8142 42.85 93.1244 43.0372 93.4733 43.1878C93.482 43.1918 93.4893 43.1945 93.494 43.1965C94.4986 43.6209 94.8008 43.6995 95.3923 43.9654C96.1403 44.3018 96.5152 44.4824 96.6576 44.8595C96.7746 45.1687 96.6991 45.4592 96.667 45.5605C96.4223 46.3307 95.3549 46.5166 95.1717 46.5493C94.0856 46.7412 93.2681 46.1075 93.214 46.0642C92.3931 45.4066 92.3263 44.4644 92.3176 44.3158C92.202 44.3158 92.0863 44.3158 91.9707 44.3158C91.9707 45.1507 91.9707 45.9862 91.9707 46.8211H92.2802C92.3557 46.6692 92.4319 46.5166 92.5074 46.3647C92.9125 46.5626 93.5368 46.8151 94.3349 46.9304C94.9792 47.0237 95.6724 47.1236 96.4497 46.8131C96.7438 46.6958 97.7418 46.3001 97.9563 45.3786C98.0713 44.8922 97.9229 44.4871 97.8761 44.3725Z" fill="#53A2DA"/>
<path d="M29.0103 52.9204C29.0103 53.8286 28.4562 54.6601 27.2844 54.6601C26.1134 54.6601 25.5586 53.8099 25.5586 52.9257C25.5586 51.9023 26.2771 51.162 27.2938 51.162C28.4461 51.166 29.0103 52.0122 29.0103 52.9204ZM27.2844 54.1644C28.1233 54.1644 28.4749 53.5734 28.4749 52.9297C28.4749 52.3101 28.1179 51.6658 27.2938 51.6518C26.5131 51.6518 26.0933 52.1948 26.0933 52.9297C26.1034 53.5254 26.4503 54.1644 27.2844 54.1644Z" fill="#009EE2"/>
<path d="M30.3311 51.5365V52.2234H31.0249V52.6512H30.3258V53.7806C30.3258 54.0304 30.4367 54.1697 30.668 54.1697C30.7642 54.1697 30.8752 54.1357 30.9715 54.0877L31.1158 54.5108C30.9521 54.5828 30.807 54.6168 30.6386 54.6168C30.1226 54.6314 29.8285 54.3383 29.8285 53.7806V52.6512H29.3706V52.2234H29.8285V51.5891L30.3311 51.5365Z" fill="#009EE2"/>
<path d="M33.8356 53.4055C33.8356 54.1071 33.349 54.6355 32.6017 54.6355C31.8591 54.6355 31.3772 54.1071 31.3772 53.4055C31.3772 52.7085 31.8638 52.1708 32.6017 52.1708C33.3343 52.1708 33.8356 52.7085 33.8356 53.4055ZM31.8738 53.4055C31.8738 53.8286 32.1485 54.1744 32.6017 54.1744C33.0596 54.1744 33.3343 53.8286 33.3343 53.4055C33.3343 52.9877 33.0355 52.6272 32.6017 52.6272C32.1485 52.6272 31.8738 52.9877 31.8738 53.4055Z" fill="#009EE2"/>
<path d="M34.8242 52.2188L34.8583 52.5313C35.0321 52.2288 35.3014 52.1661 35.5574 52.1661C35.7887 52.1661 36.0106 52.2481 36.1456 52.368L35.919 52.8005C35.7987 52.7045 35.6831 52.6565 35.4999 52.6565C35.1577 52.6565 34.8589 52.8677 34.8589 53.3055V54.5881H34.3623V52.2194H34.8242V52.2188Z" fill="#009EE2"/>
<path d="M36.945 52.2188L36.9784 52.5313C37.1522 52.2288 37.4215 52.1661 37.6775 52.1661C37.9088 52.1661 38.1307 52.2481 38.2657 52.368L38.0392 52.8005C37.9188 52.7045 37.8032 52.6565 37.6201 52.6565C37.2778 52.6565 36.9791 52.8677 36.9791 53.3055V54.5881H36.4824V52.2194H36.945V52.2188Z" fill="#009EE2"/>
<path d="M39.1628 51.5218C39.1628 51.9303 38.5459 51.9303 38.5459 51.5218C38.5459 51.1181 39.1628 51.1181 39.1628 51.5218ZM38.6041 52.2088V54.5874H39.1007V52.2088H38.6041Z" fill="#009EE2"/>
<path d="M41.5779 54.5875V53.3189C41.5779 52.9104 41.3466 52.6366 40.9368 52.6366C40.5418 52.6366 40.2718 52.9584 40.2718 53.3475V54.5875H39.7751V52.2135H40.2283L40.2571 52.5593C40.4837 52.3048 40.749 52.1795 41.0572 52.1795C41.6353 52.1795 42.0792 52.5879 42.0792 53.3135V54.5868H41.5779V54.5875Z" fill="#009EE2"/>
<path d="M45.0248 53.4055C45.0248 54.1071 44.5382 54.6355 43.7909 54.6355C43.0483 54.6355 42.5664 54.1071 42.5664 53.4055C42.5664 52.7085 43.053 52.1708 43.7909 52.1708C44.5235 52.1708 45.0248 52.7085 45.0248 53.4055ZM43.063 53.4055C43.063 53.8286 43.3378 54.1744 43.7909 54.1744C44.2488 54.1744 44.5235 53.8286 44.5235 53.4055C44.5235 52.9877 44.2247 52.6272 43.7909 52.6272C43.3378 52.6272 43.063 52.9877 43.063 53.4055Z" fill="#009EE2"/>
<path d="M46.0662 51.2287V54.5875H45.5696V51.2287H46.0662Z" fill="#009EE2"/>
<path d="M48.6688 52.2188H49.1508C49.1508 53.007 49.1508 53.7999 49.1508 54.5875H48.6782L48.6541 54.203C48.4951 54.5055 48.1288 54.6501 47.8347 54.6501C47.1409 54.6547 46.6155 54.2077 46.6155 53.4008C46.6155 52.6079 47.1602 52.1661 47.8447 52.1661C48.1822 52.1661 48.5051 52.3247 48.6548 52.5939L48.6688 52.2188ZM47.1121 53.4008C47.1121 53.8912 47.459 54.189 47.8835 54.189C48.9101 54.189 48.9101 52.6179 47.8835 52.6179C47.459 52.6172 47.1121 52.9151 47.1121 53.4008Z" fill="#009EE2"/>
<path d="M50.2893 52.2188L50.3234 52.5313C50.4971 52.2288 50.7665 52.1661 51.0225 52.1661C51.2538 52.1661 51.4757 52.2481 51.6107 52.368L51.3841 52.8005C51.2638 52.7045 51.1482 52.6565 50.965 52.6565C50.6228 52.6565 50.324 52.8677 50.324 53.3055V54.5881H49.8274V52.2194H50.2893V52.2188Z" fill="#009EE2"/>
<path d="M52.5063 51.5218C52.5063 51.9303 51.8894 51.9303 51.8894 51.5218C51.8894 51.1181 52.5063 51.1181 52.5063 51.5218ZM51.9476 52.2088V54.5874H52.4442V52.2088H51.9476Z" fill="#009EE2"/>
<path d="M54.9218 54.5875V53.3189C54.9218 52.9104 54.6906 52.6366 54.2808 52.6366C53.8858 52.6366 53.6158 52.9584 53.6158 53.3475V54.5875H53.1191V52.2135H53.5723L53.6011 52.5593C53.8277 52.3048 54.093 52.1795 54.4012 52.1795C54.9793 52.1795 55.4232 52.5879 55.4232 53.3135V54.5868H54.9218V54.5875Z" fill="#009EE2"/>
<path d="M58.1029 51.9929L58.4645 52.2714L58.1805 52.6032C58.3783 52.8338 58.4699 53.0457 58.4699 53.3382C58.4699 53.7559 58.2627 54.0971 57.8382 54.261C58.3248 54.4242 58.4645 54.7507 58.4645 55.0345C58.4645 55.6782 57.8282 56 57.1919 56C56.4159 56 55.9192 55.6062 55.9386 54.9479H56.4352C56.4205 55.3177 56.7969 55.5149 57.1919 55.5196C57.5582 55.5196 57.9485 55.3704 57.9485 55.0345C57.9485 54.7027 57.6451 54.5202 57.2012 54.5202C56.4299 54.5202 55.9146 54.0784 55.9146 53.3382C55.9146 52.5453 56.5556 52.1462 57.2012 52.1462C57.3991 52.1462 57.6738 52.1941 57.8423 52.3094L58.1029 51.9929ZM56.4159 53.3382C56.4159 53.8092 56.7728 54.0638 57.2012 54.0638C57.6397 54.0638 57.9726 53.7659 57.9726 53.3382C57.9726 52.8718 57.611 52.6079 57.2012 52.6079C56.7969 52.6079 56.4159 52.8431 56.4159 53.3382Z" fill="#009EE2"/>
<path d="M60.0942 52.1708C60.8267 52.1708 61.3281 52.7092 61.3281 53.4055C61.3281 54.1071 60.8414 54.6354 60.0942 54.6354C59.3516 54.6354 58.8696 54.1071 58.8696 53.4055C58.8703 52.7085 59.3569 52.1708 60.0942 52.1708ZM60.0942 52.6272C59.641 52.6272 59.3663 52.9877 59.3663 53.4055C59.3663 53.8286 59.641 54.1744 60.0942 54.1744C60.552 54.1744 60.8267 53.8286 60.8267 53.4055C60.8267 52.9877 60.528 52.6272 60.0942 52.6272ZM60.7739 51.1954H60.1811L59.8295 51.825V51.849H60.2726L60.7739 51.2147V51.1954Z" fill="#009EE2"/>
<path d="M62.3694 51.2287V54.5875H61.8728V51.2287H62.3694Z" fill="#009EE2"/>
<path d="M65.3732 53.4055C65.3732 54.1071 64.8866 54.6355 64.1393 54.6355C63.3967 54.6355 62.9148 54.1071 62.9148 53.4055C62.9148 52.7085 63.4014 52.1708 64.1393 52.1708C64.8719 52.1708 65.3732 52.7085 65.3732 53.4055ZM63.4108 53.4055C63.4108 53.8286 63.6855 54.1744 64.1387 54.1744C64.5965 54.1744 64.8712 53.8286 64.8712 53.4055C64.8712 52.9877 64.5725 52.6272 64.1387 52.6272C63.6855 52.6272 63.4108 52.9877 63.4108 53.4055Z" fill="#009EE2"/>
<path d="M67.9425 51.9929L68.3041 52.2714L68.0201 52.6032C68.2179 52.8338 68.3095 53.0457 68.3095 53.3382C68.3095 53.7559 68.1023 54.0971 67.6778 54.261C68.1644 54.4242 68.3041 54.7507 68.3041 55.0345C68.3041 55.6782 67.6678 56 67.0315 56C66.2555 56 65.7588 55.6062 65.7782 54.9479H66.2748C66.2601 55.3177 66.6365 55.5149 67.0315 55.5196C67.3978 55.5196 67.7881 55.3704 67.7881 55.0345C67.7881 54.7027 67.4847 54.5202 67.0408 54.5202C66.2695 54.5202 65.7542 54.0784 65.7542 53.3382C65.7542 52.5453 66.3952 52.1462 67.0408 52.1462C67.2387 52.1462 67.5134 52.1941 67.6819 52.3094L67.9425 51.9929ZM66.2555 53.3382C66.2555 53.8092 66.6124 54.0638 67.0408 54.0638C67.4793 54.0638 67.8122 53.7659 67.8122 53.3382C67.8122 52.8718 67.4506 52.6079 67.0408 52.6079C66.6358 52.6079 66.2555 52.8431 66.2555 53.3382Z" fill="#009EE2"/>
<path d="M70.7674 52.2188H71.2493C71.2493 53.007 71.2493 53.7999 71.2493 54.5875H70.7768L70.7527 54.203C70.5936 54.5055 70.2273 54.6501 69.9332 54.6501C69.2394 54.6547 68.7134 54.2077 68.7134 53.4008C68.7134 52.6079 69.2581 52.1661 69.9426 52.1661C70.2801 52.1661 70.603 52.3247 70.7527 52.5939L70.7674 52.2188ZM69.2107 53.4008C69.2107 53.8912 69.5576 54.189 69.982 54.189C71.0087 54.189 71.0087 52.6179 69.982 52.6179C69.5576 52.6172 69.2107 52.9151 69.2107 53.4008Z" fill="#009EE2"/>
</g>
<defs>
<clipPath id="clip0_58_5919">
<rect width="98" height="56" fill="white"/>
</clipPath>
</defs>
</svg>
