<svg width="145" height="56" viewBox="0 0 145 56" fill="none" xmlns="http://www.w3.org/2000/svg">
<g clip-path="url(#clip0_58_5917)">
<path d="M73.4026 13.5919C71.675 16.1852 69.7526 18.6458 68.1559 21.3291C66.9017 23.4388 66.1133 25.6615 66.5471 28.3188C66.9596 27.4722 67.2686 26.7552 67.6445 26.0764C69.71 22.3436 72.7663 19.7853 76.7831 18.3743C77.7436 18.0372 78.1895 17.5521 78.1971 16.7191C78.2032 15.9839 78.0586 15.2242 78.9003 14.7986C79.016 14.7406 78.9582 14.5682 78.9825 14.4508C79.1819 13.4836 79.0678 12.4005 79.8958 11.6546C80.4118 11.1893 80.2413 10.9086 79.736 10.6234C78.7283 10.0544 78.1484 9.21079 77.9277 8.04838C77.7496 7.10869 77.4437 6.1873 77.121 5.28423C76.5731 3.75266 75.9034 2.27447 74.7603 1.07393C74.296 0.58578 73.7953 0.132715 73.0175 -0.00305176C75.876 4.23928 76.3737 9.13299 73.4026 13.5919Z" fill="#031D57"/>
<path d="M65.6521 26.653C65.6901 24.882 66.2898 23.2817 67.1498 21.7639C68.751 18.9326 70.7891 16.3942 72.5776 13.6881C75.3751 9.4564 75.2473 5.1744 72.815 0.849697C72.5456 0.369174 72.1285 0.103742 71.5319 0.038147C74.5563 4.66337 74.7922 9.68369 71.3766 14.3349C69.8926 16.3561 68.4908 18.4414 67.1148 20.5389C65.5836 22.8729 64.4877 25.3533 65.0341 28.4577C65.3005 27.7392 65.6399 27.2571 65.6521 26.653Z" fill="#031D57"/>
<path d="M54.1542 42.6582C54.1147 42.1121 53.7494 42.0282 53.4069 41.9916C52.9305 41.9413 52.4419 41.9031 51.967 41.9504C50.935 42.0511 49.9076 42.196 48.8817 42.3516C48.454 42.4172 48.1131 42.4843 48.2516 41.8513C48.2973 41.6423 48.2044 41.4134 47.9715 41.3738C47.2942 41.2594 46.6945 41.1343 46.0172 41.685C44.8162 42.6613 43.4037 43.3126 41.7964 43.3523C41.597 43.3569 41.3565 43.3798 41.2591 43.1571C41.1632 42.9404 41.3383 42.7589 41.4631 42.6186C42.2454 41.7368 43.1724 41.1282 44.4266 41.1922C44.3413 40.7377 44.0095 40.7666 43.7143 40.7682C42.941 40.7712 42.3185 41.1602 41.7158 41.5904C40.9288 42.1533 40.0262 42.4874 39.1419 42.8459C38.7416 43.0076 38.5955 42.8626 38.737 42.4019C38.9242 41.7933 39.1723 41.2746 39.7964 41.0077C39.9288 40.9512 40.2363 40.9863 40.151 40.7239C40.078 40.4982 39.836 40.5317 39.6305 40.5851C39.0323 40.7422 38.7431 41.1892 38.4905 41.7124C38.1662 42.3821 37.4904 42.2448 36.912 42.3196C36.3215 42.3958 36.6426 41.9352 36.5483 41.717C36.4996 41.6056 36.4067 41.418 36.3443 41.4226C35.7537 41.4607 35.1951 40.9238 34.5543 41.5095C33.6883 42.2997 32.7978 42.2585 31.842 41.6148C31.6974 41.5172 31.53 41.4165 31.364 41.3967C30.7613 41.3265 30.1555 41.2899 29.5497 41.2395C29.1174 41.2609 28.8663 41.2639 28.4629 41.3555C28.5847 41.2441 28.7263 41.1678 28.9074 41.0794C30.2758 40.4509 31.6548 39.8422 33.0094 39.1863C34.253 38.5837 35.5346 38.036 36.597 37.1192C37.1114 36.6753 37.5407 36.1704 37.0962 35.426C37.0003 35.1255 36.7903 34.9332 36.5102 34.8066C36.119 34.4619 35.6411 34.291 35.1464 34.2025C31.3427 33.5268 27.9652 34.7029 24.7658 36.6326C24.4918 36.7974 24.4507 36.9972 24.6516 37.255C24.851 37.5128 25.02 37.4167 25.2209 37.2504C26.0444 36.5655 26.9637 36.0255 27.947 35.6197C30.67 34.4985 33.4463 33.9066 36.3428 34.9683C36.5452 35.1788 36.7477 35.3894 36.9501 35.5999C36.734 36.6906 35.8116 37.1009 34.9942 37.5754C32.979 38.7439 30.8085 39.5936 28.705 40.5821C27.8054 41.0046 26.8617 41.3311 25.7643 41.7704C26.7552 40.0375 27.9424 38.7149 29.1768 37.3862C28.6654 37.1467 28.3838 37.2459 28.0885 37.5952C26.676 39.261 25.4066 41.029 24.2057 42.8489C24.0108 43.1448 23.8525 43.4637 23.6684 43.7672C23.5771 43.9183 23.5542 44.0586 23.7125 44.1608C23.8952 44.2798 23.9758 44.112 24.0596 43.9991C24.4218 43.511 24.7704 43.0121 25.1448 42.5316C25.2742 42.3638 25.4188 42.0755 25.6775 42.2143C26.0702 42.4248 26.4127 42.2463 26.7734 42.1762C28.2164 41.9016 29.6578 41.5965 31.1388 41.7384C31.4067 41.7643 31.8633 41.7612 31.8709 42.1106C31.8785 42.4126 31.4569 42.3867 31.192 42.4477C29.3427 42.8687 27.5253 43.3935 25.7673 44.115C24.9941 44.4323 24.2315 44.7786 23.5847 45.3202C23.1143 45.7122 23.1509 46.1836 23.6653 46.388C23.8936 46.478 24.1707 46.5314 24.4096 46.4948C27.1083 46.0844 29.6197 45.1722 31.6822 43.3416C32.3077 42.7864 32.9455 42.5042 33.7887 42.2799C33.6807 42.5042 33.5985 42.6475 33.5406 42.8016C33.3945 43.1845 33.4097 43.5445 33.7233 43.8511C34.0399 44.1608 34.3823 44.0342 34.7096 43.8923C34.9166 43.8023 35.1479 43.7047 35.2925 43.543C36.0962 42.6445 37.2454 42.7848 38.2439 42.4492C38.2637 43.0396 37.9866 43.3355 37.5331 43.5598C37.0597 43.7947 36.6198 44.0998 36.1738 44.3896C36.0034 44.4995 35.8466 44.6413 35.9166 44.8885C35.9821 45.1203 36.1677 45.1814 36.3732 45.2317C37.0734 45.4041 37.8786 44.9754 38.221 44.2249C38.3565 43.9289 38.4387 43.6284 38.7949 43.4728C39.4829 43.1708 40.148 42.8108 40.8345 42.4691C40.8314 43.5369 41.3641 43.9686 42.4403 43.7703C43.4007 43.5933 44.2896 43.1967 45.1785 42.7467C45.177 44.0083 45.6793 44.3103 46.7265 43.7245C46.9456 43.6025 47.1861 43.4759 47.3444 43.2898C47.7112 42.8611 48.1953 42.7955 48.7021 42.7314C50.5012 42.5087 52.3095 42.3287 54.1542 42.6582ZM23.8008 45.967C25.9606 44.263 28.5588 43.6605 31.1525 43.0625C28.982 44.7603 26.539 45.7427 23.8008 45.967ZM35.0749 42.1975C35.1875 43.0167 34.9592 43.3752 34.2043 43.5415C34.0825 43.5689 33.9653 43.6254 33.8542 43.5232C33.7004 43.3828 33.8085 43.2455 33.8724 43.1189C34.1449 42.5697 34.533 42.1228 35.189 41.6911C35.1236 41.9687 35.0597 42.0892 35.0749 42.1975ZM35.6807 42.3608C35.6548 42.3623 35.597 42.2845 35.6031 42.254C35.6457 42.0206 35.8055 41.9672 36.0277 41.9779C36.0338 42.2463 35.9029 42.3516 35.6807 42.3608ZM36.6959 44.7176C36.9349 44.4873 37.1906 44.2859 37.6366 44.2295C37.3595 44.6352 37.0566 44.7344 36.6959 44.7176ZM46.7417 43.1113C46.387 43.3325 45.9061 43.7688 45.6245 43.4866C45.3003 43.1601 45.8102 42.7589 46.0461 42.437C46.2348 42.1792 46.4449 41.9229 46.8437 41.7857C46.8558 42.0663 46.7584 42.2967 46.9182 42.5011C47.1405 42.7818 46.9791 42.9648 46.7417 43.1113ZM47.4357 42.3287C47.4083 42.3333 47.3277 42.2052 47.3368 42.193C47.4357 42.0724 47.5271 41.9092 47.7356 42.0068C47.7402 42.2174 47.6123 42.3043 47.4357 42.3287Z" fill="#031D57"/>
<path d="M100.677 43.8969C102.633 43.3417 104.593 42.823 106.675 42.7864C106.519 42.3806 106.181 42.341 105.907 42.3455C105.353 42.3562 104.79 42.405 104.248 42.5194C102.875 42.8093 101.511 43.1434 100.035 43.4851C100.351 42.7132 100.837 42.2006 101.299 41.6728C101.415 41.5416 101.564 41.415 101.427 41.2121C101.246 40.9436 101.082 41.1587 100.913 41.2304C100.071 42.0893 99.0742 42.6598 97.8671 42.8535C98.2766 42.1243 98.9311 41.7445 99.7043 41.5157C100.001 41.4287 100.36 41.5203 100.583 41.2152C99.8185 40.6096 99.0955 41.0001 98.4927 41.4303C97.4775 42.1564 96.3237 42.6125 95.2659 43.2471C95.0985 43.3478 94.8017 43.5049 94.7256 43.4423C94.1715 42.9801 93.4896 43.064 92.6723 43C93.5307 42.5255 94.2172 42.1518 94.896 41.7674C95.0406 41.685 95.2385 41.6087 95.17 41.3738C95.1228 41.2136 94.9737 41.0825 94.8397 41.0947C93.7697 41.1923 92.5444 40.6096 91.7468 41.9047C91.4226 42.4294 90.7453 42.3105 90.2034 42.3074C89.6875 42.3059 90.1669 41.8406 89.966 41.6637C89.8762 41.5843 89.8199 41.4455 89.7194 41.3997C88.8564 41.0108 88.4028 41.1358 87.6098 41.8543C86.5291 42.8306 85.2384 43.479 83.9431 44.112C83.8548 44.1563 83.7468 44.141 83.6813 44.0129C83.7483 43.6437 83.9644 43.3249 84.1623 43.0076C85.1029 41.5004 86.1562 40.0756 87.345 38.7515C87.5535 38.5197 88.0862 38.2725 87.7118 37.9125C87.3815 37.5952 87.173 38.1169 86.969 38.3183C86.0679 39.2107 85.1958 40.1321 84.2993 41.0291C84.1212 41.2075 83.9735 41.505 83.6067 41.293C83.0101 40.9482 82.4971 41.2502 81.9811 41.5447C81.2673 41.952 80.5412 42.3394 79.7924 42.7498C79.6554 41.6209 79.316 41.4455 78.389 41.9428C78.0907 42.103 77.7969 42.2754 77.5016 42.4416C77.6615 42.0023 77.9217 41.6743 78.1592 41.3296C78.2444 41.206 78.2946 41.0184 78.1394 40.9207C77.9963 40.8292 77.8685 40.9314 77.7589 41.0596C77.4499 41.4196 77.2566 41.8833 76.8 42.1137C75.7984 42.6171 74.7497 42.9618 73.634 43.0945C73.4133 43.1205 73.1241 43.2303 73.0008 43C72.8608 42.7361 73.1393 42.5591 73.29 42.3669C73.4483 42.164 73.6416 42.1335 73.8912 42.1533C74.2992 42.1838 74.6964 42.0877 75.0556 41.8757C75.2489 41.7613 75.5062 41.6484 75.4103 41.3677C75.3114 41.0763 75.0724 40.9528 74.7467 41.0016C74.0952 41.0992 73.5579 41.4104 73.0785 41.8437C72.7238 42.164 72.4285 42.521 72.6401 43.0335C72.8699 43.5918 73.3555 43.5827 73.8593 43.5385C74.7406 43.4622 75.5244 43.0656 76.4712 42.6994C76.3235 42.9389 76.2596 43.0381 76.1987 43.1403C76.0633 43.3722 75.7832 43.6193 76.0617 43.8786C76.357 44.1547 76.5686 43.81 76.7649 43.6559C77.3631 43.1845 77.9857 42.7498 78.6462 42.373C78.838 42.2632 79.0663 42.0603 79.2673 42.1732C79.5595 42.3364 79.2642 42.5744 79.2216 42.7666C79.1683 43.0137 79.1577 43.2227 79.3571 43.389C79.5717 43.5674 79.7437 43.3676 79.902 43.273C80.1912 43.1022 80.4575 42.8932 80.7741 42.672C80.8639 43.7551 81.3358 43.9961 82.179 43.453C82.7315 43.0976 83.249 42.6857 83.7818 42.2982C83.7452 42.643 83.5945 42.8962 83.4713 43.1632C83.2703 43.6041 83.0283 44.0769 83.4682 44.498C83.8731 44.8854 84.2901 44.5773 84.6539 44.3881C85.383 44.0098 86.0862 43.5827 86.8061 43.1723C87.1258 44.0739 87.4774 44.3149 88.141 43.8451C89.1745 43.1129 90.2978 42.7101 91.5063 42.4508C91.8823 42.3699 92.1928 42.1503 92.4835 41.8909C92.9371 41.4882 93.4698 41.4287 94.1913 41.5798C93.307 42.0725 92.552 42.4767 91.8153 42.91C91.5961 43.0381 91.205 43.1174 91.3191 43.479C91.45 43.8954 91.8214 43.6941 92.1015 43.6574C92.8108 43.5659 93.514 43.3478 94.4257 43.6056C94.0695 43.7947 93.858 43.903 93.6525 44.0175C92.6997 44.5453 91.7347 45.0563 90.9721 45.8587C90.759 46.0845 90.5703 46.3377 90.8184 46.6641C91.0375 46.9525 91.307 46.8716 91.5733 46.7618C92.7484 46.2767 93.7118 45.5155 94.4744 44.5026C94.6266 44.3012 94.7393 44.0846 94.9767 43.9519C95.7682 43.5095 96.5475 43.0457 97.3527 42.5789C97.9235 44.1136 98.8702 42.9115 99.6541 42.8779C99.6617 43.8588 99.9174 44.112 100.677 43.8969ZM74.2215 41.6103C74.3372 41.5477 74.3935 41.6179 74.4499 41.7003C74.459 41.8604 74.3281 41.8315 74.2489 41.8406C74.1835 41.8482 74.0648 41.8223 74.0556 41.7887C74.0221 41.6682 74.1439 41.653 74.2215 41.6103ZM81.2871 43.1647C81.7589 42.2876 82.4119 41.6667 83.4758 41.6484C82.8609 42.3135 82.2125 42.9298 81.2871 43.1647ZM88.5931 43.0106C88.3024 43.2868 87.9355 43.4805 87.4759 43.5796C87.2734 43.5827 87.1532 43.4988 87.2552 43.2181C87.3982 42.8261 87.6555 42.5133 87.9462 42.2342C88.0832 42.103 88.3511 41.7521 88.4393 42.0038C88.5413 42.2952 88.966 42.6567 88.5931 43.0106ZM89.1334 42.3715C89.0969 42.3745 89.0086 42.2616 89.0208 42.2266C89.0786 42.0435 89.2141 41.955 89.4759 41.984C89.4454 42.2327 89.3328 42.3562 89.1334 42.3715ZM92.6586 45.4789C92.3207 45.755 92.0132 46.0906 91.3222 46.1104C91.8138 45.7809 92.1548 45.5536 92.4957 45.3248C92.6647 45.157 92.8367 44.9968 93.1563 44.9556C93.0802 45.2851 92.8595 45.3721 92.6586 45.4789Z" fill="#031D57"/>
<path d="M58.3796 45.3781C61.2518 42.8001 64.3006 40.4585 67.602 38.454C67.9414 38.2481 68.2869 38.0543 68.8562 38.0223C68.602 38.4647 68.4087 38.8034 68.2123 39.1405C67.4178 40.5012 66.4132 41.7155 65.5274 43.0121C65.3752 43.2348 65.1331 43.4804 65.3889 43.7566C65.6659 44.0525 65.9048 43.7657 66.0997 43.6116C67.6705 42.3714 69.2199 41.1022 70.7999 39.8712C71.4163 39.3907 72.0602 38.9284 72.9354 38.6325C72.7207 38.9879 72.5624 39.2183 72.4346 39.4639C71.6735 40.9161 70.6005 42.2097 70.2321 43.8603C70.1591 44.1883 70.0343 44.5132 70.43 44.8442C70.6233 44.3179 70.7846 43.871 70.9521 43.4271C71.5457 41.8497 72.5548 40.4982 73.3418 39.0261C73.4955 38.7393 73.6005 38.4647 73.3707 38.1825C73.115 37.8682 72.8258 38.0208 72.5472 38.152C71.5335 38.631 70.6324 39.2808 69.7588 39.978C68.8242 40.7239 67.8759 41.4546 66.9338 42.1929C67.6324 41.0794 68.36 40.0344 68.949 38.901C69.1469 38.5211 69.4148 38.1077 69.0388 37.7096C68.6644 37.3114 68.2154 37.5494 67.8485 37.7371C66.5411 38.4022 65.2732 39.1329 64.1392 40.0832C63.5547 40.5729 62.9109 40.9924 62.2077 41.5065C62.2534 41.0809 62.4862 40.9466 62.6339 40.7575C63.8348 39.2213 65.1925 37.8087 66.223 36.1384C66.4771 35.7265 66.7816 35.2887 66.4513 34.8051C66.1164 34.3154 65.6111 34.3459 65.0814 34.4695C63.1955 34.9073 61.5654 35.8638 60.0037 36.9591C59.2138 37.5128 58.4558 38.1123 57.9245 38.9422C57.6277 39.4044 57.4192 39.8864 57.6917 40.4402C57.8758 40.2831 57.7191 39.9795 57.9474 39.8422C58.194 39.3678 58.4649 38.9071 58.8621 38.544C60.6065 36.9514 62.5943 35.76 64.8409 35.0339C65.2427 34.9043 65.8226 34.5748 66.1073 34.9958C66.3402 35.3405 65.8683 35.7677 65.6248 36.1017C63.7267 38.7118 61.6323 41.1572 59.3797 43.4682C58.7952 44.0678 58.229 44.6856 57.6521 45.2927C57.4968 45.4559 57.404 45.6314 57.6003 45.8159C57.7952 45.999 57.9169 45.7915 58.0448 45.6939C58.165 45.5978 58.2655 45.4803 58.3796 45.3781Z" fill="#031D57"/>
<path d="M13.9545 36.802C13.9058 36.4892 13.7704 36.2223 13.536 36.0087C13.3579 35.6792 13.1067 35.426 12.7612 35.2734C12.1767 34.8326 11.5344 34.7548 10.8282 34.9058C9.85861 35.1148 9.05647 35.6335 8.2863 36.2131C7.80684 36.5747 7.3563 36.9774 6.77334 37.461C7.02753 36.6998 7.25889 36.114 7.41262 35.5084C7.52069 35.0858 7.48872 34.6449 7.11429 34.317C6.72616 33.9753 6.31367 34.0943 5.90423 34.2575C5.71702 34.3322 5.53284 34.4222 5.36237 34.529C3.60284 35.6289 2.10206 37.014 0.855473 38.6722C0.613462 38.9941 0.389715 39.3403 0.302956 39.7415C0.255772 39.9597 0.231418 40.2099 0.549534 40.2892C0.829598 40.3578 0.875261 40.1687 0.952887 39.9673C1.85396 37.6562 3.58762 36.1033 5.65157 34.8783C6.03818 34.6495 6.5633 34.2865 6.97274 34.6617C7.32282 34.9805 6.98187 35.4718 6.84793 35.8623C6.33803 37.3542 5.58459 38.7271 4.77485 40.0726C4.65003 40.2785 4.33496 40.5851 4.71701 40.7789C5.01229 40.9299 5.10514 40.55 5.21625 40.3533C6.17516 38.66 7.55265 37.3603 9.12497 36.2696C10.1113 35.5862 11.1783 35.0385 12.4568 35.4199C12.781 35.6563 13.1387 35.8516 13.3883 36.178C13.5284 36.5472 13.6684 36.9179 13.8084 37.2871C13.676 38.991 12.7445 40.2602 11.5481 41.3646C10.4994 42.3333 9.30305 43.1037 8.02602 43.7276C5.69875 44.8656 3.32734 45.877 0.639337 45.6161C0.572365 45.671 0.505394 45.726 0.438422 45.7824C0.943754 46.2248 1.56172 46.1912 2.15838 46.1455C4.3654 45.9792 6.38217 45.1814 8.32892 44.1868C10.0078 43.3294 11.5984 42.3242 12.7962 40.8414C13.7338 39.682 14.4949 38.4129 13.9545 36.802Z" fill="#031D57"/>
<path d="M118.224 42.4599C117.861 42.2494 117.499 42.0389 117.004 41.7521C117.374 41.6453 117.599 41.5721 117.829 41.5157C119.749 41.0367 121.642 40.4921 123.166 39.1344C123.808 38.5624 124.329 37.9095 123.998 36.9499C123.936 36.5884 123.759 36.3123 123.414 36.1628C122.772 35.5907 122.021 35.664 121.269 35.8257C119.931 36.1155 118.814 36.8447 117.73 37.641C117.528 37.7905 117.373 38.0864 116.982 37.9705C117.105 37.6623 117.227 37.3725 117.339 37.0781C117.583 36.4359 117.831 35.7921 117.431 35.1194C117.202 34.6083 116.77 34.4665 116.259 34.4711C114.624 34.4863 112.061 36.2757 111.494 37.8027C111.324 38.2618 111.263 38.7027 111.908 39.1268C111.58 38.4617 111.828 38.0437 112.122 37.6334C113.051 36.3291 114.3 35.4672 115.826 35.0294C116.333 34.8845 116.88 34.8143 117.307 35.2841C117.105 37.3481 115.966 38.9788 114.741 40.5119C113.123 42.5347 111.525 44.5529 110.406 46.9067C110.281 47.1691 110.027 47.5199 110.35 47.7243C110.727 47.9623 110.835 47.4742 110.992 47.2743C112.131 45.8175 113.236 44.3241 114.155 42.7223C115.52 40.3456 117.214 38.3305 119.666 37.0293C120.781 36.4374 121.918 35.9843 123.211 36.3581C123.557 36.6204 123.804 36.9301 123.732 37.4015C123.315 38.5807 122.292 39.0948 121.298 39.6515C119.717 40.5378 117.963 40.8933 116.236 41.3296C116.079 41.3692 115.845 41.2869 115.797 41.5279C115.746 41.7857 115.963 41.8726 116.144 41.9535C116.741 42.2189 117.341 42.4737 117.939 42.733C119.418 43.5583 120.899 44.382 122.379 45.2073C121.152 44.0388 119.714 43.2074 118.224 42.4599Z" fill="#031D57"/>
<path d="M138.469 43.0549C138.09 43.0839 138.16 42.8688 138.212 42.6216C138.396 41.7399 138.816 41.0504 139.808 40.7972C138.976 40.4814 138.393 40.7606 138.09 41.6026C137.629 42.8856 136.478 43.0808 135.411 43.424C135.304 43.4591 135.286 43.2974 135.276 43.1983C135.648 42.7239 135.954 42.1945 136.411 41.7842C136.577 41.6347 136.792 41.4638 136.607 41.2075C136.422 40.9497 136.256 41.1618 136.105 41.2808C136.023 41.3448 135.956 41.4104 135.854 41.3189C134.858 40.4189 134.014 41.1358 133.301 41.6942C132.215 42.5454 131.03 43.2059 129.843 43.8771C129.618 44.0052 129.39 44.2219 129.023 44.0525C129.142 43.8024 129.237 43.5507 129.373 43.3203C130.327 41.6987 131.451 40.2023 132.689 38.7881C132.901 38.5456 133.508 38.2939 133.096 37.9201C132.711 37.5708 132.489 38.1917 132.257 38.4129C131.382 39.2565 130.56 40.1534 129.708 41.0199C129.543 41.1877 129.376 41.4974 129.085 41.3341C128.278 40.8841 127.67 41.3174 127.088 41.7689C126.667 42.0969 126.213 42.2647 125.699 42.2937C125.327 42.315 124.834 42.495 124.966 41.7689C124.998 41.595 124.852 41.4379 124.668 41.3708C123.712 41.0245 123.149 41.1969 122.42 42.0587C121.814 42.7757 121.671 43.4393 122.1 43.8176C122.726 44.3668 123.313 43.903 123.703 43.5202C124.446 42.794 125.358 42.7788 126.345 42.5652C126.096 43.0015 126.132 43.3508 126.449 43.5949C126.775 43.8466 127.126 43.7215 127.435 43.5171C127.837 43.2532 128.224 42.9664 128.624 42.7025C128.791 42.5927 128.901 42.3013 129.202 42.492C129.04 42.8367 128.881 43.1754 128.718 43.5125C128.546 43.8695 128.571 44.2066 128.846 44.4964C129.132 44.7985 129.461 44.6749 129.756 44.5224C130.341 44.2219 130.906 43.8817 131.489 43.5781C131.995 43.3142 132.425 42.6201 133.122 43.3066C133.248 43.4317 133.56 43.334 133.776 43.2334C134.119 43.0717 134.464 42.9191 134.81 42.762C134.866 43.9961 135.062 44.1471 136.152 43.7871C136.612 43.5613 136.968 43.1129 137.504 43.0488C137.531 43.0289 137.626 43.0778 137.69 43.0945C137.329 43.5201 136.81 43.6971 136.336 43.9458C136.169 44.0602 135.992 44.1624 135.839 44.292C135.655 44.4461 135.368 44.5498 135.448 44.8763C135.533 45.2241 135.837 45.2729 136.11 45.2668C136.845 45.25 137.472 44.9709 137.732 44.2402C137.929 43.688 138.303 43.4698 138.817 43.3081C140.859 42.6659 142.912 42.6964 145.003 43.1479C144.279 42.0542 140.991 42.0237 138.469 43.0549ZM122.533 43.5674C122.186 43.601 122.155 43.453 122.263 43.1662C122.4 42.7986 122.875 42.2327 123.545 41.746C123.534 41.9764 123.501 42.1228 123.525 42.2571C123.654 42.9527 123.245 43.5003 122.533 43.5674ZM124.122 42.3669C124.093 42.3699 124.011 42.2586 124.023 42.2235C124.084 42.0496 124.219 41.9687 124.479 41.955C124.425 42.2235 124.312 42.344 124.122 42.3669ZM126.667 43.1693C127.044 42.2296 127.921 41.624 128.721 41.7506C128.294 42.4096 127.344 43.064 126.667 43.1693ZM133.002 42.8337C133.458 41.9215 134.677 41.3357 135.674 41.5492C134.954 42.2921 133.726 42.8825 133.002 42.8337ZM136.142 44.8C136.416 44.4186 136.785 44.321 137.126 44.1685C136.828 44.6582 136.828 44.6581 136.142 44.8Z" fill="#031D57"/>
<path d="M0.640833 45.6176C0.380556 45.4102 0.34707 45.1951 0.546464 44.9052C0.751945 44.6063 1.00005 44.3652 1.29381 44.1623C3.12944 42.8947 5.16143 42.0969 7.33953 41.6789C8.25278 41.5035 9.1843 41.4302 10.1417 41.3051C9.91186 40.9344 9.6044 41.055 9.34717 41.0626C6.64698 41.1389 4.12641 41.8757 1.77022 43.1845C1.23901 43.4789 0.72607 43.8115 0.333372 44.2874C-0.0958566 44.8091 -0.162828 45.3232 0.439918 45.7809C0.435351 45.642 0.462749 45.5368 0.640833 45.6176Z" fill="#031D57"/>
<path d="M100.755 51.8965C99.6541 51.9026 98.7682 52.7858 98.7712 53.8719C98.7743 54.9398 99.6967 55.8428 100.776 55.8337C101.896 55.8245 102.73 54.9779 102.726 53.8521C102.723 52.7385 101.867 51.8904 100.755 51.8965ZM100.829 55.4035C99.9767 55.4279 99.2872 54.7689 99.2614 53.9055C99.2355 53.0375 99.8885 52.348 100.748 52.3358C101.628 52.3236 102.255 52.9567 102.255 53.8597C102.257 54.7247 101.65 55.3806 100.829 55.4035Z" fill="#031D57"/>
<path d="M31.3109 51.8965C30.1891 51.8827 29.3367 52.7172 29.3261 53.8384C29.3139 54.9611 30.1495 55.8261 31.2591 55.8368C32.3535 55.849 33.2591 54.9733 33.2728 53.8918C33.2865 52.8026 32.4098 51.9102 31.3109 51.8965ZM31.3063 55.3989C30.4189 55.3974 29.7979 54.7659 29.7949 53.8628C29.7933 52.9597 30.4067 52.3373 31.3002 52.3389C32.113 52.3404 32.7888 53.0101 32.7995 53.8262C32.8116 54.6927 32.1404 55.4005 31.3063 55.3989Z" fill="#031D57"/>
<path d="M19.0368 51.9011C17.9364 51.9026 17.0597 52.7782 17.0642 53.872C17.0688 54.9551 17.9699 55.8413 19.0582 55.8352C20.1601 55.8276 21.008 54.9673 21.0095 53.8521C21.0125 52.7431 20.1586 51.8995 19.0368 51.9011ZM19.0536 55.399C18.1906 55.3929 17.5437 54.7247 17.5467 53.843C17.5498 52.9674 18.2104 52.3221 19.0901 52.3358C19.9577 52.348 20.5635 53.0101 20.5407 53.9177C20.5209 54.772 19.8847 55.4051 19.0536 55.399Z" fill="#031D57"/>
<path d="M59.9764 51.8965C58.879 51.9102 57.9901 52.8133 58.0175 53.8887C58.0449 54.9855 58.9353 55.8505 60.0251 55.8398C61.1225 55.8276 61.9764 54.952 61.9673 53.8445C61.9581 52.74 61.0799 51.8827 59.9764 51.8965ZM60.0175 55.402C59.1453 55.4111 58.5137 54.7582 58.5213 53.8567C58.5304 52.9384 59.1362 52.3297 60.0327 52.3358C60.8714 52.3419 61.4863 52.9719 61.4924 53.8323C61.5 54.743 60.8912 55.3928 60.0175 55.402Z" fill="#031D57"/>
<path d="M126.078 51.9011C124.957 51.9057 124.109 52.7508 124.114 53.8613C124.117 54.9642 124.988 55.8414 126.079 55.8398C127.16 55.8398 128.043 54.9596 128.07 53.8598C128.094 52.8087 127.167 51.8965 126.078 51.9011ZM126.099 55.399C125.222 55.4005 124.6 54.7629 124.6 53.8613C124.6 52.9872 125.187 52.3572 126.021 52.3374C126.922 52.316 127.543 52.917 127.557 53.8277C127.572 54.7384 126.962 55.3975 126.099 55.399Z" fill="#031D57"/>
<path d="M112.688 51.8995C111.564 51.9026 110.73 52.7401 110.735 53.8613C110.738 54.9764 111.59 55.8383 112.691 55.8383C113.771 55.8383 114.688 54.9276 114.674 53.8628C114.662 52.7599 113.788 51.8965 112.688 51.8995ZM112.691 55.399C111.852 55.399 111.233 54.7812 111.207 53.9162C111.179 53.0131 111.79 52.3496 112.656 52.3374C113.516 52.3251 114.207 52.9964 114.207 53.8476C114.207 54.7125 113.536 55.399 112.691 55.399Z" fill="#031D57"/>
<path d="M120.424 53.846C120.324 53.846 120.271 53.8369 120.223 53.8476C119.977 53.9009 119.532 53.6981 119.522 54.0184C119.511 54.3662 119.957 54.1725 120.199 54.2228C120.405 54.2655 120.689 54.1237 120.77 54.441C120.843 54.7277 120.654 54.9154 120.456 55.0847C119.889 55.5698 119.012 55.5271 118.458 54.9886C117.86 54.4059 117.811 53.4997 118.345 52.8636C118.875 52.2336 119.68 52.1406 120.382 52.6195C120.538 52.7263 120.686 53.0802 120.905 52.7599C121.096 52.4838 120.756 52.3694 120.602 52.255C119.752 51.628 118.548 51.8263 117.902 52.676C117.292 53.4784 117.386 54.6347 118.114 55.2998C118.917 56.0336 120.156 55.9908 120.928 55.2418C121.292 54.8894 121.339 54.4593 121.226 54.0581C121.106 53.6309 120.659 53.9406 120.424 53.846Z" fill="#031D57"/>
<path d="M88.8504 51.9728C88.5566 52.0048 88.686 52.2962 88.6814 52.4731C88.6677 53.1886 88.6753 53.904 88.6753 54.8224C87.756 53.7255 86.9919 52.8148 86.0939 51.744C86.0939 53.1001 86.0878 54.2122 86.1 55.3242C86.1015 55.4875 85.9645 55.791 86.3283 55.7529C86.6327 55.7209 86.5383 55.4554 86.5399 55.2693C86.5475 54.5691 86.5429 53.8674 86.5429 52.9598C87.444 54.0322 88.1989 54.9322 88.9539 55.8322C89.1304 54.6713 89.1335 53.5684 89.1259 52.464C89.1244 52.2565 89.2157 51.9331 88.8504 51.9728Z" fill="#031D57"/>
<path d="M54.713 51.9697C54.3462 51.9575 54.4847 52.2977 54.4816 52.4914C54.4664 53.1977 54.4756 53.9055 54.4756 54.7812C53.5669 53.7026 52.8028 52.7935 51.8941 51.715C51.8941 53.1016 51.8956 54.2335 51.8926 55.3654C51.8926 55.5485 51.8758 55.7529 52.1224 55.7575C52.4573 55.762 52.334 55.4783 52.337 55.3135C52.3522 54.5859 52.3431 53.8583 52.3431 52.9216C53.2488 54.0016 54.0144 54.9139 54.9261 56C54.9261 54.6698 54.9337 53.5882 54.9185 52.5067C54.9154 52.3175 55.0737 51.9804 54.713 51.9697Z" fill="#031D57"/>
<path d="M95.0757 53.8476C94.8505 53.8476 94.6724 53.8476 94.4958 53.8476C94.3421 53.8476 94.1701 53.8415 94.1944 54.0657C94.2127 54.2366 94.3664 54.2122 94.4867 54.2183C94.5871 54.2244 94.6922 54.2106 94.7896 54.232C95.0103 54.2808 95.336 54.0596 95.4334 54.4288C95.5247 54.7766 95.3117 54.9902 95.0316 55.1686C94.3847 55.579 93.5293 55.4661 93.0346 54.891C92.5278 54.3022 92.5445 53.396 93.0711 52.7996C93.5673 52.2382 94.4014 52.165 95.0666 52.6242C95.2325 52.7386 95.3878 53.0696 95.6069 52.763C95.8109 52.4777 95.4578 52.377 95.3071 52.2641C94.4654 51.6372 93.2599 51.8263 92.5978 52.6653C91.9889 53.4357 92.0833 54.6103 92.8078 55.2922C93.578 56.0153 94.7941 56.0015 95.5674 55.3075C95.9768 54.9398 95.9844 54.4715 95.8809 54.0505C95.7713 53.6066 95.3101 53.9589 95.0757 53.8476Z" fill="#031D57"/>
<path d="M38.3854 53.9925C38.8451 53.692 39.043 53.248 38.8375 52.6806C38.6274 52.1009 38.1343 52.0033 37.6229 51.9453C37.3732 51.9163 37.1175 51.959 36.8664 51.9361C36.4783 51.8995 36.3291 52.0292 36.3458 52.4426C36.3763 53.2007 36.3291 53.9604 36.3641 54.7186C36.3793 55.0634 36.1784 55.7071 36.5437 55.6964C37.1023 55.6796 36.6792 55.0496 36.8025 54.7125C36.8649 54.5416 36.6777 54.2564 36.9592 54.2015C37.2119 54.1526 37.5148 54.0672 37.7249 54.3494C37.9806 54.6927 38.2469 55.0298 38.495 55.3791C38.6594 55.6125 38.8086 55.8474 39.2759 55.7071C38.9486 55.2601 38.6579 54.8559 38.3611 54.4562C38.2378 54.2899 38.0917 54.1847 38.3854 53.9925ZM37.4052 53.7682C36.8223 53.817 36.7248 53.544 36.8177 53.0726C36.7401 52.6104 36.7903 52.2977 37.4022 52.3434C37.9258 52.3816 38.4189 52.4563 38.4265 53.0665C38.4341 53.7011 37.9105 53.7255 37.4052 53.7682Z" fill="#031D57"/>
<path d="M44.4207 53.8659C44.7997 53.6431 44.8316 53.1886 44.7342 52.7691C44.6307 52.3251 44.3278 52.107 43.8895 52.0063C43.5105 51.9194 43.133 51.9743 42.757 51.9361C42.3522 51.8965 42.2274 52.0551 42.2395 52.4502C42.2624 53.2358 42.2106 54.0245 42.2578 54.8086C42.2761 55.1198 42.0203 55.7102 42.4374 55.7086C42.9717 55.7056 42.5881 55.1015 42.6977 54.7811C42.7646 54.5859 42.5653 54.2732 42.8727 54.1954C43.1558 54.1237 43.4694 54.0993 43.6809 54.4242C43.9016 54.7628 44.1543 55.0801 44.3994 55.402C44.5607 55.6141 44.6962 55.9024 45.1087 55.6537C44.8545 55.3013 44.6125 54.9581 44.3613 54.6179C44.1634 54.3494 43.958 54.1389 44.4207 53.8659ZM43.2091 53.7545C42.7083 53.8857 42.6581 53.5577 42.6992 53.1138C42.7342 52.7401 42.5455 52.2657 43.2532 52.3465C43.751 52.4029 44.2654 52.3862 44.2867 53.0543C44.3096 53.7591 43.7768 53.7484 43.2091 53.7545Z" fill="#031D57"/>
<path d="M78.6296 53.7957C79.2064 53.3304 79.0436 52.467 78.4119 52.1329C77.8457 51.8324 77.2247 51.9529 76.6234 51.956C76.3662 51.9575 76.3951 52.1848 76.3951 52.3556C76.3921 53.3701 76.3951 54.386 76.3921 55.4005C76.3921 55.5957 76.4104 55.762 76.6615 55.7559C76.9035 55.7498 76.8168 55.5576 76.8472 55.4279C76.94 55.0145 76.5763 54.4074 77.0664 54.2076C77.8107 53.904 77.9811 54.7094 78.3449 55.1106C78.4804 55.2601 78.5854 55.4371 78.7163 55.5912C78.8609 55.7635 79.0344 55.8368 79.2871 55.6522C79.0664 55.3471 78.8609 55.0313 78.6235 54.7415C78.3601 54.415 78.1273 54.1999 78.6296 53.7957ZM77.3769 53.7499C76.7467 53.9101 76.8685 53.4433 76.8365 53.0406C76.797 52.5433 76.905 52.2931 77.4743 52.3465C77.9918 52.3953 78.4926 52.4746 78.4789 53.0985C78.4667 53.7514 77.9218 53.7637 77.3769 53.7499Z" fill="#031D57"/>
<path d="M15.6304 41.1709C15.2042 41.4425 14.781 41.7186 14.3579 41.9932C14.3214 41.9657 14.2848 41.9382 14.2483 41.9108C14.3564 41.7231 14.4644 41.5355 14.5695 41.3464C14.6638 41.177 14.88 40.9757 14.6623 40.8155C14.4264 40.6431 14.3214 40.9314 14.2133 41.0794C13.644 41.8559 13.0809 42.6369 12.5207 43.4225C12.3807 43.6193 12.122 43.8603 12.4035 44.0769C12.6821 44.2905 12.8434 43.9534 13.0154 43.7978C13.746 43.1403 14.4842 42.4966 15.3473 41.9535C15.4112 42.2387 15.3275 42.524 15.5725 42.6903C15.6806 42.7635 15.9272 42.8672 15.8602 42.6354C15.7369 42.2067 16.1053 42.0587 16.2225 41.7765C16.3062 41.5736 16.5345 41.3952 16.3214 41.1679C16.1068 40.939 15.8587 41.026 15.6304 41.1709Z" fill="#031D57"/>
<path d="M71.669 51.6982C71.089 53.0711 70.602 54.2274 70.1103 55.3837C70.0556 55.5149 69.9033 55.6659 70.1164 55.7544C70.2504 55.8093 70.3858 55.7315 70.4939 55.5851C71.1408 54.714 72.226 54.7034 72.8425 55.5607C72.9445 55.7025 73.0465 55.8078 73.2032 55.7483C73.4239 55.6659 73.2946 55.5149 73.2382 55.3807C72.7451 54.2228 72.2534 53.0665 71.669 51.6982ZM71.6583 54.6179C71.0723 54.6149 70.8562 54.5157 71.1743 53.9238C71.3463 53.605 71.4574 53.2526 71.672 52.7324C71.8821 53.2465 71.9825 53.5867 72.1515 53.8888C72.497 54.502 72.2854 54.621 71.6583 54.6179Z" fill="#031D57"/>
<path d="M26.2971 52.0688C25.5452 52.0688 24.7948 52.0688 24.0429 52.0673C23.8693 52.0673 23.7597 52.1421 23.7278 52.319C23.8785 52.3312 24.0352 52.377 24.1783 52.3511C24.8374 52.2336 25.0002 52.5311 24.9546 53.1458C24.9028 53.8277 24.9302 54.5172 24.9531 55.2037C24.9592 55.3913 24.7826 55.7223 25.1616 55.7422C25.5695 55.7635 25.3701 55.4142 25.3792 55.2434C25.4097 54.711 25.3975 54.1755 25.3869 53.6431C25.3792 53.2343 25.1799 52.6226 25.3686 52.4685C25.638 52.2458 26.1814 52.3572 26.6076 52.3251C26.5802 52.1466 26.4721 52.0688 26.2971 52.0688Z" fill="#031D57"/>
<path d="M66.9034 55.3746C65.5457 55.2693 65.5457 55.2693 65.5457 53.8964C65.5457 53.8201 65.5457 53.7438 65.5457 53.6691C65.5457 53.2389 65.5457 52.8087 65.5457 52.3785C65.5457 52.2031 65.5746 51.9819 65.3326 51.9667C64.9993 51.9453 65.0967 52.229 65.0921 52.406C65.08 52.9872 65.0876 53.5699 65.0876 54.1511C65.0876 55.9161 65.0876 55.9176 66.8897 55.7681C67.0526 55.7544 67.2992 55.823 67.3037 55.5729C67.3098 55.3181 67.0648 55.3868 66.9034 55.3746Z" fill="#031D57"/>
<path d="M107.561 55.3791C106.307 55.3288 106.307 55.3334 106.305 54.0871C106.305 53.9604 106.305 53.8338 106.304 53.7072C106.302 53.2267 106.304 52.7462 106.302 52.2656C106.302 52.1024 106.254 51.9499 106.06 51.9529C105.856 51.956 105.843 52.1238 105.843 52.2794C105.841 52.9124 105.844 53.544 105.843 54.1771C105.84 55.8246 105.84 55.8307 107.52 55.7696C107.706 55.7635 108.051 55.9283 108.044 55.553C108.038 55.2449 107.733 55.3852 107.561 55.3791Z" fill="#031D57"/>
<path d="M48.3201 51.9575C48.0872 51.9667 48.0872 52.1756 48.0872 52.3602C48.0887 53.3731 48.0903 54.3861 48.0872 55.399C48.0857 55.5973 48.1177 55.7681 48.3551 55.7636C48.6458 55.7575 48.5454 55.5164 48.5499 55.3669C48.5621 54.8864 48.5545 54.4044 48.5545 53.9238C48.556 53.9238 48.5575 53.9238 48.5606 53.9238C48.5606 53.4174 48.5697 52.9109 48.556 52.4045C48.5499 52.229 48.6519 51.9438 48.3201 51.9575Z" fill="#031D57"/>
<path d="M82.5214 51.9529C82.2489 51.9437 82.2976 52.1756 82.2946 52.3373C82.2854 52.8407 82.2915 53.3457 82.2915 53.8491C82.2915 54.3784 82.29 54.9077 82.2931 55.4371C82.2946 55.5866 82.29 55.7559 82.5062 55.7574C82.7025 55.7589 82.7527 55.6217 82.7527 55.4554C82.7527 54.3967 82.7497 53.338 82.7512 52.2809C82.7512 52.1131 82.704 51.959 82.5214 51.9529Z" fill="#031D57"/>
<path d="M26.46 51.9392C25.6016 51.9285 24.7431 51.9285 23.8831 51.9362C23.5589 51.9392 23.492 52.0735 23.7264 52.3191C23.5894 52.0826 23.7233 51.9835 23.9303 51.9789C24.7553 51.9606 25.5818 51.9591 26.4068 51.9789C26.6183 51.9835 26.7386 52.0933 26.6061 52.3236C26.8482 52.0841 26.7873 51.9423 26.46 51.9392Z" fill="#031D57"/>
<path d="M100.519 51.6127C101.278 51.5136 101.305 50.9354 101.735 50.5525C100.761 50.432 100.943 51.1841 100.519 51.6127Z" fill="#031D57"/>
<path d="M57.6917 40.4387C57.8225 40.8185 58.0661 40.9878 58.5973 40.8826C58.1772 40.579 57.818 40.3365 57.9474 39.8407C57.7586 39.9963 58.0859 40.3716 57.6917 40.4387Z" fill="#031D57"/>
<path d="M18.5269 43.6467C18.711 43.6513 18.7856 43.5216 18.8328 43.3645C18.8054 43.1662 18.6547 43.1372 18.4995 43.1464C18.367 43.154 18.2453 43.2181 18.2407 43.3691C18.2346 43.5521 18.3549 43.6421 18.5269 43.6467Z" fill="#031D57"/>
</g>
<defs>
<clipPath id="clip0_58_5917">
<rect width="145" height="56" fill="white"/>
</clipPath>
</defs>
</svg>
