<svg width="206" height="56" viewBox="0 0 206 56" fill="none" xmlns="http://www.w3.org/2000/svg">
<g clip-path="url(#clip0_58_5923)">
<path d="M47.8818 37.7216C47.8818 36.5074 48.3987 35.855 49.017 35.6665C49.3038 35.5782 49.5752 35.822 49.5268 36.1176C49.0182 39.1995 51.7653 41.662 53.7371 41.662C55.4186 41.662 57.7775 40.2194 57.7775 37.5638V27.2687C57.7775 26.6162 57.5663 25.8025 57.217 25.2431L57.0541 24.964H60.2036L60.0408 25.2431C59.6915 25.8025 59.4803 26.6162 59.4803 27.2687V36.4002C59.4803 40.0792 57.2158 42.1295 53.6923 42.1295C50.5876 42.1272 47.8818 40.1805 47.8818 37.7216Z" fill="#222D31"/>
<path d="M69.6227 37.5379H62.5048L61.8286 39.5646C61.595 40.217 61.6422 41.125 61.9443 41.7774L61.9915 41.8928H59.7966L60.1483 41.5443C60.6144 41.032 61.0817 40.217 61.3153 39.5646L66.3092 24.9628H67.1635L72.0417 39.5646C72.2754 40.217 72.7427 41.032 73.2335 41.5443L73.5604 41.8928H70.0888L70.1596 41.7527C70.464 41.125 70.5112 40.217 70.3 39.5646L69.6227 37.5379ZM69.4362 37.048L66.098 27.1274L62.6912 37.048H69.4362Z" fill="#222D31"/>
<path d="M78.3665 41.894H75.217L75.3799 41.6384C75.7292 41.079 75.9404 40.2405 75.9404 39.5881V27.2663C75.9404 26.6139 75.7292 25.8001 75.3799 25.2407L75.217 24.9616H78.3665L78.2037 25.2407C77.852 25.8001 77.6432 26.6139 77.6432 27.2663V39.5869C77.6432 40.2394 77.852 41.0779 78.2037 41.6372L78.3665 41.894Z" fill="#222D31"/>
<path d="M82.1828 41.894H80.2463L80.4092 41.6384C80.7585 41.079 80.9697 40.2405 80.9697 39.5881V27.2663C80.9697 26.6139 80.7585 25.8001 80.4092 25.2407L80.2463 24.9616H82.781L88.6764 41.2993L94.7606 24.9616H97.208L97.0215 25.2407C96.6947 25.8001 96.4834 26.6139 96.4834 27.2663V39.5869C96.4834 40.2394 96.6947 41.0779 97.0215 41.6372L97.208 41.8928H94.0585L94.2213 41.6372C94.573 41.0779 94.7818 40.2394 94.7818 39.5869V26.2653L88.9974 41.894H87.0834L81.4606 26.3136V39.5881C81.4606 40.2405 81.6694 41.079 82.0187 41.6384L82.1828 41.894Z" fill="#222D31"/>
<path d="M101.498 33.6727V41.4041H107.96C109.314 41.4041 109.363 40.7293 110.273 39.7047L110.46 39.4715L109.97 41.8928H99.0735L99.2363 41.6372C99.5856 41.0779 99.7968 40.2394 99.7968 39.5869V27.2663C99.7968 26.6139 99.5856 25.7754 99.2363 25.2407L99.0735 24.9616H109.736L110.226 27.3829L110.015 27.1721C109.13 26.1251 109.056 25.448 107.703 25.448H101.497V33.1817H104.648C105.511 33.1817 106.491 32.7153 107.052 32.0405L107.308 31.7367V35.1142L107.052 34.8127C106.491 34.1356 105.511 33.6716 104.648 33.6716H101.498V33.6727Z" fill="#222D31"/>
<path d="M134.864 33.6727V41.4041H139.858C141.211 41.4041 142.729 40.7293 143.64 39.7047L143.826 39.4715L143.336 41.8928H132.44L132.603 41.6372C132.952 41.0779 133.163 40.2394 133.163 39.5869V27.2663C133.163 26.6139 132.952 25.7754 132.603 25.2407L132.44 24.9616H143.103L143.592 27.3829L143.381 27.1721C142.496 26.1251 140.955 25.448 139.602 25.448H134.864V33.1817H138.014C138.877 33.1817 139.858 32.7153 140.418 32.0405L140.674 31.7367V35.1142L140.418 34.8127C139.858 34.1356 138.877 33.6716 138.014 33.6716H134.864V33.6727Z" fill="#222D31"/>
<path d="M164.607 33.6727V41.4041H169.601C170.955 41.4041 172.472 40.7293 173.383 39.7047L173.57 39.4715L173.08 41.8928H162.184L162.346 41.6372C162.696 41.0779 162.907 40.2394 162.907 39.5869V27.2663C162.907 26.6139 162.696 25.7754 162.346 25.2407L162.184 24.9616H172.846L173.336 27.3829L173.125 27.1721C172.24 26.1251 170.699 25.448 169.345 25.448H164.607V33.1817H167.758C168.621 33.1817 169.601 32.7153 170.162 32.0405L170.418 31.7367V35.1142L170.162 34.8127C169.601 34.1356 168.621 33.6716 167.758 33.6716H164.607V33.6727Z" fill="#222D31"/>
<path d="M146.029 41.894L146.192 41.6384C146.541 41.079 146.752 40.2405 146.752 39.5881V27.2663C146.752 26.6139 146.541 25.7754 146.192 25.2407L146.029 24.9616H152.057C157.098 24.9616 160.077 28.3368 160.077 33.4384C160.077 38.5624 157.098 41.8928 152.057 41.8928H146.029V41.894ZM148.454 25.4503V41.4052H151.467C155.809 41.4052 158.376 38.2385 158.376 33.4855C158.376 28.6901 155.783 25.4503 151.467 25.4503H148.454Z" fill="#222D31"/>
<path d="M197.094 24.7768C201.842 24.2786 205.384 27.3971 205.933 32.6082C206.479 37.797 203.664 41.5819 198.916 42.0789C194.169 42.5771 190.627 39.4586 190.08 34.271C189.532 29.0599 192.346 25.2749 197.094 24.7768ZM198.847 41.6173C202.046 41.2816 204.778 37.8817 204.243 32.8084C203.726 27.8987 200.452 24.9169 197.209 25.2572C193.966 25.5976 191.257 29.2071 191.787 34.2334C192.306 39.1654 195.604 41.9576 198.847 41.6173Z" fill="#222D31"/>
<path d="M180.243 21.7572C181.023 21.7572 182.899 22.7747 184.228 22.7747C185.638 22.7747 185.727 21.6901 185.758 20.6573H185.152C185.005 21.0612 184.862 21.7725 184.486 21.7725C183.68 21.7725 182.091 20.7397 180.734 20.7397C179.305 20.7397 179.144 21.9009 179.087 22.7735H179.694C179.81 22.5145 179.866 21.7572 180.243 21.7572Z" fill="#222D31"/>
<path d="M188.039 41.894V27.2675C188.039 26.6151 188.25 25.7766 188.6 25.2419L188.764 24.9628H186.827L186.991 25.2419C187.34 25.7766 187.552 26.6151 187.552 27.2675V38.9134L178.427 24.964H176.395L187.469 41.8952H188.039V41.894Z" fill="#222D31"/>
<path d="M175.665 24.9628L175.828 25.2419C176.177 25.7766 176.389 26.6151 176.389 27.2675V39.5882C176.389 40.2406 176.177 41.0791 175.828 41.6385L175.665 41.894H177.602L177.439 41.6385C177.09 41.0791 176.881 40.2406 176.881 39.5882V25.7083V24.9628H175.665Z" fill="#222D31"/>
<path d="M129.91 37.943C129.766 37.89 129.61 37.9748 129.569 38.122C128.928 40.3795 127.287 41.4041 125.32 41.4041C121.82 41.4041 118.27 38.1443 118.27 33.2983C118.27 28.4546 121.82 25.2172 124.62 25.2172C127.046 25.2172 129.61 26.9095 128.831 31.0749C128.745 31.533 129.175 31.9381 129.623 31.8085C130.279 31.6189 130.618 31.0066 130.618 29.9667C130.618 27.7539 128.192 24.7285 124.784 24.7285C120.07 24.7285 116.57 28.199 116.57 33.4384C116.57 38.6554 120.07 42.126 124.692 42.126C128.35 42.126 129.657 39.9438 130.074 38.2527C130.106 38.1231 130.036 37.9889 129.91 37.943Z" fill="#222D31"/>
<path d="M33.2767 48.7797C33.043 48.695 32.7917 48.8304 32.7244 49.0695C31.6872 52.7226 29.0309 54.3819 25.8484 54.3819C20.1831 54.3819 14.44 49.106 14.44 41.2639C14.44 33.4254 20.1843 28.186 24.7168 28.186C28.6427 28.186 32.794 30.9241 31.5326 37.6662C31.3945 38.4069 32.0884 39.0629 32.8129 38.8544C33.8737 38.5483 34.4225 37.5567 34.4225 35.8726C34.4225 32.2914 30.4953 27.3947 24.9811 27.3947C17.3511 27.3947 11.6858 33.0109 11.6858 41.4912C11.6858 49.935 17.3511 55.5513 24.8301 55.5513C30.7502 55.5513 32.866 52.0183 33.541 49.2826C33.5929 49.0706 33.482 48.8539 33.2767 48.7797Z" fill="#3C535B"/>
<path d="M50.8932 46.249C52.3871 46.249 53.4515 47.0557 53.4515 48.0261C53.4515 48.6691 53.0019 48.9965 52.1629 48.8434C52.4803 47.6493 51.9482 46.4645 50.8224 46.4645C49.5952 46.4645 48.5922 47.8836 48.5922 50.0069C48.5922 52.1302 49.5952 53.5599 51.1292 53.5599C52.1629 53.5599 53.3701 52.9169 53.4822 51.4672L53.6663 51.5791C53.6663 52.2221 52.9606 53.8767 50.8531 53.8767C48.827 53.8767 47.293 52.3552 47.293 50.0682C47.293 47.7706 48.827 46.249 50.8932 46.249Z" fill="#3C535B"/>
<path d="M56.3474 53.7743H54.4346L54.5066 53.6624C54.66 53.4174 54.752 53.05 54.752 52.7638V49.4864C54.752 49.1908 54.66 48.8328 54.5066 48.5879L54.4346 48.476H56.0311V52.7638C56.0311 53.05 56.1232 53.4174 56.2766 53.6624L56.3474 53.7743ZM55.3963 46.249C55.8671 46.249 56.194 46.5752 56.194 47.0451C56.194 47.5256 55.8671 47.8624 55.3963 47.8624C54.916 47.8624 54.588 47.5256 54.588 47.0451C54.588 46.5764 54.9148 46.249 55.3963 46.249Z" fill="#3C535B"/>
<path d="M59.0683 53.7743H57.1555L57.2275 53.6624C57.3809 53.4174 57.4729 53.05 57.4729 52.7638V49.4758C57.4729 49.1896 57.3809 48.8328 57.2275 48.5878L57.1555 48.476H58.7521V49.7007C59.0388 48.8634 59.6017 48.3629 60.4195 48.3629C61.1664 48.3629 61.6266 48.7916 61.6266 49.4252C61.6266 50.0175 61.2172 50.2825 60.4808 50.14C60.7369 49.1908 60.5835 48.6903 60.0513 48.6903C59.3244 48.6903 58.7521 49.6607 58.7521 51.1716V52.765C58.7521 53.0512 58.8441 53.4186 58.9975 53.6636L59.0683 53.7743Z" fill="#3C535B"/>
<path d="M62.231 48.476H63.8275V52.0183C63.8275 52.8451 64.2571 53.3962 64.8919 53.3962C65.5161 53.3962 66.007 52.8557 66.0578 52.0278V49.4758C66.0578 49.1896 65.9551 48.8328 65.8123 48.5878L65.7403 48.476H67.3263V52.7638C67.3263 53.05 67.429 53.4068 67.5717 53.6624L67.6532 53.7742H66.0578V52.5495C65.771 53.3762 64.9627 53.8767 64.093 53.8767C63.0806 53.8767 62.5484 53.2031 62.5484 52.1208V49.4758C62.5484 49.1896 62.4563 48.8328 62.3029 48.5878L62.231 48.476Z" fill="#3C535B"/>
<path d="M68.4508 48.476H70.0474V53.9486C70.0474 55.2864 69.3819 56.0012 68.1346 56.0012C67.1622 56.0012 66.5286 55.5831 66.5286 54.8989C66.5286 54.3478 66.938 54.0816 67.685 54.2347C67.4089 55.2251 67.6036 55.7869 68.0732 55.7869C68.5641 55.7869 68.7694 55.1027 68.7694 53.9697V49.4664C68.7694 49.1802 68.6774 48.8328 68.524 48.5879L68.4508 48.476ZM69.4232 46.249C69.894 46.249 70.2209 46.5752 70.2209 47.0451C70.2209 47.5256 69.894 47.8624 69.4232 47.8624C68.9429 47.8624 68.6148 47.5256 68.6148 47.0451C68.6148 46.5764 68.9429 46.249 69.4232 46.249Z" fill="#3C535B"/>
<path d="M75.807 52.7638C75.807 53.05 75.8991 53.4174 76.0419 53.6624L76.1233 53.7742H74.5267V53.2537C74.2612 53.6518 73.7491 53.8767 73.0328 53.8767C71.7843 53.8767 70.9253 53.1925 70.9253 52.1915C70.9253 50.9055 72.3472 50.2307 74.5267 50.5581V50.2931C74.5267 49.1802 74.1078 48.5772 73.3196 48.5772C72.562 48.5772 72.2151 49.119 72.4912 50.14C71.7442 50.2825 71.3253 50.0175 71.3253 49.5276C71.3253 48.854 72.0617 48.3641 73.4529 48.3641C74.9869 48.3641 75.8059 48.967 75.8059 50.3249V52.7638H75.807ZM74.5291 50.7724C73.0564 50.5475 72.2068 51.048 72.2068 52.1302C72.2068 52.9675 72.6977 53.5599 73.4446 53.5599C74.0583 53.5599 74.5185 53.1513 74.5291 52.5389V50.7724Z" fill="#3C535B"/>
<path d="M80.7289 50.2318C80.7289 49.3945 80.2888 48.8528 79.6645 48.8528C79.0403 48.8528 78.5494 49.3839 78.4987 50.2212V52.7638C78.4987 53.05 78.5907 53.4174 78.7441 53.6624L78.8161 53.7742H76.9021L76.9741 53.6624C77.1275 53.4174 77.2195 53.05 77.2195 52.7638V49.4758C77.2195 49.1896 77.1275 48.8328 76.9741 48.5878L76.9021 48.476H78.4975V49.6913C78.7842 48.874 79.5926 48.3641 80.4717 48.3641C81.4641 48.3641 81.9963 49.0483 81.9963 50.1306V52.765C81.9963 53.0512 82.0989 53.4186 82.2417 53.6635L82.3231 53.7754H80.4103L80.4823 53.6635C80.6251 53.4186 80.7277 53.0512 80.7277 52.765V50.2318H80.7289Z" fill="#3C535B"/>
<path d="M86.0083 48.3629C87.737 48.3629 88.9241 49.4652 88.9241 51.1198C88.9241 52.7838 87.717 53.8767 85.9882 53.8767C84.2689 53.8767 83.083 52.7744 83.083 51.1092C83.0818 49.4558 84.2795 48.3629 86.0083 48.3629ZM85.9469 53.673C86.9393 53.673 87.645 52.6413 87.645 51.0904C87.645 49.5488 86.9488 48.5784 86.0177 48.5784C85.0359 48.5784 84.3598 49.6407 84.3598 51.2022C84.361 52.7132 85.0053 53.673 85.9469 53.673Z" fill="#3C535B"/>
<path d="M93.7846 50.4862V52.7626C93.7846 53.0488 93.8766 53.4162 94.03 53.6612L94.102 53.7731H92.1892L92.2612 53.6612C92.4146 53.4162 92.5066 53.0488 92.5066 52.7626V47.3607C92.5066 47.0745 92.4146 46.7071 92.2612 46.4728L92.1892 46.3503H95.6679C97.3766 46.3503 98.2463 47.177 98.2463 48.4029C98.2463 49.6889 97.2432 50.4862 95.6679 50.4862H93.7846ZM93.7846 46.5658V50.2719H95.1345C96.239 50.2719 96.9659 49.5464 96.9659 48.4241C96.9659 47.3018 96.239 46.5658 95.1345 46.5658H93.7846Z" fill="#3C535B"/>
<path d="M100.803 53.7742H98.8906L98.9626 53.6624C99.116 53.4174 99.2081 53.05 99.2081 52.7638V47.3619C99.2081 47.0757 99.116 46.7283 98.9626 46.4834L98.8906 46.3503H100.487V52.7626C100.487 53.0488 100.579 53.4162 100.733 53.6612L100.803 53.7742Z" fill="#3C535B"/>
<path d="M106.46 52.7638C106.46 53.05 106.552 53.4174 106.695 53.6624L106.777 53.7743H105.18V53.2537C104.915 53.6518 104.402 53.8767 103.686 53.8767C102.438 53.8767 101.579 53.1925 101.579 52.1915C101.579 50.9055 103.001 50.2307 105.18 50.5581V50.2931C105.18 49.1802 104.761 48.5773 103.973 48.5773C103.215 48.5773 102.868 49.119 103.145 50.14C102.398 50.2825 101.979 50.0175 101.979 49.5276C101.979 48.854 102.715 48.3641 104.106 48.3641C105.64 48.3641 106.459 48.9671 106.459 50.3249V52.7638H106.46ZM105.181 50.7724C103.707 50.5475 102.859 51.048 102.859 52.1303C102.859 52.9676 103.35 53.5599 104.097 53.5599C104.71 53.5599 105.171 53.1513 105.181 52.5389V50.7724ZM103.729 47.4137H103.626L104.137 46.3727L104.72 46.7507L103.729 47.4137Z" fill="#3C535B"/>
<path d="M111.628 52.4883C111.628 53.2949 110.809 53.8767 109.52 53.8767C108.333 53.8767 107.597 53.3962 107.597 52.7226C107.597 52.2221 108.026 51.9571 108.753 52.1102C108.477 53.1313 108.825 53.6718 109.612 53.6718C110.257 53.6718 110.554 53.3044 110.554 52.9676C110.554 51.8959 107.597 51.2423 107.597 49.6901C107.597 48.9035 108.375 48.3629 109.551 48.3629C110.677 48.3629 111.413 48.8528 111.413 49.5264C111.413 50.0163 110.994 50.2825 110.267 50.1388C110.543 49.1178 110.186 48.5761 109.52 48.5761C108.988 48.5761 108.671 48.9235 108.671 49.2803C108.671 50.3543 111.628 50.9467 111.628 52.4883Z" fill="#3C535B"/>
<path d="M113.919 53.8767C113.122 53.8767 112.753 53.2431 112.753 52.1208V48.6903H112.273V48.476H112.753V47.5162L114.022 46.985V48.476H114.881V48.6903H114.022V52.0184C114.022 52.9581 114.247 53.3962 114.769 53.3962C114.636 53.713 114.329 53.8767 113.919 53.8767Z" fill="#3C535B"/>
<path d="M117.439 53.7743H115.527L115.599 53.6624C115.752 53.4174 115.844 53.05 115.844 52.7638V49.4864C115.844 49.1908 115.752 48.8328 115.599 48.5879L115.527 48.476H117.123V52.7638C117.123 53.05 117.215 53.4174 117.369 53.6624L117.439 53.7743ZM116.488 46.249C116.959 46.249 117.286 46.5752 117.286 47.0451C117.286 47.5256 116.959 47.8624 116.488 47.8624C116.008 47.8624 115.68 47.5256 115.68 47.0451C115.68 46.5764 116.007 46.249 116.488 46.249Z" fill="#3C535B"/>
<path d="M121.562 50.14C121.839 49.119 121.49 48.5773 120.949 48.5773C120.191 48.5773 119.516 49.6395 119.516 51.1504C119.516 52.6107 120.161 53.5599 121.174 53.5599C121.746 53.5599 122.524 53.2537 122.699 52.294L122.832 52.4365C122.659 53.1207 122.065 53.8756 120.797 53.8756C119.292 53.8756 118.238 52.7733 118.238 51.1693C118.238 49.4534 119.435 48.3618 120.959 48.3618C121.972 48.3618 122.709 48.8517 122.709 49.5253C122.708 50.0175 122.299 50.2825 121.562 50.14Z" fill="#3C535B"/>
<path d="M126.504 48.3629C128.233 48.3629 129.42 49.4652 129.42 51.1198C129.42 52.7838 128.213 53.8767 126.484 53.8767C124.765 53.8767 123.579 52.7744 123.579 51.1092C123.578 49.4558 124.776 48.3629 126.504 48.3629ZM126.443 53.673C127.435 53.673 128.141 52.6413 128.141 51.0904C128.141 49.5488 127.445 48.5784 126.514 48.5784C125.532 48.5784 124.856 49.6407 124.856 51.2022C124.857 52.7132 125.501 53.673 126.443 53.673Z" fill="#3C535B"/>
<path d="M0 23.7086C0 21.4522 0.961718 20.2404 2.1087 19.8895C2.64089 19.727 3.14712 20.1792 3.05626 20.7268C2.11224 26.4526 7.21466 31.0289 10.881 31.0289C14.0057 31.0289 18.3895 28.3474 18.3895 23.4142V4.28197C18.3895 3.07015 17.9977 1.55804 17.3475 0.51817L17.0442 0H22.896L22.5927 0.51817C21.9425 1.55804 21.5507 3.06898 21.5507 4.28197V21.2497C21.5507 28.086 17.3428 31.8957 10.796 31.8957C5.02689 31.8945 0 28.2791 0 23.7086Z" fill="#222D31"/>
<path d="M31.4499 0L1.46912 55.5513H3.46807L33.4489 0H31.4499Z" fill="#222D31"/>
</g>
<defs>
<clipPath id="clip0_58_5923">
<rect width="206" height="56" fill="white"/>
</clipPath>
</defs>
</svg>
