<svg width="62" height="56" viewBox="0 0 62 56" fill="none" xmlns="http://www.w3.org/2000/svg">
<g clip-path="url(#clip0_58_5916)">
<path d="M29.1196 24.5777L28.434 23.0995C28.081 23.2197 27.7382 23.34 27.3904 23.4653C26.0544 23.9463 24.7688 24.4624 23.5236 25.0236L23.3723 26.6872C25.1469 25.8955 27.0022 25.214 28.9381 24.6328C29.0036 24.6177 29.0591 24.5977 29.1196 24.5777Z" fill="#005F7F"/>
<path d="M17.867 42.8618C15.9815 44.9212 14.2169 46.7301 12.5734 48.2834C10.9299 49.8368 9.48805 51.0844 8.24784 52.0215C7.00764 52.9585 6.06489 53.4295 5.41958 53.4295C4.66336 53.4295 4.13905 53.1088 3.8416 52.4674C3.54415 51.826 3.39795 51.0744 3.39795 50.2176C3.39795 47.4316 4.15417 44.6206 5.66157 41.7795C7.16897 38.9384 9.30151 36.3028 12.0491 33.8675C14.585 31.6177 17.5746 29.6134 21.0028 27.8446L21.2044 26.141C21.0381 26.2262 20.8666 26.3063 20.7003 26.3965C16.173 28.7766 12.3768 31.4323 9.30151 34.3486C6.22622 37.2648 3.90714 40.2663 2.34428 43.3479C0.781428 46.4245 0 49.2505 0 51.821C0 53.0537 0.352903 54.0558 1.05367 54.8325C1.75443 55.6091 2.72239 55.995 3.9626 55.995C5.41958 55.995 7.34542 55.0028 9.74012 53.0236C12.1399 51.0393 14.7816 48.4839 17.6603 45.3522C19.0164 43.879 20.4028 42.3157 21.8144 40.6671H19.8533C19.1878 41.4087 18.5224 42.1453 17.867 42.8618Z" fill="#005F7F"/>
<path d="M30.6975 27.975C30.2438 28.5362 29.7799 29.1074 29.306 29.6886C27.4457 31.9635 25.5451 34.2133 23.6092 36.4381C23.1958 36.9091 22.7874 37.3801 22.374 37.8461L22.3438 38.1568C22.2984 38.6478 22.49 39.1289 22.8126 39.5097C24.0932 37.9964 25.3939 36.4131 26.7198 34.7545C28.2322 32.8655 29.7346 30.9864 31.2268 29.1174L31.0756 28.7867L30.6975 27.975Z" fill="#005F7F"/>
<path d="M51.5743 0.481031C50.929 0.160344 50.2787 0 49.6334 0C48.5545 0 46.9765 0.335719 44.9045 1.00215C42.8274 1.67359 40.7705 2.57051 38.7186 3.69291C36.6718 4.82033 34.8921 6.1582 33.3847 7.71152C31.8773 9.26485 31.1211 10.9234 31.1211 12.6922C31.1211 13.6042 31.4034 14.2606 31.9681 14.6614C32.5327 15.0623 33.1931 15.2627 33.9494 15.2627C34.5443 15.2627 35.1744 15.1825 35.85 15.0222C36.5255 14.8618 37.186 14.6614 37.8313 14.4209C38.4766 14.1804 39.0564 13.9248 39.5706 13.6593C40.0848 13.3937 40.4982 13.1782 40.8259 13.0179C41.0931 12.8576 41.3099 12.7774 41.4712 12.7774C41.6326 12.7774 41.7132 12.8876 41.7132 13.0981C41.7132 13.3686 41.2141 14.2105 40.2159 15.6285C39.2177 17.0465 37.912 18.8303 36.2936 20.9699C34.6148 21.3207 33.0016 21.7266 31.4337 22.1725L32.1798 23.7759C32.9209 23.6056 33.6721 23.4452 34.4333 23.2999C33.9292 23.9363 33.4049 24.5977 32.8705 25.2641L33.3948 26.3865C34.2821 25.2742 35.1694 24.1618 36.0517 23.0594C37.3473 22.844 38.6531 22.6986 39.9739 22.6185C41.083 22.5533 42.2275 22.5183 43.3971 22.5082L44.6322 19.7874C44.5465 19.7924 44.4608 19.7974 44.3802 19.8074C42.172 19.9928 40.0142 20.2734 37.912 20.6492C39.4748 18.6149 41.0125 16.6707 42.5199 14.8218C44.0273 12.9728 45.454 11.219 46.8051 9.56049C47.0723 9.2398 47.2084 8.88905 47.2084 8.51324C47.2084 8.19256 47.0723 8.03221 46.8051 8.03221C46.5883 8.03221 46.3715 8.14245 46.1598 8.3529C45.6204 8.78382 44.9599 9.26485 44.1785 9.801C43.3971 10.3372 42.5904 10.8332 41.7536 11.2892C40.9167 11.7452 40.0697 12.131 39.2076 12.4517C38.3455 12.7724 37.5389 12.9327 36.7827 12.9327C36.3491 12.9327 35.9458 12.8275 35.5677 12.612C35.1896 12.3966 35.003 12.0508 35.003 11.5698C35.003 10.5526 35.487 9.45526 36.46 8.27774C37.428 7.10021 38.6026 6.01288 39.9739 5.02577C41.3502 4.03364 42.7871 3.20687 44.2995 2.53543C45.8069 1.86399 47.1278 1.53329 48.2621 1.53329C48.9074 1.53329 49.2301 1.7738 49.2301 2.25483C49.2301 2.73586 49.0133 3.13672 48.5847 3.45741C48.3125 3.61775 48.0604 3.7781 47.8184 3.93844C47.5765 4.09878 47.4 4.23407 47.2941 4.3393C47.0168 4.49964 46.8858 4.74016 46.8858 5.06084C46.8858 5.33142 46.9664 5.57194 47.1278 5.78239C47.2891 5.99785 47.5311 6.10308 47.8537 6.10308C48.1764 6.10308 48.5948 5.96779 49.1091 5.70222C49.6233 5.43665 50.1476 5.11596 50.687 4.74016C51.2265 4.36435 51.6852 3.94846 52.0634 3.49749C52.4415 3.04152 52.628 2.65569 52.628 2.335C52.5725 1.41804 52.2196 0.801718 51.5743 0.481031Z" fill="#005F7F"/>
<path d="M61.2739 20.088C60.7899 19.8726 59.9783 19.7373 58.849 19.6872C58.3095 19.6872 57.3819 19.6571 56.061 19.607C55.1284 19.5669 54.0646 19.5469 52.8799 19.5369L53.2681 22.7037C54.6999 22.7287 55.9753 22.7688 57.0744 22.8239C58.2037 22.879 58.8792 22.9041 59.096 22.9041C59.6909 22.9041 60.3211 22.8339 60.9966 22.7037C61.6722 22.5684 62.0049 22.1525 62.0049 21.456C61.9999 20.7545 61.7579 20.2985 61.2739 20.088Z" fill="#005F7F"/>
<path d="M46.6034 19.6521L45.3127 22.5032C46.2807 22.5132 47.3243 22.5383 48.4586 22.5734C48.988 22.5884 49.5072 22.6034 50.0215 22.6185L49.7442 19.5419C48.6754 19.5569 47.6318 19.597 46.6034 19.6521Z" fill="#005F7F"/>
<path d="M58.5667 40.1861C56.8324 40.1861 55.2746 39.0687 55.0276 37.1597L53.8831 27.7896L53.5504 25.0687L53.263 22.6987L52.8748 19.5319L51.2515 6.21334H50.8078L44.632 19.7874L43.3969 22.5083L40.7098 28.4109L39.767 30.4753L37.5589 35.3307L35.018 29.874L33.7273 27.0981L33.3996 26.3916L32.8753 25.2692L32.1847 23.781L31.4385 22.1775L24.0023 6.1983H23.5537L22.2479 17.262L21.5673 23.0394L21.1993 26.136L20.9976 27.8397L19.8986 37.1597C19.6465 39.0687 18.0937 40.1861 16.3595 40.1861H15.5881V40.6672H19.8583H21.8194H24.9955V40.2112H24.2393C23.6847 40.2112 23.1705 39.9206 22.8126 39.4997C22.4949 39.1239 22.3034 38.6378 22.3437 38.1468L22.374 37.8361L23.3822 26.6822L23.5335 25.0186L23.5587 24.733L23.9923 19.9177L24.4762 14.5512L28.4388 23.0945L29.1245 24.5727L29.2455 24.8382L30.6974 27.97L31.0705 28.7767L31.2217 29.1074L36.8934 41.3386H37.3522C37.6647 39.3393 39.0209 36.408 39.0209 36.408L41.6929 30.5054L42.6558 28.3808L45.3177 22.4982L46.6083 19.6471L49.2299 13.8497L49.7441 19.5419L50.0214 22.6235L50.3844 26.6521L50.6062 29.1124L51.4229 38.1518C51.5237 39.2441 50.5759 40.2112 49.5273 40.2112H48.7711V40.6672H59.3279V40.1861H58.5667Z" fill="#B6DCE1"/>
<path d="M21.1035 46.9957H21.3606V43.4731H21.1035V43.3779H22.384C23.4226 43.3779 23.7604 44.2899 23.7604 45.1818C23.7604 46.1839 23.4276 47.0909 22.3387 47.0909H21.1086V46.9957H21.1035ZM22.1521 46.9957H22.2883C22.7269 46.9957 22.863 46.7251 22.863 46.0436V44.2247C22.863 43.6485 22.6815 43.4681 22.2278 43.4681H22.1521V46.9957Z" fill="#005F7F"/>
<path d="M25.2626 44.5856C25.913 44.5856 26.3465 45.2771 26.3465 45.8733C26.3465 46.4746 25.918 47.1661 25.2626 47.1661C24.6072 47.1661 24.1787 46.4746 24.1787 45.8733C24.1787 45.2771 24.6072 44.5856 25.2626 44.5856ZM25.5802 45.0415C25.5802 44.801 25.4592 44.6808 25.2626 44.6808C25.066 44.6808 24.945 44.796 24.945 45.0415V46.7151C24.945 46.9556 25.066 47.0759 25.2626 47.0759C25.4592 47.0759 25.5802 46.9607 25.5802 46.7151V45.0415Z" fill="#005F7F"/>
<path d="M26.9264 44.7559H26.634V44.6607C27.1987 44.6306 27.476 44.0494 27.5213 43.5583H27.6171V44.6607H27.9851V44.7559H27.6171V46.7151C27.6171 46.8654 27.6625 46.9456 27.7532 46.9456C27.8944 46.9456 27.9801 46.7201 27.9902 46.5548L28.086 46.5648C28.0507 46.9356 27.8339 47.1661 27.4558 47.1661C27.1735 47.1661 26.9264 47.0709 26.9264 46.6199V44.7559Z" fill="#005F7F"/>
<path d="M28.4994 44.7559H28.207V44.6607C28.7717 44.6306 29.049 44.0494 29.0943 43.5583H29.1901V44.6607H29.5581V44.7559H29.1901V46.7151C29.1901 46.8654 29.2355 46.9456 29.3262 46.9456C29.4674 46.9456 29.5531 46.7201 29.5632 46.5548L29.659 46.5648C29.6237 46.9356 29.4069 47.1661 29.0288 47.1661C28.7465 47.1661 28.4994 47.0709 28.4994 46.6199V44.7559Z" fill="#005F7F"/>
<path d="M30.3092 46.3744C30.5209 46.3744 30.7074 46.5598 30.7074 46.7702C30.7074 46.9807 30.5209 47.1661 30.3092 47.1661C30.0974 47.1661 29.9109 46.9807 29.9109 46.7702C29.9109 46.5598 30.0974 46.3744 30.3092 46.3744Z" fill="#005F7F"/>
<path d="M31.5999 46.9957C31.8418 46.9957 31.8822 46.9556 31.8822 46.4996V43.4731H31.6301V43.3779H32.7342L33.324 45.6829H33.3341L33.924 43.3779H34.9978V43.4731H34.7457V46.9957H34.9978V47.0909H33.6921V46.9957H33.9794V43.5683H33.9693L33.0921 47.0909H32.9157L32.0233 43.5333H32.0133V46.4996C32.0133 46.9556 32.0586 46.9957 32.3006 46.9957V47.0909H31.6049V46.9957H31.5999Z" fill="#005F7F"/>
<path d="M36.5606 44.9964C36.5606 44.771 36.4649 44.6808 36.2128 44.6808C35.9758 44.6808 35.8145 44.771 35.8145 44.8361C35.8145 44.9514 36.0918 44.9012 36.0918 45.2169C36.0918 45.3973 35.9355 45.5176 35.7641 45.5176C35.5322 45.5176 35.4364 45.3723 35.4364 45.1869C35.4364 44.7609 35.9355 44.5906 36.3489 44.5906C36.8783 44.5906 37.2564 44.7609 37.2564 45.2119V46.7702C37.2564 46.8554 37.2765 46.9156 37.3421 46.9156C37.4076 46.9156 37.4832 46.8204 37.5135 46.7702L37.5891 46.8153C37.4832 47.0007 37.2967 47.1711 37.0598 47.1711C36.8228 47.1711 36.6413 46.9807 36.6211 46.7502H36.6111C36.4699 47.0058 36.2128 47.1711 35.88 47.1711C35.4919 47.1711 35.2852 46.9356 35.2852 46.5648C35.2852 45.9335 36.1019 45.8032 36.5758 45.723V44.9964H36.5606ZM35.9607 46.645C35.9607 46.9156 36.0868 46.9456 36.2128 46.9456C36.3892 46.9456 36.5606 46.7201 36.5606 46.5598V45.7881C36.0716 45.8934 35.9607 45.9685 35.9607 46.2541V46.645Z" fill="#005F7F"/>
<path d="M37.8009 46.9957H38.0581V44.7559H37.8009V44.6607H38.2194C38.4059 44.6607 38.6025 44.6557 38.7437 44.5204V44.9964H38.7538C38.8092 44.8311 38.9907 44.5905 39.2428 44.5905C39.4949 44.5905 39.6562 44.7459 39.6562 44.9864C39.6562 45.1818 39.5201 45.3522 39.3184 45.3522C39.1268 45.3522 39.0008 45.2119 39.0008 45.0215C39.0008 44.8711 39.0764 44.7559 39.2025 44.7008V44.6908C38.8849 44.7308 38.7437 45.1317 38.7437 45.3872V47.0057H39.0663V47.1009H37.7959V46.9957H37.8009Z" fill="#005F7F"/>
<path d="M40.5788 46.4596C40.5788 46.8003 40.73 47.0408 41.0174 47.0408C41.3854 47.0408 41.6123 46.7101 41.6778 46.3794L41.7585 46.3944C41.6678 46.8554 41.3754 47.1661 40.8863 47.1661C40.1805 47.1661 39.8125 46.4997 39.8125 45.8733C39.8125 45.1768 40.2914 44.5856 40.9569 44.5856C41.3199 44.5856 41.7131 44.8361 41.7131 45.272C41.7131 45.4574 41.577 45.6529 41.3602 45.6529C41.1434 45.6529 41.0225 45.5276 41.0225 45.2971C41.0225 45.0115 41.3249 45.0115 41.3249 44.8612C41.3249 44.7359 41.1888 44.6808 40.972 44.6808C40.7048 44.6808 40.5738 44.8161 40.5738 45.0967V46.4596H40.5788Z" fill="#005F7F"/>
<path d="M43.1598 44.5856C43.8152 44.5856 44.2438 45.2771 44.2438 45.8733C44.2438 46.4746 43.8152 47.1661 43.1598 47.1661C42.5095 47.1661 42.0759 46.4746 42.0759 45.8733C42.0759 45.2771 42.5045 44.5856 43.1598 44.5856ZM43.4775 45.0415C43.4775 44.801 43.3565 44.6808 43.1598 44.6808C42.9632 44.6808 42.8422 44.796 42.8422 45.0415V46.7151C42.8422 46.9556 42.9632 47.0759 43.1598 47.0759C43.3565 47.0759 43.4775 46.9607 43.4775 46.7151V45.0415Z" fill="#005F7F"/>
<path d="M47.6266 45.723H47.3645V45.6278H48.6248V45.723H48.3879V46.6149C48.1812 46.8404 47.7678 47.1711 47.2737 47.1711C46.4621 47.1711 45.9377 46.3794 45.9377 45.2419C45.9377 44.2197 46.4621 43.3128 47.3594 43.3128C47.8081 43.3128 47.9241 43.6084 48.0753 43.6084C48.1862 43.6084 48.2165 43.4681 48.2165 43.388H48.3123V44.4653H48.2165C48.1711 44.0043 47.8938 43.408 47.3947 43.408C46.8956 43.408 46.825 43.8039 46.825 44.2197V46.5447C46.825 46.8955 46.9914 47.0759 47.2334 47.0759C47.5661 47.0759 47.6216 46.8504 47.6216 46.5848V45.723H47.6266Z" fill="#005F7F"/>
<path d="M50.1979 44.9964C50.1979 44.771 50.1021 44.6808 49.85 44.6808C49.613 44.6808 49.4517 44.771 49.4517 44.8361C49.4517 44.9514 49.729 44.9012 49.729 45.2169C49.729 45.3973 49.5727 45.5176 49.4013 45.5176C49.1694 45.5176 49.0736 45.3723 49.0736 45.1869C49.0736 44.7609 49.5727 44.5906 49.9861 44.5906C50.5155 44.5906 50.8936 44.7609 50.8936 45.2119V46.7702C50.8936 46.8554 50.9137 46.9156 50.9793 46.9156C51.0448 46.9156 51.1204 46.8204 51.1507 46.7702L51.2263 46.8153C51.1204 47.0007 50.9339 47.1711 50.697 47.1711C50.46 47.1711 50.2785 46.9807 50.2584 46.7502H50.2483C50.1071 47.0058 49.85 47.1711 49.5173 47.1711C49.1291 47.1711 48.9224 46.9356 48.9224 46.5648C48.9224 45.9335 49.7391 45.8032 50.213 45.723V44.9964H50.1979ZM49.5979 46.645C49.5979 46.9156 49.724 46.9456 49.85 46.9456C50.0264 46.9456 50.1979 46.7201 50.1979 46.5598V45.7881C49.7088 45.8934 49.5979 45.9685 49.5979 46.2541V46.645Z" fill="#005F7F"/>
<path d="M51.438 46.9957H51.6951V43.4732H51.438V43.378H51.8564C52.0682 43.378 52.2396 43.3729 52.3807 43.2477V47.0007H52.6379V47.0959H51.438V46.9957Z" fill="#005F7F"/>
<path d="M54.2211 44.9964C54.2211 44.771 54.1253 44.6808 53.8732 44.6808C53.6362 44.6808 53.4749 44.771 53.4749 44.8361C53.4749 44.9514 53.7522 44.9012 53.7522 45.2169C53.7522 45.3973 53.5959 45.5176 53.4245 45.5176C53.1926 45.5176 53.0968 45.3723 53.0968 45.1869C53.0968 44.7609 53.5959 44.5906 54.0093 44.5906C54.5387 44.5906 54.9168 44.7609 54.9168 45.2119V46.7702C54.9168 46.8554 54.9369 46.9156 55.0025 46.9156C55.068 46.9156 55.1436 46.8204 55.1739 46.7702L55.2495 46.8153C55.1436 47.0007 54.9571 47.1711 54.7202 47.1711C54.4832 47.1711 54.3017 46.9807 54.2815 46.7502H54.2715C54.1303 47.0058 53.8732 47.1711 53.5405 47.1711C53.1523 47.1711 52.9456 46.9356 52.9456 46.5648C52.9456 45.9335 53.7623 45.8032 54.2362 45.723V44.9964H54.2211ZM53.6262 46.645C53.6262 46.9156 53.7522 46.9456 53.8782 46.9456C54.0547 46.9456 54.2261 46.7201 54.2261 46.5598V45.7881C53.7371 45.8934 53.6262 45.9685 53.6262 46.2541V46.645Z" fill="#005F7F"/>
<path d="M55.7182 44.7559H55.4258V44.6607C55.9904 44.6306 56.2677 44.0494 56.3131 43.5583H56.4089V44.6607H56.7769V44.7559H56.4089V46.7151C56.4089 46.8654 56.4542 46.9456 56.545 46.9456C56.6861 46.9456 56.7719 46.7201 56.7819 46.5548L56.8777 46.5648C56.8424 46.9356 56.6256 47.1661 56.2475 47.1661C55.9652 47.1661 55.7182 47.0709 55.7182 46.6199V44.7559Z" fill="#005F7F"/>
<path d="M57.0342 46.9957H57.2913V44.7559H57.0342V44.6607H57.4526C57.6392 44.6607 57.8358 44.6557 57.9769 44.5204V47.0007H58.2341V47.0959H57.0342V46.9957ZM57.6341 43.3779C57.8509 43.3779 58.0324 43.5583 58.0324 43.7738C58.0324 43.9892 57.8509 44.1696 57.6341 44.1696C57.4173 44.1696 57.2358 43.9892 57.2358 43.7738C57.2358 43.5583 57.4173 43.3779 57.6341 43.3779Z" fill="#005F7F"/>
<path d="M26.3115 51.6557C26.1452 51.6557 26.004 51.6306 25.883 51.5805C25.762 51.5304 25.6561 51.4603 25.5755 51.3701C25.4948 51.2799 25.4343 51.1797 25.394 51.0594C25.3537 50.9391 25.3335 50.8089 25.3335 50.6736C25.3335 50.5583 25.3537 50.4431 25.394 50.3278C25.4343 50.2126 25.4948 50.1074 25.5755 50.0122C25.6561 49.917 25.757 49.8418 25.883 49.7817C26.0091 49.7215 26.1502 49.6915 26.3115 49.6915C26.3771 49.6915 26.4376 49.6915 26.488 49.6965C26.5384 49.7015 26.5939 49.7065 26.6392 49.7115C26.6846 49.7165 26.735 49.7265 26.7854 49.7366C26.8308 49.7466 26.8812 49.7566 26.9316 49.7716C26.9316 49.8217 26.9417 49.8869 26.9518 49.962C26.9619 50.0372 26.977 50.1124 26.9972 50.1925C26.9821 50.2026 26.9669 50.2026 26.9518 50.2026C26.9367 50.2026 26.9216 50.2026 26.9115 50.1976C26.8964 50.1925 26.8913 50.1825 26.8863 50.1675C26.851 50.0372 26.7955 49.947 26.7199 49.8919C26.6443 49.8368 26.5334 49.8117 26.3872 49.8117C26.2662 49.8117 26.1603 49.8318 26.0645 49.8719C25.9738 49.9119 25.8931 49.9671 25.8326 50.0372C25.7671 50.1074 25.7217 50.1925 25.6914 50.2877C25.6612 50.388 25.641 50.4932 25.641 50.6134C25.641 50.7487 25.6612 50.869 25.7015 50.9842C25.7419 51.0945 25.7973 51.1947 25.8679 51.2749C25.9385 51.355 26.0191 51.4202 26.1099 51.4653C26.2006 51.5104 26.3015 51.5304 26.4073 51.5304C26.493 51.5304 26.5636 51.5204 26.6191 51.5054C26.6745 51.4903 26.7249 51.4653 26.7602 51.4352C26.8006 51.4051 26.8308 51.3651 26.856 51.32C26.8812 51.2749 26.9064 51.2248 26.9316 51.1646C26.9468 51.1346 26.9669 51.1195 27.0022 51.1195C27.0123 51.1195 27.0224 51.1195 27.0325 51.1245C27.0426 51.1295 27.0526 51.1296 27.0577 51.1346C27.0325 51.2047 27.0123 51.2799 26.9871 51.36C26.9619 51.4402 26.9468 51.5254 26.9266 51.6056C26.8308 51.6206 26.735 51.6356 26.6342 51.6406C26.5384 51.6507 26.4275 51.6557 26.3115 51.6557Z" fill="#005F7F"/>
<path d="M28.9181 51.4151C28.9181 51.4552 28.9282 51.4803 28.9584 51.4953C28.9836 51.5103 29.034 51.5254 29.1096 51.5404C29.1298 51.5454 29.1399 51.5605 29.1399 51.5805C29.1399 51.5955 29.1399 51.6156 29.1349 51.6306C29.0844 51.6256 29.029 51.6256 28.9634 51.6206C28.8979 51.6156 28.8374 51.6156 28.787 51.6156C28.7315 51.6156 28.6761 51.6156 28.6156 51.6206C28.5551 51.6256 28.4946 51.6256 28.4341 51.6306C28.429 51.6106 28.429 51.5955 28.429 51.5805C28.429 51.5554 28.4391 51.5454 28.4593 51.5404C28.5299 51.5254 28.5803 51.5103 28.6105 51.4953C28.6357 51.4803 28.6509 51.4552 28.6509 51.4151V50.7086H27.7333V51.4151C27.7333 51.4552 27.7484 51.4803 27.7737 51.4953C27.7989 51.5103 27.8493 51.5254 27.9249 51.5404C27.9451 51.5454 27.9551 51.5605 27.9551 51.5805C27.9551 51.5955 27.9551 51.6156 27.9501 51.6306C27.8997 51.6256 27.8392 51.6256 27.7737 51.6206C27.7081 51.6156 27.6476 51.6156 27.5972 51.6156C27.5417 51.6156 27.4863 51.6156 27.4258 51.6206C27.3653 51.6256 27.3048 51.6256 27.2443 51.6306C27.2393 51.6106 27.2393 51.5955 27.2393 51.5805C27.2393 51.5554 27.2493 51.5454 27.2695 51.5404C27.3451 51.5254 27.3955 51.5103 27.4208 51.4953C27.446 51.4803 27.4611 51.4552 27.4611 51.4151V49.937C27.4611 49.9169 27.4611 49.9019 27.456 49.8869C27.451 49.8718 27.4409 49.8618 27.4258 49.8518C27.4107 49.8418 27.3955 49.8317 27.3703 49.8267C27.3451 49.8217 27.3149 49.8117 27.2745 49.8067C27.2544 49.8067 27.2443 49.7917 27.2443 49.7616C27.2443 49.7466 27.2443 49.7315 27.2493 49.7115C27.2998 49.7165 27.3552 49.7165 27.4208 49.7215C27.4863 49.7265 27.5417 49.7265 27.5972 49.7265C27.6527 49.7265 27.7081 49.7265 27.7686 49.7215C27.8291 49.7165 27.8896 49.7165 27.9451 49.7115C27.9501 49.7315 27.9501 49.7466 27.9501 49.7616C27.9501 49.7866 27.94 49.8017 27.9199 49.8067C27.8442 49.8167 27.7938 49.8317 27.7686 49.8518C27.7434 49.8668 27.7333 49.8969 27.7333 49.937V50.5884H28.6509V49.937C28.6509 49.9019 28.6408 49.8768 28.6156 49.8568C28.5904 49.8368 28.54 49.8217 28.4643 49.8067C28.4442 49.8067 28.4341 49.7917 28.4341 49.7616C28.4341 49.7466 28.4341 49.7315 28.4391 49.7115C28.4895 49.7165 28.545 49.7165 28.6105 49.7215C28.6761 49.7265 28.7366 49.7265 28.787 49.7265C28.8424 49.7265 28.8979 49.7265 28.9584 49.7215C29.0189 49.7165 29.0794 49.7165 29.1399 49.7115C29.1449 49.7315 29.1449 49.7466 29.1449 49.7616C29.1449 49.7866 29.1349 49.8017 29.1147 49.8067C29.0391 49.8167 28.9886 49.8317 28.9634 49.8518C28.9382 49.8668 28.9282 49.8969 28.9282 49.937V51.4151H28.9181Z" fill="#005F7F"/>
<path d="M29.8407 51.4152C29.8407 51.4553 29.8558 51.4803 29.881 51.4954C29.9062 51.5104 29.9617 51.5254 30.0322 51.5405C30.0524 51.5455 30.0625 51.5605 30.0625 51.5856C30.0625 51.5956 30.0625 51.6106 30.0574 51.6307C29.9969 51.6256 29.9364 51.6256 29.8759 51.6206C29.8154 51.6156 29.76 51.6156 29.7045 51.6156C29.6541 51.6156 29.5936 51.6156 29.5281 51.6206C29.4676 51.6256 29.4071 51.6256 29.3466 51.6307C29.3416 51.6106 29.3416 51.5956 29.3416 51.5856C29.3416 51.5605 29.3516 51.5405 29.3718 51.5405C29.4474 51.5254 29.4978 51.5104 29.523 51.4954C29.5483 51.4803 29.5634 51.4553 29.5634 51.4152V49.932C29.5634 49.8919 29.5483 49.8669 29.523 49.8468C29.4978 49.8318 29.4424 49.8168 29.3718 49.8067C29.3617 49.8067 29.3516 49.8017 29.3466 49.7917C29.3416 49.7817 29.3416 49.7717 29.3416 49.7616C29.3416 49.7516 29.3416 49.7366 29.3466 49.7166C29.4071 49.7216 29.4676 49.7216 29.5281 49.7266C29.5886 49.7316 29.6491 49.7316 29.6995 49.7316C29.7499 49.7316 29.8054 49.7316 29.8659 49.7266C29.9264 49.7216 29.9919 49.7216 30.0524 49.7166C30.0574 49.7366 30.0574 49.7516 30.0574 49.7616C30.0574 49.7917 30.0474 49.8067 30.0272 49.8118C29.9516 49.8218 29.9012 49.8368 29.8759 49.8518C29.8507 49.8669 29.8356 49.8969 29.8356 49.937V51.4152H29.8407Z" fill="#005F7F"/>
<path d="M30.9952 50.7688H30.7784V51.4102C30.7784 51.4503 30.7986 51.4803 30.8389 51.4954C30.8792 51.5104 30.9397 51.5254 31.0204 51.5354C31.0456 51.5405 31.0557 51.5555 31.0557 51.5856C31.0557 51.6006 31.0557 51.6156 31.0506 51.6357C31.0002 51.6307 30.9347 51.6307 30.8591 51.6256C30.7834 51.6206 30.7129 51.6206 30.6372 51.6206C30.5868 51.6206 30.5263 51.6206 30.4608 51.6256C30.3952 51.6307 30.3347 51.6307 30.2742 51.6357C30.2692 51.6156 30.2692 51.6006 30.2692 51.5906C30.2692 51.5655 30.2793 51.5455 30.2995 51.5455C30.3751 51.5355 30.4255 51.5204 30.4557 51.5054C30.486 51.4904 30.5011 51.4603 30.5011 51.4202V49.937C30.5011 49.902 30.486 49.8719 30.4608 49.8518C30.4305 49.8318 30.3751 49.8168 30.2944 49.8118C30.2742 49.8118 30.2642 49.7917 30.2642 49.7616C30.2642 49.7516 30.2642 49.7366 30.2692 49.7166C30.3297 49.7216 30.3902 49.7216 30.4507 49.7266C30.5112 49.7316 30.5717 49.7316 30.6271 49.7316H31.0254C31.2372 49.7316 31.3935 49.7767 31.5044 49.8719C31.6102 49.9621 31.6657 50.0873 31.6657 50.2477C31.6657 50.2878 31.6606 50.3329 31.6455 50.383C31.6304 50.4281 31.6102 50.4732 31.58 50.5183C31.5497 50.5634 31.5094 50.6035 31.464 50.6435C31.4187 50.6836 31.3582 50.7137 31.2977 50.7337L31.7867 51.4102C31.822 51.4603 31.8623 51.4954 31.9077 51.5154C31.9531 51.5354 31.9934 51.5505 32.0337 51.5605C32.0539 51.5655 32.0589 51.5805 32.0589 51.6006C32.0589 51.6156 32.0589 51.6357 32.0539 51.6507C32.0085 51.6457 31.9531 51.6457 31.8875 51.6407C31.822 51.6357 31.7615 51.6357 31.7111 51.6357C31.6707 51.6357 31.6304 51.6156 31.585 51.5856C31.5447 51.5505 31.5044 51.5054 31.464 51.4503L30.9952 50.7688ZM30.9296 50.6536C31.0658 50.6536 31.1716 50.6235 31.2472 50.5684C31.3229 50.5133 31.3582 50.413 31.3582 50.2677C31.3582 50.2076 31.3481 50.1525 31.333 50.1024C31.3178 50.0523 31.2926 50.0072 31.2573 49.9721C31.222 49.937 31.1767 49.907 31.1212 49.8869C31.0658 49.8669 30.9952 49.8569 30.9196 49.8569H30.7733V50.6586H30.9296V50.6536Z" fill="#005F7F"/>
<path d="M33.7578 50.9141C33.7578 51.0243 33.7427 51.1245 33.7175 51.2147C33.6923 51.3049 33.652 51.3851 33.5915 51.4502C33.531 51.5154 33.4553 51.5655 33.3545 51.6005C33.2587 51.6356 33.1327 51.6557 32.9865 51.6557C32.8201 51.6557 32.684 51.6356 32.5781 51.5955C32.4723 51.5554 32.3966 51.5003 32.3412 51.4302C32.2857 51.365 32.2504 51.2849 32.2303 51.1947C32.2101 51.1045 32.2 51.0193 32.2 50.9241V49.932C32.2 49.8919 32.1849 49.8668 32.1597 49.8468C32.1345 49.8267 32.079 49.8167 32.0034 49.8067C31.9832 49.8067 31.9731 49.7866 31.9731 49.7566C31.9731 49.7466 31.9731 49.7315 31.9782 49.7115C32.0387 49.7165 32.0992 49.7165 32.1597 49.7215C32.2202 49.7265 32.2807 49.7265 32.3361 49.7265C32.3865 49.7265 32.447 49.7265 32.5126 49.7215C32.5781 49.7165 32.6437 49.7165 32.7042 49.7115C32.7092 49.7315 32.7092 49.7466 32.7092 49.7566C32.7092 49.7866 32.6991 49.8017 32.679 49.8067C32.6033 49.8167 32.5529 49.8317 32.5176 49.8468C32.4874 49.8618 32.4672 49.8919 32.4672 49.932V50.8589C32.4672 51.0594 32.5075 51.2147 32.5882 51.3249C32.6689 51.4302 32.805 51.4853 33.0016 51.4853C33.1125 51.4853 33.2033 51.4753 33.2789 51.4502C33.3545 51.4252 33.42 51.3901 33.4654 51.34C33.5108 51.2899 33.5511 51.2247 33.5713 51.1446C33.5915 51.0644 33.6015 50.9692 33.6015 50.8539V49.937C33.6015 49.8969 33.5864 49.8718 33.5562 49.8518C33.5259 49.8317 33.4755 49.8217 33.3999 49.8117C33.3797 49.8117 33.3696 49.7917 33.3696 49.7616C33.3696 49.7516 33.3696 49.7365 33.3747 49.7165C33.4301 49.7215 33.4856 49.7215 33.541 49.7265C33.5965 49.7315 33.6419 49.7315 33.6822 49.7315C33.7276 49.7315 33.778 49.7315 33.8234 49.7265C33.8687 49.7215 33.9192 49.7215 33.9645 49.7165C33.9696 49.7365 33.9696 49.7516 33.9696 49.7616C33.9696 49.7716 33.9645 49.7816 33.9595 49.7917C33.9544 49.8017 33.9444 49.8067 33.9343 49.8117C33.8637 49.8217 33.8133 49.8317 33.783 49.8518C33.7528 49.8718 33.7427 49.8969 33.7427 49.937V50.9141H33.7578Z" fill="#005F7F"/>
<path d="M34.8821 50.7688H34.6654V51.4102C34.6654 51.4503 34.6855 51.4803 34.7259 51.4954C34.7662 51.5104 34.8267 51.5254 34.9073 51.5354C34.9326 51.5405 34.9426 51.5555 34.9426 51.5856C34.9426 51.6006 34.9426 51.6156 34.9376 51.6357C34.8872 51.6307 34.8216 51.6307 34.746 51.6256C34.6704 51.6206 34.5998 51.6206 34.5242 51.6206C34.4738 51.6206 34.4133 51.6206 34.3477 51.6256C34.2822 51.6307 34.2217 51.6307 34.1612 51.6357C34.1562 51.6156 34.1562 51.6006 34.1562 51.5906C34.1562 51.5655 34.1662 51.5455 34.1864 51.5455C34.262 51.5355 34.3125 51.5204 34.3427 51.5054C34.373 51.4904 34.3881 51.4603 34.3881 51.4202V49.937C34.3881 49.902 34.3729 49.8719 34.3477 49.8518C34.3175 49.8318 34.262 49.8168 34.1814 49.8118C34.1612 49.8118 34.1511 49.7917 34.1511 49.7616C34.1511 49.7516 34.1511 49.7366 34.1562 49.7166C34.2167 49.7216 34.2772 49.7216 34.3377 49.7266C34.3982 49.7316 34.4587 49.7316 34.5141 49.7316H34.9124C35.1241 49.7316 35.2804 49.7767 35.3913 49.8719C35.4972 49.9621 35.5527 50.0873 35.5527 50.2477C35.5527 50.2878 35.5476 50.3329 35.5325 50.383C35.5174 50.4281 35.4972 50.4732 35.4669 50.5183C35.4367 50.5634 35.3964 50.6035 35.351 50.6435C35.3056 50.6836 35.2451 50.7137 35.1846 50.7337L35.6736 51.4102C35.7089 51.4603 35.7493 51.4954 35.7946 51.5154C35.84 51.5354 35.8803 51.5505 35.9207 51.5605C35.9408 51.5655 35.9459 51.5805 35.9459 51.6006C35.9459 51.6156 35.9459 51.6357 35.9408 51.6507C35.8955 51.6457 35.84 51.6457 35.7745 51.6407C35.7089 51.6357 35.6484 51.6357 35.598 51.6357C35.5577 51.6357 35.5174 51.6156 35.472 51.5856C35.4317 51.5505 35.3913 51.5054 35.351 51.4503L34.8821 50.7688ZM34.8166 50.6536C34.9527 50.6536 35.0586 50.6235 35.1342 50.5684C35.2098 50.5133 35.2451 50.413 35.2451 50.2677C35.2451 50.2076 35.235 50.1525 35.2199 50.1024C35.2048 50.0523 35.1796 50.0072 35.1443 49.9721C35.109 49.937 35.0636 49.907 35.0082 49.8869C34.9527 49.8669 34.8821 49.8569 34.8065 49.8569H34.6603V50.6586H34.8166V50.6536Z" fill="#005F7F"/>
<path d="M37.4732 51.6056C37.3875 51.6206 37.2968 51.6356 37.206 51.6406C37.1153 51.6507 37.0094 51.6557 36.8834 51.6557C36.717 51.6557 36.5708 51.6306 36.4448 51.5805C36.3187 51.5304 36.2179 51.4603 36.1373 51.3751C36.0566 51.2899 35.9961 51.1847 35.9558 51.0644C35.9154 50.9442 35.8953 50.8139 35.8953 50.6736C35.8953 50.5583 35.9154 50.4431 35.9558 50.3228C35.9961 50.2076 36.0566 50.1024 36.1373 50.0071C36.2179 49.9119 36.3187 49.8368 36.4448 49.7767C36.5708 49.7165 36.712 49.6865 36.8733 49.6865C36.9338 49.6865 36.9893 49.6865 37.0397 49.6915C37.0901 49.6965 37.1456 49.7015 37.201 49.7065C37.2565 49.7115 37.3069 49.7215 37.3623 49.7366C37.4178 49.7466 37.4732 49.7616 37.5388 49.7767C37.5438 49.8468 37.5489 49.917 37.559 49.9871C37.569 50.0573 37.5842 50.1324 37.5993 50.2026C37.5942 50.2076 37.5892 50.2076 37.5741 50.2126C37.5589 50.2176 37.5539 50.2176 37.5438 50.2176C37.5136 50.2176 37.4934 50.2076 37.4833 50.1775C37.448 50.0472 37.3875 49.952 37.3069 49.8969C37.2212 49.8418 37.1052 49.8117 36.9489 49.8117C36.8229 49.8117 36.717 49.8318 36.6212 49.8719C36.5254 49.9119 36.4498 49.9671 36.3893 50.0372C36.3288 50.1074 36.2835 50.1925 36.2482 50.2928C36.2179 50.393 36.2028 50.4982 36.2028 50.6134C36.2028 50.7487 36.223 50.869 36.2633 50.9842C36.3036 51.0945 36.3591 51.1947 36.4297 51.2749C36.5002 51.355 36.5809 51.4202 36.6767 51.4653C36.7725 51.5104 36.8733 51.5304 36.9842 51.5304C37.0397 51.5304 37.1002 51.5254 37.1556 51.5204C37.2111 51.5154 37.2615 51.5003 37.3018 51.4903V51.0444C37.3018 50.9943 37.2867 50.9542 37.2565 50.9341C37.2262 50.9141 37.1708 50.8991 37.1002 50.889C37.0851 50.889 37.075 50.879 37.0699 50.869C37.0649 50.859 37.0598 50.8439 37.0598 50.8339C37.0598 50.8189 37.0598 50.8039 37.0649 50.7888C37.1203 50.7938 37.1859 50.7938 37.2514 50.7988C37.322 50.8039 37.3775 50.8039 37.4279 50.8039C37.4783 50.8039 37.5388 50.8039 37.6043 50.7988C37.6699 50.7938 37.7253 50.7938 37.7757 50.7888C37.7808 50.8089 37.7808 50.8239 37.7808 50.8339C37.7808 50.854 37.7757 50.864 37.7707 50.874C37.7656 50.879 37.7556 50.884 37.7455 50.889C37.685 50.8991 37.6396 50.9091 37.6144 50.9291C37.5892 50.9492 37.5791 50.9742 37.5791 51.0143V51.5354C37.5791 51.5505 37.5741 51.5655 37.564 51.5805C37.5539 51.5956 37.5186 51.6006 37.4732 51.6056Z" fill="#005F7F"/>
<path d="M38.4061 51.4152C38.4061 51.4553 38.4212 51.4803 38.4464 51.4954C38.4716 51.5104 38.5271 51.5254 38.5977 51.5405C38.6178 51.5455 38.6279 51.5605 38.6279 51.5856C38.6279 51.5956 38.6279 51.6106 38.6229 51.6307C38.5624 51.6256 38.5019 51.6256 38.4414 51.6206C38.3809 51.6156 38.3254 51.6156 38.27 51.6156C38.2196 51.6156 38.1591 51.6156 38.0935 51.6206C38.033 51.6256 37.9725 51.6256 37.912 51.6307C37.907 51.6106 37.907 51.5956 37.907 51.5856C37.907 51.5605 37.9171 51.5405 37.9372 51.5405C38.0129 51.5254 38.0633 51.5104 38.0885 51.4954C38.1137 51.4803 38.1288 51.4553 38.1288 51.4152V49.932C38.1288 49.8919 38.1137 49.8669 38.0885 49.8468C38.0633 49.8318 38.0078 49.8168 37.9372 49.8067C37.9271 49.8067 37.9171 49.8017 37.912 49.7917C37.907 49.7817 37.907 49.7717 37.907 49.7616C37.907 49.7516 37.907 49.7366 37.912 49.7166C37.9725 49.7216 38.033 49.7216 38.0935 49.7266C38.154 49.7316 38.2145 49.7316 38.2649 49.7316C38.3153 49.7316 38.3708 49.7316 38.4313 49.7266C38.4918 49.7216 38.5573 49.7216 38.6178 49.7166C38.6229 49.7366 38.6229 49.7516 38.6229 49.7616C38.6229 49.7917 38.6128 49.8067 38.5926 49.8118C38.517 49.8218 38.4666 49.8368 38.4414 49.8518C38.4162 49.8669 38.401 49.8969 38.401 49.937V51.4152H38.4061Z" fill="#005F7F"/>
<path d="M39.9537 50.9291H39.3033L39.1168 51.4001C39.1067 51.4252 39.1017 51.4402 39.1017 51.4603C39.1017 51.5003 39.1622 51.5304 39.2781 51.5454C39.2932 51.5454 39.3033 51.5505 39.3084 51.5605C39.3134 51.5705 39.3134 51.5805 39.3134 51.5905C39.3134 51.6006 39.3134 51.6156 39.3084 51.6356C39.2529 51.6306 39.1974 51.6306 39.142 51.6256C39.0865 51.6206 39.026 51.6206 38.9706 51.6206C38.9302 51.6206 38.8899 51.6206 38.8496 51.6256C38.8092 51.6256 38.7639 51.6306 38.7235 51.6356C38.7185 51.6206 38.7185 51.6056 38.7185 51.5905C38.7185 51.5755 38.7185 51.5655 38.7235 51.5555C38.7286 51.5454 38.7387 51.5404 38.7538 51.5354C38.8143 51.5254 38.8597 51.5154 38.8899 51.5003C38.9202 51.4853 38.9403 51.4653 38.9555 51.4302L39.6613 49.7416C39.6764 49.7065 39.6915 49.6915 39.7167 49.6915C39.7268 49.6915 39.7369 49.6915 39.752 49.6965L40.4629 51.4352C40.4729 51.4603 40.5032 51.4853 40.5435 51.5003C40.5838 51.5154 40.6242 51.5254 40.6645 51.5304C40.6746 51.5354 40.6847 51.5404 40.6948 51.5454C40.7048 51.5505 40.7048 51.5655 40.7048 51.5805C40.7048 51.5905 40.7048 51.6056 40.6998 51.6256C40.6393 51.6206 40.5738 51.6206 40.5133 51.6156C40.4528 51.6106 40.3973 51.6106 40.3419 51.6106C40.2864 51.6106 40.2259 51.6106 40.1553 51.6156C40.0847 51.6206 40.0192 51.6206 39.9637 51.6256C39.9587 51.6056 39.9587 51.5905 39.9587 51.5805C39.9587 51.5605 39.9637 51.5505 39.9688 51.5454C39.9738 51.5404 39.9839 51.5354 39.989 51.5354C40.0394 51.5254 40.0797 51.5154 40.1099 51.5003C40.1402 51.4853 40.1553 51.4703 40.1553 51.4452C40.1553 51.4352 40.1503 51.4202 40.1452 51.4001L39.9537 50.9291ZM39.9083 50.8089L39.6361 50.0973L39.3537 50.8089H39.9083Z" fill="#005F7F"/>
<path d="M41.8291 50.7989V51.3951C41.8291 51.4402 41.8493 51.4703 41.8946 51.4904C41.935 51.5104 42.0005 51.5254 42.0862 51.5354C42.1114 51.5405 42.1215 51.5555 42.1215 51.5856C42.1215 51.6006 42.1215 51.6156 42.1165 51.6357C42.061 51.6307 41.9955 51.6307 41.9249 51.6256C41.8543 51.6206 41.7736 51.6206 41.693 51.6206C41.6426 51.6206 41.5871 51.6206 41.5216 51.6256C41.456 51.6307 41.3955 51.6307 41.3401 51.6357C41.335 51.6156 41.335 51.6006 41.335 51.5906C41.335 51.5655 41.3451 51.5455 41.3653 51.5455C41.4459 51.5304 41.4964 51.5154 41.5216 51.5004C41.5468 51.4853 41.5619 51.4603 41.5619 51.4202V49.937C41.5619 49.8969 41.5468 49.8719 41.5165 49.8518C41.4863 49.8318 41.4308 49.8218 41.3552 49.8118C41.335 49.8067 41.325 49.7917 41.325 49.7616C41.325 49.7466 41.325 49.7316 41.33 49.7166C41.3854 49.7216 41.4409 49.7216 41.5064 49.7266C41.572 49.7316 41.6274 49.7316 41.6829 49.7316H42.0963C42.308 49.7316 42.4643 49.7817 42.5702 49.8819C42.6761 49.9821 42.7265 50.1074 42.7265 50.2677C42.7265 50.3279 42.7114 50.393 42.6861 50.4581C42.6559 50.5233 42.6156 50.5784 42.5652 50.6335C42.5147 50.6886 42.4442 50.7287 42.3685 50.7588C42.2879 50.7939 42.2022 50.8089 42.1013 50.8089H41.8291V50.7989ZM41.9854 50.6786C42.1215 50.6786 42.2274 50.6485 42.303 50.5884C42.3786 50.5283 42.4139 50.4281 42.4139 50.2828C42.4139 50.2226 42.4089 50.1675 42.3937 50.1124C42.3786 50.0573 42.3585 50.0122 42.3232 49.9721C42.2879 49.932 42.2475 49.9019 42.1921 49.8769C42.1366 49.8518 42.0711 49.8418 41.9854 49.8418H41.8291V50.6736H41.9854V50.6786Z" fill="#005F7F"/>
<path d="M43.397 51.4102C43.397 51.4452 43.4122 51.4653 43.4424 51.4803C43.4727 51.4954 43.513 51.5004 43.5634 51.5004H43.881C43.9365 51.5004 43.9869 51.4954 44.0272 51.4803C44.0676 51.4653 44.1028 51.4452 44.1331 51.4202C44.1633 51.3951 44.1886 51.3601 44.2087 51.32C44.2289 51.2799 44.2491 51.2348 44.2692 51.1847C44.2743 51.1697 44.2894 51.1596 44.3045 51.1596C44.3146 51.1596 44.3247 51.1596 44.3348 51.1646C44.3448 51.1697 44.3549 51.1747 44.37 51.1797C44.3549 51.2398 44.3448 51.2999 44.3297 51.3651C44.3146 51.4302 44.3045 51.5054 44.2944 51.5855C44.2944 51.6056 44.2843 51.6206 44.2793 51.6256C44.2692 51.6306 44.2591 51.6357 44.244 51.6357C44.2087 51.6357 44.1684 51.6357 44.118 51.6306C44.0676 51.6256 44.0272 51.6256 43.9869 51.6256H43.2559C43.2105 51.6256 43.1551 51.6256 43.0845 51.6306C43.0139 51.6357 42.9484 51.6357 42.8879 51.6407C42.8828 51.6206 42.8828 51.6056 42.8828 51.5956C42.8828 51.5705 42.8929 51.5505 42.9131 51.5505C42.9937 51.5354 43.0492 51.5204 43.0794 51.5054C43.1097 51.4903 43.1248 51.4653 43.1248 51.4302V49.947C43.1248 49.907 43.1097 49.8819 43.0845 49.8619C43.0593 49.8468 43.0038 49.8318 42.9282 49.8218C42.9181 49.8218 42.9131 49.8168 42.908 49.8067C42.903 49.7967 42.903 49.7867 42.903 49.7767C42.903 49.7616 42.903 49.7466 42.908 49.7266C42.9736 49.7316 43.0391 49.7316 43.1046 49.7366C43.1702 49.7416 43.2256 49.7416 43.271 49.7416C43.3365 49.7416 43.4071 49.7416 43.4827 49.7366C43.5584 49.7316 43.6239 49.7316 43.6794 49.7266C43.6844 49.7466 43.6844 49.7616 43.6844 49.7717C43.6844 49.8067 43.6743 49.8218 43.6542 49.8218C43.5685 49.8318 43.508 49.8468 43.4676 49.8619C43.4273 49.8819 43.4071 49.912 43.4071 49.9621V51.4102H43.397Z" fill="#005F7F"/>
<path d="M45.5699 50.9291H44.9195L44.733 51.4001C44.7229 51.4252 44.7179 51.4402 44.7179 51.4603C44.7179 51.5003 44.7784 51.5304 44.8943 51.5454C44.9094 51.5454 44.9195 51.5505 44.9246 51.5605C44.9296 51.5705 44.9296 51.5805 44.9296 51.5905C44.9296 51.6006 44.9296 51.6156 44.9246 51.6356C44.8691 51.6306 44.8137 51.6306 44.7582 51.6256C44.7027 51.6206 44.6422 51.6206 44.5868 51.6206C44.5465 51.6206 44.5061 51.6206 44.4658 51.6256C44.4255 51.6256 44.3801 51.6306 44.3398 51.6356C44.3347 51.6206 44.3347 51.6056 44.3347 51.5905C44.3347 51.5755 44.3347 51.5655 44.3398 51.5555C44.3448 51.5454 44.3549 51.5404 44.37 51.5354C44.4305 51.5254 44.4759 51.5154 44.5061 51.5003C44.5364 51.4853 44.5565 51.4653 44.5717 51.4302L45.2775 49.7416C45.2926 49.7065 45.3077 49.6915 45.3329 49.6915C45.343 49.6915 45.3531 49.6915 45.3682 49.6965L46.0791 51.4352C46.0891 51.4603 46.1194 51.4853 46.1597 51.5003C46.2001 51.5154 46.2404 51.5254 46.2807 51.5304C46.2908 51.5354 46.3009 51.5404 46.311 51.5454C46.3211 51.5505 46.3211 51.5655 46.3211 51.5805C46.3211 51.5905 46.3211 51.6056 46.316 51.6256C46.2555 51.6206 46.19 51.6206 46.1295 51.6156C46.069 51.6106 46.0135 51.6106 45.9581 51.6106C45.9026 51.6106 45.8421 51.6106 45.7715 51.6156C45.701 51.6206 45.6354 51.6206 45.58 51.6256C45.5749 51.6056 45.5749 51.5905 45.5749 51.5805C45.5749 51.5605 45.58 51.5505 45.585 51.5454C45.59 51.5404 45.6001 51.5354 45.6052 51.5354C45.6556 51.5254 45.6959 51.5154 45.7262 51.5003C45.7564 51.4853 45.7715 51.4703 45.7715 51.4452C45.7715 51.4352 45.7665 51.4202 45.7614 51.4001L45.5699 50.9291ZM45.5195 50.8089L45.2472 50.0973L44.9649 50.8089H45.5195Z" fill="#005F7F"/>
<path d="M47.5513 50.1875C47.5312 50.1925 47.516 50.1925 47.5059 50.1925C47.4807 50.1925 47.4606 50.1875 47.4505 50.1775C47.4404 50.1675 47.4303 50.1575 47.4253 50.1474C47.3749 50.0372 47.3144 49.957 47.2438 49.9069C47.1732 49.8568 47.0774 49.8318 46.9564 49.8318C46.9111 49.8318 46.8657 49.8368 46.8253 49.8518C46.785 49.8668 46.7447 49.8819 46.7144 49.9069C46.6842 49.932 46.659 49.962 46.6388 49.9971C46.6186 50.0322 46.6086 50.0723 46.6086 50.1124C46.6086 50.2026 46.6489 50.2777 46.7245 50.3378C46.8001 50.398 46.9161 50.4531 47.0673 50.5132C47.2539 50.5884 47.395 50.6685 47.4807 50.7587C47.5715 50.8489 47.6118 50.9592 47.6118 51.0945C47.6118 51.1746 47.6017 51.2498 47.5765 51.3149C47.5513 51.3851 47.516 51.4452 47.4606 51.4953C47.4102 51.5454 47.3396 51.5855 47.2589 51.6156C47.1783 51.6456 47.0774 51.6607 46.9615 51.6607C46.8405 51.6607 46.7296 51.6507 46.6338 51.6206C46.5329 51.5955 46.4523 51.5605 46.3817 51.5204C46.3767 51.4402 46.3666 51.36 46.3565 51.2849C46.3464 51.2097 46.3313 51.1345 46.3162 51.0594C46.3313 51.0544 46.3464 51.0494 46.3666 51.0494C46.3918 51.0494 46.4069 51.0544 46.422 51.0644C46.4321 51.0744 46.4472 51.0895 46.4573 51.1145C46.5077 51.2548 46.5682 51.355 46.6489 51.4252C46.7245 51.4903 46.8354 51.5254 46.9716 51.5254C47.032 51.5254 47.0875 51.5154 47.1379 51.5003C47.1883 51.4853 47.2236 51.4602 47.2539 51.4252C47.2841 51.3951 47.3093 51.36 47.3245 51.3199C47.3396 51.2799 47.3497 51.2398 47.3497 51.1947C47.3497 51.0945 47.3144 51.0143 47.2438 50.9542C47.1732 50.894 47.0774 50.8439 46.9463 50.7988C46.8606 50.7688 46.785 50.7337 46.7195 50.7036C46.6489 50.6685 46.5934 50.6285 46.543 50.5834C46.4926 50.5383 46.4573 50.4882 46.4321 50.428C46.4069 50.3679 46.3918 50.2978 46.3918 50.2176C46.3918 50.1474 46.4069 50.0773 46.4321 50.0172C46.4573 49.952 46.4977 49.8969 46.5481 49.8518C46.5985 49.8067 46.659 49.7666 46.7296 49.7416C46.8001 49.7165 46.8808 49.7015 46.9665 49.7015C47.0573 49.7015 47.148 49.7115 47.2287 49.7265C47.3144 49.7466 47.4051 49.7716 47.511 49.8117C47.516 49.8718 47.5211 49.932 47.5261 50.0021C47.5312 50.0622 47.5412 50.1274 47.5513 50.1875Z" fill="#005F7F"/>
<path d="M48.7713 49.8468V51.4001C48.7713 51.4452 48.7915 51.4753 48.8268 51.4953C48.8621 51.5154 48.9276 51.5304 49.0133 51.5354C49.0335 51.5354 49.0436 51.5504 49.0436 51.5805C49.0436 51.5955 49.0436 51.6106 49.0385 51.6306C48.978 51.6256 48.9125 51.6256 48.8419 51.6206C48.7713 51.6156 48.7008 51.6156 48.6302 51.6156C48.5596 51.6156 48.4941 51.6156 48.4184 51.6206C48.3428 51.6256 48.2823 51.6256 48.2168 51.6306C48.2117 51.6106 48.2117 51.5955 48.2117 51.5805C48.2117 51.5554 48.2218 51.5354 48.242 51.5354C48.3277 51.5254 48.3932 51.5103 48.4336 51.4903C48.4739 51.4703 48.4941 51.4402 48.4941 51.3951V49.8418H48.1916C48.1311 49.8418 48.0857 49.8468 48.0454 49.8568C48.005 49.8668 47.9697 49.8869 47.9395 49.9119C47.9092 49.937 47.884 49.967 47.8639 50.0021C47.8437 50.0372 47.8185 50.0823 47.7983 50.1324C47.7933 50.1424 47.7883 50.1474 47.7782 50.1524C47.7681 50.1574 47.763 50.1574 47.753 50.1574C47.7328 50.1574 47.7126 50.1524 47.6975 50.1424C47.7177 50.0723 47.7328 50.0121 47.7429 49.957C47.753 49.9019 47.763 49.8568 47.7681 49.8217C47.7731 49.7867 47.7832 49.7566 47.7933 49.7365C47.8034 49.7165 47.8185 49.7065 47.8336 49.7065C47.8488 49.7065 47.8689 49.7065 47.8941 49.7115C47.9193 49.7115 47.9445 49.7165 47.9748 49.7165C48.005 49.7165 48.0302 49.7215 48.0605 49.7215C48.0907 49.7215 48.116 49.7265 48.1412 49.7265H49.1192C49.1444 49.7265 49.1696 49.7265 49.1999 49.7215C49.2301 49.7215 49.2604 49.7165 49.2856 49.7165C49.3158 49.7165 49.341 49.7115 49.3662 49.7115C49.3914 49.7115 49.4116 49.7065 49.4267 49.7065C49.4469 49.7065 49.462 49.7165 49.4671 49.7365C49.4771 49.7566 49.4822 49.7867 49.4923 49.8217C49.5024 49.8568 49.5074 49.9069 49.5175 49.957C49.5276 50.0071 49.5427 50.0723 49.5629 50.1374C49.5528 50.1424 49.5427 50.1424 49.5326 50.1474C49.5225 50.1524 49.5124 50.1524 49.5024 50.1524C49.4923 50.1524 49.4872 50.1524 49.4771 50.1474C49.4671 50.1424 49.462 50.1374 49.457 50.1274C49.4368 50.0773 49.4167 50.0372 49.3914 49.9971C49.3713 49.962 49.3461 49.932 49.3158 49.9069C49.2856 49.8819 49.2553 49.8668 49.215 49.8518C49.1747 49.8418 49.1242 49.8368 49.0688 49.8368H48.7713V49.8468Z" fill="#005F7F"/>
<path d="M50.1427 51.4152C50.1427 51.4553 50.1578 51.4803 50.183 51.4954C50.2082 51.5104 50.2637 51.5254 50.3342 51.5405C50.3544 51.5455 50.3645 51.5605 50.3645 51.5856C50.3645 51.5956 50.3645 51.6106 50.3594 51.6307C50.2989 51.6256 50.2384 51.6256 50.1779 51.6206C50.1175 51.6156 50.062 51.6156 50.0065 51.6156C49.9561 51.6156 49.8956 51.6156 49.8301 51.6206C49.7696 51.6256 49.7091 51.6256 49.6486 51.6307C49.6436 51.6106 49.6436 51.5956 49.6436 51.5856C49.6436 51.5605 49.6536 51.5405 49.6738 51.5405C49.7494 51.5254 49.7998 51.5104 49.825 51.4954C49.8503 51.4803 49.8654 51.4553 49.8654 51.4152V49.932C49.8654 49.8919 49.8503 49.8669 49.825 49.8468C49.7998 49.8318 49.7444 49.8168 49.6738 49.8067C49.6637 49.8067 49.6536 49.8017 49.6486 49.7917C49.6436 49.7817 49.6436 49.7717 49.6436 49.7616C49.6436 49.7516 49.6436 49.7366 49.6486 49.7166C49.7091 49.7216 49.7696 49.7216 49.8301 49.7266C49.8906 49.7316 49.9511 49.7316 50.0015 49.7316C50.0519 49.7316 50.1074 49.7316 50.1679 49.7266C50.2284 49.7216 50.2939 49.7216 50.3544 49.7166C50.3594 49.7366 50.3594 49.7516 50.3594 49.7616C50.3594 49.7917 50.3494 49.8067 50.3292 49.8118C50.2536 49.8218 50.2032 49.8368 50.1779 49.8518C50.1527 49.8669 50.1376 49.8969 50.1376 49.937V51.4152H50.1427Z" fill="#005F7F"/>
<path d="M51.5391 51.6557C51.3727 51.6557 51.2315 51.6306 51.1106 51.5805C50.9896 51.5304 50.8837 51.4603 50.803 51.3701C50.7224 51.2799 50.6619 51.1797 50.6215 51.0594C50.5812 50.9391 50.561 50.8089 50.561 50.6736C50.561 50.5583 50.5812 50.4431 50.6215 50.3278C50.6619 50.2126 50.7224 50.1074 50.803 50.0122C50.8837 49.917 50.9845 49.8418 51.1106 49.7817C51.2366 49.7215 51.3778 49.6915 51.5391 49.6915C51.6046 49.6915 51.6651 49.6915 51.7155 49.6965C51.7659 49.7015 51.8214 49.7065 51.8668 49.7115C51.9121 49.7165 51.9626 49.7265 52.013 49.7366C52.0584 49.7466 52.1088 49.7566 52.1592 49.7716C52.1592 49.8217 52.1693 49.8869 52.1793 49.962C52.1894 50.0372 52.2046 50.1124 52.2247 50.1925C52.2096 50.2026 52.1945 50.2026 52.1793 50.2026C52.1642 50.2026 52.1491 50.2026 52.139 50.1976C52.1239 50.1925 52.1189 50.1825 52.1138 50.1675C52.0785 50.0372 52.0231 49.947 51.9474 49.8919C51.8718 49.8368 51.7609 49.8117 51.6147 49.8117C51.4937 49.8117 51.3878 49.8318 51.292 49.8719C51.2013 49.9119 51.1206 49.9671 51.0601 50.0372C50.9946 50.1074 50.9492 50.1925 50.919 50.2877C50.8887 50.388 50.8686 50.4932 50.8686 50.6134C50.8686 50.7487 50.8887 50.869 50.9291 50.9842C50.9694 51.0945 51.0248 51.1947 51.0954 51.2749C51.166 51.355 51.2467 51.4202 51.3374 51.4653C51.4282 51.5104 51.529 51.5304 51.6349 51.5304C51.7206 51.5304 51.7912 51.5204 51.8466 51.5054C51.9021 51.4903 51.9525 51.4653 51.9878 51.4352C52.0281 51.4051 52.0584 51.3651 52.0836 51.32C52.1088 51.2749 52.134 51.2248 52.1592 51.1646C52.1743 51.1346 52.1945 51.1195 52.2298 51.1195C52.2398 51.1195 52.2499 51.1195 52.26 51.1245C52.2701 51.1295 52.2802 51.1296 52.2852 51.1346C52.26 51.2047 52.2398 51.2799 52.2146 51.36C52.1894 51.4402 52.1743 51.5254 52.1541 51.6056C52.0583 51.6206 51.9626 51.6356 51.8617 51.6406C51.771 51.6507 51.6601 51.6557 51.5391 51.6557Z" fill="#005F7F"/>
<path d="M53.5757 50.9291H52.9254L52.7389 51.4001C52.7288 51.4252 52.7237 51.4402 52.7237 51.4603C52.7237 51.5003 52.7842 51.5304 52.9002 51.5454C52.9153 51.5454 52.9254 51.5505 52.9304 51.5605C52.9355 51.5705 52.9355 51.5805 52.9355 51.5905C52.9355 51.6006 52.9355 51.6156 52.9304 51.6356C52.875 51.6306 52.8195 51.6306 52.7641 51.6256C52.7086 51.6206 52.6481 51.6206 52.5926 51.6206C52.5523 51.6206 52.512 51.6206 52.4717 51.6256C52.4313 51.6256 52.386 51.6306 52.3456 51.6356C52.3406 51.6206 52.3406 51.6056 52.3406 51.5905C52.3406 51.5755 52.3406 51.5655 52.3456 51.5555C52.3507 51.5454 52.3607 51.5404 52.3759 51.5354C52.4364 51.5254 52.4817 51.5154 52.512 51.5003C52.5422 51.4853 52.5624 51.4653 52.5775 51.4302L53.2833 49.7416C53.2985 49.7065 53.3136 49.6915 53.3388 49.6915C53.3489 49.6915 53.359 49.6915 53.3741 49.6965L54.0849 51.4352C54.095 51.4603 54.1253 51.4853 54.1656 51.5003C54.2059 51.5154 54.2463 51.5254 54.2866 51.5304C54.2967 51.5354 54.3067 51.5404 54.3168 51.5454C54.3269 51.5505 54.3269 51.5655 54.3269 51.5805C54.3269 51.5905 54.3269 51.6056 54.3219 51.6256C54.2614 51.6206 54.1958 51.6206 54.1353 51.6156C54.0748 51.6106 54.0194 51.6106 53.9639 51.6106C53.9085 51.6106 53.848 51.6106 53.7774 51.6156C53.7068 51.6206 53.6413 51.6206 53.5858 51.6256C53.5808 51.6056 53.5808 51.5905 53.5808 51.5805C53.5808 51.5605 53.5858 51.5505 53.5909 51.5454C53.5959 51.5404 53.606 51.5354 53.611 51.5354C53.6614 51.5254 53.7018 51.5154 53.732 51.5003C53.7623 51.4853 53.7774 51.4703 53.7774 51.4452C53.7774 51.4352 53.7724 51.4202 53.7673 51.4001L53.5757 50.9291ZM53.5304 50.8089L53.2581 50.0973L52.9758 50.8089H53.5304Z" fill="#005F7F"/>
<path d="M21.0483 53.3393V54.0859H21.507C21.5474 54.0859 21.5726 54.0658 21.5927 54.0308C21.6079 53.9907 21.623 53.9456 21.6331 53.8905C21.6381 53.8654 21.6583 53.8504 21.6835 53.8504C21.6885 53.8504 21.6986 53.8504 21.7087 53.8554C21.7188 53.8554 21.7238 53.8604 21.7339 53.8604C21.7288 53.9005 21.7288 53.9506 21.7238 54.0057C21.7188 54.0608 21.7188 54.1059 21.7188 54.151C21.7188 54.1861 21.7188 54.2262 21.7238 54.2713C21.7238 54.3164 21.7288 54.3715 21.7339 54.4316C21.7188 54.4366 21.7036 54.4366 21.6885 54.4366C21.6583 54.4366 21.6381 54.4216 21.6331 54.3965C21.623 54.3414 21.6079 54.2963 21.5927 54.2562C21.5776 54.2162 21.5474 54.2011 21.507 54.2011H21.0483V54.8876C21.0483 54.9277 21.0735 54.9577 21.1289 54.9678C21.1844 54.9828 21.2701 54.9878 21.3911 54.9878H21.5524C21.6079 54.9878 21.6583 54.9778 21.6986 54.9628C21.7389 54.9477 21.7793 54.9227 21.8095 54.8976C21.8398 54.8675 21.87 54.8375 21.8952 54.7974C21.9204 54.7573 21.9456 54.7172 21.9708 54.6721C21.9759 54.6571 21.991 54.6521 22.0162 54.6521C22.0263 54.6521 22.0364 54.6571 22.0465 54.6621C22.0565 54.6671 22.0666 54.6721 22.0767 54.6822C22.0565 54.7172 22.0465 54.7623 22.0313 54.8124C22.0162 54.8625 22.0061 54.9126 21.996 54.9577C21.986 55.0028 21.9708 55.0429 21.9608 55.078C21.9456 55.1131 21.9305 55.1281 21.9103 55.1281C21.8952 55.1281 21.87 55.1281 21.8448 55.1231C21.8146 55.1231 21.7843 55.1181 21.749 55.1181C21.7137 55.1181 21.6784 55.1181 21.6431 55.1131C21.6079 55.1131 21.5776 55.1081 21.5524 55.1081H20.9121C20.8567 55.1081 20.7962 55.1081 20.7306 55.1131C20.6651 55.1181 20.6046 55.1181 20.5441 55.1231C20.5391 55.1031 20.5391 55.088 20.5391 55.078C20.5391 55.0529 20.5491 55.0329 20.5693 55.0329C20.6449 55.0179 20.6953 55.0028 20.7306 54.9878C20.7609 54.9728 20.7811 54.9477 20.7811 54.9076V53.4245C20.7811 53.3844 20.7659 53.3593 20.7407 53.3443C20.7105 53.3293 20.655 53.3142 20.5744 53.2992C20.5542 53.2942 20.5441 53.2791 20.5441 53.2491C20.5441 53.2391 20.5441 53.229 20.5441 53.224C20.5441 53.219 20.5441 53.209 20.5491 53.204C20.6348 53.209 20.7054 53.214 20.7609 53.214C20.8163 53.214 20.8668 53.219 20.9121 53.219H21.4869C21.5726 53.219 21.6532 53.214 21.7137 53.209C21.7793 53.204 21.8196 53.199 21.8448 53.199C21.87 53.199 21.8851 53.214 21.8952 53.2491C21.9053 53.2791 21.9103 53.3192 21.9154 53.3643C21.9204 53.4094 21.9305 53.4545 21.9355 53.5096C21.9406 53.5597 21.9557 53.6048 21.9809 53.6399C21.9658 53.6499 21.9456 53.655 21.9305 53.655C21.9053 53.655 21.8902 53.6449 21.8801 53.6299C21.8549 53.5798 21.8347 53.5347 21.8146 53.4996C21.7944 53.4645 21.7692 53.4345 21.7389 53.4094C21.7087 53.3844 21.6784 53.3693 21.6381 53.3543C21.5978 53.3443 21.5474 53.3393 21.4919 53.3393H21.0483Z" fill="#005F7F"/>
<path d="M23.4883 53.68C23.4682 53.685 23.453 53.685 23.443 53.685C23.4178 53.685 23.3976 53.68 23.3875 53.67C23.3774 53.66 23.3673 53.6499 23.3623 53.6399C23.3119 53.5297 23.2514 53.4495 23.1808 53.3994C23.1102 53.3493 23.0144 53.3242 22.8934 53.3242C22.8481 53.3242 22.8027 53.3293 22.7624 53.3443C22.722 53.3593 22.6817 53.3744 22.6515 53.3994C22.6212 53.4245 22.596 53.4545 22.5758 53.4896C22.5557 53.5247 22.5456 53.5648 22.5456 53.6049C22.5456 53.695 22.5859 53.7702 22.6615 53.8303C22.7372 53.8905 22.8531 53.9456 23.0044 54.0057C23.1909 54.0809 23.332 54.161 23.4178 54.2512C23.5085 54.3414 23.5488 54.4517 23.5488 54.587C23.5488 54.6671 23.5387 54.7423 23.5135 54.8074C23.4883 54.8776 23.453 54.9377 23.3976 54.9878C23.3472 55.0379 23.2766 55.078 23.1959 55.1081C23.1153 55.1381 23.0144 55.1532 22.8985 55.1532C22.7775 55.1532 22.6666 55.1431 22.5708 55.1131C22.47 55.088 22.3893 55.053 22.3187 55.0129C22.3137 54.9327 22.3036 54.8525 22.2935 54.7774C22.2834 54.7022 22.2683 54.627 22.2532 54.5519C22.2683 54.5469 22.2834 54.5419 22.3036 54.5419C22.3288 54.5419 22.3439 54.5469 22.359 54.5569C22.3691 54.5669 22.3843 54.5819 22.3943 54.607C22.4447 54.7473 22.5052 54.8475 22.5859 54.9177C22.6615 54.9828 22.7724 55.0179 22.9086 55.0179C22.9691 55.0179 23.0245 55.0079 23.0749 54.9928C23.1253 54.9778 23.1606 54.9527 23.1909 54.9177C23.2211 54.8876 23.2463 54.8525 23.2615 54.8124C23.2766 54.7723 23.2867 54.7323 23.2867 54.6872C23.2867 54.587 23.2514 54.5068 23.1808 54.4467C23.1102 54.3865 23.0144 54.3364 22.8834 54.2913C22.7977 54.2613 22.722 54.2262 22.6565 54.1961C22.5859 54.161 22.5305 54.121 22.48 54.0759C22.4296 54.0308 22.3943 53.9807 22.3691 53.9205C22.3439 53.8604 22.3288 53.7902 22.3288 53.7101C22.3288 53.6399 22.3439 53.5698 22.3691 53.5096C22.3943 53.4445 22.4347 53.3894 22.4851 53.3443C22.5355 53.2992 22.596 53.2591 22.6666 53.2341C22.7372 53.209 22.8178 53.194 22.9035 53.194C22.9943 53.194 23.085 53.204 23.1657 53.219C23.2514 53.2391 23.3421 53.2641 23.448 53.3042C23.453 53.3643 23.4581 53.4245 23.4631 53.4946C23.4682 53.5598 23.4783 53.6199 23.4883 53.68Z" fill="#005F7F"/>
<path d="M24.7084 53.3393V54.8926C24.7084 54.9377 24.7285 54.9678 24.7638 54.9878C24.7991 55.0079 24.8646 55.0229 24.9503 55.0279C24.9705 55.0279 24.9806 55.0429 24.9806 55.073C24.9806 55.088 24.9806 55.1031 24.9756 55.1231C24.9151 55.1181 24.8495 55.1181 24.7789 55.1131C24.7084 55.1081 24.6378 55.1081 24.5672 55.1081C24.4966 55.1081 24.4311 55.1081 24.3555 55.1131C24.2798 55.1181 24.2193 55.1181 24.1538 55.1231C24.1488 55.1031 24.1488 55.088 24.1488 55.073C24.1488 55.0479 24.1588 55.0279 24.179 55.0279C24.2647 55.0179 24.3302 55.0028 24.3706 54.9828C24.4109 54.9628 24.4311 54.9327 24.4311 54.8876V53.3343H24.1286C24.0681 53.3343 24.0227 53.3393 23.9824 53.3493C23.9421 53.3593 23.9068 53.3794 23.8765 53.4044C23.8463 53.4295 23.8211 53.4595 23.8009 53.4946C23.7807 53.5297 23.7555 53.5748 23.7354 53.6249C23.7303 53.6349 23.7253 53.6399 23.7152 53.6449C23.7051 53.6499 23.7001 53.6499 23.69 53.6499C23.6698 53.6499 23.6496 53.6449 23.6345 53.6349C23.6547 53.5648 23.6698 53.5046 23.6799 53.4495C23.69 53.3944 23.7001 53.3493 23.7051 53.3142C23.7101 53.2791 23.7202 53.2491 23.7303 53.229C23.7404 53.209 23.7555 53.199 23.7706 53.199C23.7858 53.199 23.8059 53.199 23.8311 53.204C23.8563 53.204 23.8816 53.209 23.9118 53.209C23.9421 53.209 23.9673 53.214 23.9975 53.214C24.0278 53.214 24.053 53.219 24.0782 53.219H25.0562C25.0814 53.219 25.1066 53.219 25.1369 53.214C25.1671 53.214 25.1974 53.209 25.2226 53.209C25.2528 53.209 25.278 53.204 25.3032 53.204C25.3285 53.204 25.3486 53.199 25.3637 53.199C25.3839 53.199 25.399 53.209 25.4041 53.229C25.4142 53.2491 25.4192 53.2791 25.4293 53.3142C25.4394 53.3493 25.4444 53.3994 25.4545 53.4495C25.4646 53.5046 25.4797 53.5648 25.4999 53.6299C25.4898 53.6349 25.4797 53.6349 25.4696 53.6399C25.4595 53.6449 25.4494 53.6449 25.4394 53.6449C25.4293 53.6449 25.4242 53.6449 25.4142 53.6399C25.4041 53.6349 25.399 53.6299 25.394 53.6199C25.3738 53.5698 25.3537 53.5297 25.3285 53.4896C25.3083 53.4545 25.2831 53.4245 25.2528 53.3994C25.2226 53.3744 25.1923 53.3593 25.152 53.3443C25.1117 53.3343 25.0613 53.3293 25.0058 53.3293H24.7084V53.3393Z" fill="#005F7F"/>
<path d="M26.0949 53.3393V54.0859H26.5537C26.594 54.0859 26.6192 54.0658 26.6394 54.0308C26.6545 53.9907 26.6696 53.9456 26.6797 53.8905C26.6847 53.8654 26.7049 53.8504 26.7301 53.8504C26.7351 53.8504 26.7452 53.8504 26.7553 53.8554C26.7654 53.8554 26.7704 53.8604 26.7805 53.8604C26.7755 53.9005 26.7755 53.9506 26.7704 54.0057C26.7654 54.0608 26.7654 54.1059 26.7654 54.151C26.7654 54.1861 26.7654 54.2262 26.7704 54.2713C26.7704 54.3164 26.7755 54.3715 26.7805 54.4316C26.7654 54.4366 26.7503 54.4366 26.7351 54.4366C26.7049 54.4366 26.6847 54.4216 26.6797 54.3965C26.6696 54.3414 26.6545 54.2963 26.6394 54.2562C26.6242 54.2162 26.594 54.2011 26.5537 54.2011H26.0949V54.8876C26.0949 54.9277 26.1201 54.9577 26.1755 54.9678C26.231 54.9828 26.3167 54.9878 26.4377 54.9878H26.599C26.6545 54.9878 26.7049 54.9778 26.7452 54.9628C26.7856 54.9477 26.8259 54.9227 26.8561 54.8976C26.8864 54.8675 26.9166 54.8375 26.9418 54.7974C26.9671 54.7573 26.9923 54.7172 27.0175 54.6721C27.0225 54.6571 27.0376 54.6521 27.0628 54.6521C27.0729 54.6521 27.083 54.6571 27.0931 54.6621C27.1032 54.6671 27.1133 54.6721 27.1233 54.6822C27.1032 54.7172 27.0931 54.7623 27.078 54.8124C27.0628 54.8625 27.0528 54.9126 27.0427 54.9577C27.0326 55.0028 27.0175 55.0429 27.0074 55.078C26.9923 55.1131 26.9771 55.1281 26.957 55.1281C26.9418 55.1281 26.9166 55.1281 26.8914 55.1231C26.8612 55.1231 26.8309 55.1181 26.7956 55.1181C26.7604 55.1181 26.7251 55.1181 26.6898 55.1131C26.6545 55.1131 26.6242 55.1081 26.599 55.1081H25.9588C25.9033 55.1081 25.8428 55.1081 25.7773 55.1131C25.7117 55.1181 25.6512 55.1181 25.5907 55.1231C25.5857 55.1031 25.5857 55.088 25.5857 55.078C25.5857 55.0529 25.5958 55.0329 25.6159 55.0329C25.6916 55.0179 25.742 55.0028 25.7773 54.9878C25.8075 54.9728 25.8277 54.9477 25.8277 54.9076V53.4245C25.8277 53.3844 25.8126 53.3593 25.7874 53.3443C25.7571 53.3293 25.7016 53.3142 25.621 53.2992C25.6008 53.2942 25.5907 53.2791 25.5907 53.2491C25.5907 53.2391 25.5907 53.229 25.5907 53.224C25.5907 53.219 25.5907 53.209 25.5958 53.204C25.6815 53.209 25.7521 53.214 25.8075 53.214C25.863 53.214 25.9134 53.219 25.9588 53.219H26.5335C26.6192 53.219 26.6999 53.214 26.7604 53.209C26.8259 53.204 26.8662 53.199 26.8914 53.199C26.9166 53.199 26.9318 53.214 26.9418 53.2491C26.9519 53.2791 26.957 53.3192 26.962 53.3643C26.9671 53.4094 26.9771 53.4545 26.9822 53.5096C26.9872 53.5597 27.0023 53.6048 27.0276 53.6399C27.0124 53.6499 26.9923 53.655 26.9771 53.655C26.9519 53.655 26.9368 53.6449 26.9267 53.6299C26.9015 53.5798 26.8814 53.5347 26.8612 53.4996C26.841 53.4645 26.8158 53.4345 26.7856 53.4094C26.7553 53.3844 26.7251 53.3693 26.6847 53.3543C26.6444 53.3443 26.594 53.3393 26.5385 53.3393H26.0949Z" fill="#005F7F"/>
<path d="M28.2374 53.3393V54.8926C28.2374 54.9377 28.2576 54.9678 28.2929 54.9878C28.3282 55.0079 28.3937 55.0229 28.4794 55.0279C28.4996 55.0279 28.5096 55.0429 28.5096 55.073C28.5096 55.088 28.5096 55.1031 28.5046 55.1231C28.4441 55.1181 28.3786 55.1181 28.308 55.1131C28.2374 55.1081 28.1668 55.1081 28.0962 55.1081C28.0257 55.1081 27.9601 55.1081 27.8845 55.1131C27.8089 55.1181 27.7484 55.1181 27.6828 55.1231C27.6778 55.1031 27.6778 55.088 27.6778 55.073C27.6778 55.0479 27.6879 55.0279 27.7081 55.0279C27.7938 55.0179 27.8593 55.0028 27.8996 54.9828C27.94 54.9628 27.9601 54.9327 27.9601 54.8876V53.3343H27.6576C27.5971 53.3343 27.5518 53.3393 27.5114 53.3493C27.4711 53.3593 27.4358 53.3794 27.4056 53.4044C27.3753 53.4295 27.3501 53.4595 27.3299 53.4946C27.3098 53.5297 27.2846 53.5748 27.2644 53.6249C27.2594 53.6349 27.2543 53.6399 27.2442 53.6449C27.2342 53.6499 27.2291 53.6499 27.219 53.6499C27.1989 53.6499 27.1787 53.6449 27.1636 53.6349C27.1837 53.5648 27.1989 53.5046 27.2089 53.4495C27.219 53.3944 27.2291 53.3493 27.2342 53.3142C27.2392 53.2791 27.2493 53.2491 27.2594 53.229C27.2694 53.209 27.2846 53.199 27.2997 53.199C27.3148 53.199 27.335 53.199 27.3602 53.204C27.3854 53.204 27.4106 53.209 27.4409 53.209C27.4711 53.209 27.4963 53.214 27.5266 53.214C27.5568 53.214 27.582 53.219 27.6072 53.219H28.5853C28.6105 53.219 28.6357 53.219 28.6659 53.214C28.6962 53.214 28.7264 53.209 28.7516 53.209C28.7819 53.209 28.8071 53.204 28.8323 53.204C28.8575 53.204 28.8777 53.199 28.8928 53.199C28.913 53.199 28.9281 53.209 28.9331 53.229C28.9432 53.2491 28.9483 53.2791 28.9583 53.3142C28.9684 53.3493 28.9735 53.3994 28.9835 53.4495C28.9936 53.4996 29.0088 53.5648 29.0289 53.6299C29.0188 53.6349 29.0088 53.6349 28.9987 53.6399C28.9886 53.6449 28.9785 53.6449 28.9684 53.6449C28.9583 53.6449 28.9533 53.6449 28.9432 53.6399C28.9331 53.6349 28.9281 53.6299 28.923 53.6199C28.9029 53.5698 28.8827 53.5297 28.8575 53.4896C28.8373 53.4545 28.8121 53.4245 28.7819 53.3994C28.7516 53.3744 28.7214 53.3593 28.6811 53.3443C28.6407 53.3343 28.5903 53.3293 28.5349 53.3293H28.2374V53.3393Z" fill="#005F7F"/>
<path d="M29.6087 54.9126C29.6087 54.9527 29.6238 54.9778 29.6491 54.9928C29.6743 55.0078 29.7297 55.0229 29.8003 55.0379C29.8205 55.0429 29.8305 55.0579 29.8305 55.083C29.8305 55.093 29.8305 55.108 29.8255 55.1281C29.765 55.1231 29.7045 55.1231 29.644 55.1181C29.5835 55.1131 29.5281 55.1131 29.4726 55.1131C29.4222 55.1131 29.3617 55.1131 29.2962 55.1181C29.2357 55.1231 29.1752 55.1231 29.1147 55.1281C29.1096 55.108 29.1096 55.093 29.1096 55.083C29.1096 55.0579 29.1197 55.0379 29.1399 55.0379C29.2155 55.0229 29.2659 55.0078 29.2911 54.9928C29.3163 54.9778 29.3314 54.9527 29.3314 54.9126V53.4295C29.3314 53.3894 29.3163 53.3643 29.2911 53.3443C29.2659 53.3292 29.2104 53.3142 29.1399 53.3042C29.1298 53.3042 29.1197 53.2992 29.1147 53.2892C29.1096 53.2791 29.1096 53.2691 29.1096 53.2591C29.1096 53.2491 29.1096 53.234 29.1147 53.214C29.1752 53.219 29.2357 53.219 29.2962 53.224C29.3567 53.229 29.4171 53.229 29.4676 53.229C29.518 53.229 29.5734 53.229 29.6339 53.224C29.6944 53.219 29.76 53.219 29.8205 53.214C29.8255 53.234 29.8255 53.2491 29.8255 53.2591C29.8255 53.2892 29.8154 53.3042 29.7953 53.3092C29.7196 53.3192 29.6692 53.3342 29.644 53.3493C29.6188 53.3643 29.6037 53.3944 29.6037 53.4345V54.9126H29.6087Z" fill="#005F7F"/>
<path d="M31.0051 55.1482C30.8388 55.1482 30.6976 55.1231 30.5766 55.073C30.4556 55.0229 30.3498 54.9527 30.2691 54.8626C30.1884 54.7724 30.1279 54.6722 30.0876 54.5519C30.0473 54.4316 30.0271 54.3014 30.0271 54.1661C30.0271 54.0508 30.0473 53.9356 30.0876 53.8203C30.1279 53.7051 30.1884 53.5999 30.2691 53.5046C30.3498 53.4094 30.4506 53.3343 30.5766 53.2742C30.7027 53.214 30.8438 53.184 31.0051 53.184C31.0707 53.184 31.1312 53.184 31.1816 53.189C31.232 53.194 31.2875 53.199 31.3328 53.204C31.3782 53.209 31.4286 53.219 31.479 53.2291C31.5244 53.2391 31.5748 53.2491 31.6252 53.2641C31.6252 53.3142 31.6353 53.3794 31.6454 53.4545C31.6555 53.5297 31.6706 53.6049 31.6908 53.685C31.6757 53.6951 31.6605 53.6951 31.6454 53.6951C31.6303 53.6951 31.6152 53.6951 31.6051 53.69C31.59 53.685 31.5849 53.675 31.5799 53.66C31.5446 53.5297 31.4891 53.4395 31.4135 53.3844C31.3379 53.3293 31.227 53.3042 31.0808 53.3042C30.9598 53.3042 30.8539 53.3243 30.7581 53.3643C30.6674 53.4044 30.5867 53.4596 30.5262 53.5297C30.4607 53.5999 30.4153 53.685 30.385 53.7802C30.3548 53.8805 30.3346 53.9857 30.3346 54.1059C30.3346 54.2412 30.3548 54.3615 30.3951 54.4767C30.4355 54.587 30.4909 54.6872 30.5615 54.7674C30.6321 54.8475 30.7127 54.9127 30.8035 54.9578C30.8942 55.0029 30.9951 55.0229 31.1009 55.0229C31.1866 55.0229 31.2572 55.0129 31.3127 54.9978C31.3681 54.9828 31.4185 54.9578 31.4538 54.9277C31.4942 54.8976 31.5244 54.8575 31.5496 54.8124C31.5748 54.7674 31.6 54.7172 31.6252 54.6571C31.6404 54.6271 31.6605 54.612 31.6958 54.612C31.7059 54.612 31.716 54.612 31.7261 54.617C31.7362 54.622 31.7462 54.622 31.7513 54.6271C31.7261 54.6972 31.7059 54.7724 31.6807 54.8525C31.6555 54.9327 31.6404 55.0179 31.6202 55.0981C31.5244 55.1131 31.4286 55.1281 31.3278 55.1331C31.2371 55.1432 31.1261 55.1482 31.0051 55.1482Z" fill="#005F7F"/>
<path d="M33.0418 54.4216H32.3915L32.2049 54.8926C32.1948 54.9177 32.1898 54.9327 32.1898 54.9527C32.1898 54.9928 32.2503 55.0229 32.3662 55.0379C32.3814 55.0379 32.3915 55.0429 32.3965 55.053C32.4015 55.063 32.4015 55.073 32.4015 55.083C32.4015 55.0931 32.4015 55.1081 32.3965 55.1281C32.341 55.1231 32.2856 55.1231 32.2301 55.1181C32.1747 55.1131 32.1142 55.1131 32.0587 55.1131C32.0184 55.1131 31.978 55.1131 31.9377 55.1181C31.8974 55.1181 31.852 55.1231 31.8117 55.1281C31.8066 55.1131 31.8066 55.0981 31.8066 55.083C31.8066 55.068 31.8066 55.058 31.8117 55.048C31.8167 55.0379 31.8268 55.0329 31.8419 55.0279C31.9024 55.0179 31.9478 55.0079 31.9781 54.9928C32.0083 54.9778 32.0285 54.9578 32.0436 54.9227L32.7494 53.2341C32.7645 53.199 32.7796 53.184 32.8049 53.184C32.8149 53.184 32.825 53.184 32.8401 53.189L33.551 54.9277C33.5611 54.9528 33.5913 54.9778 33.6317 54.9928C33.672 55.0079 33.7123 55.0179 33.7526 55.0229C33.7627 55.0279 33.7728 55.0329 33.7829 55.0379C33.793 55.0429 33.793 55.058 33.793 55.073C33.793 55.083 33.793 55.0981 33.7879 55.1181C33.7274 55.1131 33.6619 55.1131 33.6014 55.1081C33.5409 55.1031 33.4854 55.1031 33.43 55.1031C33.3745 55.1031 33.314 55.1031 33.2435 55.1081C33.1729 55.1131 33.1073 55.1131 33.0519 55.1181C33.0468 55.0981 33.0468 55.083 33.0468 55.073C33.0468 55.053 33.0519 55.0429 33.0569 55.0379C33.062 55.0329 33.072 55.0279 33.0771 55.0279C33.1275 55.0179 33.1678 55.0079 33.1981 54.9928C33.2283 54.9778 33.2435 54.9628 33.2435 54.9377C33.2435 54.9277 33.2384 54.9127 33.2334 54.8926L33.0418 54.4216ZM32.9964 54.3014L32.7242 53.5898L32.4419 54.3014H32.9964Z" fill="#005F7F"/>
<path d="M35.467 53.3393V54.0859H35.9257C35.9661 54.0859 35.9913 54.0658 36.0114 54.0308C36.0266 53.9907 36.0417 53.9456 36.0518 53.8905C36.0568 53.8654 36.077 53.8504 36.1022 53.8504C36.1072 53.8504 36.1173 53.8504 36.1274 53.8554C36.1375 53.8554 36.1425 53.8604 36.1526 53.8604C36.1476 53.9005 36.1476 53.9506 36.1425 54.0057C36.1375 54.0608 36.1375 54.1059 36.1375 54.151C36.1375 54.1861 36.1375 54.2262 36.1425 54.2713C36.1425 54.3164 36.1476 54.3715 36.1526 54.4316C36.1375 54.4366 36.1223 54.4366 36.1072 54.4366C36.077 54.4366 36.0568 54.4216 36.0518 54.3965C36.0417 54.3414 36.0266 54.2963 36.0114 54.2562C35.9963 54.2162 35.9661 54.2011 35.9257 54.2011H35.467V54.8876C35.467 54.9277 35.4922 54.9577 35.5476 54.9678C35.6031 54.9828 35.6888 54.9878 35.8098 54.9878H35.9711C36.0266 54.9878 36.077 54.9778 36.1173 54.9628C36.1576 54.9477 36.198 54.9227 36.2282 54.8976C36.2585 54.8675 36.2887 54.8375 36.3139 54.7974C36.3391 54.7573 36.3643 54.7172 36.3895 54.6721C36.3946 54.6571 36.4097 54.6521 36.4349 54.6521C36.445 54.6521 36.4551 54.6571 36.4652 54.6621C36.4752 54.6671 36.4853 54.6721 36.4954 54.6822C36.4752 54.7172 36.4652 54.7623 36.45 54.8124C36.4349 54.8625 36.4248 54.9126 36.4148 54.9577C36.4047 55.0028 36.3895 55.0429 36.3795 55.078C36.3643 55.1131 36.3492 55.1281 36.329 55.1281C36.3139 55.1281 36.2887 55.1281 36.2635 55.1231C36.2333 55.1231 36.203 55.1181 36.1677 55.1181C36.1324 55.1181 36.0971 55.1181 36.0618 55.1131C36.0266 55.1131 35.9963 55.1081 35.9711 55.1081H35.3308C35.2754 55.1081 35.2149 55.1081 35.1493 55.1131C35.0838 55.1181 35.0233 55.1181 34.9628 55.1231C34.9578 55.1031 34.9578 55.088 34.9578 55.078C34.9578 55.0529 34.9678 55.0329 34.988 55.0329C35.0636 55.0179 35.1141 55.0028 35.1493 54.9878C35.1796 54.9728 35.1998 54.9477 35.1998 54.9076V53.4245C35.1998 53.3844 35.1846 53.3593 35.1594 53.3443C35.1292 53.3293 35.0737 53.3142 34.9931 53.2992C34.9729 53.2942 34.9628 53.2791 34.9628 53.2491C34.9628 53.2391 34.9628 53.229 34.9628 53.224C34.9628 53.219 34.9628 53.209 34.9678 53.204C35.0536 53.209 35.1241 53.214 35.1796 53.214C35.235 53.214 35.2855 53.219 35.3308 53.219H35.9056C35.9913 53.219 36.0719 53.214 36.1324 53.209C36.198 53.204 36.2383 53.199 36.2635 53.199C36.2887 53.199 36.3038 53.214 36.3139 53.2491C36.324 53.2791 36.329 53.3192 36.3341 53.3643C36.3391 53.4094 36.3492 53.4545 36.3543 53.5096C36.3593 53.5597 36.3744 53.6048 36.3996 53.6399C36.3845 53.6499 36.3643 53.655 36.3492 53.655C36.324 53.655 36.3089 53.6449 36.2988 53.6299C36.2736 53.5798 36.2534 53.5347 36.2333 53.4996C36.2131 53.4645 36.1879 53.4345 36.1576 53.4094C36.1274 53.3844 36.0971 53.3693 36.0568 53.3543C36.0165 53.3443 35.9661 53.3393 35.9106 53.3393H35.467Z" fill="#005F7F"/>
<path d="M37.9271 54.2662H37.7103V54.9076C37.7103 54.9477 37.7304 54.9778 37.7708 54.9928C37.8111 55.0078 37.8716 55.0229 37.9523 55.0329C37.9775 55.0379 37.9876 55.0529 37.9876 55.083C37.9876 55.098 37.9876 55.1131 37.9825 55.1331C37.9321 55.1281 37.8666 55.1281 37.7909 55.1231C37.7153 55.1181 37.6447 55.1181 37.5691 55.1181C37.5187 55.1181 37.4582 55.1181 37.3927 55.1231C37.3271 55.1281 37.2666 55.1281 37.2061 55.1331C37.2011 55.1131 37.2011 55.098 37.2011 55.088C37.2011 55.063 37.2112 55.0429 37.2313 55.0429C37.307 55.0329 37.3574 55.0179 37.3876 55.0028C37.4179 54.9878 37.433 54.9577 37.433 54.9176V53.4345C37.433 53.3994 37.4179 53.3693 37.3927 53.3493C37.3624 53.3292 37.307 53.3142 37.2263 53.3092C37.2061 53.3092 37.196 53.2892 37.196 53.2591C37.196 53.2491 37.196 53.234 37.2011 53.214C37.2616 53.219 37.3221 53.219 37.3826 53.224C37.4431 53.229 37.5036 53.229 37.559 53.229H37.9573C38.169 53.229 38.3253 53.2741 38.4362 53.3693C38.5421 53.4595 38.5976 53.5848 38.5976 53.7451C38.5976 53.7852 38.5925 53.8303 38.5774 53.8804C38.5623 53.9255 38.5421 53.9706 38.5119 54.0157C38.4816 54.0608 38.4413 54.1009 38.3959 54.141C38.3505 54.1811 38.29 54.2111 38.2295 54.2312L38.7186 54.9076C38.7539 54.9577 38.7942 54.9928 38.8396 55.0128C38.8849 55.0329 38.9253 55.0479 38.9656 55.0579C38.9858 55.063 38.9908 55.078 38.9908 55.098C38.9908 55.1131 38.9908 55.1331 38.9858 55.1481C38.9404 55.1431 38.8849 55.1431 38.8194 55.1381C38.7539 55.1331 38.6934 55.1331 38.6429 55.1331C38.6026 55.1331 38.5623 55.1131 38.5169 55.083C38.4766 55.0479 38.4362 55.0028 38.3959 54.9477L37.9271 54.2662ZM37.8666 54.146C38.0027 54.146 38.1086 54.1159 38.1842 54.0608C38.2598 54.0057 38.2951 53.9055 38.2951 53.7602C38.2951 53.7 38.285 53.6449 38.2699 53.5948C38.2548 53.5447 38.2295 53.4996 38.1943 53.4645C38.159 53.4295 38.1136 53.3994 38.0581 53.3793C38.0027 53.3593 37.9321 53.3493 37.8565 53.3493H37.7103V54.151H37.8666V54.146Z" fill="#005F7F"/>
<path d="M39.5252 54.9126C39.5252 54.9527 39.5404 54.9778 39.5656 54.9928C39.5908 55.0078 39.6462 55.0229 39.7168 55.0379C39.737 55.0429 39.747 55.0579 39.747 55.083C39.747 55.093 39.7471 55.108 39.742 55.1281C39.6815 55.1231 39.621 55.1231 39.5605 55.1181C39.5 55.1131 39.4446 55.1131 39.3891 55.1131C39.3387 55.1131 39.2782 55.1131 39.2127 55.1181C39.1522 55.1231 39.0917 55.1231 39.0312 55.1281C39.0261 55.108 39.0261 55.093 39.0261 55.083C39.0261 55.0579 39.0362 55.0379 39.0564 55.0379C39.132 55.0229 39.1824 55.0078 39.2076 54.9928C39.2328 54.9778 39.2479 54.9527 39.2479 54.9126V53.4295C39.2479 53.3894 39.2328 53.3643 39.2076 53.3443C39.1824 53.3292 39.127 53.3142 39.0564 53.3042C39.0463 53.3042 39.0362 53.2992 39.0312 53.2892C39.0261 53.2791 39.0261 53.2691 39.0261 53.2591C39.0261 53.2491 39.0261 53.234 39.0312 53.214C39.0917 53.219 39.1522 53.219 39.2127 53.224C39.2732 53.229 39.3337 53.229 39.3841 53.229C39.4345 53.229 39.4899 53.229 39.5504 53.224C39.6109 53.219 39.6765 53.219 39.737 53.214C39.742 53.234 39.742 53.2491 39.742 53.2591C39.742 53.2892 39.7319 53.3042 39.7118 53.3092C39.6361 53.3192 39.5857 53.3342 39.5605 53.3493C39.5353 53.3643 39.5202 53.3944 39.5202 53.4345V54.9126H39.5252Z" fill="#005F7F"/>
<path d="M40.9268 55.1482C40.7604 55.1482 40.6192 55.1231 40.4983 55.073C40.3773 55.0229 40.2714 54.9527 40.1907 54.8626C40.1101 54.7724 40.0496 54.6722 40.0092 54.5519C39.9689 54.4316 39.9487 54.3014 39.9487 54.1661C39.9487 54.0508 39.9689 53.9356 40.0092 53.8203C40.0496 53.7051 40.1101 53.5999 40.1907 53.5046C40.2714 53.4094 40.3722 53.3343 40.4983 53.2742C40.6243 53.214 40.7654 53.184 40.9268 53.184C40.9923 53.184 41.0528 53.184 41.1032 53.189C41.1536 53.194 41.2091 53.199 41.2545 53.204C41.2998 53.209 41.3503 53.219 41.4007 53.2291C41.446 53.2391 41.4965 53.2491 41.5469 53.2641C41.5469 53.3142 41.557 53.3794 41.567 53.4545C41.5771 53.5297 41.5923 53.6049 41.6124 53.685C41.5973 53.6951 41.5822 53.6951 41.567 53.6951C41.5519 53.6951 41.5368 53.6951 41.5267 53.69C41.5116 53.685 41.5065 53.675 41.5015 53.66C41.4662 53.5297 41.4108 53.4395 41.3351 53.3844C41.2595 53.3293 41.1486 53.3042 41.0024 53.3042C40.8814 53.3042 40.7755 53.3243 40.6797 53.3643C40.589 53.4044 40.5083 53.4596 40.4478 53.5297C40.3823 53.5999 40.3369 53.685 40.3067 53.7802C40.2764 53.8805 40.2563 53.9857 40.2563 54.1059C40.2563 54.2412 40.2764 54.3615 40.3168 54.4767C40.3571 54.587 40.4125 54.6872 40.4831 54.7674C40.5537 54.8475 40.6344 54.9127 40.7251 54.9578C40.8159 55.0029 40.9167 55.0229 41.0226 55.0229C41.1083 55.0229 41.1789 55.0129 41.2343 54.9978C41.2898 54.9828 41.3402 54.9578 41.3755 54.9277C41.4158 54.8976 41.446 54.8575 41.4713 54.8124C41.4965 54.7674 41.5217 54.7172 41.5469 54.6571C41.562 54.6271 41.5822 54.612 41.6175 54.612C41.6275 54.612 41.6376 54.612 41.6477 54.617C41.6578 54.622 41.6679 54.622 41.6729 54.6271C41.6477 54.6972 41.6275 54.7724 41.6023 54.8525C41.5771 54.9327 41.562 55.0179 41.5418 55.0981C41.446 55.1131 41.3503 55.1281 41.2494 55.1331C41.1536 55.1432 41.0478 55.1482 40.9268 55.1482Z" fill="#005F7F"/>
<path d="M41.7939 54.1661C41.7939 54.0308 41.8192 53.9055 41.8645 53.7903C41.9149 53.67 41.9805 53.5698 42.0662 53.4796C42.1519 53.3894 42.2477 53.3192 42.3586 53.2691C42.4695 53.219 42.5855 53.189 42.7115 53.189C42.8829 53.189 43.0291 53.214 43.1551 53.2691C43.2812 53.3243 43.387 53.3944 43.4677 53.4846C43.5484 53.5748 43.6139 53.68 43.6542 53.7953C43.6946 53.9155 43.7147 54.0358 43.7147 54.1661C43.7147 54.3214 43.6895 54.4567 43.6391 54.5769C43.5887 54.6972 43.5181 54.8024 43.4274 54.8876C43.3366 54.9728 43.2358 55.0379 43.1148 55.083C42.9938 55.1281 42.8678 55.1482 42.7317 55.1482C42.5905 55.1482 42.4645 55.1231 42.3485 55.078C42.2326 55.0329 42.1368 54.9628 42.0511 54.8776C41.9704 54.7924 41.9049 54.6872 41.8595 54.5669C41.8192 54.4517 41.7939 54.3164 41.7939 54.1661ZM42.8022 55.0079C42.893 55.0079 42.9787 54.9878 43.0543 54.9578C43.1299 54.9227 43.1955 54.8726 43.2509 54.8124C43.3064 54.7523 43.3467 54.6772 43.377 54.592C43.4072 54.5068 43.4223 54.4116 43.4223 54.3114C43.4223 54.1711 43.4072 54.0408 43.377 53.9205C43.3467 53.8003 43.3013 53.695 43.2459 53.6099C43.1854 53.5197 43.1098 53.4545 43.019 53.3994C42.9283 53.3493 42.8224 53.3243 42.7014 53.3243C42.6207 53.3243 42.5451 53.3393 42.4695 53.3694C42.3939 53.3994 42.3334 53.4445 42.2779 53.4996C42.2225 53.5547 42.1771 53.6249 42.1468 53.7101C42.1116 53.7953 42.0964 53.8905 42.0964 54.0007C42.0964 54.146 42.1116 54.2763 42.1418 54.4016C42.1721 54.5268 42.2174 54.6321 42.2779 54.7222C42.3384 54.8124 42.409 54.8826 42.4998 54.9327C42.5905 54.9828 42.6863 55.0079 42.8022 55.0079Z" fill="#005F7F"/>
<path d="M45.1414 53.68C45.1212 53.685 45.1061 53.685 45.096 53.685C45.0708 53.685 45.0507 53.68 45.0406 53.67C45.0305 53.66 45.0204 53.6499 45.0154 53.6399C44.965 53.5297 44.9045 53.4495 44.8339 53.3994C44.7633 53.3493 44.6675 53.3242 44.5465 53.3242C44.5011 53.3242 44.4558 53.3293 44.4154 53.3443C44.3751 53.3593 44.3348 53.3744 44.3045 53.3994C44.2743 53.4245 44.2491 53.4545 44.2289 53.4896C44.2087 53.5247 44.1987 53.5648 44.1987 53.6049C44.1987 53.695 44.239 53.7702 44.3146 53.8303C44.3902 53.8905 44.5062 53.9456 44.6574 54.0057C44.844 54.0809 44.9851 54.161 45.0708 54.2512C45.1616 54.3414 45.2019 54.4517 45.2019 54.587C45.2019 54.6671 45.1918 54.7423 45.1666 54.8074C45.1414 54.8776 45.1061 54.9377 45.0507 54.9878C45.0003 55.0379 44.9297 55.078 44.849 55.1081C44.7683 55.1381 44.6675 55.1532 44.5516 55.1532C44.4306 55.1532 44.3197 55.1431 44.2239 55.1131C44.123 55.088 44.0424 55.053 43.9718 55.0129C43.9668 54.9327 43.9567 54.8525 43.9466 54.7774C43.9365 54.7022 43.9214 54.627 43.9062 54.5519C43.9214 54.5469 43.9365 54.5419 43.9567 54.5419C43.9819 54.5419 43.997 54.5469 44.0121 54.5569C44.0222 54.5669 44.0373 54.5819 44.0474 54.607C44.0978 54.7473 44.1583 54.8475 44.239 54.9177C44.3146 54.9828 44.4255 55.0179 44.5616 55.0179C44.6221 55.0179 44.6776 55.0079 44.728 54.9928C44.7784 54.9778 44.8137 54.9527 44.844 54.9177C44.8742 54.8876 44.8994 54.8525 44.9145 54.8124C44.9297 54.7723 44.9398 54.7323 44.9398 54.6872C44.9398 54.587 44.9045 54.5068 44.8339 54.4467C44.7633 54.3865 44.6675 54.3364 44.5364 54.2913C44.4507 54.2613 44.3751 54.2262 44.3096 54.1961C44.239 54.161 44.1835 54.121 44.1331 54.0759C44.0827 54.0308 44.0474 53.9807 44.0222 53.9205C43.997 53.8604 43.9819 53.7902 43.9819 53.7101C43.9819 53.6399 43.997 53.5698 44.0222 53.5096C44.0474 53.4445 44.0877 53.3894 44.1382 53.3443C44.1886 53.2992 44.2491 53.2591 44.3197 53.2341C44.3902 53.209 44.4709 53.194 44.5566 53.194C44.6473 53.194 44.7381 53.204 44.8188 53.219C44.9045 53.2391 44.9952 53.2641 45.1011 53.3042C45.1061 53.3643 45.1112 53.4245 45.1162 53.4946C45.1212 53.5598 45.1313 53.6199 45.1414 53.68Z" fill="#005F7F"/>
<path d="M46.3614 53.3393V54.8926C46.3614 54.9377 46.3816 54.9678 46.4169 54.9878C46.4522 55.0079 46.5177 55.0229 46.6034 55.0279C46.6236 55.0279 46.6337 55.0429 46.6337 55.073C46.6337 55.088 46.6337 55.1031 46.6286 55.1231C46.5681 55.1181 46.5026 55.1181 46.432 55.1131C46.3614 55.1081 46.2908 55.1081 46.2203 55.1081C46.1497 55.1081 46.0842 55.1081 46.0085 55.1131C45.9329 55.1181 45.8724 55.1181 45.8069 55.1231C45.8018 55.1031 45.8018 55.088 45.8018 55.073C45.8018 55.0479 45.8119 55.0279 45.8321 55.0279C45.9178 55.0179 45.9833 55.0028 46.0237 54.9828C46.064 54.9628 46.0842 54.9327 46.0842 54.8876V53.3343H45.7817C45.7212 53.3343 45.6758 53.3393 45.6355 53.3493C45.5951 53.3593 45.5598 53.3794 45.5296 53.4044C45.4993 53.4295 45.4741 53.4595 45.454 53.4946C45.4338 53.5297 45.4086 53.5748 45.3884 53.6249C45.3834 53.6349 45.3783 53.6399 45.3683 53.6449C45.3582 53.6499 45.3531 53.6499 45.3431 53.6499C45.3229 53.6499 45.3027 53.6449 45.2876 53.6349C45.3078 53.5648 45.3229 53.5046 45.333 53.4495C45.3431 53.3944 45.3531 53.3493 45.3582 53.3142C45.3632 53.2791 45.3733 53.2491 45.3834 53.229C45.3935 53.209 45.4086 53.199 45.4237 53.199C45.4388 53.199 45.459 53.199 45.4842 53.204C45.5094 53.204 45.5346 53.209 45.5649 53.209C45.5951 53.209 45.6203 53.214 45.6506 53.214C45.6808 53.214 45.706 53.219 45.7312 53.219H46.7093C46.7345 53.219 46.7597 53.219 46.79 53.214C46.8202 53.214 46.8505 53.209 46.8757 53.209C46.9059 53.209 46.9311 53.204 46.9563 53.204C46.9815 53.204 47.0017 53.199 47.0168 53.199C47.037 53.199 47.0521 53.209 47.0572 53.229C47.0672 53.2491 47.0723 53.2791 47.0824 53.3142C47.0924 53.3493 47.0975 53.3994 47.1076 53.4495C47.1177 53.4996 47.1328 53.5648 47.1529 53.6299C47.1429 53.6349 47.1328 53.6349 47.1227 53.6399C47.1126 53.6449 47.1025 53.6449 47.0924 53.6449C47.0824 53.6449 47.0773 53.6449 47.0672 53.6399C47.0572 53.6349 47.0521 53.6299 47.0471 53.6199C47.0269 53.5698 47.0067 53.5297 46.9815 53.4896C46.9614 53.4545 46.9362 53.4245 46.9059 53.3994C46.8757 53.3744 46.8454 53.3593 46.8051 53.3443C46.7647 53.3343 46.7143 53.3293 46.6589 53.3293H46.3614V53.3393Z" fill="#005F7F"/>
<path d="M47.9647 54.2662H47.7479V54.9076C47.7479 54.9477 47.768 54.9778 47.8084 54.9928C47.8487 55.0078 47.9092 55.0229 47.9899 55.0329C48.0151 55.0379 48.0252 55.0529 48.0252 55.083C48.0252 55.098 48.0252 55.1131 48.0201 55.1331C47.9697 55.1281 47.9042 55.1281 47.8285 55.1231C47.7529 55.1181 47.6823 55.1181 47.6067 55.1181C47.5563 55.1181 47.4958 55.1181 47.4303 55.1231C47.3647 55.1281 47.3042 55.1281 47.2437 55.1331C47.2387 55.1131 47.2387 55.098 47.2387 55.088C47.2387 55.063 47.2488 55.0429 47.2689 55.0429C47.3446 55.0329 47.395 55.0179 47.4252 55.0028C47.4555 54.9878 47.4706 54.9577 47.4706 54.9176V53.4345C47.4706 53.3994 47.4555 53.3693 47.4303 53.3493C47.4 53.3292 47.3446 53.3142 47.2639 53.3092C47.2437 53.3092 47.2336 53.2892 47.2336 53.2591C47.2336 53.2491 47.2336 53.234 47.2387 53.214C47.2992 53.219 47.3597 53.219 47.4202 53.224C47.4807 53.229 47.5412 53.229 47.5966 53.229H47.9949C48.2066 53.229 48.3629 53.2741 48.4738 53.3693C48.5797 53.4595 48.6352 53.5848 48.6352 53.7451C48.6352 53.7852 48.6301 53.8303 48.615 53.8804C48.5999 53.9255 48.5797 53.9706 48.5495 54.0157C48.5192 54.0608 48.4789 54.1009 48.4335 54.141C48.3881 54.1811 48.3276 54.2111 48.2671 54.2312L48.7562 54.9076C48.7915 54.9577 48.8318 54.9928 48.8772 55.0128C48.9225 55.0329 48.9629 55.0479 49.0032 55.0579C49.0234 55.063 49.0284 55.078 49.0284 55.098C49.0284 55.1131 49.0284 55.1331 49.0234 55.1481C48.978 55.1431 48.9225 55.1431 48.857 55.1381C48.7915 55.1331 48.731 55.1331 48.6805 55.1331C48.6402 55.1331 48.5999 55.1131 48.5545 55.083C48.5142 55.0479 48.4738 55.0028 48.4335 54.9477L47.9647 54.2662ZM47.8991 54.146C48.0352 54.146 48.1411 54.1159 48.2167 54.0608C48.2923 54.0057 48.3276 53.9055 48.3276 53.7602C48.3276 53.7 48.3176 53.6449 48.3024 53.5948C48.2873 53.5447 48.2621 53.4996 48.2268 53.4645C48.1915 53.4295 48.1461 53.3994 48.0907 53.3793C48.0352 53.3593 47.9647 53.3493 47.889 53.3493H47.7428V54.151H47.8991V54.146Z" fill="#005F7F"/>
<path d="M50.7273 54.4066C50.7273 54.5168 50.7122 54.617 50.687 54.7072C50.6618 54.7974 50.6214 54.8776 50.5609 54.9427C50.5004 55.0078 50.4248 55.058 50.324 55.093C50.2282 55.1281 50.1022 55.1481 49.956 55.1481C49.7896 55.1481 49.6535 55.1281 49.5476 55.088C49.4417 55.0479 49.3661 54.9928 49.3107 54.9227C49.2552 54.8575 49.2199 54.7774 49.1997 54.6872C49.1796 54.597 49.1695 54.5118 49.1695 54.4166V53.4245C49.1695 53.3844 49.1544 53.3593 49.1292 53.3393C49.104 53.3192 49.0485 53.3092 48.9729 53.2992C48.9527 53.2992 48.9426 53.2791 48.9426 53.2491C48.9426 53.2391 48.9426 53.224 48.9477 53.204C49.0082 53.209 49.0687 53.209 49.1292 53.214C49.1897 53.219 49.2502 53.219 49.3056 53.219C49.356 53.219 49.4165 53.219 49.4821 53.214C49.5476 53.209 49.6131 53.209 49.6736 53.204C49.6787 53.224 49.6787 53.2391 49.6787 53.2491C49.6787 53.2791 49.6686 53.2942 49.6484 53.2992C49.5728 53.3092 49.5224 53.3242 49.4871 53.3393C49.4569 53.3543 49.4367 53.3844 49.4367 53.4245V54.3514C49.4367 54.5519 49.477 54.7072 49.5577 54.8174C49.6384 54.9227 49.7745 54.9778 49.9711 54.9778C50.082 54.9778 50.1727 54.9678 50.2484 54.9427C50.324 54.9177 50.3895 54.8826 50.4349 54.8325C50.4803 54.7824 50.5206 54.7172 50.5408 54.6371C50.5609 54.5569 50.571 54.4617 50.571 54.3464V53.4295C50.571 53.3894 50.5559 53.3643 50.5256 53.3443C50.4954 53.3242 50.445 53.3142 50.3694 53.3042C50.3492 53.3042 50.3391 53.2842 50.3391 53.2541C50.3391 53.2441 50.3391 53.229 50.3442 53.209C50.3996 53.214 50.4551 53.214 50.5105 53.219C50.566 53.224 50.6114 53.224 50.6517 53.224C50.6971 53.224 50.7475 53.224 50.7928 53.219C50.8382 53.214 50.8886 53.214 50.934 53.209C50.939 53.229 50.939 53.2441 50.939 53.2541C50.939 53.2641 50.934 53.2741 50.929 53.2841C50.9239 53.2942 50.9138 53.2992 50.9038 53.3042C50.8332 53.3142 50.7828 53.3242 50.7525 53.3443C50.7223 53.3643 50.7122 53.3894 50.7122 53.4295V54.4066H50.7273Z" fill="#005F7F"/>
<path d="M52.0733 53.3393V54.8926C52.0733 54.9377 52.0935 54.9678 52.1288 54.9878C52.1641 55.0079 52.2296 55.0229 52.3153 55.0279C52.3355 55.0279 52.3456 55.0429 52.3456 55.073C52.3456 55.088 52.3456 55.1031 52.3405 55.1231C52.28 55.1181 52.2145 55.1181 52.1439 55.1131C52.0733 55.1081 52.0028 55.1081 51.9322 55.1081C51.8616 55.1081 51.7961 55.1081 51.7204 55.1131C51.6448 55.1181 51.5843 55.1181 51.5188 55.1231C51.5137 55.1031 51.5137 55.088 51.5137 55.073C51.5137 55.0479 51.5238 55.0279 51.544 55.0279C51.6297 55.0179 51.6952 55.0028 51.7356 54.9828C51.7759 54.9628 51.7961 54.9327 51.7961 54.8876V53.3343H51.4936C51.4331 53.3343 51.3877 53.3393 51.3474 53.3493C51.307 53.3593 51.2717 53.3794 51.2415 53.4044C51.2113 53.4295 51.186 53.4595 51.1659 53.4946C51.1457 53.5297 51.1205 53.5748 51.1003 53.6249C51.0953 53.6349 51.0903 53.6399 51.0802 53.6449C51.0701 53.6499 51.065 53.6499 51.055 53.6499C51.0348 53.6499 51.0146 53.6449 50.9995 53.6349C51.0197 53.5648 51.0348 53.5046 51.0449 53.4495C51.055 53.3944 51.0651 53.3493 51.0701 53.3142C51.0751 53.2791 51.0852 53.2491 51.0953 53.229C51.1054 53.209 51.1205 53.199 51.1356 53.199C51.1508 53.199 51.1709 53.199 51.1961 53.204C51.2213 53.204 51.2465 53.209 51.2768 53.209C51.307 53.209 51.3322 53.214 51.3625 53.214C51.3927 53.214 51.418 53.219 51.4432 53.219H52.4212C52.4464 53.219 52.4716 53.219 52.5019 53.214C52.5321 53.214 52.5624 53.209 52.5876 53.209C52.6178 53.209 52.643 53.204 52.6682 53.204C52.6934 53.204 52.7136 53.199 52.7287 53.199C52.7489 53.199 52.764 53.209 52.7691 53.229C52.7791 53.2491 52.7842 53.2791 52.7943 53.3142C52.8044 53.3493 52.8094 53.3994 52.8195 53.4495C52.8296 53.4996 52.8447 53.5648 52.8649 53.6299C52.8548 53.6349 52.8447 53.6349 52.8346 53.6399C52.8245 53.6449 52.8144 53.6449 52.8044 53.6449C52.7943 53.6449 52.7892 53.6449 52.7792 53.6399C52.7691 53.6349 52.764 53.6299 52.759 53.6199C52.7388 53.5698 52.7186 53.5297 52.6934 53.4896C52.6733 53.4545 52.6481 53.4245 52.6178 53.3994C52.5876 53.3744 52.5573 53.3593 52.517 53.3443C52.4767 53.3343 52.4262 53.3293 52.3708 53.3293H52.0733V53.3393Z" fill="#005F7F"/>
<path d="M53.8985 53.3393V54.8926C53.8985 54.9377 53.9187 54.9678 53.954 54.9878C53.9893 55.0079 54.0548 55.0229 54.1405 55.0279C54.1607 55.0279 54.1708 55.0429 54.1708 55.073C54.1708 55.088 54.1708 55.1031 54.1657 55.1231C54.1052 55.1181 54.0397 55.1181 53.9691 55.1131C53.8985 55.1081 53.828 55.1081 53.7574 55.1081C53.6868 55.1081 53.6213 55.1081 53.5456 55.1131C53.47 55.1181 53.4095 55.1181 53.344 55.1231C53.3389 55.1031 53.3389 55.088 53.3389 55.073C53.3389 55.0479 53.349 55.0279 53.3692 55.0279C53.4549 55.0179 53.5204 55.0028 53.5608 54.9828C53.6011 54.9628 53.6213 54.9327 53.6213 54.8876V53.3343H53.3188C53.2583 53.3343 53.2129 53.3393 53.1726 53.3493C53.1322 53.3593 53.0969 53.3794 53.0667 53.4044C53.0365 53.4295 53.0112 53.4595 52.9911 53.4946C52.9709 53.5297 52.9457 53.5748 52.9255 53.6249C52.9205 53.6349 52.9155 53.6399 52.9054 53.6449C52.8953 53.6499 52.8902 53.6499 52.8802 53.6499C52.86 53.6499 52.8398 53.6449 52.8247 53.6349C52.8449 53.5648 52.86 53.5046 52.8701 53.4495C52.8802 53.3944 52.8902 53.3493 52.8953 53.3142C52.9003 53.2791 52.9104 53.2491 52.9205 53.229C52.9306 53.209 52.9457 53.199 52.9608 53.199C52.976 53.199 52.9961 53.199 53.0213 53.204C53.0465 53.204 53.0717 53.209 53.102 53.209C53.1322 53.209 53.1574 53.214 53.1877 53.214C53.2179 53.214 53.2432 53.219 53.2684 53.219H54.2464C54.2716 53.219 54.2968 53.219 54.3271 53.214C54.3573 53.214 54.3876 53.209 54.4128 53.209C54.443 53.209 54.4682 53.204 54.4934 53.204C54.5186 53.204 54.5388 53.199 54.5539 53.199C54.5741 53.199 54.5892 53.209 54.5943 53.229C54.6043 53.2491 54.6094 53.2791 54.6195 53.3142C54.6296 53.3493 54.6346 53.3994 54.6447 53.4495C54.6548 53.4996 54.6699 53.5648 54.6901 53.6299C54.68 53.6349 54.6699 53.6349 54.6598 53.6399C54.6497 53.6449 54.6396 53.6449 54.6296 53.6449C54.6195 53.6449 54.6144 53.6449 54.6043 53.6399C54.5943 53.6349 54.5892 53.6299 54.5842 53.6199C54.564 53.5698 54.5438 53.5297 54.5186 53.4896C54.4985 53.4545 54.4733 53.4245 54.443 53.3994C54.4128 53.3744 54.3825 53.3593 54.3422 53.3443C54.3019 53.3343 54.2514 53.3293 54.196 53.3293H53.8985V53.3393Z" fill="#005F7F"/>
<path d="M55.2699 54.9126C55.2699 54.9527 55.285 54.9778 55.3102 54.9928C55.3354 55.0078 55.3909 55.0229 55.4614 55.0379C55.4816 55.0429 55.4917 55.0579 55.4917 55.083C55.4917 55.093 55.4917 55.108 55.4866 55.1281C55.4261 55.1231 55.3656 55.1231 55.3051 55.1181C55.2446 55.1131 55.1892 55.1131 55.1337 55.1131C55.0833 55.1131 55.0228 55.1131 54.9573 55.1181C54.8968 55.1231 54.8363 55.1231 54.7758 55.1281C54.7708 55.108 54.7708 55.093 54.7708 55.083C54.7708 55.0579 54.7808 55.0379 54.801 55.0379C54.8766 55.0229 54.927 55.0078 54.9522 54.9928C54.9775 54.9778 54.9926 54.9527 54.9926 54.9126V53.4295C54.9926 53.3894 54.9775 53.3643 54.9522 53.3443C54.927 53.3292 54.8716 53.3142 54.801 53.3042C54.7909 53.3042 54.7808 53.2992 54.7758 53.2892C54.7708 53.2791 54.7708 53.2691 54.7708 53.2591C54.7708 53.2491 54.7708 53.234 54.7758 53.214C54.8363 53.219 54.8968 53.219 54.9573 53.224C55.0178 53.229 55.0783 53.229 55.1287 53.229C55.1791 53.229 55.2346 53.229 55.2951 53.224C55.3556 53.219 55.4211 53.219 55.4816 53.214C55.4866 53.234 55.4866 53.2491 55.4866 53.2591C55.4866 53.2892 55.4766 53.3042 55.4564 53.3092C55.3808 53.3192 55.3304 53.3342 55.3051 53.3493C55.2799 53.3643 55.2648 53.3944 55.2648 53.4345V54.9126H55.2699Z" fill="#005F7F"/>
<path d="M57.1351 53.4545C57.1452 53.4345 57.1452 53.4144 57.1452 53.3944C57.1452 53.3693 57.1301 53.3493 57.1049 53.3343C57.0797 53.3192 57.0343 53.3092 56.9738 53.3042C56.9486 53.3042 56.9385 53.2841 56.9385 53.2541C56.9385 53.2441 56.9385 53.234 56.9435 53.229C56.9435 53.224 56.9435 53.214 56.9486 53.209C56.9536 53.209 56.9637 53.209 56.9889 53.214C57.0091 53.214 57.0343 53.219 57.0645 53.219C57.0948 53.219 57.125 53.224 57.1603 53.224C57.1956 53.224 57.2309 53.224 57.2612 53.224C57.3267 53.224 57.3822 53.224 57.4376 53.219C57.4931 53.214 57.5233 53.214 57.5334 53.209C57.5334 53.214 57.5334 53.224 57.5384 53.229C57.5384 53.234 57.5384 53.239 57.5384 53.2441C57.5384 53.2491 57.5384 53.2541 57.5384 53.2591C57.5384 53.2892 57.5284 53.3092 57.5082 53.3092C57.4477 53.3142 57.4023 53.3242 57.3721 53.3393C57.3418 53.3543 57.3217 53.3793 57.3065 53.4194L56.5806 55.1481C56.5755 55.1481 56.5705 55.1481 56.5654 55.1481C56.5604 55.1481 56.5553 55.1481 56.5503 55.1481C56.5301 55.1481 56.51 55.1331 56.4999 55.098L55.8092 53.3994C55.7991 53.3743 55.779 53.3543 55.7487 53.3393C55.7235 53.3242 55.6731 53.3142 55.6025 53.3042C55.5823 53.3042 55.5723 53.2841 55.5723 53.2541C55.5723 53.239 55.5723 53.224 55.5773 53.209C55.6378 53.214 55.6983 53.214 55.7689 53.219C55.8395 53.224 55.8949 53.224 55.9453 53.224C55.9957 53.224 56.0512 53.224 56.1218 53.219C56.1924 53.214 56.2579 53.214 56.3184 53.209C56.3234 53.229 56.3234 53.2441 56.3234 53.2541C56.3234 53.2841 56.3134 53.2992 56.2882 53.3042C56.1722 53.3142 56.1167 53.3493 56.1167 53.3994C56.1167 53.4144 56.1167 53.4244 56.1218 53.4395L56.6209 54.7072L57.1351 53.4545Z" fill="#005F7F"/>
<path d="M58.3753 54.4216H57.7249L57.5384 54.8926C57.5283 54.9177 57.5233 54.9327 57.5233 54.9527C57.5233 54.9928 57.5838 55.0229 57.6997 55.0379C57.7149 55.0379 57.725 55.0429 57.73 55.053C57.735 55.063 57.735 55.073 57.735 55.083C57.735 55.0931 57.735 55.1081 57.73 55.1281C57.6745 55.1231 57.6191 55.1231 57.5636 55.1181C57.5082 55.1131 57.4477 55.1131 57.3922 55.1131C57.3519 55.1131 57.3115 55.1131 57.2712 55.1181C57.2309 55.1181 57.1855 55.1231 57.1452 55.1281C57.1401 55.1131 57.1401 55.0981 57.1401 55.083C57.1401 55.068 57.1401 55.058 57.1452 55.048C57.1502 55.0379 57.1603 55.0329 57.1754 55.0279C57.2359 55.0179 57.2813 55.0079 57.3115 54.9928C57.3418 54.9778 57.362 54.9578 57.3771 54.9227L58.0829 53.2341C58.098 53.199 58.1131 53.184 58.1383 53.184C58.1484 53.184 58.1585 53.184 58.1736 53.189L58.8845 54.9277C58.8946 54.9528 58.9248 54.9778 58.9652 54.9928C59.0055 55.0079 59.0458 55.0179 59.0861 55.0229C59.0962 55.0279 59.1063 55.0329 59.1164 55.0379C59.1265 55.0429 59.1265 55.058 59.1265 55.073C59.1265 55.083 59.1265 55.0981 59.1214 55.1181C59.0609 55.1131 58.9954 55.1131 58.9349 55.1081C58.8744 55.1031 58.8189 55.1031 58.7635 55.1031C58.708 55.1031 58.6475 55.1031 58.577 55.1081C58.5064 55.1131 58.4408 55.1131 58.3854 55.1181C58.3803 55.0981 58.3803 55.083 58.3803 55.073C58.3803 55.053 58.3854 55.0429 58.3904 55.0379C58.3955 55.0329 58.4055 55.0279 58.4106 55.0279C58.461 55.0179 58.5013 55.0079 58.5316 54.9928C58.5618 54.9778 58.577 54.9628 58.577 54.9377C58.577 54.9277 58.5719 54.9127 58.5669 54.8926L58.3753 54.4216ZM58.3249 54.3014L58.0526 53.5898L57.7703 54.3014H58.3249Z" fill="#005F7F"/>
</g>
<defs>
<clipPath id="clip0_58_5916">
<rect width="62" height="56" fill="white"/>
</clipPath>
</defs>
</svg>
