<svg width="196" height="56" viewBox="0 0 196 56" fill="none" xmlns="http://www.w3.org/2000/svg">
<g clip-path="url(#clip0_58_5920)">
<path d="M2.9784 0C3.16396 0.00117974 3.3507 0.00235948 3.53625 0.00353923C4.18393 0.160445 4.69805 0.5474 5.18499 0.972107C5.6542 1.38148 6.10214 1.81562 6.5678 2.22853C6.91646 2.53763 7.30294 2.79599 7.70951 3.02368C7.94116 3.15227 8.1799 3.25845 8.44228 3.31508C8.77676 3.38586 9.07577 3.54395 9.36179 3.72799C9.83337 4.03118 10.2683 4.3851 10.7115 4.72605C10.8037 4.79683 10.8923 4.87587 10.9077 5.00211C10.9172 5.07407 10.9644 5.11182 11.0235 5.14014C11.0117 5.3867 11.1193 5.60495 11.1902 5.83264C11.2469 5.92113 11.2954 6.01669 11.3616 6.09691C11.5731 6.34819 11.735 6.34111 11.9407 6.07803C11.9608 6.05326 11.9761 6.02494 11.9974 6.00135C12.1392 5.84562 12.2728 5.83972 12.4359 5.98365C12.5399 6.07567 12.625 6.18539 12.69 6.30572C12.8235 6.55465 13.0316 6.69622 13.2951 6.77998C13.7277 6.91801 14.1555 7.06902 14.5893 7.20469C14.7548 7.25659 14.8611 7.35097 14.9226 7.51142C14.9911 7.68838 15.0632 7.86534 15.1531 8.03168C15.2677 8.24286 15.3563 8.28179 15.5608 8.17561C15.9036 7.99747 16.1718 8.09067 16.4082 8.35611C16.569 8.53661 16.7699 8.63453 17.0004 8.7006C17.2887 8.78318 17.5783 8.83037 17.8761 8.81149C18.1184 8.79616 18.3052 8.87402 18.4505 9.07222C18.6763 9.38013 18.9907 9.56535 19.3417 9.70692C19.8853 9.92517 20.455 10.0372 21.0271 10.134C21.8745 10.2779 22.7053 10.4631 23.4523 10.9197C23.6969 11.0695 23.9794 11.1427 24.2607 11.1875C24.5136 11.2276 24.6543 11.368 24.7323 11.5969C24.8316 11.8859 24.9391 12.1726 25.0348 12.4628C25.0904 12.6327 25.1932 12.7212 25.3752 12.7436C25.5431 12.7648 25.7097 12.7896 25.8787 12.7978C26.2167 12.8144 26.5536 12.8403 26.8916 12.8556C27.0961 12.8651 27.2509 12.9477 27.3762 13.1117C27.6315 13.4479 27.8986 13.7758 28.1562 14.1109C28.4269 14.4625 28.4257 14.4636 28.824 14.2749C29.1774 14.1074 29.3747 14.1498 29.6348 14.4471C29.8428 14.6842 29.9444 14.9697 30.026 15.2682C30.1489 15.7189 30.1524 15.7142 30.5897 15.5962C30.7197 15.5608 30.8698 15.503 30.9715 15.641C31.1086 15.8274 31.3083 15.8852 31.5116 15.9442C31.8343 16.0386 32.1274 16.1861 32.3058 16.4822C32.4146 16.6627 32.5599 16.7512 32.7573 16.7901C33.0918 16.855 33.3601 17.0225 33.5752 17.2927C33.7726 17.5404 33.9888 17.7728 34.2039 18.0052C34.3481 18.1609 34.503 18.3202 34.724 18.3462C35.0017 18.378 35.1613 18.5255 35.2511 18.7768C35.2901 18.8877 35.3504 19.0009 35.4887 18.9997C35.6908 18.9974 35.757 19.1366 35.8231 19.2841C36.0051 19.6911 36.2593 20.0544 36.5051 20.4237C36.5736 20.5275 36.6446 20.6113 36.784 20.5782C37.0889 20.5063 37.2532 20.6655 37.3809 20.918C37.6444 21.4395 37.9813 21.9102 38.3748 22.342C38.4647 22.4399 38.5344 22.5378 38.688 22.4894C38.779 22.4611 38.8452 22.5024 38.9043 22.5779C39.1005 22.8268 39.3192 23.0569 39.4976 23.3188C39.6312 23.5134 39.734 23.7234 39.7506 23.9594C39.7683 24.2213 39.8971 24.4159 40.072 24.5929C40.2056 24.7274 40.3427 24.8607 40.4762 24.9952C40.5661 25.086 40.6512 25.1804 40.6831 25.309C40.7575 25.6063 40.8592 25.8942 40.988 26.1726C41.0246 26.2504 41.0424 26.3342 41.0305 26.4191C41.0045 26.6185 41.0991 26.7648 41.2291 26.8969C41.3922 27.0621 41.5553 27.2284 41.7231 27.3889C41.9713 27.626 42.0777 27.9068 42.0139 28.2466C41.9749 28.453 42.0222 28.6441 42.1167 28.827C42.1805 28.9485 42.2479 29.0677 42.3105 29.1904C42.4535 29.47 42.5256 29.759 42.4571 30.0763C42.4193 30.2521 42.411 30.4338 42.4417 30.6119C42.4831 30.8455 42.4524 31.0744 42.4145 31.3033C42.3389 31.761 42.2538 32.2164 42.1805 32.6741C42.1415 32.9195 42.0623 33.1378 41.8851 33.3242C41.7846 33.4292 41.6924 33.5578 41.6428 33.6923C41.5612 33.9188 41.4088 34.0639 41.2043 34.1665C40.7859 34.3765 40.4692 34.688 40.221 35.082C40.0248 35.3923 39.7506 35.62 39.4125 35.7721C39.2104 35.863 38.9953 35.9444 38.8322 36.0942C38.3051 36.5814 37.6669 36.8186 36.9908 37.0262C35.8716 37.3719 34.7559 37.7329 33.6284 38.0538C33.4251 38.1116 33.2194 38.1682 33.0067 38.0868C32.8968 38.0443 32.8259 38.1092 32.7632 38.1859C32.3543 38.679 31.8023 38.8524 31.1901 38.8796C30.5235 38.9091 29.8664 39.0129 29.2093 39.1155C29.0296 39.1438 28.85 39.1627 28.6727 39.1309C28.22 39.0483 27.7686 39.0872 27.3147 39.1179C26.8502 39.1486 26.3928 39.2394 25.9295 39.2724C25.5891 39.296 25.2523 39.3255 24.9332 39.4364C24.5869 39.5568 24.2737 39.5296 23.9664 39.3314C23.7489 39.191 23.5138 39.1627 23.2703 39.263C22.989 39.3786 22.7337 39.368 22.5328 39.1061C22.4489 38.9964 22.3307 38.974 22.2231 39.0447C21.8957 39.2606 21.5317 39.1958 21.176 39.1969C20.9691 39.1981 20.78 39.1497 20.6217 39.0035C20.4574 38.8513 20.2588 38.797 20.0366 38.8171C19.9102 38.8289 19.7825 38.8241 19.6561 38.8348C19.37 38.8595 19.1112 38.7958 18.8796 38.6236C18.8122 38.574 18.7472 38.5174 18.6538 38.5209C18.3371 38.5316 18.0239 38.4561 17.7048 38.508C17.2639 38.5799 16.9011 38.4407 16.5973 38.1045C16.3125 37.7871 16.2995 37.7978 15.9142 37.9901C15.6211 38.1363 15.3315 38.1399 15.094 37.9016C14.7973 37.6043 14.4569 37.4651 14.0397 37.5028C14.0184 37.5052 13.9972 37.5016 13.9771 37.4969C13.6131 37.4073 13.3932 37.5913 13.2384 37.891C13.1758 38.0125 13.119 38.1375 13.067 38.2649C13.0257 38.364 12.9855 38.4678 12.9016 38.5316C12.6995 38.6861 12.5824 38.8914 12.4962 39.1226C12.4513 39.2418 12.3721 39.3432 12.2929 39.4423C12.1948 39.5662 12.0931 39.6901 12.0541 39.8481C12.0258 39.9626 11.9537 40.0357 11.8426 40.0605C11.618 40.1101 11.4845 40.2705 11.3568 40.4427C11.2505 40.5878 11.1488 40.7365 11.0271 40.8674C10.916 40.9866 10.9077 41.0763 11.046 41.1706C11.1074 41.2119 11.163 41.2615 11.2233 41.3028C11.7788 41.6874 12.3177 42.0991 12.937 42.3811C13.0635 42.4389 13.1592 42.5085 13.093 42.6701C13.0564 42.7598 13.0186 42.853 13.1368 42.9155C13.249 42.9745 13.3743 43.0641 13.4878 42.9615C13.6651 42.801 13.8187 42.8813 13.9771 42.9721C14.1697 43.083 14.3553 43.2033 14.5456 43.3166C15.0171 43.5974 15.4899 43.8781 15.9366 44.199C16.0359 44.271 16.1695 44.33 16.1695 44.4786C16.1683 44.6627 16.29 44.6603 16.4059 44.6344C16.5583 44.6013 16.7002 44.6131 16.8373 44.6804C17.4802 45.0013 18.1621 45.236 18.8039 45.5605C19.3795 45.8519 19.9267 46.194 20.5058 46.4759C20.9904 46.7119 21.4797 46.9372 21.943 47.2145C22.1144 47.3171 22.2964 47.4068 22.482 47.4811C24.0527 48.104 25.6305 48.7092 27.245 49.2141C29.2613 49.8441 31.2646 50.5118 33.2502 51.2327C33.6378 51.3731 34.0208 51.5311 34.3718 51.7482C34.7039 51.9523 35.0596 52.0656 35.4378 52.1281C36.4578 52.2968 37.4092 52.6731 38.3441 53.099C38.5533 53.1946 38.7708 53.2913 38.8949 53.5072C38.9315 53.7396 38.967 53.972 39.0036 54.2044C38.5202 54.4616 38.0368 54.7212 37.5522 54.9748C37.4459 55.0303 37.3454 55.0727 37.3667 55.2249C37.3832 55.337 37.2816 55.3594 37.2048 55.3865C36.5264 55.6189 35.842 55.8337 35.127 55.9257C34.2654 56.0366 33.4014 56.013 32.5375 55.9445C32.2337 55.921 31.9253 55.9339 31.6203 55.941C31.371 55.9469 31.1582 55.895 31.04 55.6496C30.9762 55.5187 30.8663 55.4903 30.7292 55.4762C30.3203 55.4373 29.9113 55.3889 29.5036 55.3346C28.8464 55.2473 28.2579 54.9618 27.6634 54.694C27.4825 54.5064 27.2497 54.4427 27.0015 54.4168C26.9861 54.4144 26.9708 54.4085 26.959 54.3991C26.8987 54.2894 26.8053 54.2622 26.6883 54.2894C26.6399 54.2847 26.5926 54.2776 26.563 54.2327C26.5548 54.1879 26.5264 54.1584 26.485 54.1419C26.1494 54.0098 25.8551 53.8033 25.5407 53.6323C25.4225 53.5674 25.328 53.4565 25.1779 53.4541V53.4553C25.1696 53.4164 25.1436 53.3975 25.1046 53.3963C25.0124 53.3456 24.9155 53.3019 24.828 53.2441C24.3529 52.9268 23.8506 52.6578 23.3317 52.4218C22.8968 52.2236 22.4796 52.0007 22.0908 51.7246C21.6416 51.4073 21.1689 51.1288 20.6689 50.8964C20.3226 50.736 20.0012 50.5331 19.7057 50.2912C19.3299 49.9833 18.9493 49.6801 18.5782 49.3675C18.2614 49.1009 17.9317 48.8673 17.5464 48.6986C17.2485 48.5676 16.959 48.3812 16.7994 48.0863C16.6269 47.7689 16.3704 47.5967 16.0324 47.5389C15.6707 47.4764 15.4013 47.2569 15.1164 47.0576C15.0727 47.0269 15.0254 46.9868 15.0313 46.9313C15.0609 46.6942 14.8836 46.6647 14.724 46.6057C14.1544 46.3945 13.632 46.1043 13.1781 45.6938C12.8886 45.4307 12.5943 45.1723 12.287 44.9317C11.8461 44.5872 11.449 44.1837 10.9562 43.91C10.6784 43.7555 10.3971 43.6104 10.1785 43.372C10.091 43.2765 9.99883 43.2788 9.89482 43.3307C9.77073 43.3933 9.66908 43.4853 9.56981 43.5809C9.44807 43.6977 9.33343 43.8227 9.20342 43.9301C9.04268 44.0634 8.92449 44.2203 8.88431 44.4244C8.86067 44.5459 8.80158 44.6379 8.70821 44.7134C8.47419 44.901 8.35009 45.1511 8.28745 45.4378C8.24609 45.6242 8.16808 45.794 8.0688 45.9604C7.6906 46.5951 7.32539 47.2381 6.94837 47.8728C6.55126 48.5417 6.27588 49.2531 6.12932 50.0187C6.03241 50.526 5.94613 51.0356 5.77594 51.5264C5.6672 51.8391 5.48519 52.0986 5.18735 52.2425C4.76897 52.4443 4.33639 52.6389 3.88373 52.7262C3.33415 52.8324 2.78694 52.9445 2.23972 53.0565C1.60623 53.1875 1.1512 52.9504 0.843907 52.3829C0.778903 52.2626 0.72099 52.1375 0.650077 52.0196C0.615802 51.9641 0.590982 51.8792 0.481067 51.9016C0.388879 52.0833 0.490522 52.2956 0.413699 52.4808C0.0437671 52.4171 -0.062603 52.2767 0.0224931 51.9499C0.067405 51.7777 0.1395 51.6114 0.20214 51.4438C0.290782 51.2067 0.395971 50.9684 0.373515 50.71C0.316784 50.0541 0.520069 49.4607 0.790722 48.8814C0.835634 48.7859 0.882909 48.6903 0.881728 48.5806C0.877 48.2644 0.893546 47.9494 0.837998 47.6344C0.741083 47.0835 0.645349 46.5326 0.668987 45.9687C0.679624 45.7256 0.667805 45.485 0.633531 45.2431C0.598074 44.9918 0.582709 44.7335 0.63944 44.4857C0.711535 44.1754 0.687898 43.8793 0.579164 43.5844C0.515341 43.4098 0.510614 43.2328 0.575618 43.0582C0.67726 42.7857 0.677261 42.5026 0.68317 42.2171C0.697353 41.4585 0.676079 40.6976 0.819087 39.9472C0.970369 39.1486 1.10392 38.3475 1.08265 37.53C1.08147 37.4674 1.09683 37.4037 1.0992 37.3412C1.13111 36.6569 1.29066 35.9821 1.25402 35.2932C1.23157 34.8791 1.28475 34.4721 1.41712 34.0769C1.47385 33.9081 1.45967 33.7465 1.38639 33.5849C1.28475 33.3643 1.19493 33.139 1.08974 32.9195C0.912457 32.5479 0.867545 32.1574 0.878182 31.7492C0.890001 31.3446 1.12638 31.249 1.45376 31.2313C1.53531 31.2266 1.61923 31.2561 1.70196 31.2738C1.82369 31.3009 1.89934 31.2608 1.94661 31.1405C2.06598 30.8408 2.11799 30.5353 2.08607 30.212C2.04234 29.7684 2.06007 29.3284 2.19008 28.8954C2.23736 28.735 2.25627 28.5651 2.27281 28.3976C2.34136 27.7051 2.39927 27.0114 2.46901 26.3189C2.49501 26.0664 2.55528 25.821 2.71011 25.6075C2.78457 25.5037 2.84012 25.3869 2.8153 25.2524C2.72666 24.7758 2.81412 24.3074 2.88149 23.8379C2.98904 23.097 3.1415 22.3632 3.1805 21.6129C3.19469 21.3297 3.23724 21.0466 3.30342 20.7682C3.42043 20.2821 3.48307 19.7961 3.36724 19.297C3.31524 19.0729 3.34006 18.8381 3.52798 18.6836C3.70408 18.5385 3.69935 18.391 3.6249 18.2105C3.52089 17.9604 3.50198 17.6985 3.52443 17.4331C3.5528 17.0968 3.54216 16.7582 3.58944 16.4232C3.63081 16.1318 3.69935 15.831 3.66626 15.5443C3.60953 15.057 3.64971 14.5863 3.72181 14.1074C3.77263 13.7617 3.79272 13.416 3.98064 13.1069C4.04092 13.0067 4.08465 12.8934 4.03265 12.7754C3.95228 12.5937 3.95819 12.4038 3.96883 12.2151C3.98537 11.906 3.95819 11.6028 3.86364 11.309C3.75018 10.9539 3.68044 10.5929 3.73363 10.2189C3.7549 10.0667 3.70408 9.96292 3.5658 9.88034C3.28806 9.714 3.11077 9.44973 3.06468 9.14182C2.98904 8.64397 2.81175 8.18623 2.6262 7.72613C2.53519 7.50198 2.47373 7.26603 2.39927 7.0348C2.40873 6.96048 2.41228 6.88851 2.339 6.83897C2.33073 6.82363 2.32718 6.80711 2.326 6.7906C2.34254 6.73279 2.33427 6.68324 2.28109 6.64785C2.27281 6.63251 2.26809 6.61481 2.2669 6.59712C2.2799 6.52161 2.28818 6.44729 2.21135 6.39538C2.20308 6.38123 2.19835 6.36471 2.19835 6.34819C2.21608 6.27033 2.22435 6.19483 2.14517 6.14292C2.1369 6.12876 2.13335 6.11224 2.13453 6.09573C2.14635 6.00017 2.17708 5.89989 2.07544 5.82911C2.06835 5.81731 2.06362 5.80433 2.06125 5.79017C2.07189 5.45395 1.98916 5.13306 1.89224 4.81453C1.74687 3.9545 1.63341 3.0921 1.65468 2.21556C1.66296 1.89938 1.6925 1.58793 1.75396 1.27766C1.89461 0.589871 2.27281 0.13921 2.9784 0ZM14.2158 21.5445C14.2158 21.3014 14.2087 21.0584 14.2182 20.8165C14.2241 20.6585 14.2489 20.5016 14.2725 20.3458C14.3293 19.9801 14.4085 19.6191 14.6153 19.3029C14.8517 18.9419 15.1507 18.8369 15.5419 19.0127C15.939 19.1909 16.3149 19.4079 16.5146 19.8291C16.6091 20.0285 16.7321 20.2161 16.8195 20.419C17.1114 21.0961 17.3986 21.7769 17.6788 22.4599C17.8714 22.9295 18.0156 23.4132 18.0416 23.9263C18.0676 24.4537 18.1397 24.9751 18.2437 25.493C18.46 26.5678 18.3926 27.6331 18.135 28.6913C18.057 29.0099 17.9636 29.3307 17.7154 29.5643C17.4542 29.8097 17.284 30.1082 17.1375 30.4255C16.8845 30.9718 16.6789 31.5369 16.485 32.1055C16.1955 32.9526 15.8681 33.7866 15.6329 34.6514C15.6034 34.7611 15.6164 34.8059 15.7227 34.8342C15.835 34.8637 15.9473 34.8956 16.056 34.9357C16.1683 34.977 16.2605 34.9593 16.3468 34.8779C16.5642 34.6703 16.8195 34.6797 17.089 34.741C17.3679 34.8048 17.6327 34.9109 17.9033 35.0006C18.1137 35.0702 18.3217 35.1469 18.5474 35.1563C18.9387 35.1728 19.3287 35.1952 19.7187 35.2188C20.0461 35.2389 20.3723 35.2684 20.6772 35.4052C20.8155 35.4678 20.9632 35.4772 21.1121 35.4748C22.1168 35.4548 23.119 35.4713 24.113 35.6471C24.2465 35.6707 24.3541 35.7061 24.4344 35.8181C24.5195 35.9385 24.6023 36.0718 24.7855 36.0352C24.9675 35.9998 24.9888 35.8417 25.0325 35.7025C25.0384 35.6825 25.0443 35.6624 25.0502 35.6424C25.0987 35.4595 25.2204 35.3533 25.4048 35.325C25.7688 35.2696 26.1222 35.2365 26.3503 35.6294C26.4318 35.771 26.4897 35.7603 26.6068 35.6105C26.7238 35.4607 26.875 35.3805 27.0535 35.3321C27.3549 35.2519 27.6575 35.233 27.9624 35.3061C28.0581 35.3286 28.155 35.3616 28.207 35.2436C28.3158 34.9994 28.5356 34.9369 28.7684 34.8873C29.162 34.8036 29.5579 34.741 29.9574 34.7045C30.4184 34.662 30.8486 34.5393 31.2244 34.255C31.4962 34.0497 31.8 33.9022 32.1132 33.7737C32.5434 33.5979 32.9819 33.4445 33.4263 33.3088C34.2548 33.0564 35.0845 32.8098 35.913 32.5585C36.3526 32.4252 36.7025 32.1668 36.9814 31.8035C37.3383 31.3375 37.5924 30.8184 37.7803 30.2663C37.8654 30.015 37.8513 29.7696 37.7354 29.5278C37.6267 29.2989 37.5227 29.0677 37.4199 28.8364C37.3454 28.6689 37.2331 28.5557 37.0358 28.5604C36.9117 28.5627 36.8147 28.5155 36.7273 28.4271C36.4011 28.0967 36.0548 27.7817 35.8196 27.3747C35.7239 27.2096 35.6104 27.1164 35.413 27.1765C35.2877 27.2143 35.1885 27.1683 35.0951 27.0869C34.8008 26.8285 34.4734 26.6138 34.1484 26.3967C33.8187 26.1773 33.5468 25.9001 33.3305 25.5686C33.2608 25.4624 33.1899 25.3586 33.1225 25.25C33.0705 25.1663 33.0043 25.1309 32.9098 25.1698C32.6876 25.2606 32.5552 25.1403 32.4264 24.981C32.1085 24.5858 31.7811 24.1989 31.462 23.806C31.3473 23.6644 31.2268 23.53 31.0448 23.4804C30.754 23.4014 30.5803 23.2268 30.4881 22.9342C30.4077 22.6794 30.3262 22.6522 30.0532 22.6864C29.4799 22.7584 29.1171 22.5602 28.8665 22.0376C28.8299 21.9621 28.7909 21.8866 28.7543 21.8111C28.7058 21.712 28.6302 21.64 28.5261 21.6023C28.1219 21.4571 27.7426 21.2247 27.284 21.2755C27.0913 21.2967 26.9661 21.1858 26.8999 21.0088C26.8739 20.9392 26.8467 20.8708 26.8278 20.7989C26.7876 20.6467 26.7037 20.5558 26.5347 20.583C26.225 20.6337 26.0335 20.5004 25.9295 20.2125C25.9047 20.1441 25.8551 20.0839 25.8267 20.0167C25.7487 19.8315 25.601 19.7453 25.4119 19.7159C25.3386 19.7041 25.2653 19.6958 25.192 19.6899C24.9557 19.6734 24.7689 19.6026 24.6885 19.3431C24.6141 19.1036 24.4274 18.9797 24.1815 18.916C23.8447 18.8287 23.5138 18.7178 23.1816 18.6104C22.82 18.4936 22.456 18.3839 22.1061 18.2317C21.9655 18.1704 21.8366 18.0949 21.8166 17.9262C21.774 17.5605 21.5849 17.2502 21.4348 16.9258C21.3473 16.737 21.3166 16.4786 21.137 16.3854C20.9821 16.3052 20.7777 16.4503 20.5933 16.4881C20.2293 16.5624 19.9243 16.4763 19.6773 16.1979C19.4953 15.9926 19.3145 15.7861 19.1325 15.5809C19.0486 15.4853 18.9729 15.3638 18.8476 15.3378C18.5687 15.28 18.4222 15.0842 18.2815 14.8671C18.2236 14.7786 18.1775 14.6005 18.0203 14.7916C17.9778 14.8435 17.8962 14.7928 17.8537 14.7468C17.804 14.6937 17.7603 14.6312 17.7284 14.5663C17.5984 14.3032 17.3868 14.1534 17.1126 14.059C16.7132 13.9233 16.3219 13.7617 15.926 13.6142C15.7405 13.5446 15.5915 13.4314 15.4994 13.2556C15.3658 13.0019 15.1554 12.8899 14.8753 12.9123C14.698 12.9264 14.568 12.8533 14.4664 12.7188C14.3387 12.5513 14.2158 12.379 14.087 12.2115C13.9842 12.077 13.8778 11.9355 13.7076 11.8871C13.392 11.7962 13.184 11.5839 13.0115 11.3208C12.9536 11.2335 12.8803 11.1556 12.8176 11.0707C12.7207 10.9397 12.6037 10.9138 12.4572 10.9869C12.3342 11.0483 12.2101 11.1061 12.0825 11.158C11.8461 11.2559 11.7622 11.2288 11.6641 10.9905C11.5873 10.8064 11.5365 10.6118 11.4774 10.4207C11.423 10.2449 11.3485 10.0774 11.1772 9.99124C10.8971 9.85085 10.708 9.63967 10.6075 9.34592C10.5969 9.31642 10.5827 9.28811 10.565 9.26098C10.4716 9.11587 10.416 9.10761 10.2967 9.22794C10.1608 9.36479 10.0898 9.54529 9.99292 9.70692C9.85937 9.92871 9.727 9.93107 9.59935 9.70456C9.49062 9.51226 9.41025 9.30463 9.31215 9.10643C9.18687 8.85632 9.10178 8.82683 8.92095 9.02975C8.73539 9.23738 8.5522 9.23148 8.32764 9.12767C8.12672 9.03447 7.9187 8.9566 7.71306 8.87284C7.55586 8.80795 7.43767 8.83273 7.3384 8.99082C7.21312 9.19255 7.04174 9.3471 6.79591 9.39783C6.66354 9.42496 6.65408 9.51698 6.6529 9.63495C6.64817 10.0951 6.56544 10.5563 6.70845 11.0105C6.72972 11.0778 6.71199 11.1568 6.71199 11.2311C6.71672 12.182 6.65172 13.1294 6.57017 14.0743C6.49689 14.9143 6.42125 15.7543 6.27942 16.5872C6.25106 16.7535 6.22505 16.9246 6.23806 17.0909C6.28888 17.7716 6.16241 18.437 6.0655 19.1024C6.00877 19.4882 5.93431 19.8716 5.93549 20.2633C5.93549 20.4025 5.92131 20.5346 5.8173 20.6455C5.72866 20.7399 5.73575 20.859 5.77121 20.9735C5.87876 21.3168 5.85867 21.6612 5.77239 22.0034C5.65657 22.4635 5.54901 22.9259 5.52892 23.4025C5.51592 23.7105 5.46628 24.0101 5.38946 24.3074C5.33864 24.5021 5.31382 24.7003 5.31027 24.902C5.30436 25.2465 5.23581 25.578 5.00298 25.8446C4.83752 26.0345 4.83633 26.2221 4.95452 26.4239C5.05498 26.5961 5.07389 26.7813 5.06562 26.9736C5.04671 27.4384 4.9557 27.895 4.90843 28.3563C4.8387 29.0488 4.61059 29.7165 4.58341 30.4161C4.57277 30.7016 4.52904 30.98 4.44395 31.2549C4.3884 31.4354 4.38603 31.6289 4.37894 31.8188C4.37421 31.9368 4.42149 32.0005 4.53259 32.0158C4.9427 32.0725 5.32209 32.2471 5.73102 32.3096C6.35979 32.4063 6.97201 32.5609 7.54404 32.8523C7.73315 32.949 7.94116 32.9997 8.14917 33.034C8.40091 33.0753 8.64793 33.1248 8.87249 33.2522C8.9635 33.3041 9.05568 33.3159 9.13605 33.2416C9.31215 33.0788 9.50126 33.1224 9.69981 33.1885C10.1099 33.3254 10.1111 33.3218 10.3617 32.962C10.5141 32.7437 10.6264 32.5054 10.7139 32.2565C10.7801 32.0678 10.8403 31.8766 10.9077 31.6879C10.9609 31.538 11.0093 31.3776 11.1311 31.2738C11.4017 31.0449 11.5317 30.737 11.657 30.422C11.7705 30.1377 11.8792 29.8522 11.9998 29.5714C12.0991 29.339 12.17 29.0913 12.3236 28.886C12.7231 28.3516 12.9417 27.7369 13.1261 27.1069C13.2738 26.6008 13.3944 26.0865 13.606 25.6016C13.7123 25.3574 13.7135 25.3586 13.9794 25.4305C14.1969 25.4895 14.217 25.4754 14.2099 25.2536C14.2075 25.1592 14.1993 25.0636 14.1886 24.9692C14.1591 24.7073 14.1236 24.4466 14.0953 24.1835C14.0681 23.9264 14.0728 23.6751 14.2678 23.471C14.3777 23.3554 14.3529 23.215 14.3257 23.0805C14.2241 22.5779 14.2005 22.0624 14.2158 21.5445ZM3.74072 37.0227C3.7549 37.4674 3.61426 37.8768 3.43579 38.2803C3.37315 38.423 3.38615 38.5929 3.47361 38.7392C3.58589 38.9268 3.57526 39.1226 3.50789 39.3184C3.44998 39.4871 3.38143 39.6535 3.31406 39.8198C3.20178 40.0983 3.10723 40.3908 3.18878 40.6822C3.31524 41.1411 3.25024 41.5753 3.13205 42.0189C3.03159 42.3964 2.94767 42.7822 3.00322 43.1738C3.07413 43.6811 3.07059 44.1813 2.94058 44.6792C2.9134 44.7854 2.89803 44.8951 2.94294 45.0603C3.1415 44.8113 3.26915 44.5848 3.39561 44.3583C3.814 43.6127 4.27848 42.8966 4.8056 42.2218C4.92379 42.0708 5.11408 41.9835 5.19917 41.8195C5.38473 41.4609 5.62347 41.1411 5.86576 40.8214C6.05486 40.5725 6.04895 40.3153 5.88349 40.057C5.82676 39.9685 5.7653 39.8824 5.70029 39.7998C5.52419 39.5744 5.328 39.368 5.1129 39.1804C4.58932 38.725 4.22293 38.1717 4.03619 37.5016C4.00192 37.3801 3.95464 37.2622 3.90382 37.1465C3.88018 37.0958 3.86364 37.0238 3.74072 37.0227ZM8.30873 36.2665C7.89152 36.5059 7.61023 36.2027 7.2923 36.0388C7.18948 35.9857 7.09374 35.9196 6.99447 35.8594C6.88573 35.7934 6.76754 35.7485 6.64226 35.7238C6.23806 35.6447 5.8303 35.5928 5.41782 35.6011C5.35518 35.6023 5.29136 35.6034 5.22872 35.6129C5.14953 35.6247 5.11999 35.6789 5.15308 35.7485C5.19799 35.8441 5.24881 35.9361 5.30436 36.0246C5.50056 36.3372 5.73221 36.6251 5.95677 36.9177C6.28415 37.3447 6.65526 37.7341 7.00865 38.1375C7.16348 38.3145 7.21548 38.3039 7.33012 38.108C7.6055 37.635 7.88325 37.1631 8.1539 36.6864C8.22009 36.572 8.31464 36.4646 8.30873 36.2665Z" fill="#606060"/>
<path d="M61.1253 28.1852C60.818 28.3079 60.7624 28.4813 60.6679 28.6146C59.2331 30.6497 57.8018 32.6883 56.3693 34.7257C56.1471 35.0418 55.9297 35.3616 55.6401 35.6235C55.4274 35.8158 55.2099 35.824 55.0208 35.6093C54.8506 35.417 54.7041 35.2047 54.5563 34.9947C53.0376 32.8346 51.52 30.6733 50.0013 28.5132C49.941 28.427 49.8689 28.3492 49.785 28.2454C49.6219 28.3916 49.6763 28.571 49.6716 28.7231C49.6113 30.5046 49.6716 32.286 49.6763 34.0674C49.681 35.87 49.6822 37.6739 49.6858 39.4765C49.6858 39.7349 49.6976 39.9956 49.5475 40.2233C49.4742 40.3342 49.3737 40.4227 49.2295 40.3955C49.1173 40.3743 49.0558 40.2823 49.0109 40.1784C48.9412 40.0156 48.9388 39.8446 48.9388 39.6723C48.9388 35.6364 48.9388 31.6017 48.9388 27.5658C48.9388 27.5009 48.9353 27.4361 48.9412 27.3723C48.9873 26.8721 49.3241 26.7129 49.7413 27.0007C49.9564 27.1494 50.103 27.3653 50.2507 27.5764C51.6406 29.5643 53.0293 31.5545 54.4228 33.54C54.7277 33.9742 54.9972 34.4378 55.4002 34.7988C55.6366 34.6254 55.7524 34.3906 55.899 34.1842C57.5394 31.8731 59.1763 29.5608 60.8156 27.2485C60.8653 27.1789 60.909 27.1022 60.9716 27.0456C61.1631 26.8698 61.4054 26.8367 61.637 26.904C61.8888 26.9771 61.806 27.2225 61.8072 27.4018C61.8131 29.1832 61.812 30.9647 61.8131 32.7472C61.8143 34.9793 61.8167 37.2126 61.8179 39.4446C61.8179 39.6582 61.8427 39.8741 61.767 40.0829C61.7115 40.2374 61.6169 40.3448 61.4432 40.346C61.2352 40.3471 61.1241 40.2186 61.0993 40.031C61.0768 39.8623 61.0886 39.6889 61.0898 39.5178C61.1016 36.2546 61.1135 32.9926 61.1253 29.7295C61.1265 29.2411 61.1253 28.7503 61.1253 28.1852Z" fill="#606060"/>
<path d="M156.29 28.2218C156.123 28.4436 155.949 28.6618 155.79 28.8895C154.433 30.8219 153.08 32.7567 151.722 34.6891C151.524 34.9699 151.329 35.2554 151.101 35.5102C150.751 35.9019 150.573 35.8925 150.232 35.4536C149.89 35.0135 149.576 34.5499 149.253 34.0957C147.956 32.2777 146.66 30.4597 145.362 28.6429C145.292 28.545 145.212 28.4554 145.042 28.2418C145.023 28.6429 145.004 28.8907 145.001 29.1373C144.958 32.5502 144.981 35.9621 145.027 39.3751C145.03 39.5898 145.039 39.8033 144.98 40.0133C144.923 40.2139 144.837 40.3885 144.597 40.3696C144.362 40.3507 144.276 40.1867 144.279 39.9649C144.28 39.9 144.277 39.8363 144.277 39.7715C144.28 35.7143 144.283 31.6584 144.286 27.6012C144.286 27.5588 144.283 27.5151 144.289 27.4726C144.319 27.2733 144.217 27.0232 144.488 26.9146C144.748 26.8108 145.086 26.9229 145.27 27.1836C146.024 28.2536 146.771 29.3307 147.525 30.4008C148.415 31.6643 149.311 32.9242 150.205 34.1854C150.366 34.4119 150.508 34.6537 150.763 34.8496C150.918 34.7788 150.985 34.6136 151.076 34.4838C152.753 32.0949 154.428 29.7035 156.1 27.311C156.214 27.1494 156.331 27.0055 156.525 26.9359C156.946 26.7848 157.125 26.8898 157.144 27.3417C157.168 27.9209 157.172 28.5002 157.175 29.0794C157.184 32.5786 157.214 36.0765 157.124 39.5756C157.119 39.7679 157.113 39.9637 157.073 40.1501C157.038 40.3118 156.894 40.3944 156.732 40.3908C156.587 40.3873 156.491 40.274 156.473 40.1431C156.439 39.8894 156.416 39.6311 156.417 39.3751C156.429 36.8422 156.448 34.3092 156.461 31.7763C156.467 30.6037 156.462 29.431 156.462 28.2583C156.404 28.2465 156.346 28.2336 156.29 28.2218Z" fill="#606060"/>
<path d="M142.536 33.5967C142.523 37.399 139.346 40.5642 135.549 40.5572C131.696 40.5501 128.577 37.4309 128.584 33.5931C128.591 29.7566 131.794 26.6669 135.756 26.674C139.457 26.681 142.549 29.838 142.536 33.5967ZM135.615 39.906C138.952 39.9661 141.767 37.1418 141.803 33.4941C141.834 30.4137 139.243 27.3606 135.49 27.3275C132.14 27.298 129.356 30.1235 129.344 33.4893C129.332 37.0179 132.15 39.9012 135.615 39.906Z" fill="#606060"/>
<path d="M167.196 33.579C167.209 29.4535 170.584 26.7212 174.302 26.6893C178.04 26.6575 181.137 29.7956 181.143 33.546C181.149 37.3778 177.946 40.5784 174.134 40.5525C170.253 40.5265 167.179 37.4356 167.196 33.579ZM174.18 39.9083C177.643 39.9024 180.402 37.1123 180.4 33.6109C180.399 30.4397 177.933 27.3394 174.265 27.3523C169.916 27.3677 167.963 30.6155 167.948 33.5165C167.928 37.0805 170.924 39.9886 174.18 39.9083Z" fill="#606060"/>
<path d="M113.477 33.5578C113.479 37.3648 110.311 40.5536 106.526 40.556C102.673 40.5572 99.5223 37.4898 99.5436 33.7017C99.5684 29.3355 102.955 26.7212 106.657 26.6893C110.384 26.6551 113.475 29.7944 113.477 33.5578ZM106.581 39.9036C109.536 40.0121 112.728 37.3683 112.748 33.7418C112.767 30.4397 110.259 27.3122 106.545 27.3346C102.879 27.357 100.275 30.2167 100.282 33.4421C100.293 37.0286 103.066 39.8953 106.581 39.9036Z" fill="#606060"/>
<path d="M123.705 35.6837C123.779 35.9633 123.977 36.1379 124.137 36.3325C124.98 37.3624 125.831 38.3865 126.68 39.4117C126.776 39.5273 126.877 39.6382 126.966 39.7597C127.075 39.9083 127.272 40.0534 127.084 40.2587C126.888 40.4734 126.648 40.4097 126.437 40.2835C126.331 40.221 126.256 40.103 126.174 40.0051C125.067 38.6637 123.958 37.3235 122.855 35.9786C122.668 35.7497 122.443 35.535 122.409 35.1799C122.691 35.0148 123.011 35.0018 123.326 35.0077C125.582 35.0525 126.913 33.1295 126.881 31.2549C126.847 29.1573 125.405 27.6072 123.316 27.5387C122.264 27.5045 121.21 27.5611 120.156 27.5552C119.844 27.5529 119.732 27.6779 119.726 27.9658C119.714 28.5238 119.675 29.0807 119.679 29.6387C119.7 32.4925 119.732 35.3474 119.758 38.2012C119.761 38.6519 119.754 39.1026 119.744 39.5532C119.74 39.7243 119.72 39.8953 119.692 40.0641C119.66 40.2552 119.531 40.3767 119.343 40.3873C119.11 40.4015 119.067 40.208 119.051 40.0381C119.019 39.6972 118.995 39.3538 118.995 39.0105C118.991 36.2417 118.989 33.474 118.991 30.7052C118.991 29.654 118.991 28.6017 119.008 27.5505C119.019 26.9123 119.041 26.8922 119.668 26.8793C121.044 26.8498 122.419 26.8368 123.794 26.9335C126.673 27.1376 128.822 30.54 126.948 33.5755C126.324 34.5877 125.42 35.2424 124.262 35.5409C124.081 35.5881 123.897 35.6353 123.705 35.6837Z" fill="#606060"/>
<path d="M81.2943 35.7403C81.4043 36.0128 81.6075 36.2063 81.7825 36.4163C82.7008 37.5241 83.6238 38.6271 84.5374 39.7384C84.6474 39.8729 84.8707 39.998 84.7112 40.2257C84.5327 40.4817 84.2881 40.3967 84.0753 40.2917C83.9465 40.2292 83.8354 40.1112 83.742 39.9968C82.5873 38.5835 81.4385 37.1654 80.2874 35.7497C80.2472 35.7002 80.2035 35.6506 80.168 35.5975C79.9517 35.2743 79.9931 35.1504 80.3796 35.0737C80.6313 35.0242 80.8913 35.0159 81.149 35.0006C83.1641 34.8708 84.6958 33.0269 84.4843 31.0131C84.2514 28.7893 82.6086 27.5411 80.7861 27.521C79.7756 27.5092 78.7663 27.4856 77.7558 27.5033C77.4189 27.5092 77.3173 27.6355 77.3185 27.9611C77.3267 29.6776 77.3102 31.3941 77.3149 33.1106C77.3208 35.0631 77.3421 37.0156 77.3492 38.9692C77.3504 39.3538 77.3669 39.742 77.2558 40.1195C77.1967 40.3177 77.0655 40.405 76.8705 40.3755C76.6944 40.3495 76.6294 40.2162 76.6259 40.0475C76.6235 39.9189 76.6152 39.7903 76.6152 39.6618C76.6152 35.6058 76.6152 31.5498 76.6188 27.4951C76.6188 26.9382 76.6649 26.8781 77.1896 26.8757C78.4153 26.8675 79.6409 26.8498 80.8653 26.8899C82.0354 26.9288 83.1085 27.2638 83.9465 28.1463C85.1048 29.3661 85.5231 30.8054 85.0504 32.4158C84.5776 34.0261 83.5151 35.1138 81.8475 35.548C81.669 35.594 81.4787 35.6129 81.2943 35.7403Z" fill="#606060"/>
<path d="M93.6295 39.8965C95.0005 39.8446 96.5428 39.2052 97.7755 37.8685C97.8914 37.7435 97.9812 37.5925 98.1537 37.5288C98.2885 37.4792 98.4138 37.5028 98.5166 37.5866C98.6478 37.6928 98.571 37.8178 98.5142 37.9334C98.409 38.1493 98.2495 38.3251 98.0781 38.4879C96.0949 40.3802 93.7559 41.0243 91.1274 40.2575C88.5012 39.4907 86.784 37.7411 86.2663 35.0265C85.4047 30.5058 88.5792 27.1105 92.4748 26.7282C94.6553 26.5147 96.5487 27.1529 98.1218 28.6878C98.2897 28.8518 98.4338 29.0417 98.5816 29.2246C98.734 29.4133 98.6773 29.5738 98.5107 29.7271C98.3251 29.8982 98.1667 29.864 98.0131 29.6941C97.941 29.6151 97.8748 29.5301 97.8051 29.4487C96.1363 27.5139 93.4014 26.8179 90.9312 27.7003C88.5225 28.5616 86.8962 30.8467 86.8608 33.4185C86.8135 37.025 89.6441 39.9201 93.6295 39.8965Z" fill="#606060"/>
<path d="M69.1811 35.6801C68.3206 35.6801 67.459 35.7108 66.6022 35.6683C66.1223 35.6447 65.9309 35.8524 65.7725 36.2605C65.3056 37.4592 64.8033 38.6424 64.3105 39.8304C64.2455 39.9874 64.1687 40.1466 64.0647 40.2787C63.9606 40.4097 63.7964 40.4085 63.651 40.3377C63.5056 40.267 63.5163 40.1325 63.5541 40.0039C63.6214 39.7785 63.6805 39.5485 63.7692 39.3314C65.3966 35.3887 67.0288 31.4484 68.6598 27.5069C68.6929 27.4278 68.7331 27.3511 68.7639 27.2709C68.8442 27.0621 68.9364 26.8993 69.2118 26.8875C69.5344 26.8733 69.6006 27.0916 69.6916 27.311C70.8132 30.0244 71.9337 32.739 73.0577 35.4524C73.599 36.7596 74.1521 38.0608 74.6958 39.3668C74.769 39.5438 74.8364 39.7266 74.8766 39.9142C74.9073 40.057 74.925 40.2268 74.7667 40.3189C74.5752 40.4298 74.3885 40.3684 74.2301 40.2422C74.0705 40.1159 74.0363 39.913 73.9654 39.7361C73.4973 38.5622 73.0175 37.3919 72.5719 36.2086C72.4194 35.8052 72.2043 35.653 71.7623 35.673C70.9043 35.712 70.0427 35.6848 69.1822 35.6848C69.1811 35.6825 69.1811 35.6813 69.1811 35.6801ZM71.9951 35.0537C71.4467 33.1979 69.4694 28.4518 69.0983 28.1014C68.18 30.4067 67.2652 32.7048 66.3303 35.0537C68.2604 35.0537 70.0994 35.0537 71.9951 35.0537Z" fill="#606060"/>
<path d="M159.534 33.6687C159.534 31.7587 159.534 29.8487 159.534 27.9375C159.534 27.7877 159.528 27.6367 159.539 27.4868C159.569 27.0421 159.627 26.9736 160.085 26.963C161.03 26.9406 161.977 26.9253 162.922 26.9265C163.739 26.9265 164.556 26.9477 165.372 26.9701C165.55 26.9748 165.804 26.9099 165.823 27.2002C165.842 27.4998 165.628 27.6178 165.367 27.6249C165.001 27.6355 164.636 27.6119 164.271 27.6119C163.088 27.6095 161.905 27.619 160.723 27.606C160.393 27.6024 160.274 27.711 160.275 28.0484C160.286 30.238 160.284 32.4264 160.273 34.616C160.27 34.9581 160.4 35.0561 160.726 35.049C161.866 35.0242 163.005 35.0183 164.146 35.0136C164.402 35.0124 164.661 35.0407 164.916 35.069C165.077 35.0867 165.216 35.1575 165.182 35.3557C165.156 35.5055 165.102 35.6565 164.916 35.6731C164.767 35.6872 164.616 35.6825 164.465 35.6825C163.239 35.6837 162.013 35.6813 160.788 35.6872C160.306 35.6896 160.299 35.6967 160.295 36.1874C160.288 37.2173 160.286 38.2484 160.289 39.2784C160.29 39.7349 160.3 39.7444 160.748 39.7455C162.253 39.7503 163.758 39.7479 165.264 39.7479C165.414 39.7479 165.565 39.7467 165.715 39.7491C165.875 39.7526 166.032 39.7868 166.035 39.9815C166.039 40.1643 165.96 40.3224 165.759 40.3637C165.634 40.3897 165.502 40.3968 165.375 40.3991C163.655 40.431 161.934 40.4392 160.215 40.3861C159.581 40.3661 159.555 40.3496 159.552 39.7231C159.54 37.7058 159.547 35.6884 159.547 33.671C159.543 33.6687 159.539 33.6687 159.534 33.6687Z" fill="#606060"/>
<path d="M96.205 49.535C95.8552 49.6306 95.5739 49.5786 95.3943 49.3297C95.1023 48.9251 94.8199 49.0147 94.4357 49.2082C93.2314 49.8146 91.9762 49.7969 90.7163 49.3875C90.3086 49.2554 89.9422 49.0348 89.6491 48.7127C89.0688 48.0745 89.1066 47.3596 89.7507 46.7886C90.019 46.5514 90.3287 46.3839 90.6596 46.2494C90.9858 46.1161 91.3297 46.0205 91.6453 45.7846C91.5673 45.4696 91.2754 45.3245 91.0827 45.1074C90.4752 44.4232 90.5863 43.8014 91.4137 43.4204C92.1121 43.0983 92.8331 43.0759 93.5434 43.3838C94.4925 43.7944 94.6059 44.5895 93.8235 45.2549C93.495 45.5345 93.0884 45.6761 92.6546 45.9262C93.352 46.7107 94.0871 47.4209 94.8754 48.1181C95.1165 47.8197 95.1803 47.5283 95.2158 47.2227C95.2347 47.0587 95.2796 46.8983 95.2997 46.7343C95.3257 46.5208 95.4557 46.4629 95.6472 46.4806C95.8623 46.5019 95.9143 46.6482 95.9096 46.8298C95.8954 47.2605 95.7725 47.6627 95.5916 48.0521C95.347 48.5782 95.3505 48.5794 95.7748 48.9876C95.9261 49.1339 96.1046 49.2554 96.205 49.535ZM92.4135 49.2424C93.0624 49.2566 93.6817 49.1528 94.249 48.8106C94.5268 48.6431 94.535 48.4933 94.2998 48.2715C93.7845 47.7854 93.2822 47.2864 92.7835 46.7838C92.0235 46.0194 92.0235 46.0123 91.0496 46.5042C90.8192 46.6199 90.5911 46.7532 90.3901 46.9148C89.6042 47.5471 89.6503 48.2514 90.5142 48.7859C91.0922 49.1457 91.741 49.253 92.4135 49.2424ZM92.5104 43.5926C92.2575 43.5879 92.0271 43.6115 91.8049 43.7118C91.3829 43.9041 91.2175 44.186 91.3392 44.5282C91.4822 44.9293 92.1949 45.5722 92.4348 45.4897C92.8378 45.3516 93.2231 45.1617 93.5233 44.8526C93.8921 44.4727 93.8306 44.0645 93.3756 43.8038C93.1073 43.6481 92.8095 43.5749 92.5104 43.5926Z" fill="#606060"/>
<path d="M177.25 51.6644C176.828 51.5488 176.459 51.3518 176.228 50.9625C176.147 50.8245 176.013 50.6369 176.18 50.5236C176.366 50.3974 176.603 50.4363 176.705 50.6793C176.793 50.8905 176.936 51.0368 177.128 51.1347C177.755 51.4556 178.406 51.4627 179.039 51.1784C179.527 50.9589 179.83 49.9326 179.571 49.502C179.468 49.3321 179.33 49.4099 179.203 49.4559C178.54 49.7013 177.874 49.7509 177.192 49.5338C176.401 49.2825 176.108 48.9439 176.071 48.1087C176.045 47.4976 176.081 46.8841 176.095 46.2718C176.109 45.6525 176.442 45.2832 177.012 45.0685C177.681 44.816 178.348 44.7818 179.019 45.0166C179.267 45.1039 179.466 45.1688 179.736 45.0071C180.012 44.842 180.161 44.96 180.172 45.3056C180.232 47.0493 180.285 48.7941 180.144 50.5354C180.083 51.2857 179.501 51.5122 178.885 51.6774M176.633 47.2498C176.628 47.2498 176.624 47.2498 176.62 47.2498C176.62 47.5802 176.614 47.9105 176.621 48.2396C176.629 48.603 176.805 48.8743 177.133 49.0253C177.74 49.3073 178.365 49.3226 178.988 49.0796C179.319 48.951 179.544 48.7174 179.56 48.3423C179.589 47.73 179.638 47.1165 179.619 46.5054C179.597 45.7787 179.273 45.4342 178.558 45.3162C178.161 45.2513 177.764 45.2655 177.369 45.4C176.909 45.5557 176.66 45.853 176.635 46.3296C176.62 46.6364 176.633 46.9443 176.633 47.2498Z" fill="#606060"/>
<path d="M67.4163 45.1051C67.6787 45.1747 67.8631 45.039 68.0604 44.9753C68.6715 44.7783 69.2801 44.8432 69.8746 45.0225C70.41 45.1841 70.7752 45.5392 70.8497 46.1197C70.9868 47.1767 70.9017 48.2373 70.9017 49.2967C70.9017 49.4961 70.7823 49.5905 70.5814 49.5857C70.3533 49.581 70.3167 49.4253 70.3143 49.2483C70.3084 48.8248 70.3025 48.4001 70.3037 47.9766C70.3048 47.4575 70.3533 46.936 70.3096 46.4217C70.2434 45.6655 69.8746 45.3387 69.1111 45.2938C68.8535 45.2785 68.5864 45.2832 68.3358 45.3351C67.6669 45.472 67.3986 45.7551 67.3714 46.4465C67.3418 47.1991 67.3844 47.9542 67.3915 48.7092C67.3927 48.898 67.382 49.0867 67.369 49.2743C67.356 49.4607 67.2768 49.5846 67.0641 49.5822C66.849 49.5799 66.7745 49.4642 66.784 49.2672C66.7887 49.1728 66.784 49.0785 66.784 48.9841C66.7875 47.1437 66.7911 45.3045 66.7946 43.4641C66.7946 43.3461 66.7958 43.2281 66.8005 43.1101C66.8076 42.945 66.8868 42.8518 67.0617 42.8506C67.226 42.8494 67.3371 42.9155 67.3489 43.0877C67.3619 43.2753 67.356 43.4652 67.3655 43.6528C67.3868 44.1401 67.3217 44.632 67.4163 45.1051Z" fill="#606060"/>
<path d="M52.9878 47.6934C52.9878 48.1889 53.0091 48.6856 52.9819 49.1799C52.9571 49.6282 52.8295 49.7238 52.4654 49.502C52.2196 49.3533 52.0778 49.456 51.8863 49.5197C51.2375 49.7379 50.5839 49.7403 49.935 49.522C49.6183 49.4159 49.3263 49.2578 49.1124 48.9888C48.6432 48.4001 48.8205 47.6215 49.5308 47.3784C50.1986 47.1496 50.8983 47.0115 51.5838 46.8334C51.6299 46.8216 51.6807 46.8251 51.722 46.8063C51.9537 46.6989 52.3496 46.8346 52.3662 46.4087C52.3815 46.0123 52.2681 45.6607 51.8887 45.4496C51.2268 45.0803 50.1749 45.2761 49.6951 45.8613C49.6502 45.9156 49.6183 45.9805 49.5781 46.0383C49.467 46.1987 49.3027 46.24 49.1432 46.1574C48.9304 46.0465 49.0356 45.8637 49.1195 45.7339C49.22 45.5782 49.3488 45.4307 49.4942 45.3151C50.2435 44.724 51.5755 44.6839 52.3756 45.2101C52.7373 45.4472 52.9512 45.7681 52.9583 46.2046C52.9654 46.7001 52.9595 47.1956 52.9595 47.6911C52.9713 47.6934 52.9796 47.6934 52.9878 47.6934ZM52.4264 47.8315C52.4264 47.7371 52.4312 47.6439 52.4253 47.5495C52.3993 47.1213 52.3709 47.0812 51.9773 47.1649C51.2895 47.3112 50.6004 47.4551 49.9338 47.6923C49.1881 47.9577 49.3311 48.6066 49.7873 48.9239C50.1726 49.1929 50.6075 49.2542 51.0637 49.2342C52.0281 49.1964 52.4253 48.7894 52.4264 47.8315Z" fill="#606060"/>
<path d="M53.9333 47.2958C53.9333 46.9903 53.9251 46.6835 53.9345 46.378C53.9558 45.7126 54.2938 45.2844 54.9214 45.0638C55.6885 44.7948 56.4472 44.8125 57.2013 45.1027C57.4696 45.2065 57.7048 45.361 57.8738 45.5994C58.1905 46.0477 58.096 46.5432 57.6078 46.7909C57.3183 46.9384 56.9909 47.0221 56.673 47.1035C56.1033 47.2498 55.5313 47.3937 54.9521 47.5011C54.5893 47.5684 54.5007 47.7665 54.5172 48.0957C54.5491 48.7221 54.7997 49.0831 55.419 49.1799C56.1742 49.2979 56.9448 49.3533 57.4258 48.5534C57.492 48.4437 57.5771 48.3741 57.7012 48.3611C57.7934 48.3517 57.8939 48.3364 57.9683 48.4119C58.0475 48.4921 58.0156 48.5865 57.979 48.6702C57.8395 48.9852 57.6008 49.2153 57.2982 49.3627C56.4933 49.7532 55.6672 49.7945 54.8363 49.443C54.2335 49.1881 53.9121 48.7363 53.9168 48.0709C53.918 47.8126 53.9168 47.553 53.9168 47.2947C53.9227 47.2958 53.9286 47.2958 53.9333 47.2958ZM54.5137 46.5939C54.5077 47.1271 54.5562 47.1861 55.068 47.074C55.7085 46.9336 56.3432 46.7661 56.9743 46.5903C57.1954 46.529 57.4365 46.4382 57.453 46.1456C57.4684 45.8801 57.3041 45.7103 57.1008 45.5781C56.6659 45.2962 56.1801 45.2466 55.6802 45.2997C54.8694 45.3846 54.5219 45.7751 54.5137 46.5939Z" fill="#606060"/>
<path d="M105.011 49.6754C104.722 49.6848 104.354 49.6023 104.002 49.4595C103.422 49.2259 103.085 48.8071 103.073 48.1689C103.061 47.5566 103.06 46.9443 103.072 46.332C103.082 45.7539 103.374 45.3493 103.904 45.1287C104.752 44.7736 105.606 44.7901 106.45 45.1464C106.69 45.2478 106.898 45.4059 107.041 45.636C107.289 46.0347 107.227 46.4052 106.85 46.6871C106.543 46.9183 106.18 47.0316 105.814 47.1236C105.242 47.2664 104.671 47.4186 104.091 47.5165C103.711 47.5814 103.643 47.7878 103.666 48.1099C103.715 48.7528 104.014 49.1221 104.663 49.1976C105.399 49.2837 106.147 49.3168 106.59 48.5263C106.653 48.4143 106.759 48.3683 106.882 48.3576C107.095 48.3376 107.214 48.4178 107.13 48.6408C107.018 48.9381 106.805 49.1563 106.531 49.3144C106.088 49.5692 105.609 49.673 105.011 49.6754ZM105.152 45.2809C104.068 45.2714 103.515 45.8412 103.637 46.8204C103.667 47.067 103.771 47.1519 104.003 47.1071C104.763 46.9608 105.523 46.8027 106.248 46.529C106.671 46.3698 106.718 46.0194 106.383 45.7103C106.041 45.3918 105.612 45.282 105.152 45.2809Z" fill="#606060"/>
<path d="M181.336 47.2381C181.336 46.9077 181.334 46.5774 181.336 46.2483C181.341 45.7115 181.634 45.3505 182.099 45.1523C182.99 44.7712 183.891 44.7842 184.776 45.1924C184.95 45.2726 185.097 45.3894 185.215 45.5416C185.587 46.0182 185.471 46.5633 184.914 46.8287C184.64 46.9596 184.336 47.0352 184.041 47.1095C183.469 47.2534 182.892 47.382 182.317 47.5129C182.156 47.5495 181.995 47.5696 181.935 47.7678C181.747 48.3777 182.124 49.0867 182.769 49.1799C183.543 49.292 184.35 49.3781 184.829 48.5157C184.893 48.4001 185.004 48.3659 185.126 48.3553C185.351 48.3364 185.444 48.4461 185.363 48.6514C185.228 48.9971 184.968 49.2377 184.636 49.3911C183.74 49.8028 182.849 49.7674 181.976 49.3203C181.592 49.1233 181.388 48.7977 181.326 48.3671C181.27 47.9896 181.325 47.6144 181.336 47.2381ZM183.346 45.2797C182.293 45.2856 181.803 45.8011 181.881 46.7968C181.9 47.0304 181.968 47.1508 182.219 47.1036C182.979 46.9608 183.74 46.8134 184.461 46.5314C184.916 46.3533 184.964 45.9982 184.588 45.6749C184.236 45.3717 183.805 45.2679 183.346 45.2797Z" fill="#606060"/>
<path d="M155.078 47.198C155.078 46.8912 155.081 46.5845 155.078 46.2777C155.075 45.7775 155.306 45.4213 155.747 45.1983C156.68 44.7276 157.611 44.7476 158.534 45.2219C158.747 45.3316 158.928 45.485 159.048 45.6961C159.262 46.0689 159.191 46.4347 158.845 46.6942C158.536 46.9254 158.168 47.0281 157.801 47.1177C157.32 47.2357 156.827 47.3112 156.35 47.4398C156.099 47.507 155.721 47.4327 155.677 47.8256C155.636 48.1984 155.625 48.5806 155.939 48.8826C156.417 49.3427 158.027 49.4548 158.455 48.7127C158.587 48.4827 158.728 48.2373 159.053 48.3742C159.228 48.4485 159.117 48.7989 158.819 49.0926C158.447 49.4595 157.973 49.5975 157.473 49.6589C157.07 49.7084 156.671 49.6577 156.28 49.5445C155.355 49.2778 155.05 48.872 155.056 47.907C155.057 47.671 155.056 47.4351 155.056 47.1991C155.064 47.1979 155.071 47.198 155.078 47.198ZM157.136 45.2879C156.017 45.2809 155.477 45.8566 155.633 46.844C155.666 47.0493 155.745 47.1425 155.952 47.1047C156.714 46.9644 157.482 46.8263 158.197 46.5243C158.736 46.2966 158.746 45.9109 158.248 45.597C157.904 45.38 157.52 45.2738 157.136 45.2879Z" fill="#606060"/>
<path d="M71.8651 47.2746C71.8651 46.9207 71.8556 46.5668 71.8674 46.214C71.8816 45.7763 72.0967 45.4436 72.4808 45.2431C73.4512 44.7358 74.431 44.7582 75.4001 45.2502C75.523 45.3127 75.6353 45.413 75.7263 45.5191C76.1199 45.9769 76.0218 46.5491 75.4793 46.8133C75.1862 46.9561 74.8576 47.0339 74.5385 47.1165C73.9665 47.264 73.3944 47.4091 72.8153 47.5235C72.5128 47.5825 72.4418 47.7524 72.4383 48.019C72.4324 48.6903 72.7361 49.0914 73.4122 49.1999C74.1615 49.3203 74.8907 49.3238 75.3481 48.5464C75.393 48.4709 75.4722 48.4001 75.5526 48.3635C75.6625 48.314 75.7972 48.3257 75.8847 48.4119C75.9544 48.4791 75.9355 48.5888 75.8941 48.6785C75.7381 49.0147 75.4828 49.2518 75.1472 49.4017C74.3246 49.7709 73.4996 49.7674 72.6759 49.4017C72.1239 49.1563 71.8343 48.7363 71.8414 48.1252C71.845 47.8421 71.8414 47.5589 71.8414 47.2758C71.8509 47.2746 71.858 47.2746 71.8651 47.2746ZM73.8991 45.2891C72.8449 45.2832 72.2965 45.8424 72.4052 46.785C72.4371 47.0622 72.5529 47.1625 72.8177 47.1012C73.2302 47.0056 73.6426 46.9101 74.0539 46.8133C74.3967 46.7319 74.7489 46.6706 75.0609 46.4972C75.5077 46.2482 75.5254 45.9309 75.1011 45.6371C74.743 45.3894 74.3352 45.282 73.8991 45.2891Z" fill="#606060"/>
<path d="M139.134 47.3265C139.134 47.9624 139.143 48.5983 139.13 49.2342C139.123 49.5751 138.959 49.7108 138.697 49.5326C138.424 49.3474 138.224 49.4383 137.974 49.5008C137.35 49.6577 136.72 49.7509 136.091 49.5279C135.521 49.3262 135.132 48.99 135.055 48.327C134.94 47.3371 134.985 46.3521 135.017 45.3634C135.018 45.3162 135.028 45.2702 135.031 45.223C135.048 45.0178 135.162 44.9411 135.362 44.9529C135.547 44.9647 135.601 45.0803 135.604 45.2337C135.614 45.7752 135.62 46.3167 135.623 46.8582C135.626 47.3053 135.613 47.7536 135.622 48.2007C135.633 48.6844 135.9 48.9723 136.35 49.1304C136.697 49.2519 137.048 49.2531 137.399 49.2188C138.246 49.1351 138.559 48.7871 138.562 47.9412C138.563 47.1873 138.553 46.4335 138.552 45.6796C138.552 45.5156 138.558 45.3493 138.575 45.1865C138.591 45.019 138.697 44.9482 138.864 44.9541C139.03 44.96 139.129 45.0331 139.138 45.2042C139.145 45.3457 139.148 45.4861 139.149 45.6277C139.15 46.1928 139.149 46.7579 139.149 47.3242C139.143 47.3265 139.138 47.3265 139.134 47.3265Z" fill="#606060"/>
<path d="M117.407 47.2145C117.407 47.5212 117.417 47.8267 117.404 48.1323C117.376 48.7929 117.034 49.2318 116.42 49.463C115.71 49.7297 114.989 49.7662 114.274 49.5032C113.641 49.2707 113.258 48.8307 113.25 48.1264C113.244 47.5377 113.245 46.9478 113.244 46.3591C113.243 45.774 113.525 45.3729 114.058 45.1523C114.751 44.8668 115.46 44.7488 116.2 44.9682C116.999 45.2042 117.361 45.6631 117.391 46.5066C117.4 46.7414 117.393 46.9773 117.393 47.2133C117.397 47.2145 117.402 47.2145 117.407 47.2145ZM116.802 47.2664C116.799 47.2664 116.797 47.2664 116.795 47.2664C116.795 47.0316 116.798 46.7956 116.793 46.5609C116.778 45.7646 116.52 45.4484 115.747 45.3162C115.349 45.2478 114.952 45.2726 114.564 45.4201C114.095 45.5982 113.828 45.9144 113.827 46.4252C113.827 46.9667 113.833 47.5082 113.842 48.0485C113.854 48.721 114.045 48.9911 114.687 49.1669C115.148 49.2932 115.617 49.2861 116.078 49.1233C116.525 48.9652 116.785 48.6667 116.799 48.1842C116.809 47.8775 116.802 47.5719 116.802 47.2664Z" fill="#606060"/>
<path d="M164.617 44.8444C165.279 44.9022 165.928 45.0154 166.375 45.5923C166.498 45.7516 166.692 45.9864 166.489 46.1385C166.28 46.2966 166.083 46.1267 165.92 45.9073C165.377 45.1806 164.095 45.0579 163.385 45.6383C162.978 45.971 162.996 46.312 163.444 46.5892C163.829 46.8275 164.267 46.9384 164.691 47.0835C165.137 47.2357 165.596 47.3596 166.006 47.5979C166.792 48.0556 166.825 48.7871 166.037 49.2542C165.1 49.8099 164.11 49.8264 163.134 49.3109C162.9 49.187 162.719 48.9994 162.609 48.7528C162.555 48.6302 162.436 48.4886 162.599 48.3812C162.749 48.2821 162.917 48.3175 163.05 48.4461C163.083 48.478 163.101 48.5252 163.131 48.5617C163.726 49.2837 164.83 49.469 165.596 48.9758C166.136 48.6278 166.143 48.229 165.597 47.8893C165.09 47.5743 164.506 47.4481 163.942 47.2782C163.556 47.1614 163.175 47.0363 162.862 46.7709C162.378 46.3603 162.363 45.8719 162.834 45.4413C163.334 44.9859 163.96 44.8809 164.617 44.8444Z" fill="#606060"/>
<path d="M125.539 44.8455C126.102 44.8821 126.655 44.9835 127.114 45.3634C127.221 45.4519 127.325 45.5604 127.389 45.682C127.467 45.8306 127.66 46.0264 127.42 46.1633C127.253 46.2577 127.072 46.1668 126.929 45.9993C126.306 45.2667 125.51 45.0767 124.677 45.446C124.569 45.4932 124.463 45.5486 124.369 45.6182C123.924 45.9533 123.942 46.3296 124.424 46.6116C124.814 46.8393 125.252 46.9478 125.675 47.0929C126.121 47.2451 126.578 47.3702 126.986 47.6144C127.746 48.0698 127.767 48.721 127.042 49.2365C126.28 49.7768 124.872 49.8087 124.072 49.3038C123.868 49.1752 123.691 49.0206 123.588 48.8012C123.524 48.6655 123.355 48.4956 123.567 48.3777C123.73 48.2868 123.907 48.3104 124.055 48.5039C124.589 49.2035 125.328 49.4229 126.16 49.1587C126.41 49.0784 126.64 48.9581 126.818 48.7599C127.074 48.4791 127.063 48.275 126.761 48.0509C126.455 47.822 126.09 47.7076 125.734 47.5837C125.2 47.3985 124.655 47.238 124.154 46.9702C123.82 46.7921 123.47 46.5974 123.459 46.1527C123.447 45.6631 123.781 45.387 124.164 45.1758C124.586 44.9446 125.051 44.8691 125.539 44.8455Z" fill="#606060"/>
<path d="M189.808 45.0308C190.257 44.8302 190.368 45.1074 190.49 45.3705C190.956 46.3745 191.424 47.3785 191.891 48.3824C191.95 48.5098 191.988 48.6502 192.152 48.7741C192.588 47.7017 193.018 46.6423 193.45 45.5841C193.512 45.4319 193.57 45.2773 193.642 45.1287C193.73 44.9494 193.901 44.9116 194.065 44.9682C194.318 45.0555 194.169 45.236 194.116 45.3729C193.6 46.7131 193.077 48.0521 192.556 49.3911C192.308 50.027 192.056 50.6629 191.808 51.2987C191.748 51.4521 191.71 51.6114 191.518 51.668C191.3 51.7317 191.122 51.6066 191.184 51.3908C191.267 51.0982 191.358 50.7962 191.508 50.5343C191.865 49.9102 191.764 49.3427 191.46 48.7257C190.91 47.6061 190.417 46.4571 189.903 45.3198C189.864 45.2372 189.845 45.144 189.808 45.0308Z" fill="#606060"/>
<path d="M60.9147 49.6707C60.5081 49.6659 60.1181 49.5881 59.7446 49.4253C59.4775 49.3085 59.2506 49.141 59.0969 48.8956C59.0024 48.7446 58.8322 48.5452 59.0071 48.4013C59.1927 48.2467 59.3818 48.36 59.5401 48.557C60.098 49.2566 61.0837 49.4607 61.8708 49.0513C62.0138 48.977 62.1521 48.872 62.2573 48.7505C62.5067 48.4614 62.4712 48.1936 62.1604 47.9718C61.8685 47.763 61.5222 47.671 61.1853 47.5589C60.6476 47.3808 60.0944 47.2463 59.5898 46.9797C59.2435 46.798 58.9232 46.5691 58.909 46.1432C58.8936 45.6902 59.195 45.4082 59.5673 45.2124C60.4124 44.7688 61.2822 44.724 62.1628 45.1051C62.4972 45.2502 62.762 45.4802 62.9133 45.8223C62.9593 45.9273 63.0385 46.043 62.9203 46.1397C62.7962 46.24 62.6497 46.2105 62.5221 46.1385C62.4653 46.1067 62.4287 46.0371 62.385 45.984C61.7586 45.2348 60.7067 45.0461 59.9254 45.5439C59.3428 45.9144 59.338 46.3497 59.9562 46.6458C60.4431 46.8794 60.9667 47.0387 61.4796 47.2133C61.8389 47.336 62.197 47.4586 62.5161 47.6627C63.1307 48.0556 63.1733 48.6325 62.6367 49.1244C62.275 49.4559 61.5872 49.6742 60.9147 49.6707Z" fill="#606060"/>
<path d="M118.354 47.2074C118.354 46.5939 118.345 45.9816 118.356 45.3681C118.363 44.9328 118.497 44.816 118.852 45.0201C119.083 45.1522 119.241 45.1157 119.435 45.0378C120.056 44.7877 120.686 44.8266 121.315 44.9788C122.031 45.1511 122.443 45.5887 122.473 46.3107C122.512 47.2758 122.483 48.2432 122.488 49.2106C122.489 49.4713 122.392 49.6152 122.109 49.5716C121.88 49.5362 121.886 49.358 121.885 49.194C121.885 48.6278 121.892 48.0627 121.895 47.4964C121.897 47.1661 121.911 46.8357 121.893 46.5066C121.853 45.7692 121.559 45.4295 120.836 45.3174C120.559 45.2749 120.267 45.2761 119.988 45.308C119.313 45.3858 118.966 45.7374 118.942 46.4216C118.919 47.1271 118.958 47.835 118.966 48.5428C118.968 48.7552 118.955 48.9663 118.949 49.1787C118.943 49.4064 118.914 49.614 118.609 49.5987C118.33 49.5834 118.351 49.3781 118.351 49.1881C118.35 48.5275 118.351 47.868 118.351 47.2074C118.352 47.2074 118.354 47.2074 118.354 47.2074Z" fill="#606060"/>
<path d="M171.606 47.3207C171.606 47.9565 171.616 48.5936 171.602 49.2283C171.594 49.6011 171.415 49.7344 171.116 49.5244C170.884 49.3604 170.747 49.43 170.549 49.4961C169.831 49.7391 169.116 49.7368 168.406 49.443C167.802 49.1917 167.459 48.767 167.464 48.0922C167.473 47.1968 167.475 46.3014 167.481 45.4071C167.481 45.3363 167.486 45.2655 167.492 45.1959C167.507 45.0237 167.613 44.9612 167.775 44.9541C167.99 44.9447 168.07 45.0603 168.072 45.2549C168.074 45.5381 168.079 45.82 168.079 46.1032C168.079 46.739 168.061 47.3761 168.078 48.0108C168.1 48.8531 168.448 49.1929 169.299 49.233C169.51 49.2425 169.725 49.2448 169.935 49.2165C170.695 49.1162 171.014 48.7635 171.022 48.0049C171.03 47.251 171.02 46.4972 171.018 45.7433C171.018 45.5782 171.023 45.413 171.025 45.249C171.028 45.0461 171.127 44.9529 171.333 44.9553C171.551 44.9576 171.614 45.0827 171.614 45.2714C171.614 45.9545 171.614 46.6376 171.614 47.3207C171.613 47.3207 171.609 47.3207 171.606 47.3207Z" fill="#606060"/>
<path d="M108.784 47.2735C108.784 47.6274 108.765 47.9825 108.788 48.3341C108.817 48.7576 109.059 49.0407 109.476 49.128C110.309 49.3026 111.132 49.4017 111.673 48.5181C111.727 48.4308 111.803 48.3848 111.9 48.3683C112.018 48.3482 112.157 48.3293 112.222 48.4402C112.258 48.5028 112.228 48.6231 112.195 48.7033C112.061 49.023 111.818 49.2472 111.51 49.3911C110.64 49.7981 109.765 49.7615 108.903 49.3734C108.4 49.1469 108.171 48.7045 108.155 48.176C108.135 47.5637 108.132 46.9467 108.177 46.3356C108.235 45.5558 108.623 45.1535 109.386 44.9671C109.999 44.8172 110.607 44.8137 111.207 45.0119C111.646 45.157 112.01 45.4083 112.21 45.8495C112.25 45.9392 112.284 46.0418 112.218 46.115C112.133 46.2105 112.007 46.1975 111.887 46.1728C111.725 46.1409 111.679 45.9946 111.594 45.8861C111.067 45.2136 109.736 45.0615 109.096 45.5947C108.858 45.7929 108.782 46.0654 108.764 46.3509C108.743 46.6565 108.759 46.9644 108.759 47.2711C108.767 47.2735 108.775 47.2735 108.784 47.2735Z" fill="#606060"/>
<path d="M140.09 47.2876C140.125 46.8652 140.073 46.4417 140.168 46.0182C140.258 45.6183 140.469 45.3162 140.832 45.1546C141.692 44.7747 142.569 44.7358 143.439 45.1357C143.746 45.2773 143.988 45.5026 144.133 45.8153C144.183 45.9215 144.248 46.0347 144.148 46.1385C144.053 46.2388 143.927 46.1904 143.814 46.1668C143.718 46.148 143.664 46.0807 143.6 46.004C143.01 45.2868 142.178 45.0838 141.341 45.433C140.928 45.6053 140.694 45.9014 140.688 46.3509C140.681 46.9408 140.666 47.5318 140.696 48.1193C140.729 48.7528 141.003 49.0773 141.63 49.1846C142.4 49.3156 143.156 49.3179 143.631 48.5228C143.694 48.4154 143.783 48.3423 143.912 48.3376C144.105 48.3293 144.261 48.3741 144.173 48.616C144.047 48.964 143.806 49.2247 143.473 49.3816C142.556 49.8158 141.644 49.778 140.752 49.305C140.317 49.0749 140.111 48.6891 140.09 48.2078C140.078 47.9022 140.09 47.5943 140.09 47.2876Z" fill="#606060"/>
<path d="M81.8471 47.2746C81.8471 46.9443 81.8317 46.6128 81.8506 46.2836C81.8826 45.7138 82.1627 45.2986 82.7016 45.0897C83.4805 44.7877 84.2676 44.7665 85.0512 45.0803C85.4152 45.2266 85.7095 45.4519 85.8573 45.8283C85.8986 45.9333 85.9447 46.0571 85.8218 46.148C85.7142 46.227 85.5925 46.2022 85.4861 46.1539C85.427 46.1267 85.3821 46.0618 85.336 46.0088C84.7002 45.2761 83.9544 45.0886 83.0774 45.4236C82.6827 45.5746 82.4428 45.8306 82.4416 46.2624C82.4392 46.9467 82.4404 47.6309 82.4629 48.3152C82.4747 48.6714 82.6626 48.9286 82.9971 49.0843C83.7724 49.4442 84.7215 49.2413 85.2829 48.5747C85.3786 48.4614 85.4684 48.3635 85.6256 48.3541C85.8242 48.3435 85.9589 48.3895 85.8868 48.6313C85.7863 48.9711 85.55 49.2059 85.2462 49.3521C84.3113 49.8016 83.3741 49.7792 82.4534 49.305C82.0646 49.1044 81.8577 48.7729 81.8424 48.3364C81.8305 47.9825 81.84 47.6285 81.84 47.2746C81.8412 47.2746 81.8436 47.2746 81.8471 47.2746Z" fill="#606060"/>
<path d="M152.222 48.9452C152.721 47.7866 153.194 46.6836 153.671 45.5805C153.745 45.4071 153.808 45.2254 153.911 45.0697C154.017 44.9081 154.213 44.9152 154.361 44.9789C154.532 45.052 154.46 45.2254 154.409 45.3481C154.094 46.1091 153.769 46.8676 153.445 47.6262C153.224 48.1465 152.99 48.662 152.782 49.187C152.66 49.4961 152.451 49.6152 152.13 49.6152C151.828 49.6141 151.737 49.4159 151.643 49.1882C151.127 47.9483 150.604 46.7107 150.088 45.4708C150.022 45.3127 149.846 45.098 150.072 44.9848C150.34 44.8491 150.496 45.0567 150.597 45.2998C150.841 45.8873 151.082 46.4771 151.348 47.054C151.632 47.6675 151.836 48.3199 152.222 48.9452Z" fill="#606060"/>
<path d="M63.8565 46.2483C63.8565 45.636 63.8518 45.0237 63.8589 44.4114C63.8613 44.2238 63.8861 44.0363 63.918 43.851C63.9475 43.6729 64.0882 43.6493 64.2406 43.6599C64.3777 43.6694 64.4569 43.739 64.4617 43.8794C64.4664 44.0209 64.4652 44.1625 64.4699 44.3029C64.4888 44.9541 64.4888 44.9529 65.1661 44.9458C65.3776 44.9435 65.5904 44.9376 65.8019 44.9506C65.9237 44.9576 66.043 45.0131 66.0359 45.1606C66.0288 45.3186 65.887 45.321 65.7759 45.3269C65.4934 45.3387 65.2086 45.3517 64.9261 45.3399C64.5905 45.3257 64.4522 45.4862 64.4557 45.8035C64.4652 46.6282 64.4593 47.4528 64.4877 48.2763C64.5077 48.8756 64.9143 49.1292 65.4509 49.2189C65.601 49.2436 65.7688 49.2708 65.7558 49.4371C65.7405 49.6389 65.5502 49.6648 65.3776 49.6589C64.6058 49.6341 63.9322 49.0053 63.8967 48.2291C63.8672 47.5708 63.8908 46.9101 63.8908 46.2506C63.879 46.2483 63.8672 46.2483 63.8565 46.2483Z" fill="#606060"/>
<path d="M128.431 46.1244C128.431 45.4401 128.429 44.7559 128.434 44.0728C128.435 43.9359 128.421 43.7861 128.566 43.6941C128.773 43.5632 128.99 43.7153 129.027 44.0032C129.065 44.2958 128.885 44.6603 129.158 44.8632C129.38 45.0284 129.71 44.9104 129.99 44.9317C130.061 44.9375 130.133 44.9305 130.203 44.9387C130.355 44.9576 130.585 44.9092 130.569 45.1487C130.555 45.3835 130.325 45.3021 130.176 45.328C130.13 45.3363 130.081 45.3304 130.034 45.3316C128.969 45.3493 129.017 45.124 129.01 46.3591C129.007 46.949 129.01 47.5389 129.028 48.1288C129.047 48.7446 129.275 49.0289 129.857 49.2011C129.923 49.2212 129.998 49.2129 130.068 49.2247C130.196 49.2472 130.303 49.3238 130.286 49.4536C130.269 49.5787 130.147 49.6353 130.022 49.6494C129.458 49.712 128.76 49.2743 128.561 48.7281C128.463 48.4591 128.432 48.1795 128.434 47.8928C128.437 47.3029 128.435 46.7131 128.435 46.1232C128.436 46.1244 128.434 46.1244 128.431 46.1244Z" fill="#606060"/>
<path d="M78.3356 49.6435C77.5934 49.4677 76.8523 49.1681 76.8783 48.0509C76.9067 46.8275 76.8783 45.6041 76.876 44.3807C76.876 44.2167 76.8843 44.0515 76.8984 43.8876C76.9138 43.7094 77.0391 43.6611 77.1939 43.6634C77.3511 43.6658 77.4705 43.7165 77.4716 43.9029C77.474 44.1153 77.4894 44.3276 77.474 44.5376C77.4516 44.8502 77.6005 44.9588 77.8924 44.9482C78.1985 44.9375 78.5046 44.9375 78.8107 44.9423C78.9325 44.9446 79.0483 44.9824 79.0436 45.1393C79.0388 45.3021 78.9065 45.3127 78.793 45.3198C78.5342 45.3339 78.2742 45.3316 78.0153 45.3422C77.4917 45.3646 77.4787 45.3658 77.4705 45.9132C77.4598 46.5951 77.4693 47.2781 77.4776 47.96C77.4882 48.8094 77.6182 48.9746 78.4845 49.2188C78.6299 49.2601 78.7776 49.2931 78.7422 49.4736C78.7091 49.6435 78.5507 49.6565 78.4042 49.653C78.3817 49.6518 78.3581 49.6471 78.3356 49.6435Z" fill="#606060"/>
<path d="M145.187 46.1527C145.187 45.5404 145.186 44.9269 145.188 44.3147C145.188 44.1731 145.192 44.0315 145.206 43.8911C145.224 43.7153 145.348 43.6646 145.504 43.6646C145.665 43.6646 145.779 43.7212 145.782 43.9041C145.785 44.14 145.796 44.376 145.788 44.6108C145.781 44.8514 145.885 44.9529 146.125 44.9446C146.431 44.9352 146.738 44.934 147.045 44.9387C147.187 44.9411 147.351 44.9588 147.341 45.1523C147.33 45.3552 147.148 45.321 147.018 45.3257C146.736 45.3351 146.452 45.3351 146.168 45.328C145.901 45.3222 145.781 45.4484 145.783 45.7103C145.788 46.5821 145.783 47.4539 145.797 48.3258C145.804 48.7611 146.081 49.0088 146.466 49.1422C146.62 49.1952 146.79 49.2011 146.946 49.2495C147.043 49.279 147.08 49.3781 147.065 49.4772C147.051 49.5798 146.989 49.6341 146.877 49.6459C146.041 49.7344 145.223 49.0466 145.198 48.2019C145.178 47.5188 145.193 46.8358 145.193 46.1515C145.192 46.1527 145.19 46.1527 145.187 46.1527Z" fill="#606060"/>
<path d="M173.066 47.4091C173.066 46.89 173.062 46.3721 173.067 45.853C173.069 45.6065 173.056 45.4035 172.762 45.2985C172.538 45.2195 172.553 45.0473 172.783 44.9706C172.959 44.9116 173.191 44.8196 173.333 44.9305C173.719 45.2325 174.081 45.0484 174.456 44.9493C174.801 44.8585 175.15 44.816 175.507 44.8727C175.633 44.8927 175.73 44.9552 175.714 45.1015C175.702 45.2124 175.615 45.2561 175.517 45.2679C175.259 45.2974 174.998 45.3044 174.743 45.3469C173.879 45.4897 173.658 45.7374 173.652 46.6116C173.647 47.3419 173.675 48.0721 173.684 48.8024C173.685 48.9428 173.665 49.0843 173.657 49.2259C173.645 49.43 173.606 49.6022 173.336 49.5822C173.062 49.5621 173.068 49.3675 173.068 49.1752C173.067 48.5865 173.068 47.9966 173.068 47.4079C173.068 47.4091 173.067 47.4091 173.066 47.4091Z" fill="#606060"/>
<path d="M100.269 44.9316C100.793 45.341 101.379 44.9045 101.984 44.8573C102.032 44.8538 102.079 44.849 102.125 44.8549C102.344 44.8844 102.698 44.757 102.725 45.052C102.759 45.4023 102.383 45.2714 102.181 45.3009C100.759 45.5073 100.58 45.7315 100.702 47.1956C100.76 47.8999 100.778 48.603 100.684 49.3073C100.658 49.5067 100.567 49.5987 100.36 49.5834C100.141 49.5668 100.096 49.4264 100.096 49.2448C100.097 49.1032 100.093 48.9628 100.093 48.8212C100.093 47.9046 100.096 46.9867 100.091 46.0701C100.089 45.7563 100.18 45.413 99.7317 45.262C99.5721 45.2077 99.6348 45.0225 99.8144 44.9753C99.9279 44.947 100.048 44.9517 100.269 44.9316Z" fill="#606060"/>
<path d="M131.71 44.9187C132.356 45.2537 132.976 44.9045 133.604 44.8561C133.745 44.8455 133.888 44.8514 134.029 44.8632C134.174 44.8762 134.321 44.9151 134.311 45.1015C134.303 45.2513 134.172 45.2714 134.052 45.2867C133.747 45.3257 133.441 45.3493 133.14 45.4035C132.488 45.5203 132.284 45.7374 132.271 46.391C132.256 47.1684 132.277 47.9471 132.28 48.7245C132.281 48.9133 132.269 49.102 132.265 49.2896C132.262 49.4949 132.151 49.581 131.952 49.5845C131.73 49.5893 131.673 49.463 131.676 49.2695C131.679 48.8448 131.676 48.4213 131.676 47.9966C131.676 47.2652 131.677 46.5349 131.673 45.8035C131.672 45.6454 131.717 45.4731 131.537 45.3587C131.414 45.2808 131.157 45.2773 131.262 45.0402C131.342 44.8597 131.56 44.9576 131.71 44.9187Z" fill="#606060"/>
<path d="M186.028 45.111C186.264 44.8667 186.568 44.8514 186.723 44.9505C187.177 45.2395 187.578 45.0048 187.995 44.9222C188.274 44.8667 188.553 44.8172 188.835 44.8597C188.972 44.8809 189.123 44.934 189.095 45.118C189.074 45.2596 188.945 45.2844 188.825 45.2891C188.496 45.2985 188.171 45.2749 187.85 45.3988C187.256 45.6289 187.1 45.7999 187.091 46.4334C187.08 47.2097 187.097 47.986 187.1 48.7623C187.101 48.9274 187.088 49.0914 187.092 49.2566C187.097 49.4961 186.979 49.5963 186.746 49.5893C186.509 49.5822 186.498 49.4206 186.498 49.2471C186.498 48.5181 186.496 47.7878 186.496 47.0587C186.496 46.7768 186.492 46.4936 186.496 46.2117C186.508 45.774 186.576 45.3198 186.028 45.111Z" fill="#606060"/>
<path d="M79.6499 45.111C79.9359 44.7453 80.2373 44.829 80.5044 44.8597C80.7609 44.8892 80.7242 45.1251 80.7254 45.308C80.729 46.109 80.7266 46.9101 80.7266 47.7111C80.7266 48.1582 80.729 48.6065 80.7231 49.0537C80.7207 49.2825 80.7715 49.5562 80.3957 49.5397C80.0624 49.5256 80.125 49.2719 80.1238 49.0737C80.1179 48.0367 80.1156 47.0009 80.1238 45.9639C80.125 45.6029 80.1475 45.2455 79.6499 45.111Z" fill="#606060"/>
<path d="M149.037 47.1885C149.037 47.8232 149.039 48.4579 149.034 49.0926C149.033 49.299 149.071 49.5409 148.732 49.522C148.418 49.5055 148.435 49.2813 148.434 49.0678C148.433 48.0332 148.434 46.9985 148.431 45.9639C148.43 45.6678 148.509 45.3351 148.078 45.2336C147.994 45.2136 147.965 45.0956 147.989 44.993C148.018 44.8774 148.108 44.8561 148.203 44.8538C148.344 44.8514 148.486 44.8632 148.628 44.8573C148.928 44.8455 149.046 44.9824 149.039 45.282C149.028 45.9191 149.037 46.5538 149.037 47.1885Z" fill="#606060"/>
<path d="M182.524 39.1663V38.4561H183.236V39.1663H182.524Z" fill="#606060"/>
<path d="M187.353 37.4155L189.379 32.8652H190.035V39.1662H189.41V33.7536L189.475 34.0308L187.574 38.2909H187.13L185.229 34.1181L185.294 33.7536V39.1662H184.668V32.8652H185.324L187.353 37.4155Z" fill="#606060"/>
<path d="M191.598 39.1662V32.8652H192.223V39.1662H191.598ZM192.197 39.1662V38.5858H193.625C194.21 38.5858 194.647 38.449 194.938 38.1764C195.228 37.9039 195.374 37.4922 195.374 36.9436V35.089C195.374 34.5405 195.228 34.1287 194.938 33.8562C194.647 33.5837 194.208 33.4469 193.625 33.4469H192.197V32.8664H193.599C194.403 32.8664 195.005 33.054 195.402 33.4303C195.8 33.8055 195.999 34.3706 195.999 35.1244V36.9094C195.999 37.412 195.91 37.8308 195.732 38.1635C195.553 38.4973 195.286 38.7474 194.931 38.915C194.575 39.0825 194.129 39.1662 193.594 39.1662H192.197Z" fill="#606060"/>
</g>
<defs>
<clipPath id="clip0_58_5920">
<rect width="196" height="56" fill="white"/>
</clipPath>
</defs>
</svg>
