<svg width="204" height="56" viewBox="0 0 204 56" fill="none" xmlns="http://www.w3.org/2000/svg">
<g clip-path="url(#clip0_58_5915)">
<path d="M0 55.9877L65.0815 56L65.0929 0.0122719L0.0106227 0L0 55.9877ZM3.1141 3.11625L27.8994 3.12034L32.5849 10.9482C32.5922 10.9637 32.6004 10.9793 32.6077 10.9948L32.7238 11.1887C32.9403 11.4832 33.2876 11.6771 33.6806 11.6771C34.3368 11.6771 34.8777 11.1429 34.8777 10.4835L34.8794 3.12197L61.996 3.12688L61.9862 52.8919L39.5174 52.8878L31.9303 41.2778L31.8838 41.2164C31.722 40.9841 31.4515 40.8368 31.1426 40.836C30.6327 40.836 30.2242 41.2467 30.2233 41.758L30.2209 52.8862L3.10429 52.8805L3.1141 3.11625Z" fill="black"/>
<path d="M18.5971 31.1052L46.494 31.1101L46.4916 44.3302L43.3955 44.3294L43.3947 46.6619L55.7873 46.6643L55.7881 44.3319H52.6912L52.6977 11.6763L55.7938 11.6771L55.7947 9.34463L43.402 9.34218V11.6747L46.4981 11.6755L46.4949 24.8874L18.5987 24.8825L18.6012 11.6697L21.7055 11.6706V9.33809L9.30545 9.33563V11.6681L12.4089 11.6689L12.4024 44.3237L9.2981 44.3229V46.6562L21.6981 46.6578L21.6989 44.3253L18.5946 44.3245L18.5971 31.1052Z" fill="black"/>
<path d="M83.7538 18.5854C83.7538 15.9019 81.8793 13.9482 78.5871 13.9482H74.4761V23.4377H78.5871C81.8793 23.4385 83.7538 21.2697 83.7538 18.5854ZM76.7542 21.3711V15.8782H78.5045C80.518 15.8782 81.4487 17.116 81.4487 18.6312C81.4487 20.1472 80.518 21.3703 78.5045 21.3703H76.7542V21.3711Z" fill="black"/>
<path d="M87.4104 20.8091H89.4614L91.3915 23.3608H93.8649L91.559 20.184C92.6923 19.6653 93.3755 18.5625 93.3755 17.287C93.3755 15.5191 92.0484 14.071 90.026 14.071H85.2981V23.3608H87.4104V20.8091ZM87.4104 15.8324H89.8577C90.7982 15.8324 91.2493 16.6227 91.2493 17.287C91.2493 17.9514 90.7982 18.9609 89.8577 18.9609H87.4104V15.8324Z" fill="black"/>
<path d="M95.1006 20.9261C94.4142 20.9261 93.8643 21.489 93.8643 22.1639C93.8643 22.8389 94.4134 23.3895 95.1006 23.3895C95.787 23.3895 96.3492 22.8397 96.3492 22.1639C96.3492 21.4881 95.787 20.9261 95.1006 20.9261Z" fill="black"/>
<path d="M104.573 17.6577L109.379 23.2504H111.034V13.9859H108.876V19.5655L104.057 13.9859H102.402V23.2504H104.573V17.6577Z" fill="black"/>
<path d="M117.47 13.8943C114.65 13.8943 112.519 16.0108 112.519 18.6124C112.519 21.2141 114.65 23.3428 117.47 23.3428C120.289 23.3428 122.421 21.2133 122.421 18.6124C122.421 16.0108 120.289 13.8943 117.47 13.8943ZM117.47 21.5012C115.841 21.5012 114.677 20.1227 114.677 18.6116C114.677 17.1005 115.842 15.722 117.47 15.722C119.098 15.722 120.263 17.1005 120.263 18.6116C120.263 20.1227 119.097 21.5012 117.47 21.5012Z" fill="black"/>
<path d="M131.273 21.5012H126.098V19.5925H130.455V17.6577H126.098V15.9208H131.273V13.9859H123.927V23.2504H131.273V21.5012Z" fill="black"/>
<path d="M130.337 12.101H128.113L126.326 13.6783H127.876L130.337 12.101Z" fill="black"/>
<path d="M139.589 19.6318H143.783V23.2504H145.941V13.9859H143.783V17.5914H139.589V13.9859H137.418V23.2504H139.589V19.6318Z" fill="black"/>
<path d="M154.674 21.5315H149.558V19.5279H153.936V17.6437H149.558V15.8054H154.674V13.9859H147.448V23.2504H154.674V21.5315Z" fill="black"/>
<path d="M164.285 17.1864C164.285 15.4234 162.627 13.9859 160.548 13.9859H156.145V23.2504H158.316V20.6716H160.275L162.101 23.2504H164.376L162.32 20.4066C163.486 19.8895 164.285 18.4594 164.285 17.1864ZM160.832 18.9339H158.316V15.8332H160.586C161.552 15.8332 162.02 16.464 162.074 17.1872C162.124 17.8475 161.797 18.9339 160.832 18.9339Z" fill="black"/>
<path d="M174.194 23.2503L172.138 20.4065C173.304 19.8895 174.103 18.4594 174.103 17.1872C174.103 15.4241 172.445 13.9867 170.366 13.9867H165.962V23.2512H168.134V20.6724H170.093L171.919 23.2512H174.194V23.2503ZM170.649 18.9339H168.134V15.8332H170.404C171.37 15.8332 171.838 16.464 171.892 17.1872C171.942 17.8474 171.615 18.9339 170.649 18.9339Z" fill="black"/>
<path d="M175.776 23.2504H182.995V21.5896H177.947V19.4469H182.227V17.6437H177.947V15.7473H182.995V13.9859H175.776V23.2504Z" fill="black"/>
<path d="M190.767 20.3697C191.932 19.8527 192.618 18.5928 192.618 17.3206C192.618 15.5575 191.188 13.9859 189.11 13.9859H184.542V23.2504H186.714V20.6986H188.673L190.39 23.2504H192.765L190.767 20.3697ZM189.228 18.9339H186.713V15.8332H189.228C190.195 15.8332 190.352 16.7479 190.352 17.1995C190.352 17.8614 190.195 18.9339 189.228 18.9339Z" fill="black"/>
<path d="M199.945 13.9859H197.728L193.67 23.2504H195.841L196.609 21.3286H201.04L201.808 23.2504H203.966L199.945 13.9859ZM197.297 19.577L198.7 16.0934L200.2 19.577H197.297Z" fill="black"/>
<path d="M78.6214 25.5558H74.5374V35.1157H78.6214C81.8916 35.1157 83.7546 32.9607 83.7546 30.2944C83.7546 27.6282 81.8916 25.5558 78.6214 25.5558ZM78.538 33.0164H76.7992V27.5594H78.538C80.5392 27.5594 81.4634 28.7891 81.4634 30.2953C81.4634 31.8014 80.5392 33.0164 78.538 33.0164Z" fill="black"/>
<path d="M95.1987 30.2544C95.1987 27.6642 93.0676 25.5558 90.2476 25.5558C87.4277 25.5558 85.2966 27.6642 85.2966 30.2544C85.2966 32.8454 87.4277 34.966 90.2476 34.966C93.0676 34.966 95.1987 32.8454 95.1987 30.2544ZM90.2476 33.144C88.6191 33.144 87.4547 31.7654 87.4547 30.2544C87.4547 28.7433 88.6199 27.3647 90.2476 27.3647C91.8762 27.3647 93.0406 28.7433 93.0406 30.2544C93.0406 31.7654 91.8762 33.144 90.2476 33.144Z" fill="black"/>
<path d="M101.983 31.4096L98.7138 25.6548H96.7412V34.9201H98.9123V29.4191L101.268 34.0259H102.685L105.041 29.4191V34.9201H107.212V25.6548H105.239L101.983 31.4096Z" fill="black"/>
<path d="M110.892 25.6548H108.72V34.9193H110.892V25.6548Z" fill="black"/>
<path d="M114.645 29.3266L119.45 34.9201H121.104V25.6548H118.947V31.2353L114.128 25.6548H112.474V34.9201H114.645V29.3266Z" fill="black"/>
<path d="M127.561 27.3647C128.607 27.3647 129.428 27.8417 129.918 28.5575L131.322 27.1479C130.427 26.0492 129.045 25.5035 127.459 25.5035C124.639 25.5035 122.518 27.5496 122.518 30.2535C122.518 32.9574 124.639 35.0437 127.459 35.0437C127.816 35.0437 128.906 34.9913 130.158 34.3802C130.379 34.2722 131.055 33.967 131.232 33.7723C131.232 33.7723 131.281 30.6053 131.281 30.1079L129.124 30.1169L129.105 32.6891C128.695 32.9746 128.178 33.1432 127.561 33.1432C125.814 33.1432 124.675 31.7646 124.675 30.2535C124.676 28.7433 125.814 27.3647 127.561 27.3647Z" fill="black"/>
<path d="M139.039 30.6651C139.039 31.9242 138.459 33.1571 137.01 33.1571C135.56 33.1571 134.873 31.9242 134.873 30.6651V25.6287H132.859V30.5726C132.859 33.2896 134.419 35.0445 137.01 35.0445C139.601 35.0445 141.052 33.2896 141.052 30.5726V25.6287H139.038V30.6651H139.039Z" fill="black"/>
<path d="M142.63 34.9201H149.969V33.1391H144.705V31.2484H149.02V29.3135H144.705V27.431H149.969V25.6548H142.63V34.9201Z" fill="black"/>
<path d="M159.294 27.1798V25.6548H151.339V27.4948H156.277L151.339 33.4352V34.9201L159.558 34.925V33.144L154.397 33.1391L159.294 27.1798Z" fill="black"/>
<path d="M75.2696 39.6857C74.9713 39.6857 74.7196 39.7896 74.5137 39.9966C74.3078 40.2036 74.2048 40.4564 74.2048 40.755C74.2048 41.0512 74.3078 41.304 74.5137 41.5118C74.7196 41.7196 74.9713 41.8243 75.2696 41.8243C75.5678 41.8243 75.8203 41.7204 76.027 41.5118C76.2338 41.304 76.3376 41.0512 76.3376 40.755C76.3376 40.4564 76.2338 40.2036 76.027 39.9966C75.8203 39.7896 75.5678 39.6857 75.2696 39.6857ZM75.8358 41.3244C75.6838 41.4782 75.4951 41.556 75.2696 41.556C75.044 41.556 74.8553 41.4791 74.7033 41.3244C74.5513 41.1706 74.4753 40.98 74.4753 40.7542C74.4753 40.5268 74.5513 40.3353 74.7033 40.1815C74.8553 40.0277 75.044 39.95 75.2696 39.95C75.4951 39.95 75.6838 40.0269 75.8358 40.1815C75.9878 40.3353 76.0638 40.5268 76.0638 40.7542C76.0638 40.9808 75.9878 41.1706 75.8358 41.3244Z" fill="black"/>
<path d="M77.4111 39.9827H78.0174V41.7859H78.2879V39.9827H78.8967V39.7242H77.4111V39.9827Z" fill="black"/>
<path d="M81.0352 39.6857C80.7369 39.6857 80.4853 39.7896 80.2793 39.9966C80.0734 40.2036 79.9705 40.4564 79.9705 40.755C79.9705 41.0512 80.0734 41.304 80.2793 41.5118C80.4853 41.7196 80.7369 41.8243 81.0352 41.8243C81.3334 41.8243 81.5859 41.7204 81.7927 41.5118C81.9994 41.304 82.1032 41.0512 82.1032 40.755C82.1032 40.4564 81.9994 40.2036 81.7927 39.9966C81.5859 39.7896 81.3334 39.6857 81.0352 39.6857ZM81.6015 41.3244C81.4495 41.4782 81.2607 41.556 81.0352 41.556C80.8097 41.556 80.6209 41.4791 80.4689 41.3244C80.3169 41.1706 80.2409 40.98 80.2409 40.7542C80.2409 40.5268 80.3169 40.3353 80.4689 40.1815C80.6209 40.0277 80.8097 39.95 81.0352 39.95C81.2607 39.95 81.4495 40.0269 81.6015 40.1815C81.7534 40.3353 81.8294 40.5268 81.8294 40.7542C81.8294 40.9808 81.7534 41.1706 81.6015 41.3244Z" fill="black"/>
<path d="M84.8079 40.728C84.8872 40.6184 84.9272 40.4965 84.9272 40.3632C84.9272 40.1864 84.8643 40.0359 84.7393 39.9107C84.6134 39.7864 84.4631 39.7234 84.2866 39.7234H83.4629V41.7851H83.7366V40.9956H84.2228L84.6837 41.7851H84.9869L84.5015 40.9604C84.6265 40.9162 84.7286 40.8385 84.8079 40.728ZM83.7358 40.7493V39.9803H84.2857C84.3879 39.9803 84.4745 40.0179 84.5464 40.0924C84.6183 40.1668 84.6535 40.2576 84.6535 40.3632C84.6535 40.4687 84.6175 40.5603 84.5464 40.6356C84.4753 40.7109 84.3879 40.7493 84.2857 40.7493H83.7358Z" fill="black"/>
<path d="M87.6351 40.728C87.7144 40.6184 87.7544 40.4965 87.7544 40.3632C87.7544 40.1864 87.6915 40.0359 87.5665 39.9107C87.4406 39.7864 87.2903 39.7234 87.1138 39.7234H86.2893V41.7851H86.563V40.9956H87.0492L87.5101 41.7851H87.8133L87.3279 40.9604C87.4529 40.9162 87.5559 40.8385 87.6351 40.728ZM86.563 40.7493V39.9803H87.113C87.2151 39.9803 87.3017 40.0179 87.3736 40.0924C87.4456 40.1668 87.4807 40.2576 87.4807 40.3632C87.4807 40.4687 87.4447 40.5603 87.3736 40.6356C87.3026 40.7109 87.2151 40.7493 87.113 40.7493H86.563Z" fill="black"/>
<path d="M89.3895 39.7242H89.1157V41.7859H89.3895V39.7242Z" fill="black"/>
<path d="M92.14 41.2721L91.072 39.7242H90.8604V41.7859H91.1341V40.2453L92.1931 41.7859H92.4137V39.7242H92.14V41.2721Z" fill="black"/>
<path d="M94.8406 39.6857C94.5424 39.6857 94.2907 39.7896 94.0848 39.9966C93.8788 40.2036 93.7759 40.4564 93.7759 40.755C93.7759 41.0512 93.8788 41.304 94.0848 41.5118C94.2907 41.7196 94.5424 41.8243 94.8406 41.8243C95.1389 41.8243 95.3914 41.7204 95.5981 41.5118C95.8048 41.304 95.9086 41.0512 95.9086 40.755C95.9086 40.4564 95.8048 40.2036 95.5981 39.9966C95.3914 39.7896 95.1389 39.6857 94.8406 39.6857ZM95.4069 41.3244C95.2549 41.4782 95.0661 41.556 94.8406 41.556C94.6151 41.556 94.4263 41.4791 94.2743 41.3244C94.1223 41.1706 94.0464 40.98 94.0464 40.7542C94.0464 40.5268 94.1223 40.3353 94.2743 40.1815C94.4263 40.0277 94.6151 39.95 94.8406 39.95C95.0661 39.95 95.2549 40.0269 95.4069 40.1815C95.5589 40.3353 95.6349 40.5268 95.6349 40.7542C95.6349 40.9808 95.5589 41.1706 95.4069 41.3244Z" fill="black"/>
<path d="M97.5413 39.7242H97.2676V41.7859H98.4295V41.5265H97.5413V39.7242Z" fill="black"/>
<path d="M100.362 39.7242L99.594 41.7859H99.8849L100.053 41.3236H100.979L101.147 41.7859H101.438L100.67 39.7242H100.362ZM100.146 41.0667L100.517 40.049L100.887 41.0667H100.146Z" fill="black"/>
<path d="M104.058 40.728C104.137 40.6184 104.177 40.4965 104.177 40.3632C104.177 40.1864 104.114 40.0359 103.989 39.9107C103.863 39.7864 103.713 39.7234 103.537 39.7234H102.713V41.7851H102.987V40.9956H103.473L103.934 41.7851H104.237L103.751 40.9604C103.876 40.9162 103.979 40.8385 104.058 40.728ZM102.986 40.7493V39.9803H103.536C103.638 39.9803 103.725 40.0179 103.796 40.0924C103.868 40.1668 103.903 40.2576 103.903 40.3632C103.903 40.4687 103.868 40.5603 103.796 40.6356C103.725 40.7109 103.638 40.7493 103.536 40.7493H102.986Z" fill="black"/>
<path d="M105.813 39.7242H105.539V41.7859H105.813V39.7242Z" fill="black"/>
<path d="M108.564 41.2721L107.496 39.7242H107.284V41.7859H107.558V40.2453L108.617 41.7859H108.837V39.7242H108.564V41.2721Z" fill="black"/>
<path d="M111.264 41.0111H112.02C111.992 41.1723 111.915 41.3032 111.788 41.4046C111.661 41.5061 111.494 41.556 111.288 41.556C111.047 41.556 110.85 41.4791 110.698 41.3261C110.546 41.1731 110.47 40.9825 110.47 40.755C110.47 40.5276 110.545 40.3361 110.696 40.1823C110.847 40.0285 111.04 39.9508 111.276 39.9508C111.419 39.9508 111.549 39.9843 111.669 40.0523C111.787 40.1202 111.876 40.2102 111.935 40.3214L112.17 40.1832C112.084 40.0343 111.961 39.914 111.803 39.8224C111.644 39.7307 111.469 39.6857 111.279 39.6857C110.969 39.6857 110.712 39.7896 110.507 39.9966C110.302 40.2036 110.199 40.4564 110.199 40.755C110.199 41.0536 110.302 41.3064 110.507 41.5134C110.712 41.7204 110.971 41.8243 111.285 41.8243C111.589 41.8243 111.833 41.736 112.017 41.5576C112.201 41.3801 112.293 41.1567 112.293 40.8876V40.764H111.263V41.0111H111.264Z" fill="black"/>
<path d="M114.611 39.6857C114.313 39.6857 114.061 39.7896 113.855 39.9966C113.649 40.2036 113.546 40.4564 113.546 40.755C113.546 41.0512 113.649 41.304 113.855 41.5118C114.061 41.7196 114.313 41.8243 114.611 41.8243C114.909 41.8243 115.162 41.7204 115.369 41.5118C115.575 41.3032 115.679 41.0512 115.679 40.755C115.679 40.4564 115.575 40.2036 115.369 39.9966C115.162 39.7896 114.909 39.6857 114.611 39.6857ZM115.177 41.3244C115.025 41.4782 114.837 41.556 114.611 41.556C114.386 41.556 114.197 41.4791 114.045 41.3244C113.893 41.1698 113.817 40.98 113.817 40.7542C113.817 40.5268 113.893 40.3353 114.045 40.1815C114.197 40.0277 114.386 39.95 114.611 39.95C114.837 39.95 115.025 40.0269 115.177 40.1815C115.329 40.3353 115.405 40.5268 115.405 40.7542C115.405 40.9808 115.329 41.1706 115.177 41.3244Z" fill="black"/>
<path d="M117.312 39.7242H117.038V41.7859H118.2V41.5265H117.312V39.7242Z" fill="black"/>
<path d="M120.318 39.6857C120.02 39.6857 119.768 39.7896 119.562 39.9966C119.356 40.2036 119.253 40.4564 119.253 40.755C119.253 41.0512 119.356 41.304 119.562 41.5118C119.768 41.7196 120.02 41.8243 120.318 41.8243C120.616 41.8243 120.869 41.7204 121.076 41.5118C121.282 41.3032 121.386 41.0512 121.386 40.755C121.386 40.4564 121.282 40.2036 121.076 39.9966C120.869 39.7896 120.616 39.6857 120.318 39.6857ZM120.884 41.3244C120.732 41.4782 120.544 41.556 120.318 41.556C120.093 41.556 119.904 41.4791 119.752 41.3244C119.6 41.1698 119.524 40.98 119.524 40.7542C119.524 40.5268 119.6 40.3353 119.752 40.1815C119.904 40.0277 120.093 39.95 120.318 39.95C120.544 39.95 120.732 40.0269 120.884 40.1815C121.036 40.3353 121.112 40.5268 121.112 40.7542C121.112 40.9808 121.036 41.1706 120.884 41.3244Z" fill="black"/>
<path d="M123.701 41.0111H124.457C124.429 41.1723 124.352 41.3032 124.225 41.4046C124.097 41.5061 123.931 41.556 123.725 41.556C123.484 41.556 123.287 41.4791 123.135 41.3261C122.983 41.1731 122.907 40.9825 122.907 40.755C122.907 40.5276 122.982 40.3361 123.133 40.1823C123.284 40.0285 123.477 39.9508 123.712 39.9508C123.855 39.9508 123.986 39.9843 124.105 40.0523C124.224 40.1202 124.313 40.2102 124.372 40.3214L124.607 40.1832C124.521 40.0343 124.398 39.914 124.239 39.8224C124.081 39.7307 123.906 39.6857 123.716 39.6857C123.406 39.6857 123.149 39.7896 122.943 39.9966C122.738 40.2036 122.636 40.4564 122.636 40.755C122.636 41.0536 122.738 41.3064 122.943 41.5134C123.149 41.7204 123.408 41.8243 123.721 41.8243C124.025 41.8243 124.27 41.736 124.454 41.5576C124.638 41.3801 124.73 41.1567 124.73 40.8876V40.764H123.7V41.0111H123.701Z" fill="black"/>
<path d="M126.052 39.5237H126.299L126.596 39.1351H126.287L126.052 39.5237Z" fill="black"/>
<path d="M126.367 39.7242H126.093V41.7859H126.367V39.7242Z" fill="black"/>
<path d="M128.408 39.7242L127.64 41.7859H127.931L128.099 41.3236H129.026L129.194 41.7859H129.485L128.717 39.7242H128.408ZM128.193 41.0667L128.563 40.049L128.933 41.0667H128.193Z" fill="black"/>
<path d="M133.192 40.692L132.632 39.7242H132.326L133.053 40.9489V41.7859H133.326V40.9522L134.056 39.7242H133.75L133.192 40.692Z" fill="black"/>
<path d="M138.062 39.9508C138.203 39.9508 138.333 39.9843 138.449 40.0523C138.565 40.1202 138.653 40.211 138.712 40.3247L138.95 40.1864C138.862 40.0334 138.739 39.9115 138.581 39.8215C138.423 39.7315 138.25 39.6857 138.062 39.6857C137.75 39.6857 137.493 39.7888 137.29 39.995C137.087 40.2012 136.985 40.4548 136.985 40.755C136.985 41.0553 137.086 41.3089 137.29 41.5151C137.493 41.7212 137.75 41.8243 138.062 41.8243C138.25 41.8243 138.424 41.7785 138.583 41.6877C138.741 41.5969 138.864 41.4742 138.95 41.3212L138.712 41.1854C138.653 41.2974 138.565 41.3874 138.449 41.4545C138.332 41.5224 138.203 41.556 138.062 41.556C137.825 41.556 137.631 41.4791 137.481 41.3261C137.331 41.1731 137.256 40.9825 137.256 40.755C137.256 40.5251 137.332 40.3337 137.481 40.1807C137.631 40.0277 137.825 39.9508 138.062 39.9508Z" fill="black"/>
<path d="M140.563 39.7242H140.29V41.7859H140.563V39.7242Z" fill="black"/>
<path d="M143.379 40.728C143.458 40.6184 143.498 40.4965 143.498 40.3632C143.498 40.1864 143.436 40.0359 143.311 39.9107C143.185 39.7864 143.034 39.7234 142.858 39.7234H142.034V41.7851H142.308V40.9956H142.794L143.255 41.7851H143.558L143.073 40.9604C143.198 40.9162 143.3 40.8385 143.379 40.728ZM142.307 40.7493V39.9803H142.857C142.959 39.9803 143.046 40.0179 143.118 40.0924C143.19 40.1668 143.225 40.2576 143.225 40.3632C143.225 40.4687 143.189 40.5603 143.118 40.6356C143.047 40.7109 142.959 40.7493 142.857 40.7493H142.307Z" fill="black"/>
<path d="M146.093 41.0815C146.093 41.2271 146.05 41.3425 145.964 41.4275C145.877 41.5126 145.754 41.556 145.593 41.556C145.432 41.556 145.309 41.5135 145.222 41.4275C145.135 41.3425 145.093 41.2271 145.093 41.0815V39.7234H144.819V41.0929C144.819 41.3146 144.891 41.4922 145.036 41.6247C145.179 41.7573 145.366 41.8235 145.593 41.8235C145.82 41.8235 146.006 41.7573 146.149 41.6247C146.292 41.4922 146.363 41.3146 146.363 41.0929V39.7234H146.093V41.0815Z" fill="black"/>
<path d="M148.767 41.0111H149.523C149.495 41.1723 149.419 41.3032 149.291 41.4046C149.164 41.5061 148.997 41.556 148.791 41.556C148.55 41.556 148.353 41.4791 148.201 41.3261C148.049 41.1731 147.973 40.9825 147.973 40.755C147.973 40.5276 148.048 40.3361 148.199 40.1823C148.351 40.0285 148.543 39.9508 148.779 39.9508C148.922 39.9508 149.053 39.9843 149.172 40.0523C149.29 40.1202 149.379 40.2102 149.438 40.3214L149.674 40.1832C149.587 40.0343 149.464 39.914 149.306 39.8224C149.147 39.7307 148.972 39.6857 148.782 39.6857C148.472 39.6857 148.215 39.7896 148.01 39.9966C147.805 40.2036 147.703 40.4564 147.703 40.755C147.703 41.0536 147.805 41.3064 148.01 41.5134C148.215 41.7204 148.474 41.8243 148.788 41.8243C149.092 41.8243 149.336 41.736 149.52 41.5576C149.705 41.3801 149.796 41.1567 149.796 40.8876V40.764H148.767V41.0111H148.767Z" fill="black"/>
<path d="M151.117 39.5237H151.364L151.662 39.1351H151.353L151.117 39.5237Z" fill="black"/>
<path d="M151.433 39.7242H151.159V41.7859H151.433V39.7242Z" fill="black"/>
<path d="M153.474 39.7242L152.706 41.7859H152.997L153.165 41.3236H154.091L154.259 41.7859H154.55L153.782 39.7242H153.474ZM153.258 41.0667L153.629 40.049L153.999 41.0667H153.258Z" fill="black"/>
<path d="M158.393 39.7242H157.589V41.7859H158.393C158.673 41.7859 158.906 41.6861 159.091 41.4872C159.277 41.2876 159.369 41.0438 159.369 40.755C159.369 40.4662 159.277 40.2224 159.091 40.0228C158.906 39.824 158.673 39.7242 158.393 39.7242ZM158.907 41.3056C158.774 41.4529 158.603 41.5265 158.393 41.5265H157.863V39.9835H158.393C158.603 39.9835 158.774 40.0572 158.907 40.2044C159.041 40.3517 159.108 40.5349 159.108 40.755C159.108 40.9751 159.041 41.1584 158.907 41.3056Z" fill="black"/>
<path d="M161.005 40.8728H161.873V40.6168H161.005V39.9827H161.946V39.7242H160.731V41.7859H161.961V41.5265H161.005V40.8728Z" fill="black"/>
<path d="M166.052 39.9508C166.194 39.9508 166.323 39.9843 166.439 40.0523C166.556 40.1202 166.643 40.211 166.702 40.3247L166.941 40.1864C166.852 40.0334 166.729 39.9115 166.571 39.8215C166.414 39.7315 166.24 39.6857 166.052 39.6857C165.74 39.6857 165.483 39.7888 165.28 39.995C165.077 40.2012 164.975 40.4548 164.975 40.755C164.975 41.0553 165.077 41.3089 165.28 41.5151C165.483 41.7212 165.74 41.8243 166.052 41.8243C166.24 41.8243 166.414 41.7785 166.573 41.6877C166.731 41.5969 166.854 41.4742 166.941 41.3212L166.702 41.1854C166.643 41.2974 166.556 41.3874 166.439 41.4545C166.322 41.5224 166.193 41.556 166.052 41.556C165.815 41.556 165.622 41.4791 165.471 41.3261C165.321 41.1731 165.247 40.9825 165.247 40.755C165.247 40.5251 165.322 40.3337 165.471 40.1807C165.621 40.0277 165.815 39.9508 166.052 39.9508Z" fill="black"/>
<path d="M168.826 39.7242L168.058 41.7859H168.349L168.518 41.3236H169.443L169.612 41.7859H169.903L169.135 39.7242H168.826ZM168.611 41.0667L168.981 40.049L169.351 41.0667H168.611Z" fill="black"/>
<path d="M172.353 40.7166C172.502 40.6127 172.577 40.4695 172.577 40.2863C172.577 40.1275 172.521 39.9934 172.409 39.8854C172.298 39.7774 172.161 39.7234 172.001 39.7234H171.177V41.7851H172.065C172.232 41.7851 172.374 41.7294 172.489 41.6174C172.604 41.5053 172.662 41.367 172.662 41.2017C172.662 41.0921 172.634 40.9948 172.578 40.9105C172.522 40.8262 172.448 40.7616 172.353 40.7166ZM171.45 39.9803H172C172.084 39.9803 172.156 40.0114 172.217 40.0727C172.276 40.1349 172.307 40.2085 172.307 40.2953C172.307 40.3836 172.277 40.4581 172.218 40.5194C172.159 40.5808 172.087 40.6111 172.001 40.6111H171.451V39.9803H171.45ZM172.298 41.4325C172.235 41.4971 172.157 41.5298 172.065 41.5298H171.451V40.8614H172.065C172.155 40.8614 172.233 40.8941 172.297 40.9588C172.36 41.0234 172.392 41.1019 172.392 41.1944C172.391 41.2876 172.36 41.367 172.298 41.4325Z" fill="black"/>
<path d="M174.289 40.8728H175.157V40.6168H174.289V39.9827H175.23V39.7242H174.015V41.7859H175.245V41.5265H174.289V40.8728Z" fill="black"/>
<path d="M177.818 39.959V39.7242H176.525V39.9827H177.493L176.498 41.547V41.7859H177.842V41.5265H176.821L177.818 39.959Z" fill="black"/>
<path d="M179.752 39.7242L178.983 41.7859H179.274L179.443 41.3236H180.368L180.537 41.7859H180.828L180.06 39.7242H179.752ZM179.537 41.0667L179.907 40.049L180.277 41.0667H179.537Z" fill="black"/>
<path d="M184.536 40.692L183.976 39.7242H183.67L184.397 40.9489V41.7859H184.67V40.9522L185.4 39.7242H185.094L184.536 40.692Z" fill="black"/>
<path d="M189.406 39.9508C189.547 39.9508 189.677 39.9843 189.793 40.0523C189.909 40.1202 189.997 40.211 190.056 40.3247L190.294 40.1864C190.206 40.0334 190.083 39.9115 189.925 39.8215C189.767 39.7315 189.594 39.6857 189.406 39.6857C189.094 39.6857 188.837 39.7888 188.634 39.995C188.431 40.2012 188.329 40.4548 188.329 40.755C188.329 41.0553 188.43 41.3089 188.634 41.5151C188.837 41.7212 189.094 41.8243 189.406 41.8243C189.594 41.8243 189.768 41.7785 189.927 41.6877C190.085 41.5969 190.208 41.4742 190.294 41.3212L190.056 41.1854C189.997 41.2974 189.909 41.3874 189.793 41.4545C189.676 41.5224 189.547 41.556 189.406 41.556C189.169 41.556 188.975 41.4791 188.825 41.3261C188.675 41.1731 188.6 40.9825 188.6 40.755C188.6 40.5251 188.676 40.3337 188.825 40.1807C188.975 40.0277 189.169 39.9508 189.406 39.9508Z" fill="black"/>
<path d="M192.88 41.0815C192.88 41.2271 192.837 41.3425 192.751 41.4275C192.665 41.5126 192.541 41.556 192.38 41.556C192.219 41.556 192.096 41.5135 192.009 41.4275C191.923 41.3425 191.88 41.2271 191.88 41.0815V39.7234H191.606V41.0929C191.606 41.3146 191.678 41.4922 191.823 41.6247C191.967 41.7573 192.153 41.8235 192.38 41.8235C192.607 41.8235 192.793 41.7573 192.936 41.6247C193.079 41.4922 193.151 41.3146 193.151 41.0929V39.7234H192.88V41.0815Z" fill="black"/>
<path d="M194.872 40.8728H195.74V40.6168H194.872V39.9827H195.813V39.7242H194.598V41.7859H195.828V41.5265H194.872V40.8728Z" fill="black"/>
<path d="M197.461 39.7242H197.187V41.7859H198.349V41.5265H197.461V39.7242Z" fill="black"/>
<path d="M199.926 39.7242H199.652V41.7859H200.814V41.5265H199.926V39.7242Z" fill="black"/>
<path d="M203.689 39.9966C203.483 39.7896 203.23 39.6857 202.932 39.6857C202.634 39.6857 202.382 39.7896 202.176 39.9966C201.97 40.2036 201.867 40.4564 201.867 40.755C201.867 41.0512 201.97 41.304 202.176 41.5118C202.382 41.7196 202.634 41.8243 202.932 41.8243C203.23 41.8243 203.483 41.7204 203.689 41.5118C203.896 41.3032 204 41.0512 204 40.755C204 40.4564 203.896 40.2036 203.689 39.9966ZM203.498 41.3244C203.346 41.4782 203.157 41.556 202.932 41.556C202.706 41.556 202.518 41.4791 202.366 41.3244C202.214 41.1698 202.138 40.98 202.138 40.7542C202.138 40.5268 202.214 40.3353 202.366 40.1815C202.518 40.0277 202.706 39.95 202.932 39.95C203.157 39.95 203.346 40.0269 203.498 40.1815C203.65 40.3353 203.726 40.5268 203.726 40.7542C203.726 40.9808 203.65 41.1706 203.498 41.3244Z" fill="black"/>
</g>
<defs>
<clipPath id="clip0_58_5915">
<rect width="204" height="56" fill="white"/>
</clipPath>
</defs>
</svg>
