<svg width="117" height="56" viewBox="0 0 117 56" fill="none" xmlns="http://www.w3.org/2000/svg">
<g clip-path="url(#clip0_58_5907)">
<path d="M60.9475 47.1072C58.8812 48.0384 52.0897 50.0352 46.6917 50.1024C41.2969 50.1696 35.8349 46.9088 34.2363 45.5776C32.6377 44.2464 30.3055 43.4496 28.9088 43.1168C27.5121 42.784 27.5089 42.5856 27.5089 42.5856C31.9714 41.7216 33.5027 40.656 36.0335 39.1936C38.5643 37.7312 42.3605 32.9408 40.7299 26.6528C39.0993 20.3648 34.4349 16.9056 25.7085 15.7728C21.7617 15.2608 17.187 15.8784 13.362 16.7104C12.0902 15.856 10.6966 14.8736 9.25823 13.776C7.12787 11.9808 3.9948 9.184 2.59805 6.192C1.20131 3.2 0.733589 1.9296 0.666315 0.3328C0.666315 0.3328 0.666315 0 0.531766 0C0.397217 0 0.397217 0.9984 0.397217 0.9984C0.397217 0.9984 0.800864 7.0528 4.52979 11.6448C5.95537 13.3984 8.00244 15.4848 10.1232 17.4976C7.17913 18.2912 5.19613 19.0304 5.19613 19.0304C5.19613 19.0304 7.79742 18.7232 11.1067 18.4224C14.2205 21.3216 17.3088 23.9392 18.651 25.0176C21.0505 26.9472 21.3164 27.8112 21.3805 29.2096C21.4477 30.608 21.5791 32.5376 20.2496 33.6672C18.9201 34.7968 18.1192 35.9296 11.5904 37.6608C7.12787 39.1232 3.72891 39.6576 2.9985 44.5792C2.26809 49.5008 3.26439 55.824 3.39894 55.9584C3.39894 55.9584 3.59756 56.4256 3.79939 54.2944C3.99801 52.1664 4.06528 48.4384 4.99751 46.3104C5.92975 44.1824 6.73063 42.6496 9.46006 41.7856C12.1895 40.9216 17.7861 39.856 19.4519 39.3248C21.1178 38.7936 24.5808 37.6608 26.5798 35.2672C28.5788 32.8704 29.4438 28.8128 27.5793 25.952C25.7117 23.088 22.8477 22.4224 19.3174 20.3616C19.3174 20.3616 17.7765 19.5392 15.4667 18.0768C18.0167 17.9072 20.5283 17.8112 22.3159 17.8976C29.9083 17.8304 37.3373 27.0464 32.3078 34.6656C27.2558 42.3168 19.7178 41.1872 12.7245 42.7168C5.73113 44.2464 6.86198 48.3072 6.86198 48.3072C7.52832 48.24 7.3297 46.1792 12.9904 44.7808C18.651 43.3824 21.9155 44.3136 21.9155 44.3136C27.7107 45.6448 27.243 48.1728 35.7035 51.4336C42.6296 53.9616 46.429 52.6976 50.757 51.7664C55.0882 50.8352 60.4157 47.7728 60.8802 47.5072C61.3479 47.2416 60.9475 47.1072 60.9475 47.1072Z" fill="url(#paint0_linear_58_5907)"/>
<path d="M46.5443 21.5072H48.6939C49.2577 21.5072 49.7575 21.6224 50.1932 21.856C50.6288 22.0896 50.9684 22.4096 51.2119 22.8224C51.4554 23.232 51.5771 23.6992 51.5771 24.2208C51.5771 24.7424 51.4554 25.2096 51.2119 25.6192C50.9684 26.0288 50.6288 26.352 50.1932 26.5824C49.7575 26.8128 49.2577 26.9312 48.6939 26.9312H46.5443V21.5072ZM48.6587 26.5728C49.1616 26.5728 49.6005 26.4736 49.9849 26.2752C50.3661 26.0768 50.6609 25.7984 50.8691 25.4432C51.0773 25.088 51.1798 24.6784 51.1798 24.2208C51.1798 23.7632 51.0773 23.3536 50.8691 22.9984C50.6641 22.6432 50.3661 22.3648 49.9849 22.1664C49.6037 21.968 49.1616 21.8688 48.6587 21.8688H46.9383V26.5792L48.6587 26.5728Z" fill="#A58330"/>
<path d="M56.7156 26.9312L55.4214 25.12C55.2292 25.1456 55.053 25.1584 54.8928 25.1584H53.3423V26.9312H52.9482L52.9514 21.5104H54.8992C55.5816 21.5104 56.1166 21.6736 56.5042 21.9936C56.8918 22.3168 57.0872 22.7648 57.084 23.3376C57.084 23.7664 56.9751 24.128 56.7541 24.4192C56.533 24.7104 56.2191 24.9152 55.8122 25.0336L57.1673 26.9312H56.7156ZM54.8928 24.8096C55.4726 24.8096 55.9147 24.6816 56.2191 24.4256C56.5234 24.1696 56.6772 23.808 56.6772 23.3376C56.6772 22.8672 56.5234 22.5056 56.2191 22.2496C55.9147 21.9936 55.4726 21.8656 54.8928 21.8656H53.3423V24.8096H54.8928Z" fill="#A58330"/>
<path d="M58.1315 26.8672C58.0674 26.8032 58.0354 26.7232 58.0354 26.6304C58.0354 26.5376 58.0674 26.4608 58.1315 26.3968C58.1956 26.3328 58.2725 26.304 58.359 26.304C58.4455 26.304 58.5223 26.336 58.5864 26.3968C58.6505 26.4576 58.6825 26.5376 58.6825 26.6304C58.6825 26.7232 58.6505 26.8032 58.5864 26.8672C58.5223 26.9312 58.4455 26.9632 58.359 26.9632C58.2725 26.9632 58.1956 26.9312 58.1315 26.8672Z" fill="#A58330"/>
<path d="M65.6278 21.9968C66.0154 22.32 66.2077 22.768 66.2077 23.3408C66.2077 23.9104 66.0122 24.3552 65.6246 24.6784C65.237 25.0016 64.702 25.1616 64.0196 25.1616H62.4691V26.9344H62.0751L62.0783 21.5136H64.026C64.7052 21.5136 65.2402 21.6736 65.6278 21.9968ZM65.3459 24.4256C65.6502 24.1728 65.804 23.8112 65.804 23.3408C65.804 22.8704 65.6502 22.5088 65.3459 22.2528C65.0416 21.9968 64.5995 21.8688 64.0196 21.8688H62.4691V24.8032H64.0196C64.5995 24.8032 65.0416 24.6784 65.3459 24.4256Z" fill="#A58330"/>
<path d="M70.6286 25.4112H67.4795L66.7875 26.9376H66.3615L68.8602 21.5168H69.2543L71.7498 26.9408H71.3237L70.6286 25.4112ZM70.4812 25.0784L69.0556 21.9488L67.6365 25.0784H70.4812Z" fill="#A58330"/>
<path d="M76.8499 24.5984C77.0549 24.832 77.1574 25.1328 77.1574 25.504C77.1574 25.9648 76.9909 26.3168 76.6545 26.5664C76.3181 26.8128 75.8184 26.9376 75.1584 26.9376H72.7397L72.7429 21.5168H75.0079C75.5973 21.5168 76.0554 21.6384 76.3854 21.8784C76.7153 22.1184 76.8787 22.4608 76.8787 22.9056C76.8787 23.216 76.7954 23.4752 76.6353 23.6896C76.4719 23.9008 76.2508 24.0544 75.9721 24.1472C76.3501 24.2144 76.6449 24.368 76.8499 24.5984ZM76.3533 26.3232C76.6256 26.1408 76.7602 25.856 76.7602 25.4752C76.7602 25.0944 76.6256 24.8128 76.3533 24.6304C76.081 24.448 75.6838 24.3584 75.1552 24.3584H73.1306V26.5984H75.1552C75.6838 26.5984 76.081 26.5056 76.3533 26.3232ZM73.1338 21.856V24.016H74.9886C75.4628 24.016 75.8312 23.9232 76.0842 23.7408C76.3405 23.5584 76.4687 23.2864 76.4687 22.9312C76.4687 22.5792 76.3405 22.3136 76.0842 22.128C75.828 21.9456 75.4628 21.8528 74.9886 21.8528L73.1338 21.856Z" fill="#A58330"/>
<path d="M78.5702 21.5168H78.9674V26.5824H82.0941V26.9376H78.5734L78.5702 21.5168Z" fill="#A58330"/>
<path d="M83.8561 26.6176C83.4268 26.3776 83.0904 26.048 82.8437 25.6288C82.5971 25.2096 82.4753 24.7424 82.4753 24.2272C82.4753 23.712 82.5971 23.2448 82.8437 22.8256C83.0904 22.4064 83.4268 22.08 83.8561 21.84C84.2853 21.6 84.7659 21.4816 85.2977 21.4816C85.8295 21.4816 86.31 21.6 86.7393 21.84C87.1685 22.0768 87.5049 22.4064 87.7516 22.8256C87.9983 23.2448 88.12 23.7152 88.12 24.2368C88.12 24.7584 87.9983 25.2288 87.7516 25.6448C87.5049 26.0608 87.1685 26.3904 86.7393 26.6272C86.31 26.864 85.8295 26.9824 85.2977 26.9824C84.7659 26.9792 84.2853 26.8576 83.8561 26.6176ZM86.531 26.3072C86.8994 26.0992 87.1878 25.8144 87.3992 25.4528C87.6106 25.0912 87.7164 24.6816 87.7164 24.2336C87.7164 23.7856 87.6106 23.376 87.3992 23.0144C87.1878 22.6496 86.8994 22.3648 86.531 22.1568C86.1626 21.9488 85.7526 21.8464 85.2977 21.8464C84.8428 21.8464 84.4295 21.9488 84.0611 22.1568C83.6927 22.3648 83.4012 22.6496 83.1897 23.0112C82.9783 23.376 82.8726 23.7824 82.8726 24.2304C82.8726 24.6784 82.9783 25.088 83.1897 25.4496C83.4012 25.8144 83.6927 26.0992 84.0611 26.3072C84.4295 26.5152 84.8428 26.6176 85.2977 26.6176C85.7526 26.6144 86.1626 26.512 86.531 26.3072Z" fill="#A58330"/>
<path d="M95.2542 26.944L93.96 25.1296C93.7678 25.1552 93.5916 25.168 93.4314 25.168H91.8809V26.9408H91.4836L91.4868 21.52H93.4346C94.117 21.52 94.652 21.6832 95.0396 22.0032C95.4272 22.3264 95.6194 22.7744 95.6194 23.3472C95.6194 23.776 95.5105 24.1376 95.2895 24.4288C95.0684 24.72 94.7545 24.9248 94.3476 25.0432L95.7027 26.9408L95.2542 26.944ZM93.4346 24.8192C94.0145 24.8192 94.4565 24.6912 94.7609 24.4352C95.0652 24.1792 95.219 23.8176 95.219 23.3472C95.219 22.8768 95.0652 22.5152 94.7609 22.2592C94.4565 22.0032 94.0145 21.8752 93.4346 21.8752H91.8841V24.8192H93.4346Z" fill="#A58330"/>
<path d="M97.9292 26.624C97.4999 26.384 97.1635 26.0544 96.9169 25.6352C96.6702 25.216 96.5485 24.7488 96.5485 24.2336C96.5485 23.7184 96.6702 23.2512 96.9169 22.832C97.1635 22.4128 97.4999 22.0864 97.9292 21.8464C98.3585 21.6064 98.839 21.488 99.3708 21.488C99.9026 21.488 100.383 21.6064 100.812 21.8464C101.242 22.0832 101.578 22.4128 101.825 22.832C102.071 23.2512 102.193 23.7216 102.193 24.2432C102.193 24.7648 102.071 25.2352 101.825 25.6512C101.578 26.0672 101.242 26.3968 100.812 26.6336C100.383 26.8704 99.9026 26.9888 99.3708 26.9888C98.839 26.9824 98.3585 26.864 97.9292 26.624ZM100.604 26.3104C100.973 26.1024 101.261 25.8176 101.472 25.456C101.684 25.0944 101.789 24.6848 101.789 24.2368C101.789 23.7888 101.684 23.3792 101.472 23.0176C101.261 22.6528 100.973 22.368 100.604 22.16C100.236 21.952 99.8257 21.8496 99.3708 21.8496C98.9159 21.8496 98.5026 21.952 98.1342 22.16C97.7658 22.368 97.4743 22.6528 97.2629 23.0144C97.0514 23.3792 96.9457 23.7856 96.9457 24.2336C96.9457 24.6816 97.0514 25.0912 97.2629 25.4528C97.4743 25.8176 97.7658 26.1024 98.1342 26.3104C98.5026 26.5184 98.9159 26.6208 99.3708 26.6208C99.8289 26.6208 100.239 26.5152 100.604 26.3104Z" fill="#A58330"/>
<path d="M103.859 26.7808C103.5 26.6432 103.218 26.4672 103.016 26.2496L103.196 25.9552C103.388 26.1568 103.644 26.32 103.968 26.448C104.291 26.576 104.631 26.6368 104.987 26.6368C105.502 26.6368 105.893 26.5376 106.159 26.3424C106.425 26.1472 106.556 25.8912 106.556 25.5744C106.556 25.3312 106.486 25.1392 106.348 24.992C106.207 24.848 106.034 24.736 105.829 24.6592C105.621 24.5824 105.342 24.5024 104.993 24.4192C104.596 24.32 104.275 24.224 104.035 24.1312C103.795 24.0384 103.59 23.8944 103.423 23.7024C103.257 23.5104 103.17 23.248 103.17 22.9248C103.17 22.6624 103.241 22.4192 103.378 22.2016C103.516 21.984 103.731 21.808 104.019 21.68C104.308 21.552 104.663 21.488 105.092 21.488C105.394 21.488 105.688 21.5328 105.977 21.6192C106.265 21.7088 106.518 21.8272 106.729 21.9744L106.582 22.2912C106.364 22.1408 106.127 22.0288 105.864 21.9488C105.605 21.872 105.345 21.8336 105.092 21.8336C104.593 21.8336 104.211 21.9328 103.952 22.1344C103.692 22.336 103.564 22.5952 103.564 22.9152C103.564 23.1584 103.635 23.3504 103.773 23.4976C103.913 23.6416 104.086 23.7536 104.291 23.8304C104.497 23.9072 104.778 23.9904 105.137 24.08C105.534 24.1792 105.855 24.2752 106.092 24.368C106.329 24.4608 106.534 24.6016 106.701 24.7904C106.867 24.9792 106.954 25.232 106.954 25.552C106.954 25.8144 106.883 26.0544 106.739 26.272C106.595 26.4896 106.377 26.6624 106.082 26.7904C105.788 26.9184 105.426 26.9824 104.996 26.9824C104.596 26.9856 104.218 26.9152 103.859 26.7808Z" fill="#A58330"/>
<path d="M112.034 26.592V26.9472H108.29L108.293 21.5264H111.922V21.8816H108.69V24.0192H111.583V24.368H108.69V26.592H112.034Z" fill="#A58330"/>
<path d="M113.479 21.5264H113.876V26.592H117.003V26.9472H113.482L113.479 21.5264Z" fill="#A58330"/>
<path d="M47.4862 31.856C47.2716 31.7376 47.105 31.5744 46.9833 31.3664C46.8615 31.1584 46.8007 30.928 46.8007 30.672C46.8007 30.416 46.8615 30.1856 46.9833 29.9776C47.105 29.7696 47.2716 29.6064 47.4862 29.488C47.6977 29.3696 47.9379 29.3088 48.2006 29.3088C48.4633 29.3088 48.7036 29.3664 48.915 29.4848C49.1264 29.6032 49.2962 29.7664 49.418 29.9712C49.5397 30.176 49.6006 30.4128 49.6006 30.6688C49.6006 30.928 49.5397 31.1616 49.418 31.3664C49.2962 31.5744 49.1296 31.7376 48.915 31.8528C48.7004 31.9712 48.4633 32.0288 48.2006 32.0288C47.9379 32.0352 47.6977 31.9744 47.4862 31.856ZM48.8125 31.6992C48.9951 31.5968 49.1392 31.456 49.2418 31.2736C49.3475 31.0944 49.3987 30.8896 49.3987 30.6688C49.3987 30.4448 49.3475 30.2432 49.2418 30.064C49.136 29.8848 48.9919 29.7408 48.8125 29.6384C48.6299 29.536 48.4249 29.4848 48.2006 29.4848C47.9732 29.4848 47.7713 29.536 47.5855 29.6384C47.3997 29.7408 47.2588 29.8816 47.153 30.064C47.0473 30.2432 46.9961 30.448 46.9961 30.6688C46.9961 30.8928 47.0473 31.0944 47.153 31.2736C47.2588 31.4528 47.4029 31.5968 47.5855 31.6992C47.7681 31.8016 47.9732 31.8528 48.2006 31.8528C48.4281 31.8528 48.6299 31.8016 48.8125 31.6992Z" fill="#A58330"/>
<path d="M50.9525 29.5008H49.9818V29.3248H52.1154V29.5008H51.1447V32.0128H50.9493V29.5008H50.9525Z" fill="#A58330"/>
<path d="M53.1821 31.856C52.9675 31.7376 52.8009 31.5744 52.6792 31.3664C52.5575 31.1584 52.4966 30.928 52.4966 30.672C52.4966 30.416 52.5575 30.1856 52.6792 29.9776C52.8009 29.7696 52.9675 29.6064 53.1821 29.488C53.3936 29.3696 53.6338 29.3088 53.8965 29.3088C54.1592 29.3088 54.3995 29.3664 54.6109 29.4848C54.8224 29.6032 54.9921 29.7664 55.1139 29.9712C55.2356 30.176 55.2965 30.4128 55.2965 30.6688C55.2965 30.928 55.2356 31.1616 55.1139 31.3664C54.9921 31.5744 54.8256 31.7376 54.6109 31.8528C54.3963 31.9712 54.1592 32.0288 53.8965 32.0288C53.6338 32.0352 53.3968 31.9744 53.1821 31.856ZM54.5116 31.6992C54.6942 31.5968 54.8384 31.456 54.9409 31.2736C55.0466 31.0944 55.0979 30.8896 55.0979 30.6688C55.0979 30.4448 55.0466 30.2432 54.9409 30.064C54.8352 29.8848 54.691 29.7408 54.5116 29.6384C54.329 29.536 54.124 29.4848 53.8997 29.4848C53.6723 29.4848 53.4705 29.536 53.2847 29.6384C53.0989 29.7408 52.9579 29.8816 52.8522 30.064C52.7465 30.2432 52.6952 30.448 52.6952 30.6688C52.6952 30.8928 52.7465 31.0944 52.8522 31.2736C52.9579 31.4528 53.1021 31.5968 53.2847 31.6992C53.4673 31.8016 53.6723 31.8528 53.8997 31.8528C54.124 31.8528 54.329 31.8016 54.5116 31.6992Z" fill="#A58330"/>
<path d="M58.0419 32.016L57.398 31.1168C57.3019 31.1296 57.2154 31.136 57.1353 31.136H56.3664V32.016H56.171V29.3248H57.1353C57.4749 29.3248 57.7376 29.4048 57.933 29.5648C58.1252 29.7248 58.2213 29.9488 58.2213 30.2304C58.2213 30.4448 58.1668 30.6208 58.0579 30.768C57.949 30.9152 57.792 31.0144 57.5902 31.072L58.2629 32.0128L58.0419 32.016ZM57.1385 30.9632C57.4268 30.9632 57.6447 30.8992 57.7952 30.7744C57.9458 30.6496 58.0227 30.4672 58.0227 30.2336C58.0227 30 57.9458 29.8208 57.7952 29.6928C57.6447 29.5648 57.4236 29.504 57.1385 29.504H56.3696V30.9632H57.1385Z" fill="#A58330"/>
<path d="M61.002 32.016L60.3581 31.1168C60.262 31.1296 60.1755 31.136 60.0954 31.136H59.3265V32.016H59.1311V29.3248H60.0954C60.4349 29.3248 60.6976 29.4048 60.8931 29.5648C61.0853 29.7248 61.1814 29.9488 61.1814 30.2304C61.1814 30.4448 61.1269 30.6208 61.018 30.768C60.9091 30.9152 60.7521 31.0144 60.5503 31.072L61.223 32.0128L61.002 32.016ZM60.0986 30.9632C60.3869 30.9632 60.6047 30.8992 60.7553 30.7744C60.9059 30.6496 60.9828 30.4672 60.9828 30.2336C60.9828 30 60.9059 29.8208 60.7553 29.6928C60.6047 29.5648 60.3869 29.504 60.0986 29.504H59.3297V30.9632H60.0986Z" fill="#A58330"/>
<path d="M62.0944 29.3248H62.2898V32.016H62.0944V29.3248Z" fill="#A58330"/>
<path d="M65.6151 29.3248V32.016H65.4549L63.6192 29.68V32.016H63.4238V29.3248H63.5904L65.4228 31.6608V29.3248H65.6151Z" fill="#A58330"/>
<path d="M67.1752 31.856C66.9637 31.7376 66.794 31.5744 66.6722 31.3664C66.5505 31.1584 66.4896 30.928 66.4896 30.672C66.4896 30.416 66.5505 30.1856 66.6722 29.9776C66.794 29.7696 66.9605 29.6064 67.1752 29.488C67.3866 29.3696 67.6269 29.3088 67.8896 29.3088C68.1523 29.3088 68.3925 29.3664 68.604 29.4848C68.8154 29.6032 68.9852 29.7664 69.1069 29.9712C69.2287 30.1792 69.2895 30.4128 69.2895 30.6688C69.2895 30.928 69.2287 31.1616 69.1069 31.3664C68.9852 31.5712 68.8186 31.7376 68.604 31.8528C68.3925 31.9712 68.1523 32.0288 67.8896 32.0288C67.6237 32.0352 67.3866 31.9744 67.1752 31.856ZM68.5015 31.6992C68.6841 31.5968 68.8282 31.456 68.9307 31.2736C69.0364 31.0944 69.0877 30.8896 69.0877 30.6688C69.0877 30.4448 69.0364 30.2432 68.9307 30.064C68.825 29.8848 68.6809 29.7408 68.5015 29.6384C68.3189 29.536 68.1138 29.4848 67.8896 29.4848C67.6621 29.4848 67.4603 29.536 67.2777 29.6384C67.0951 29.7408 66.9509 29.8816 66.8452 30.064C66.7395 30.2432 66.6882 30.448 66.6882 30.6688C66.6882 30.8928 66.7395 31.0944 66.8452 31.2736C66.9509 31.4528 67.0951 31.5968 67.2777 31.6992C67.4603 31.8016 67.6653 31.8528 67.8896 31.8528C68.1138 31.8528 68.3189 31.8016 68.5015 31.6992Z" fill="#A58330"/>
<path d="M70.1609 29.3248H70.3563V31.8368H71.9068V32.0128H70.1609V29.3248Z" fill="#A58330"/>
<path d="M74.2743 31.2576H72.711L72.3682 32.016H72.1567L73.3965 29.3248H73.5919L74.8317 32.016H74.6203L74.2743 31.2576ZM74.2006 31.0944L73.4926 29.5424L72.7878 31.0944H74.2006Z" fill="#A58330"/>
<path d="M77.3817 32.016L76.7378 31.1168C76.6417 31.1296 76.5552 31.136 76.4751 31.136H75.7063V32.016H75.5109V29.3248H76.4751C76.8147 29.3248 77.0806 29.4048 77.2728 29.5648C77.465 29.7248 77.5611 29.9488 77.5611 30.2304C77.5611 30.4448 77.5067 30.6208 77.3978 30.768C77.2888 30.912 77.1319 31.0144 76.93 31.072L77.6028 32.0128L77.3817 32.016ZM76.4783 30.9632C76.7667 30.9632 76.9845 30.8992 77.1351 30.7744C77.2856 30.6496 77.3625 30.4672 77.3625 30.2336C77.3625 30 77.2856 29.8208 77.1351 29.6928C76.9845 29.5648 76.7635 29.504 76.4783 29.504H75.7095V30.9632H76.4783Z" fill="#A58330"/>
<path d="M78.4741 29.3248H78.6695V32.016H78.4741V29.3248Z" fill="#A58330"/>
<path d="M81.9948 29.3248V32.016H81.8346L79.999 29.68V32.016H79.8036V29.3248H79.9702L81.8026 31.6608V29.3248H81.9948Z" fill="#A58330"/>
<path d="M85.051 30.6816H85.24V31.6896C85.1215 31.8016 84.9805 31.888 84.8107 31.9456C84.6441 32.0032 84.4647 32.0352 84.2789 32.0352C84.013 32.0352 83.7728 31.9776 83.5581 31.8592C83.3435 31.7408 83.1769 31.5776 83.0552 31.3728C82.9334 31.168 82.8726 30.9312 82.8726 30.6752C82.8726 30.416 82.9334 30.1824 83.0552 29.9776C83.1769 29.7728 83.3435 29.6064 83.5581 29.4912C83.7728 29.3728 84.013 29.3152 84.2821 29.3152C84.4807 29.3152 84.6601 29.3472 84.8267 29.408C84.9933 29.4688 85.1343 29.5616 85.2528 29.6832L85.1311 29.8144C85.0189 29.7024 84.8908 29.6192 84.753 29.5712C84.6153 29.5232 84.4583 29.4976 84.2885 29.4976C84.0579 29.4976 83.8496 29.5488 83.6638 29.6512C83.478 29.7536 83.3307 29.8944 83.2282 30.0768C83.1224 30.256 83.0712 30.4608 83.0712 30.6816C83.0712 30.9024 83.1256 31.104 83.2314 31.2832C83.3371 31.4624 83.4844 31.6064 83.667 31.7088C83.8496 31.8112 84.0579 31.8656 84.2885 31.8656C84.5961 31.8656 84.8524 31.7824 85.0542 31.6192L85.051 30.6816Z" fill="#A58330"/>
<path d="M86.7201 31.856C86.5087 31.7376 86.3389 31.5744 86.2171 31.3664C86.0954 31.1584 86.0345 30.928 86.0345 30.672C86.0345 30.416 86.0954 30.1856 86.2171 29.9776C86.3389 29.7696 86.5055 29.6064 86.7201 29.488C86.9315 29.3696 87.1718 29.3088 87.4345 29.3088C87.6972 29.3088 87.9375 29.3664 88.1489 29.4848C88.3603 29.6032 88.5301 29.7664 88.6518 29.9712C88.7736 30.1792 88.8344 30.4128 88.8344 30.6688C88.8344 30.928 88.7736 31.1616 88.6518 31.3664C88.5301 31.5712 88.3635 31.7376 88.1489 31.8528C87.9375 31.9712 87.6972 32.0288 87.4345 32.0288C87.1718 32.0352 86.9315 31.9744 86.7201 31.856ZM88.0464 31.6992C88.229 31.5968 88.3731 31.456 88.4756 31.2736C88.5814 31.0944 88.6326 30.8896 88.6326 30.6688C88.6326 30.4448 88.5814 30.2432 88.4756 30.064C88.3699 29.8848 88.2258 29.7408 88.0464 29.6384C87.8638 29.536 87.6587 29.4848 87.4345 29.4848C87.207 29.4848 87.0052 29.536 86.8226 29.6384C86.64 29.7408 86.4959 29.8816 86.3901 30.064C86.2844 30.2432 86.2332 30.448 86.2332 30.6688C86.2332 30.8928 86.2844 31.0944 86.3901 31.2736C86.4959 31.4528 86.64 31.5968 86.8226 31.6992C87.0052 31.8016 87.2102 31.8528 87.4345 31.8528C87.6587 31.8528 87.8638 31.8016 88.0464 31.6992ZM87.7484 28.6528H88.0239L87.4185 29.1072H87.2102L87.7484 28.6528Z" fill="#A58330"/>
<path d="M89.709 29.3248H89.9044V31.8368H91.4549V32.0128H89.709V29.3248Z" fill="#A58330"/>
<path d="M92.5249 31.856C92.3135 31.7376 92.1437 31.5744 92.022 31.3664C91.9002 31.1584 91.8394 30.928 91.8394 30.672C91.8394 30.416 91.9002 30.1856 92.022 29.9776C92.1437 29.7696 92.3103 29.6064 92.5249 29.488C92.7363 29.3696 92.9766 29.3088 93.2393 29.3088C93.502 29.3088 93.7423 29.3664 93.9537 29.4848C94.1651 29.6032 94.3349 29.7664 94.4567 29.9712C94.5784 30.1792 94.6393 30.4128 94.6393 30.6688C94.6393 30.928 94.5784 31.1616 94.4567 31.3664C94.3349 31.5712 94.1683 31.7376 93.9537 31.8528C93.7423 31.9712 93.502 32.0288 93.2393 32.0288C92.9734 32.0352 92.7363 31.9744 92.5249 31.856ZM93.8512 31.6992C94.0338 31.5968 94.1779 31.456 94.2805 31.2736C94.3862 31.0944 94.4374 30.8896 94.4374 30.6688C94.4374 30.4448 94.3862 30.2432 94.2805 30.064C94.1747 29.8848 94.0306 29.7408 93.8512 29.6384C93.6686 29.536 93.4636 29.4848 93.2393 29.4848C93.0119 29.4848 92.81 29.536 92.6274 29.6384C92.4448 29.7408 92.3007 29.8816 92.1949 30.064C92.0892 30.2432 92.038 30.448 92.038 30.6688C92.038 30.8928 92.0892 31.0944 92.1949 31.2736C92.3007 31.4528 92.4448 31.5968 92.6274 31.6992C92.81 31.8016 93.0151 31.8528 93.2393 31.8528C93.4636 31.8528 93.6686 31.8016 93.8512 31.6992Z" fill="#A58330"/>
<path d="M97.436 30.6816H97.625V31.6896C97.5065 31.8016 97.3655 31.888 97.1957 31.9456C97.0291 32.0032 96.8497 32.0352 96.6639 32.0352C96.398 32.0352 96.1578 31.9776 95.9431 31.8592C95.7285 31.7408 95.5619 31.5776 95.4402 31.3728C95.3184 31.168 95.2576 30.9312 95.2576 30.6752C95.2576 30.416 95.3184 30.1824 95.4402 29.9776C95.5619 29.7728 95.7285 29.6064 95.9431 29.4912C96.1578 29.3728 96.398 29.3152 96.6671 29.3152C96.8657 29.3152 97.0451 29.3472 97.2117 29.408C97.3783 29.4688 97.5193 29.5616 97.6378 29.6832L97.5161 29.8144C97.4039 29.7024 97.2758 29.6192 97.138 29.5712C97.0003 29.5232 96.8433 29.4976 96.6735 29.4976C96.4429 29.4976 96.2346 29.5488 96.0488 29.6512C95.863 29.7536 95.7157 29.8944 95.6132 30.0768C95.5074 30.256 95.4562 30.4608 95.4562 30.6816C95.4562 30.9024 95.5106 31.104 95.6164 31.2832C95.7221 31.4624 95.8694 31.6064 96.0521 31.7088C96.2347 31.8112 96.4429 31.8656 96.6735 31.8656C96.9811 31.8656 97.2374 31.7824 97.4392 31.6192L97.436 30.6816Z" fill="#A58330"/>
<path d="M99.105 31.856C98.8936 31.7376 98.7238 31.5744 98.602 31.3664C98.4803 31.1584 98.4194 30.928 98.4194 30.672C98.4194 30.416 98.4803 30.1856 98.602 29.9776C98.7238 29.7696 98.8904 29.6064 99.105 29.488C99.3164 29.3696 99.5567 29.3088 99.8194 29.3088C100.082 29.3088 100.322 29.3664 100.534 29.4848C100.745 29.6032 100.915 29.7664 101.037 29.9712C101.158 30.1792 101.219 30.4128 101.219 30.6688C101.219 30.928 101.158 31.1616 101.037 31.3664C100.915 31.5712 100.748 31.7376 100.534 31.8528C100.322 31.9712 100.082 32.0288 99.8194 32.0288C99.5567 32.0352 99.3196 31.9744 99.105 31.856ZM100.431 31.6992C100.614 31.5968 100.758 31.456 100.861 31.2736C100.966 31.0944 101.018 30.8896 101.018 30.6688C101.018 30.4448 100.966 30.2432 100.861 30.064C100.755 29.8848 100.611 29.7408 100.431 29.6384C100.249 29.536 100.044 29.4848 99.8194 29.4848C99.5919 29.4848 99.3901 29.536 99.2075 29.6384C99.0249 29.7408 98.8807 29.8816 98.775 30.064C98.6693 30.2432 98.6181 30.448 98.6181 30.6688C98.6181 30.8928 98.6693 31.0944 98.775 31.2736C98.8807 31.4528 99.0249 31.5968 99.2075 31.6992C99.3901 31.8016 99.5951 31.8528 99.8194 31.8528C100.047 31.8528 100.252 31.8016 100.431 31.6992Z" fill="#A58330"/>
<path d="M47.483 37.0976C47.2716 36.9792 47.105 36.816 46.9833 36.6112C46.8615 36.4032 46.8007 36.1696 46.8007 35.9136C46.8007 35.6576 46.8615 35.4208 46.9833 35.216C47.105 35.008 47.2716 34.8448 47.483 34.7296C47.6944 34.6144 47.9315 34.5536 48.1974 34.5536C48.3928 34.5536 48.5722 34.5856 48.7356 34.6464C48.899 34.7104 49.0399 34.8032 49.1553 34.9248L49.0335 35.0528C48.8189 34.8416 48.5434 34.7328 48.207 34.7328C47.9796 34.7328 47.7777 34.784 47.5919 34.8864C47.4061 34.9888 47.262 35.1296 47.1563 35.312C47.0505 35.4912 46.9993 35.6928 46.9993 35.9168C46.9993 36.1408 47.0505 36.3424 47.1563 36.5216C47.262 36.7008 47.4061 36.8448 47.5919 36.9472C47.7777 37.0496 47.9828 37.1008 48.207 37.1008C48.5402 37.1008 48.8157 36.992 49.0335 36.7776L49.1553 36.9056C49.0399 37.0272 48.899 37.1232 48.7324 37.1872C48.5658 37.2512 48.3864 37.2832 48.1942 37.2832C47.9315 37.2736 47.6944 37.216 47.483 37.0976Z" fill="#A58330"/>
<path d="M50.0042 34.5663H50.1996V37.2575H50.0042V34.5663Z" fill="#A58330"/>
<path d="M53.2013 37.2544L52.5574 36.3552C52.4613 36.368 52.3748 36.3744 52.2947 36.3744H51.5259V37.2544H51.3304V34.5632H52.2947C52.6343 34.5632 52.897 34.6432 53.0924 34.8032C53.2846 34.9632 53.3807 35.184 53.3807 35.4688C53.3807 35.6832 53.3263 35.8592 53.2173 36.0064C53.1084 36.1536 52.9514 36.2528 52.7496 36.3136L53.4224 37.2544H53.2013ZM52.2979 36.2016C52.5862 36.2016 52.8041 36.1376 52.9546 36.0128C53.1052 35.888 53.1821 35.7056 53.1821 35.472C53.1821 35.2384 53.1052 35.0592 52.9546 34.9312C52.8041 34.8032 52.583 34.7424 52.2979 34.7424H51.5291V36.2016H52.2979Z" fill="#A58330"/>
<path d="M54.5533 36.9791C54.3643 36.7807 54.2714 36.4927 54.2714 36.1151V34.5663H54.4668V36.1087C54.4668 36.4383 54.5437 36.6879 54.6942 36.8511C54.8448 37.0143 55.0658 37.0975 55.351 37.0975C55.6361 37.0975 55.8539 37.0143 56.0045 36.8511C56.155 36.6879 56.2319 36.4415 56.2319 36.1087V34.5663H56.4274V36.1151C56.4274 36.4927 56.3312 36.7807 56.1422 36.9791C55.9532 37.1775 55.6873 37.2735 55.3446 37.2735C55.0082 37.2735 54.7423 37.1743 54.5533 36.9791Z" fill="#A58330"/>
<path d="M59.4611 35.92H59.6501V36.928C59.5316 37.04 59.3874 37.1264 59.2209 37.1872C59.0543 37.2448 58.8749 37.2768 58.6891 37.2768C58.4232 37.2768 58.1829 37.2192 57.9683 37.1008C57.7536 36.9824 57.5871 36.8192 57.4653 36.6144C57.3436 36.4064 57.2827 36.1728 57.2827 35.9168C57.2827 35.6608 57.3436 35.424 57.4653 35.2192C57.5871 35.0112 57.7536 34.848 57.9683 34.7328C58.1829 34.6144 58.4232 34.5568 58.6923 34.5568C58.8909 34.5568 59.0703 34.5888 59.2369 34.6496C59.4035 34.7104 59.5444 34.8032 59.663 34.9248L59.5412 35.056C59.4291 34.944 59.301 34.8608 59.1632 34.8128C59.0222 34.7616 58.8685 34.7392 58.6987 34.7392C58.468 34.7392 58.2598 34.7904 58.074 34.8928C57.8882 34.9952 57.744 35.136 57.6383 35.3184C57.5326 35.4976 57.4813 35.6992 57.4813 35.9232C57.4813 36.144 57.5358 36.3456 57.6415 36.5248C57.7472 36.704 57.8946 36.848 58.0772 36.9504C58.2598 37.0528 58.468 37.1072 58.6987 37.1072C59.0062 37.1072 59.2625 37.024 59.4643 36.8608V35.92H59.4611Z" fill="#A58330"/>
<path d="M61.1174 33.8912H61.3961L60.7938 34.3456H60.5856L61.1174 33.8912ZM60.7041 34.5664H60.8995V37.2576H60.7041V34.5664Z" fill="#A58330"/>
<path d="M63.6962 36.4991H62.1328L61.7901 37.2575H61.5786L62.8184 34.5663H63.0138L64.2536 37.2575H64.0421L63.6962 36.4991ZM63.6225 36.3327L62.9145 34.7807L62.2097 36.3327H63.6225Z" fill="#A58330"/>
<path d="M67.8768 34.8064C68.069 34.9664 68.1651 35.1872 68.1651 35.472C68.1651 35.7536 68.069 35.9744 67.8768 36.1344C67.6846 36.2944 67.4187 36.3744 67.0791 36.3744H66.3103V37.2544H66.1149V34.5632H67.0791C67.4187 34.5664 67.6846 34.6464 67.8768 34.8064ZM67.7391 36.0096C67.8896 35.8848 67.9665 35.7056 67.9665 35.472C67.9665 35.2384 67.8896 35.0592 67.7391 34.9312C67.5885 34.8032 67.3675 34.7424 67.0823 34.7424H66.3135V36.1984H67.0823C67.3675 36.1984 67.5885 36.1344 67.7391 36.0096Z" fill="#A58330"/>
<path d="M69.0205 34.5663H69.2159V37.0783H70.7664V37.2543H69.0205V34.5663Z" fill="#A58330"/>
<path d="M73.1306 36.4992H71.5673L71.2245 37.2576H71.0131L72.2528 34.5664H72.4483L73.688 37.2576H73.4766L73.1306 36.4992ZM73.0601 36.3328L72.3521 34.7808L71.6474 36.3328H73.0601ZM72.6693 33.8912H72.9448L72.3393 34.3456H72.1311L72.6693 33.8912Z" fill="#A58330"/>
<path d="M74.5146 37.1712C74.3352 37.104 74.1975 37.0144 74.0981 36.9088L74.1878 36.7616C74.284 36.8608 74.4089 36.944 74.5691 37.0048C74.7292 37.0688 74.899 37.0976 75.0752 37.0976C75.3315 37.0976 75.5269 37.0496 75.6551 36.9504C75.7864 36.8544 75.8505 36.7264 75.8505 36.5696C75.8505 36.448 75.8152 36.352 75.748 36.2816C75.6775 36.2112 75.5942 36.1536 75.4917 36.1152C75.3892 36.0768 75.2514 36.0384 75.0752 35.9968C74.8766 35.9488 74.7196 35.9008 74.6011 35.856C74.4826 35.8112 74.3801 35.7376 74.2968 35.6416C74.2135 35.5456 74.1718 35.4176 74.1718 35.2544C74.1718 35.1232 74.2071 35.0048 74.2743 34.896C74.3448 34.7872 74.4505 34.7008 74.5915 34.6368C74.7324 34.5728 74.9118 34.5408 75.1233 34.5408C75.2706 34.5408 75.418 34.5632 75.5622 34.6048C75.7063 34.6464 75.8313 34.7072 75.9338 34.7808L75.8601 34.9376C75.7512 34.864 75.6326 34.8064 75.5045 34.768C75.3764 34.7296 75.2482 34.7104 75.1233 34.7104C74.8734 34.7104 74.6876 34.7616 74.5595 34.8608C74.4313 34.96 74.3672 35.0912 74.3672 35.248C74.3672 35.3696 74.4025 35.4656 74.4698 35.536C74.537 35.6064 74.6235 35.664 74.7292 35.7024C74.8318 35.7408 74.9727 35.7824 75.1489 35.824C75.3475 35.872 75.5045 35.92 75.623 35.9648C75.7416 36.0096 75.8409 36.08 75.9242 36.1728C76.0075 36.2656 76.0491 36.3936 76.0491 36.5504C76.0491 36.6816 76.0139 36.8 75.9434 36.9088C75.8729 37.0176 75.764 37.104 75.6198 37.168C75.4725 37.232 75.2931 37.264 75.0816 37.264C74.8798 37.2736 74.694 37.2416 74.5146 37.1712Z" fill="#A58330"/>
<path d="M77.3817 34.7423H76.411V34.5663H78.5446V34.7423H77.5739V37.2543H77.3785L77.3817 34.7423Z" fill="#A58330"/>
<path d="M79.2269 34.5663H79.4223V37.2575H79.2269V34.5663Z" fill="#A58330"/>
<path d="M80.9761 37.0976C80.7646 36.9792 80.598 36.816 80.4763 36.6112C80.3546 36.4064 80.2937 36.1696 80.2937 35.9136C80.2937 35.6576 80.3546 35.4208 80.4763 35.216C80.598 35.0112 80.7646 34.8448 80.9761 34.7296C81.1875 34.6144 81.4246 34.5536 81.6905 34.5536C81.8859 34.5536 82.0653 34.5856 82.2286 34.6464C82.392 34.7072 82.533 34.8032 82.6483 34.9248L82.5266 35.0528C82.3119 34.8416 82.0364 34.7328 81.7001 34.7328C81.4726 34.7328 81.2708 34.784 81.085 34.8864C80.8992 34.9888 80.755 35.1296 80.6493 35.312C80.5436 35.4912 80.4923 35.6928 80.4923 35.9168C80.4923 36.1408 80.5436 36.3424 80.6493 36.5216C80.755 36.7008 80.8992 36.8448 81.085 36.9472C81.2708 37.0496 81.4758 37.1008 81.7001 37.1008C82.0332 37.1008 82.3087 36.992 82.5266 36.7776L82.6483 36.9056C82.533 37.0272 82.392 37.1232 82.2286 37.1872C82.0653 37.2512 81.8827 37.2832 81.6905 37.2832C81.4278 37.2736 81.1907 37.216 80.9761 37.0976Z" fill="#A58330"/>
<path d="M85.0926 36.4991H83.5293L83.1865 37.2575H82.9751L84.2149 34.5663H84.4103L85.6501 37.2575H85.4386L85.0926 36.4991ZM85.019 36.3327L84.311 34.7807L83.6062 36.3327H85.019Z" fill="#A58330"/>
<path d="M87.7068 34.7424V35.8912H89.142V36.0672H87.7068V37.2544H87.5114V34.5632H89.3117V34.7392L87.7068 34.7424Z" fill="#A58330"/>
<path d="M91.6664 36.4991H90.103L89.7603 37.2575H89.5488L90.7886 34.5663H90.984L92.2238 37.2575H92.0124L91.6664 36.4991ZM91.5927 36.3327L90.8847 34.7807L90.1799 36.3327H91.5927Z" fill="#A58330"/>
<path d="M93.2905 37.0976C93.0791 36.9792 92.9125 36.816 92.7908 36.6112C92.669 36.4064 92.6082 36.1696 92.6082 35.9136C92.6082 35.6576 92.669 35.4208 92.7908 35.216C92.9125 35.0112 93.0791 34.8448 93.2905 34.7296C93.5019 34.6144 93.739 34.5536 94.0049 34.5536C94.2003 34.5536 94.3797 34.5856 94.5431 34.6464C94.7065 34.7072 94.8474 34.8032 94.9628 34.9248L94.841 35.0528C94.6264 34.8416 94.3509 34.7328 94.0145 34.7328C93.7871 34.7328 93.5852 34.784 93.3994 34.8864C93.2136 34.9888 93.0695 35.1296 92.9637 35.312C92.858 35.4912 92.8068 35.6928 92.8068 35.9168C92.8068 36.1408 92.858 36.3424 92.9637 36.5216C93.0695 36.7008 93.2136 36.8448 93.3994 36.9472C93.5852 37.0496 93.7903 37.1008 94.0145 37.1008C94.3477 37.1008 94.6232 36.992 94.841 36.7776L94.9628 36.9056C94.8474 37.0272 94.7065 37.1232 94.5431 37.1872C94.3797 37.2512 94.1971 37.2832 94.0049 37.2832C93.739 37.2736 93.5019 37.216 93.2905 37.0976Z" fill="#A58330"/>
<path d="M95.8118 34.5663H96.0072V37.2575H95.8118V34.5663Z" fill="#A58330"/>
<path d="M98.8038 36.4991H97.2405L96.8977 37.2575H96.6863L97.9261 34.5663H98.1215L99.3612 37.2575H99.1498L98.8038 36.4991ZM98.7333 36.3327L98.0254 34.7807L97.3206 36.3327H98.7333Z" fill="#A58330"/>
<path d="M100.044 34.5663H100.239V37.0783H101.79V37.2543H100.044V34.5663Z" fill="#A58330"/>
</g>
<defs>
<linearGradient id="paint0_linear_58_5907" x1="24.6346" y1="-1.74578" x2="33.3607" y2="59.744" gradientUnits="userSpaceOnUse">
<stop stop-color="#DFBA74"/>
<stop offset="0.2839" stop-color="#DCB265"/>
<stop offset="0.6826" stop-color="#B88D48"/>
<stop offset="0.8836" stop-color="#936C31"/>
<stop offset="1" stop-color="#7B5622"/>
</linearGradient>
<clipPath id="clip0_58_5907">
<rect width="117" height="56" fill="white"/>
</clipPath>
</defs>
</svg>
