<svg width="79" height="56" viewBox="0 0 79 56" fill="none" xmlns="http://www.w3.org/2000/svg">
<g clip-path="url(#clip0_58_5909)">
<path d="M4.63144 45.7888C4.18851 46.1267 3.67542 46.2948 3.09217 46.2948C2.37279 46.2948 1.77698 46.0643 1.3042 45.6038C0.831419 45.1423 0.595815 44.5671 0.595815 43.8777C0.595815 43.4219 0.701575 43.0112 0.912571 42.6461C1.12357 42.2804 1.42095 41.9897 1.80577 41.7733C2.18954 41.557 2.60735 41.4485 3.05814 41.4485C3.46966 41.4485 3.84819 41.5313 4.1927 41.6963C4.37176 41.7817 4.53616 41.8886 4.68799 42.0148L5.12674 41.6397C4.93459 41.4679 4.7194 41.3223 4.47856 41.2044C4.05395 40.9959 3.57751 40.8911 3.04976 40.8911C2.17645 40.8911 1.44922 41.174 0.869116 41.7387C0.289531 42.304 0 43.0002 0 43.8274C0 44.6137 0.238745 45.2858 0.718853 45.8417C1.28954 46.4997 2.06912 46.8297 3.05814 46.8297C3.57803 46.8297 4.04819 46.7312 4.46914 46.5358C4.66705 46.4431 4.84925 46.3336 5.01679 46.2052L4.63197 45.7888H4.63144Z" fill="#1C39B5"/>
<path d="M36.0467 7.46725C35.4048 6.6935 34.9901 5.66253 35.1718 4.6436C35.3823 3.58539 36.2095 2.7341 37.1336 2.2338C38.9849 1.2615 41.4038 1.32594 43.1672 2.47426C43.7598 2.89231 43.2567 3.7855 42.5944 3.49947C41.0431 2.76186 39.1682 2.42973 37.531 3.07252C36.9305 3.30616 36.3854 3.69959 36.0069 4.22189C35.6189 4.7599 35.5347 5.42521 35.6525 6.09262C35.7357 6.54315 35.8954 6.9963 36.1226 7.4112C36.1546 7.4573 36.0833 7.51231 36.0467 7.46725Z" fill="#1C39B5"/>
<path d="M35.9339 7.47511C34.1334 6.1953 33.2638 3.98562 34.8051 2.12536C35.8973 0.75335 37.6952 0.191763 39.3748 0.032507C41.0491 -0.130416 42.7989 0.335827 44.246 1.0069C44.5434 1.13997 44.6764 1.49043 44.5413 1.78747C44.4157 2.06459 44.0994 2.19556 43.8172 2.10074L42.9387 1.80214C41.8151 1.43176 40.6481 1.14782 39.4669 1.22221C38.3125 1.29975 37.1282 1.55592 36.1538 2.19975C34.8496 3.06885 34.3585 4.38062 35.0067 5.84221C35.2418 6.39646 35.5868 6.92662 35.9952 7.40282C36.035 7.44001 35.979 7.50916 35.9339 7.47511Z" fill="#1C39B5"/>
<path d="M34.2291 1.16144C34.2291 1.16144 29.2715 3.29463 27.8998 7.14716C26.7835 10.282 26.7155 13.7144 28.6092 16.5653C30.3317 19.1579 33.2187 20.9579 36.1726 21.8082C37.1443 22.0879 38.1438 22.2697 39.1517 22.3509C42.358 22.6086 45.7627 22.0565 48.4889 20.269C49.29 19.7441 50.024 19.1165 50.6654 18.4056C51.0329 17.9981 51.3764 17.5538 51.5643 17.0378C52.012 15.8083 51.1884 14.3451 50.1271 13.695C48.9674 12.9846 47.613 13.5336 46.6015 14.2241C44.1596 15.8911 41.3198 16.5134 38.3794 16.1671C35.8956 15.8748 33.5108 14.935 31.6281 13.2628C30.1731 11.9709 29.2066 10.1107 29.0548 8.15823C28.8841 5.96636 29.9883 4.17002 31.6558 2.84463C32.4595 2.20708 33.338 1.66854 34.2291 1.16144Z" fill="#1C39B5"/>
<path d="M34.3526 1.84613C33.1254 2.47739 31.9317 3.61995 31.5442 4.97677C31.1594 6.32468 31.3107 7.81404 31.9338 9.06714C32.5741 10.3548 33.6442 11.4989 34.8573 12.2643C37.3526 13.8391 40.5935 14.2602 43.4155 13.4126C44.5904 13.0595 45.6459 12.5131 46.537 11.6629C46.9202 11.2967 47.282 10.8949 47.3213 10.3506C47.359 9.82518 47.1553 9.28245 46.8129 8.88693C46.0496 8.00421 45.0035 8.4605 44.193 8.97179C42.9291 9.76964 41.4841 10.106 40.0008 10.1248C38.2165 10.1474 36.3343 9.72093 34.838 8.724C33.5353 7.85648 32.5254 6.42108 32.5898 4.80389C32.6374 3.59166 33.2741 2.43339 34.3526 1.84613Z" fill="#1C39B5"/>
<path d="M24.8927 54.9591C24.4498 55.297 23.9367 55.4652 23.3534 55.4652C22.6341 55.4652 22.0382 55.2347 21.5655 54.7742C21.0927 54.3127 20.8571 53.7375 20.8571 53.048C20.8571 52.5923 20.9628 52.1816 21.1738 51.8164C21.3848 51.4508 21.6822 51.16 22.067 50.9437C22.4508 50.7273 22.8686 50.6189 23.3194 50.6189C23.7309 50.6189 24.1095 50.7016 24.454 50.8666C24.633 50.952 24.7974 51.0589 24.9493 51.1852L25.388 50.8101C25.1959 50.6382 24.9807 50.4926 24.7398 50.3747C24.3152 50.1662 23.8388 50.0615 23.311 50.0615C22.4377 50.0615 21.7105 50.3444 21.1304 50.9091C20.5503 51.4749 20.2607 52.1711 20.2607 52.9983C20.2607 53.7846 20.4995 54.4567 20.9796 55.0125C21.5498 55.6705 22.3299 56.0006 23.3189 56.0006C23.8388 56.0006 24.3089 55.9021 24.7299 55.7067C24.9278 55.6139 25.11 55.5045 25.2775 55.3761L24.8927 54.9596V54.9591Z" fill="#1C39B5"/>
<path d="M5.93311 41.0336H6.5352V43.4052H9.60329V41.0336H10.2054V46.6872H9.60329V43.9584H6.5352V46.6872H5.93311V41.0336Z" fill="#1C39B5"/>
<path d="M18.1835 41.031C18.372 41.031 18.561 41.031 18.7494 41.031C18.7463 42.1772 18.7432 43.3235 18.74 44.4697C18.7395 44.7405 18.7426 45.0161 18.795 45.2822C18.8955 45.7914 19.217 46.1026 19.7201 46.2126C20.1385 46.3037 20.6395 46.3535 21.0379 46.1717C21.2097 46.0921 21.3531 45.9821 21.4683 45.8412C21.5835 45.7002 21.6683 45.53 21.7217 45.3299C21.7599 45.1863 21.7793 44.8919 21.7793 44.4456V41.0326H22.3437V44.4456C22.3437 44.9506 22.2945 45.3587 22.1961 45.6699C22.0222 46.2184 21.5458 46.5934 21.0002 46.7323C20.6065 46.8323 20.1913 46.8203 19.7892 46.7621C19.4076 46.7066 19.0154 46.6018 18.7275 46.3451C18.4709 46.1167 18.3212 45.7877 18.25 45.4519C18.1782 45.1161 18.1788 44.7693 18.1793 44.4262C18.1803 43.2946 18.1819 42.1626 18.1835 41.031Z" fill="#1C39B5"/>
<path d="M46.0135 50.0882C46.202 50.0882 46.391 50.0882 46.5795 50.0882C46.5764 51.2344 46.5732 52.3806 46.5701 53.5269C46.5696 53.7977 46.5727 54.0733 46.6251 54.3394C46.7256 54.8486 47.0471 55.1598 47.5502 55.2698C47.9685 55.3609 48.4696 55.4107 48.868 55.2289C49.0397 55.1493 49.1832 55.0393 49.2984 54.8984C49.4136 54.7574 49.4979 54.5872 49.5518 54.3871C49.59 54.2435 49.6094 53.9491 49.6094 53.5028V50.0898H50.1738V53.5028C50.1738 54.0078 50.1246 54.4159 50.0261 54.7271C49.8523 55.2755 49.3759 55.6506 48.8303 55.7895C48.4366 55.8895 48.0214 55.878 47.6193 55.8193C47.2376 55.7638 46.8455 55.659 46.5575 55.4023C46.301 55.1739 46.1512 54.8449 46.08 54.5091C46.0088 54.1733 46.0088 53.8265 46.0094 53.4834C46.0104 52.3518 46.012 51.2198 46.0135 50.0882Z" fill="#1C39B5"/>
<path d="M23.7158 41.0336C23.9614 41.0336 24.2069 41.0336 24.4525 41.0336C25.1541 41.0336 25.9232 40.9765 26.5315 41.3924C26.7944 41.5721 27.008 41.832 27.1132 42.1342C27.1724 42.3034 27.1813 42.4899 27.1912 42.6675C27.2137 43.0547 27.1467 43.4492 26.8996 43.7603C26.5761 44.1674 25.9755 44.4298 25.4661 44.4744C25.4493 44.4759 25.3719 44.4906 25.3603 44.4796L27.6132 46.6872H26.6321L24.341 44.4026V46.6872H23.7158V41.0336ZM24.3404 41.6465V43.9311C24.3404 43.9311 25.3514 43.9164 25.4499 43.9002C25.8849 43.8284 26.2766 43.6241 26.4609 43.2019C26.609 42.8624 26.5766 42.4365 26.3802 42.1222C26.2069 41.8451 25.9394 41.7356 25.6242 41.6732C25.5195 41.6528 25.4001 41.6402 25.2938 41.6402L24.3404 41.6465Z" fill="#1C39B5"/>
<path d="M41.1504 50.1505C41.3959 50.1505 41.6415 50.1505 41.887 50.1505C42.5886 50.1505 43.3577 50.0934 43.9661 50.5094C44.2289 50.6891 44.4426 50.9489 44.5478 51.2512C44.607 51.4204 44.6159 51.6069 44.6258 51.7845C44.6483 52.1716 44.5813 52.5661 44.3342 52.8773C44.0106 53.2843 43.4101 53.5468 42.9007 53.5913C42.8839 53.5929 42.8064 53.6075 42.7949 53.5965L45.0478 55.8041H44.0666L41.7755 53.5195V55.8041H41.1504V50.1505ZM41.7755 50.764V53.0486C41.7755 53.0486 42.7865 53.0339 42.885 53.0177C43.32 52.9459 43.7117 52.7416 43.896 52.3194C44.0441 51.9799 44.0117 51.554 43.8153 51.2397C43.642 50.9625 43.3745 50.853 43.0593 50.7907C42.9546 50.7703 42.8352 50.7577 42.7289 50.7577L41.7755 50.764Z" fill="#1C39B5"/>
<path d="M13.2935 41.0336C13.539 41.0336 13.7846 41.0336 14.0301 41.0336C14.7317 41.0336 15.5008 40.9765 16.1092 41.3924C16.372 41.5721 16.5856 41.832 16.6909 42.1342C16.75 42.3034 16.7589 42.4899 16.7689 42.6675C16.7914 43.0547 16.7244 43.4492 16.4772 43.7603C16.1537 44.1674 15.5532 44.4298 15.0437 44.4744C15.027 44.4759 14.9495 44.4906 14.938 44.4796L17.1909 46.6872H16.2097L13.9186 44.4026V46.6872H13.2935V41.0336ZM13.9186 41.6465V43.9311C13.9186 43.9311 14.9296 43.9164 15.028 43.9002C15.4631 43.8284 15.8547 43.6241 16.039 43.2019C16.1872 42.8624 16.1547 42.4365 15.9584 42.1222C15.7851 41.8451 15.5176 41.7356 15.2024 41.6732C15.0977 41.6528 14.9783 41.6402 14.872 41.6402L13.9186 41.6465Z" fill="#1C39B5"/>
<path d="M13.6997 50.2055C13.9453 50.2055 14.1908 50.2055 14.4364 50.2055C15.1379 50.2055 15.9071 50.1484 16.5154 50.5644C16.7783 50.7441 16.9919 51.0039 17.0971 51.3062C17.1563 51.4754 17.1652 51.6619 17.1751 51.8395C17.1976 52.2266 17.1306 52.6211 16.8835 52.9323C16.5599 53.3393 15.9594 53.6018 15.45 53.6463C15.4332 53.6479 15.3557 53.6625 15.3442 53.6515L17.5971 55.8591H16.616L14.3248 53.5745V55.8591H13.6997V50.2055ZM14.3248 50.8185V53.103C14.3248 53.103 15.3358 53.0884 15.4343 53.0721C15.8694 53.0004 16.261 52.7961 16.4453 52.3738C16.5934 52.0344 16.561 51.6085 16.3646 51.2941C16.1913 51.017 15.9238 50.9075 15.6086 50.8452C15.5039 50.8247 15.3845 50.8122 15.2783 50.8122L14.3248 50.8185Z" fill="#1C39B5"/>
<path d="M31.4364 43.763V44.3083H33.6605C33.5861 44.8312 33.3484 45.4708 32.9464 45.7987C32.5443 46.1267 32.0531 46.2912 31.4715 46.2912C30.9924 46.2912 30.5521 46.1812 30.15 45.9622C29.7479 45.7432 29.4332 45.442 29.2055 45.059C28.9772 44.6766 28.8636 44.2717 28.8636 43.8468C28.8636 43.4314 28.9735 43.038 29.194 42.665C29.4139 42.2925 29.7243 41.9965 30.1254 41.7791C30.5259 41.5612 30.9479 41.4517 31.3908 41.4517C31.6872 41.4517 31.9757 41.5544 32.2317 41.6968C32.3641 41.7707 32.4893 41.8566 32.6076 41.9514C32.716 42.0384 32.8626 42.1699 32.9254 42.2417C32.9374 42.2281 33.0338 42.1165 33.1212 42.0185C33.1532 41.9829 33.1799 41.9425 33.2097 41.9048C33.2338 41.8744 33.3301 41.7592 33.3301 41.7592C33.3301 41.7592 33.0013 41.4753 32.9254 41.4208C32.6223 41.2023 32.2757 41.0446 31.9118 40.9603C31.7071 40.9131 31.4961 40.8911 31.2856 40.8922C30.7636 40.8953 30.2374 41.0279 29.7809 41.2809C29.3123 41.5407 28.9437 41.9022 28.6751 42.3632C28.4065 42.8242 28.272 43.3235 28.272 43.8583C28.272 44.5781 28.5055 45.2125 28.9751 45.761C29.584 46.473 30.4118 46.8302 31.4568 46.8302C32.317 46.8302 33.0039 46.573 33.517 46.0596C34.0306 45.5457 34.2898 44.6373 34.2951 43.7635H31.4364V43.763Z" fill="#1C39B5"/>
<path d="M35.2891 41.0336H35.8535V46.6872H35.2891V41.0336Z" fill="#1C39B5"/>
<path d="M18.543 50.2039H19.1074V55.8575H18.543V50.2039Z" fill="#1C39B5"/>
<path d="M7.78711 50.2039H8.43162V55.8575H7.78711V50.2039Z" fill="#1C39B5"/>
<path d="M7.93555 53.1481V52.5834H10.7204V53.1481H7.93555Z" fill="#1C39B5"/>
<path d="M7.93555 50.7686V50.2039H10.7204V50.7686H7.93555Z" fill="#1C39B5"/>
<path d="M7.93555 55.8575V55.2928H10.7204V55.8575H7.93555Z" fill="#1C39B5"/>
<path d="M59.2783 50.2039H59.8427V55.8575H59.2783V50.2039Z" fill="#1C39B5"/>
<path d="M11.481 41.0336H12.0454V46.6872H11.481V41.0336Z" fill="#1C39B5"/>
<path d="M39.7264 41.0336L42.0924 46.6872H41.4825L40.8264 45.3142L37.9254 45.3215L37.3081 46.6872H36.6489L39.0264 41.0336H39.7264ZM39.3709 41.8734L38.2149 44.7101H40.4924L39.3709 41.8734Z" fill="#1C39B5"/>
<path d="M55.1503 41.0336L57.5162 46.6872H56.9063L56.2503 45.3142L53.3492 45.3215L52.7319 46.6872H52.0728L54.4508 41.0336H55.1503ZM54.7948 41.8734L53.6387 44.7101H55.9162L54.7948 41.8734Z" fill="#1C39B5"/>
<path d="M76.6341 41.0336L79.0001 46.6872H78.3902L77.7342 45.3142L74.8331 45.3215L74.2158 46.6872H73.5566L75.9341 41.0336H76.6341ZM76.2786 41.8734L75.1226 44.7101H77.4001L76.2786 41.8734Z" fill="#1C39B5"/>
<path d="M68.9662 50.2762L71.3322 55.9298H70.7222L70.0662 54.5568L67.1651 54.5641L66.5478 55.9298H65.8887L68.2662 50.2762H68.9662ZM68.6107 51.1165L67.4547 53.9533H69.7322L68.6107 51.1165Z" fill="#1C39B5"/>
<path d="M49.1758 41.1552H49.7349V46.2126H51.8873V46.7527H49.1758V41.1552Z" fill="#1C39B5"/>
<path d="M62.2847 41.7031V41.1552H65.6203V41.7031H64.2386V46.7527H63.6679V41.7031H62.2847Z" fill="#1C39B5"/>
<path d="M51.1973 50.7257V50.1777H54.5329V50.7257H53.1512V55.7753H52.5805V50.7257H51.1973Z" fill="#1C39B5"/>
<path d="M55.0972 50.7257V50.1777H58.4328V50.7257H57.0511V55.7753H56.4804V50.7257H55.0972Z" fill="#1C39B5"/>
<path d="M36.9009 50.7257V50.1777H40.2365V50.7257H38.8548V55.7753H38.2841V50.7257H36.9009Z" fill="#1C39B5"/>
<path d="M66.5933 41.1552H67.1524V46.7527H66.5933V41.1552Z" fill="#1C39B5"/>
<path d="M72.8826 45.7206C72.4062 46.1502 71.8413 46.3645 71.1863 46.3645C70.4737 46.3645 69.8831 46.1366 69.4156 45.6793C68.948 45.223 68.7135 44.653 68.7135 43.9704C68.7135 43.5194 68.8182 43.1123 69.0276 42.7514C69.237 42.3899 69.5318 42.1023 69.9119 41.8875C70.292 41.6738 70.7056 41.5664 71.1512 41.5664C71.5596 41.5664 71.9344 41.6486 72.2753 41.8115C72.4559 41.898 72.6214 42.0064 72.7742 42.1353L73.1999 41.755C73.0109 41.5858 72.7968 41.4417 72.5591 41.3249C72.1376 41.1179 71.6659 41.0153 71.1444 41.0153C70.2789 41.0153 69.5606 41.2945 68.9857 41.854C68.4119 42.4135 68.125 43.1029 68.125 43.9222C68.125 44.7007 68.3611 45.3655 68.836 45.9166C69.4014 46.5683 70.1732 46.8941 71.1517 46.8941C71.6664 46.8941 72.1329 46.7972 72.5496 46.6034C72.8428 46.4661 73.102 46.2901 73.3266 46.0753L72.8826 45.7206Z" fill="#1C39B5"/>
<path d="M3.96289 34.3737V29.7322H5.51945C6.17442 29.7322 6.68385 29.9554 7.04877 30.4023C7.4137 30.8486 7.5959 31.395 7.5959 32.0409C7.5959 32.6963 7.41789 33.2484 7.06239 33.6985C6.70689 34.1485 6.2561 34.3732 5.71002 34.3732H3.96289V34.3737ZM4.54405 33.8808H5.48541C5.98385 33.8808 6.36238 33.7084 6.6205 33.3637C6.87862 33.019 7.00794 32.5648 7.00794 32.0001C7.00794 31.5422 6.8849 31.131 6.63935 30.7658C6.39327 30.4007 6.00898 30.2184 5.48541 30.2184H4.54405V33.8808Z" fill="#1C39B5"/>
<path d="M8.95148 34.3737H8.41797V30.9392H8.88708V31.7418C9.05253 31.363 9.2185 31.1179 9.38499 31.0057C9.55148 30.8936 9.72217 30.8376 9.89651 30.8376C9.95096 30.8376 10.0211 30.8423 10.107 30.8512V31.3615H9.99808C9.70332 31.3615 9.45881 31.4715 9.26405 31.6915C9.06928 31.9115 8.96509 32.2007 8.95148 32.5585V34.3737Z" fill="#1C39B5"/>
<path d="M11.0552 33.612V34.3737H10.2939V33.612H11.0552Z" fill="#1C39B5"/>
<path d="M13.3525 33.1463L13.8761 33.0273C14.0866 33.6597 14.5431 33.9761 15.2457 33.9761C15.6128 33.9761 15.8892 33.898 16.0751 33.7424C16.2609 33.5868 16.3536 33.3778 16.3536 33.1164C16.3536 32.9184 16.2829 32.7591 16.1416 32.6386C16.0002 32.5181 15.8363 32.4349 15.651 32.3898L14.7227 32.1609C14.4824 32.0996 14.2861 32.0252 14.1332 31.9377C13.9803 31.8502 13.8504 31.7156 13.7442 31.5343C13.6379 31.3525 13.5845 31.1451 13.5845 30.9109C13.5845 30.5227 13.7306 30.2136 14.0227 29.9831C14.3148 29.7526 14.6897 29.6374 15.1473 29.6374C15.9903 29.6374 16.5442 30.0193 16.8091 30.7831L16.2824 30.9397C16.2211 30.6678 16.0772 30.462 15.851 30.3226C15.6243 30.1833 15.3829 30.1136 15.1269 30.1136C14.873 30.1136 14.6473 30.1806 14.4489 30.3153C14.2505 30.4494 14.1515 30.6401 14.1515 30.8858C14.1515 31.2294 14.4028 31.462 14.9049 31.5825L15.7725 31.7858C16.5651 31.9759 16.962 32.4034 16.962 33.0677C16.962 33.469 16.8128 33.8027 16.5149 34.0693C16.217 34.3354 15.7971 34.469 15.2557 34.469C14.295 34.469 13.6604 34.0279 13.3525 33.1463Z" fill="#1C39B5"/>
<path d="M20.4616 34.3737H19.9349C19.9145 34.2647 19.894 34.0588 19.8736 33.755C19.638 34.2312 19.237 34.469 18.6705 34.469C18.2851 34.469 17.9893 34.3669 17.7835 34.1625C17.5773 33.9582 17.4741 33.7131 17.4741 33.427C17.4741 33.0797 17.6212 32.7942 17.916 32.5705C18.2108 32.3468 18.7113 32.2352 19.4181 32.2352C19.5134 32.2352 19.6652 32.2399 19.8736 32.2489C19.8736 31.977 19.8527 31.78 19.8108 31.659C19.7689 31.5374 19.6799 31.441 19.5438 31.3682C19.4076 31.2959 19.2291 31.2593 19.0066 31.2593C18.4652 31.2593 18.15 31.4657 18.0621 31.878L17.5694 31.7931C17.6893 31.1608 18.1945 30.8444 19.0851 30.8444C19.5584 30.8444 19.8946 30.9491 20.093 31.1587C20.2914 31.3682 20.3904 31.7318 20.3904 32.2483V33.7073C20.3904 33.9499 20.4145 34.172 20.4616 34.3737ZM19.8736 32.6564C19.6563 32.6428 19.4909 32.636 19.3773 32.636C18.9558 32.636 18.6286 32.7051 18.3951 32.844C18.1616 32.9828 18.0453 33.185 18.0453 33.4506C18.0453 33.6188 18.1082 33.7618 18.2338 33.8802C18.3595 33.998 18.5411 34.0572 18.7794 34.0572C19.1008 34.0572 19.3658 33.9404 19.5731 33.7063C19.7804 33.4721 19.8841 33.1971 19.8841 32.8812C19.8841 32.8178 19.8804 32.7429 19.8736 32.6564Z" fill="#1C39B5"/>
<path d="M21.9905 34.3737H21.457V29.7322H21.9905V34.3737Z" fill="#1C39B5"/>
<path d="M25.5725 30.9392L24.3856 34.3737H23.8358L22.6055 30.9392H23.1976L24.1536 33.7309L25.0982 30.9392H25.5725Z" fill="#1C39B5"/>
<path d="M28.8083 34.3737H28.2815C28.2611 34.2647 28.2407 34.0588 28.2203 33.755C27.9847 34.2312 27.5836 34.469 27.0171 34.469C26.6318 34.469 26.3365 34.3669 26.1302 34.1625C25.9239 33.9582 25.8208 33.7131 25.8208 33.427C25.8208 33.0797 25.9679 32.7942 26.2627 32.5705C26.5569 32.3468 27.058 32.2352 27.7648 32.2352C27.8601 32.2352 28.0119 32.2399 28.2203 32.2489C28.2203 31.977 28.1993 31.78 28.1575 31.659C28.1156 31.5374 28.0266 31.441 27.8904 31.3682C27.7543 31.2959 27.5753 31.2593 27.3533 31.2593C26.8119 31.2593 26.4967 31.4657 26.4082 31.878L25.9156 31.7931C26.0355 31.1608 26.5407 30.8444 27.4313 30.8444C27.9046 30.8444 28.2407 30.9491 28.4386 31.1587C28.637 31.3682 28.736 31.7318 28.736 32.2483V33.7073C28.7365 33.9499 28.7606 34.172 28.8083 34.3737ZM28.2203 32.6564C28.003 32.6428 27.8376 32.636 27.724 32.636C27.3025 32.636 26.9753 32.7051 26.7417 32.844C26.5082 32.9828 26.392 33.185 26.392 33.4506C26.392 33.6188 26.4548 33.7618 26.5805 33.8802C26.7061 33.998 26.8878 34.0572 27.126 34.0572C27.4475 34.0572 27.7124 33.9404 27.9198 33.7063C28.1271 33.4721 28.2308 33.1971 28.2308 32.8812C28.2302 32.8178 28.2271 32.7429 28.2203 32.6564Z" fill="#1C39B5"/>
<path d="M31.3598 34.0096V34.4313C31.1719 34.4564 31.0085 34.4685 30.8703 34.4685C30.2064 34.4685 29.8745 34.1212 29.8745 33.427V31.3572H29.2661V30.9392H29.8745L29.8986 30.0753L30.3949 30.0276V30.9392H31.163V31.3572H30.3949V33.5156C30.3949 33.8697 30.5782 34.0468 30.9452 34.0468C31.0677 34.0473 31.2059 34.0347 31.3598 34.0096Z" fill="#1C39B5"/>
<path d="M33.0692 34.469C32.598 34.469 32.2305 34.294 31.9666 33.9446C31.7027 33.5952 31.5708 33.162 31.5708 32.6444C31.5708 32.0975 31.719 31.6605 32.0158 31.3342C32.3127 31.0073 32.6818 30.8444 33.1237 30.8444C33.597 30.8444 33.9703 31.0162 34.2436 31.3598C34.5164 31.7035 34.653 32.1331 34.653 32.648C34.653 33.1834 34.5059 33.6209 34.2111 33.9603C33.9164 34.2993 33.5357 34.469 33.0692 34.469ZM33.1101 34.0269C33.3818 34.0269 33.6096 33.9148 33.7933 33.6905C33.9766 33.4658 34.0687 33.1169 34.0687 32.6433C34.0687 32.1671 33.9724 31.8224 33.7797 31.6082C33.587 31.3939 33.3619 31.287 33.1033 31.287C32.8383 31.287 32.6137 31.3955 32.4305 31.6118C32.2472 31.8282 32.1551 32.1713 32.1551 32.6402C32.1551 33.1368 32.2467 33.492 32.4305 33.7063C32.6137 33.9195 32.8404 34.0269 33.1101 34.0269Z" fill="#1C39B5"/>
<path d="M35.9886 34.3737H35.4551V30.9392H35.9242V31.7418C36.0896 31.363 36.2556 31.1179 36.4221 31.0057C36.5886 30.8936 36.7593 30.8376 36.9336 30.8376C36.9881 30.8376 37.0582 30.8423 37.1441 30.8512V31.3615H37.0352C36.7404 31.3615 36.4959 31.4715 36.3012 31.6915C36.1064 31.9115 36.0022 32.2007 35.9886 32.5585V34.3737Z" fill="#1C39B5"/>
<path d="M40.0156 33.3501L40.5119 33.4522C40.4213 33.7456 40.2444 33.9887 39.9815 34.1804C39.7187 34.3721 39.4093 34.4685 39.0538 34.4685C38.5847 34.4685 38.2051 34.3035 37.9156 33.9735C37.6255 33.6434 37.4805 33.2107 37.4805 32.6748C37.4805 32.1279 37.6313 31.6863 37.9323 31.3494C38.2334 31.0126 38.6119 30.8439 39.0674 30.8439C39.5161 30.8439 39.8768 30.9989 40.1496 31.3096C40.4224 31.6202 40.5627 32.0849 40.5695 32.7036H38.0752C38.0752 33.2228 38.1841 33.5732 38.4014 33.7545C38.6187 33.9357 38.8491 34.0264 39.0915 34.0264C39.5287 34.0269 39.8365 33.8011 40.0156 33.3501ZM39.9852 32.306C39.9805 32.1132 39.9491 31.9419 39.8899 31.7926C39.8307 31.6428 39.7313 31.5155 39.591 31.4102C39.4506 31.3049 39.2815 31.252 39.0847 31.252C38.8197 31.252 38.5946 31.3473 38.4103 31.5375C38.2255 31.7276 38.1218 31.9838 38.0993 32.306H39.9852Z" fill="#1C39B5"/>
<path d="M44.5589 34.3737H43.9777V30.2425H42.6489V29.7322H45.8908V30.2425H44.5589V34.3737Z" fill="#1C39B5"/>
<path d="M48.715 34.3737H48.1883C48.1679 34.2647 48.1474 34.0588 48.127 33.755C47.8914 34.2312 47.4904 34.469 46.9239 34.469C46.5385 34.469 46.2432 34.3669 46.037 34.1625C45.8307 33.9582 45.7275 33.7131 45.7275 33.427C45.7275 33.0797 45.8747 32.7942 46.1694 32.5705C46.4637 32.3468 46.9647 32.2352 47.6715 32.2352C47.7668 32.2352 47.9187 32.2399 48.127 32.2489C48.127 31.977 48.1061 31.78 48.0642 31.659C48.0223 31.5374 47.9333 31.441 47.7972 31.3682C47.6616 31.2959 47.4825 31.2593 47.2605 31.2593C46.7192 31.2593 46.404 31.4657 46.3155 31.878L45.8228 31.7931C45.9427 31.1608 46.448 30.8444 47.3385 30.8444C47.8118 30.8444 48.148 30.9491 48.3464 31.1587C48.5448 31.3682 48.6438 31.7318 48.6438 32.2483V33.7073C48.6438 33.9499 48.6679 34.172 48.715 34.3737ZM48.127 32.6564C47.9097 32.6428 47.7443 32.636 47.6307 32.636C47.2092 32.636 46.882 32.7051 46.6485 32.844C46.415 32.9828 46.2987 33.185 46.2987 33.4506C46.2987 33.6188 46.3616 33.7618 46.4872 33.8802C46.6129 33.998 46.7946 34.0572 47.0328 34.0572C47.3543 34.0572 47.6192 33.9404 47.8265 33.7063C48.0338 33.4721 48.1375 33.1971 48.1375 32.8812C48.1375 32.8178 48.1338 32.7429 48.127 32.6564Z" fill="#1C39B5"/>
<path d="M52.5148 30.4023V30.8271C52.2703 30.8271 52.1064 30.8554 52.0237 30.912C51.9409 30.9686 51.886 31.0707 51.8587 31.2179C52.0786 31.472 52.1886 31.7486 52.1886 32.0477C52.1886 32.3605 52.0692 32.6292 51.8299 32.8534C51.5907 33.0777 51.2697 33.1903 50.8666 33.1903C50.776 33.1903 50.698 33.1835 50.632 33.1699C50.5074 33.1447 50.4294 33.1327 50.3975 33.1327C50.3362 33.1327 50.2624 33.1625 50.1765 33.2228C50.0907 33.283 50.0472 33.3605 50.0472 33.4559C50.0472 33.5921 50.1095 33.6801 50.2341 33.721C50.3587 33.7618 50.6519 33.788 51.1142 33.799C51.5064 33.8105 51.7954 33.8373 51.9823 33.8792C52.1692 33.9211 52.3273 34.0143 52.4566 34.1579C52.586 34.3019 52.6504 34.478 52.6504 34.6865C52.6504 35.3413 52.075 35.6692 50.9242 35.6692C50.3781 35.6692 49.9802 35.587 49.7294 35.4225C49.4791 35.258 49.354 35.0385 49.354 34.764C49.354 34.4303 49.5284 34.2014 49.8776 34.0761C49.6535 33.9289 49.5409 33.744 49.5409 33.5224C49.5409 33.2573 49.6996 33.0546 50.0168 32.9142C49.72 32.6743 49.5718 32.3715 49.5718 32.0069C49.5718 31.6669 49.6985 31.3882 49.9524 31.1708C50.2058 30.9534 50.5153 30.8444 50.8802 30.8444C51.1383 30.8444 51.3729 30.8931 51.5833 30.9906C51.6174 30.7663 51.6959 30.6108 51.8195 30.5248C51.943 30.4389 52.1305 30.3954 52.3818 30.3954C52.4069 30.3954 52.4514 30.3975 52.5148 30.4023ZM50.2446 34.2344C49.9954 34.3433 49.8708 34.5005 49.8708 34.7069C49.8708 34.8813 49.9734 35.017 50.1781 35.1134C50.3833 35.2098 50.6441 35.258 50.9613 35.258C51.2556 35.258 51.5252 35.2166 51.7702 35.1338C52.0148 35.0511 52.1373 34.9112 52.1373 34.7137C52.1373 34.6068 52.1011 34.5199 52.0284 34.4518C51.9556 34.3837 51.8566 34.3407 51.731 34.3224C51.6053 34.304 51.386 34.2904 51.0734 34.2815C50.7001 34.2726 50.4236 34.2569 50.2446 34.2344ZM50.8833 32.7822C51.11 32.7822 51.2943 32.7125 51.4373 32.5732C51.5797 32.4338 51.6514 32.2531 51.6514 32.031C51.6514 31.8041 51.5771 31.6192 51.4289 31.4751C51.2807 31.3311 51.1011 31.2593 50.8901 31.2593C50.6886 31.2593 50.5095 31.3269 50.353 31.4615C50.1964 31.5967 50.1184 31.7884 50.1184 32.0378C50.1184 32.2599 50.1886 32.4396 50.3289 32.5768C50.4702 32.7136 50.6545 32.7822 50.8833 32.7822Z" fill="#1C39B5"/>
<path d="M53.6634 34.3737H53.1299V29.7322H53.6634V34.3737Z" fill="#1C39B5"/>
<path d="M55.2809 29.7322V30.3274H54.7065V29.7322H55.2809ZM55.2636 30.9392V34.3737H54.7301V30.9392H55.2636Z" fill="#1C39B5"/>
<path d="M59.0119 34.3737H58.4852C58.4647 34.2647 58.4443 34.0588 58.4239 33.755C58.1883 34.2312 57.7873 34.469 57.2208 34.469C56.8354 34.469 56.5401 34.3669 56.3338 34.1625C56.1276 33.9582 56.0244 33.7131 56.0244 33.427C56.0244 33.0797 56.1715 32.7942 56.4663 32.5705C56.7605 32.3468 57.2616 32.2352 57.9684 32.2352C58.0637 32.2352 58.2155 32.2399 58.4239 32.2489C58.4239 31.977 58.403 31.78 58.3611 31.659C58.3192 31.5374 58.2302 31.441 58.0941 31.3682C57.9585 31.2959 57.7794 31.2593 57.5574 31.2593C57.016 31.2593 56.7009 31.4657 56.6124 31.878L56.1197 31.7931C56.2396 31.1608 56.7448 30.8444 57.6354 30.8444C58.1087 30.8444 58.4448 30.9491 58.6433 31.1587C58.8417 31.3682 58.9407 31.7318 58.9407 32.2483V33.7073C58.9407 33.9499 58.9642 34.172 59.0119 34.3737ZM58.4239 32.6564C58.2066 32.6428 58.0412 32.636 57.9276 32.636C57.5061 32.636 57.1789 32.7051 56.9454 32.844C56.7119 32.9828 56.5956 33.185 56.5956 33.4506C56.5956 33.6188 56.6584 33.7618 56.7841 33.8802C56.9098 33.998 57.0914 34.0572 57.3297 34.0572C57.6511 34.0572 57.916 33.9404 58.1234 33.7063C58.3307 33.4721 58.4344 33.1971 58.4344 32.8812C58.4344 32.8178 58.4307 32.7429 58.4239 32.6564Z" fill="#1C39B5"/>
<path d="M60.5413 34.3737H60.0078V29.7322H60.5413V34.3737Z" fill="#1C39B5"/>
<path d="M64.2931 34.3737H63.7664C63.746 34.2647 63.7256 34.0588 63.7052 33.755C63.4696 34.2312 63.0685 34.469 62.502 34.469C62.1167 34.469 61.8214 34.3669 61.6151 34.1625C61.4088 33.9582 61.3057 33.7131 61.3057 33.427C61.3057 33.0797 61.4528 32.7942 61.7475 32.5705C62.0418 32.3468 62.5428 32.2352 63.2497 32.2352C63.3449 32.2352 63.4968 32.2399 63.7052 32.2489C63.7052 31.977 63.6842 31.78 63.6423 31.659C63.6004 31.5374 63.5114 31.441 63.3753 31.3682C63.2397 31.2959 63.0606 31.2593 62.8387 31.2593C62.2973 31.2593 61.9821 31.4657 61.8936 31.878L61.4009 31.7931C61.5208 31.1608 62.0261 30.8444 62.9167 30.8444C63.39 30.8444 63.7261 30.9491 63.9245 31.1587C64.123 31.3682 64.2219 31.7318 64.2219 32.2483V33.7073C64.2219 33.9499 64.2455 34.172 64.2931 34.3737ZM63.7052 32.6564C63.4879 32.6428 63.3224 32.636 63.2088 32.636C62.7873 32.636 62.4601 32.7051 62.2266 32.844C61.9931 32.9828 61.8769 33.185 61.8769 33.4506C61.8769 33.6188 61.9397 33.7618 62.0653 33.8802C62.191 33.998 62.3727 34.0572 62.6109 34.0572C62.9324 34.0572 63.1973 33.9404 63.4046 33.7063C63.612 33.4721 63.7156 33.1971 63.7156 32.8812C63.7156 32.8178 63.712 32.7429 63.7052 32.6564Z" fill="#1C39B5"/>
<path d="M66.8452 34.0096V34.4313C66.6572 34.4564 66.4939 34.4685 66.3557 34.4685C65.6918 34.4685 65.3598 34.1212 65.3598 33.427V31.3572H64.7515V30.9392H65.3598L65.3834 30.0753L65.8797 30.0276V30.9392H66.6478V31.3572H65.8797V33.5156C65.8797 33.8697 66.063 34.0468 66.43 34.0468C66.5531 34.0473 66.6913 34.0347 66.8452 34.0096Z" fill="#1C39B5"/>
<path d="M69.5776 33.3501L70.0739 33.4522C69.9833 33.7456 69.8064 33.9887 69.5435 34.1804C69.2807 34.3727 68.9713 34.4685 68.6158 34.4685C68.1467 34.4685 67.7671 34.3035 67.4776 33.9735C67.1875 33.6434 67.0425 33.2107 67.0425 32.6748C67.0425 32.1279 67.1933 31.6863 67.4943 31.3494C67.7954 31.0126 68.1739 30.8439 68.6294 30.8439C69.0781 30.8439 69.4388 30.9989 69.7116 31.3096C69.9844 31.6202 70.1247 32.0849 70.1315 32.7036H67.6372C67.6372 33.2228 67.7461 33.5732 67.9634 33.7545C68.1807 33.9357 68.4111 34.0264 68.6535 34.0264C69.0907 34.0269 69.3985 33.8011 69.5776 33.3501ZM69.5472 32.306C69.5425 32.1132 69.5111 31.9419 69.4519 31.7926C69.3928 31.6428 69.2933 31.5155 69.153 31.4102C69.0127 31.3049 68.8435 31.252 68.6467 31.252C68.3818 31.252 68.1566 31.3473 67.9723 31.5375C67.7875 31.7276 67.6838 31.9838 67.6613 32.306H69.5472Z" fill="#1C39B5"/>
<path d="M71.4671 34.3737H70.9336V29.7322H71.4671V34.3737Z" fill="#1C39B5"/>
<path d="M75.2189 34.3737H74.6922C74.6718 34.2647 74.6514 34.0588 74.6309 33.755C74.3953 34.2312 73.9943 34.469 73.4278 34.469C73.0424 34.469 72.7472 34.3669 72.5409 34.1625C72.3346 33.9582 72.2314 33.7131 72.2314 33.427C72.2314 33.0797 72.3786 32.7942 72.6733 32.5705C72.9676 32.3468 73.4686 32.2352 74.1754 32.2352C74.2707 32.2352 74.4226 32.2399 74.6309 32.2489C74.6309 31.977 74.61 31.78 74.5681 31.659C74.5262 31.5374 74.4372 31.441 74.3011 31.3682C74.1655 31.2959 73.9864 31.2593 73.7644 31.2593C73.2231 31.2593 72.9079 31.4657 72.8194 31.878L72.3267 31.7931C72.4466 31.1608 72.9519 30.8444 73.8425 30.8444C74.3158 30.8444 74.6519 30.9491 74.8503 31.1587C75.0487 31.3682 75.1477 31.7318 75.1477 32.2483V33.7073C75.1472 33.9499 75.1713 34.172 75.2189 34.3737ZM74.6309 32.6564C74.4137 32.6428 74.2482 32.636 74.1346 32.636C73.7131 32.636 73.3859 32.7051 73.1524 32.844C72.9189 32.9828 72.8027 33.185 72.8027 33.4506C72.8027 33.6188 72.8655 33.7618 72.9911 33.8802C73.1168 33.998 73.2985 34.0572 73.5367 34.0572C73.8582 34.0572 74.1231 33.9404 74.3304 33.7063C74.5377 33.4721 74.6414 33.1971 74.6414 32.8812C74.6409 32.8178 74.6377 32.7429 74.6309 32.6564Z" fill="#1C39B5"/>
<path d="M46.3101 41.0142H44.7007L44.7117 44.8929V46.7527H45.3839V44.8929H46.3101C47.3808 44.8929 48.2483 44.0249 48.2483 42.9536C48.2483 41.8828 47.3808 41.0142 46.3101 41.0142ZM46.3101 44.1952H45.3986V41.7131H46.3101C46.9939 41.7131 47.5504 42.2699 47.5504 42.9541C47.5504 43.6383 46.9939 44.1952 46.3101 44.1952Z" fill="#1C39B5"/>
<path d="M58.0034 45.2042C58.2233 45.2042 58.4432 45.2042 58.6631 45.2042C58.6956 45.6405 58.9778 46.0753 59.3924 46.2309C59.5809 46.3017 59.7856 46.3184 59.9851 46.3038C61.2165 46.2126 61.1752 45.0884 60.7621 44.7992C60.349 44.51 59.5888 44.1213 58.7704 43.7656C57.9872 43.4251 57.9657 42.3653 58.3275 41.7089C58.75 40.942 59.8055 40.823 60.5673 41.064C61.2087 41.2673 61.6453 41.9373 61.605 42.6084C61.605 42.6084 60.9532 42.6084 60.9521 42.6084C60.9689 42.6084 60.8113 42.1359 60.7966 42.107C60.4699 41.4543 59.5218 41.337 59.0113 41.8566C58.7893 42.0824 58.7254 42.4271 58.828 42.7231C58.9495 43.0725 59.26 43.2402 59.5725 43.3947C60.2982 43.7541 61.4291 43.9228 61.6338 44.8584C61.7291 45.2948 61.694 45.805 61.4443 46.1848C61.1584 46.6196 60.5856 46.8858 60.0793 46.9177C59.8296 46.9334 59.582 46.9261 59.3375 46.8664C58.9867 46.7805 58.6574 46.594 58.4238 46.3184C58.1626 46.0114 58.0322 45.6075 58.0034 45.2042Z" fill="#1C39B5"/>
<path d="M32.4551 54.2414C32.675 54.2414 32.8949 54.2414 33.1148 54.2414C33.1472 54.6778 33.4294 55.1126 33.8441 55.2682C34.0326 55.3389 34.2373 55.3557 34.4368 55.341C35.6682 55.2498 35.6268 54.1256 35.2137 53.8364C34.8006 53.5473 34.0404 53.1585 33.2221 52.8028C32.4388 52.4623 32.4174 51.4025 32.7792 50.7461C33.2022 49.9792 34.2572 49.8603 35.019 50.1013C35.6603 50.3045 36.097 50.9745 36.0567 51.6456C36.0567 51.6456 35.4048 51.6456 35.4038 51.6456C35.4205 51.6456 35.2629 51.1731 35.2483 51.1443C34.9216 50.4915 33.9734 50.3742 33.4629 50.8939C33.2409 51.1197 33.1771 51.4644 33.2797 51.7603C33.4012 52.1098 33.7116 52.2774 34.0242 52.4319C34.7499 52.7913 35.8808 52.96 36.0855 53.8956C36.1808 54.332 36.1457 54.8423 35.8959 55.2221C35.6101 55.6569 35.0373 55.923 34.531 55.955C34.2813 55.9707 34.0336 55.9633 33.7891 55.9036C33.4383 55.8177 33.109 55.6312 32.8755 55.3557C32.6137 55.0487 32.4834 54.6448 32.4551 54.2414Z" fill="#1C39B5"/>
<path d="M28.7525 49.9525C27.0834 49.9525 25.7305 51.3062 25.7305 52.9763C25.7305 54.6464 27.0834 56.0001 28.7525 56.0001C30.4216 56.0001 31.7745 54.6464 31.7745 52.9763C31.7745 51.3062 30.4216 49.9525 28.7525 49.9525ZM28.7525 55.3803C27.4258 55.3803 26.3498 54.3043 26.3498 52.9763C26.3498 51.6483 27.4252 50.5722 28.7525 50.5722C30.0792 50.5722 31.1551 51.6483 31.1551 52.9763C31.1551 54.3043 30.0792 55.3803 28.7525 55.3803Z" fill="#1C39B5"/>
<path d="M62.9097 55.8575H63.5045L65.6202 50.1777H64.86L63.1909 54.7375L61.5547 50.1777H60.7861L62.9097 55.8575Z" fill="#1C39B5"/>
</g>
<defs>
<clipPath id="clip0_58_5909">
<rect width="79" height="56" fill="white"/>
</clipPath>
</defs>
</svg>
