<svg width="56" height="56" viewBox="0 0 56 56" fill="none" xmlns="http://www.w3.org/2000/svg">
<g clip-path="url(#clip0_58_5912)">
<path d="M0.142654 0.086228L0.0854492 0.143433L55.8559 55.9139L55.9131 55.8567L0.142654 0.086228Z" fill="#161616"/>
<path d="M55.7702 -9.62953e-05L-0.000244141 55.7704L0.228574 55.9992L55.9991 0.228722L55.7702 -9.62953e-05Z" fill="#161616"/>
<path d="M24.791 2.9342H33.5582L33.7701 7.00673H33.2661C32.9344 4.61208 32.0664 3.41475 30.6619 3.41475C30.3788 3.41475 30.1854 3.46329 30.0803 3.56037C29.9751 3.65745 29.9233 3.81764 29.9233 4.04092V12.6528C29.9233 12.8275 29.9743 12.9561 30.0762 13.0387C30.1782 13.1212 30.3464 13.1624 30.5802 13.1624H31.6683V13.7085H26.6533V13.1624H27.8943C28.0594 13.1624 28.1864 13.1212 28.2738 13.0387C28.3611 12.9561 28.4048 12.8469 28.4048 12.711V3.9762C28.4048 3.79175 28.349 3.65179 28.2366 3.55714C28.1249 3.46248 27.9445 3.41475 27.6961 3.41475C26.9907 3.41475 26.4017 3.74725 25.9293 4.41306C25.5401 4.96237 25.2602 5.82639 25.0895 7.00673H24.5564L24.791 2.9342Z" fill="#161616"/>
<path d="M13.1438 22.4288C14.1251 22.4288 15.0457 22.6682 15.9033 23.1464C16.7616 23.6245 17.4331 24.2927 17.9193 25.1503C18.4047 26.0078 18.6474 26.9729 18.6474 28.0465C18.6474 29.12 18.4031 30.0892 17.9153 30.954C17.4274 31.8189 16.7568 32.4928 15.9033 32.9757C15.0498 33.4587 14.1461 33.7006 13.1907 33.7006C12.2563 33.7006 11.3793 33.4636 10.5606 32.9903C9.74191 32.517 9.0842 31.8391 8.58828 30.9573C8.09236 30.0755 7.84399 29.0982 7.84399 28.0246C7.84399 26.9657 8.08427 26.0102 8.56482 25.1575C9.04536 24.3049 9.70227 23.6374 10.5372 23.1536C11.3721 22.6699 12.2409 22.4288 13.1438 22.4288ZM13.2692 22.9894C12.2458 22.9894 11.4157 23.3826 10.7807 24.1697C10.1456 24.9569 9.82767 26.2392 9.82767 28.0166C9.82767 29.9452 10.1529 31.2785 10.8041 32.0163C11.4546 32.7549 12.2611 33.1238 13.2214 33.1238C13.8937 33.1238 14.4835 32.9563 14.9932 32.6214C15.502 32.2865 15.9081 31.7542 16.2099 31.026C16.5117 30.2971 16.6629 29.3409 16.6629 28.1557C16.6629 26.8637 16.5214 25.8549 16.2374 25.1284C15.9542 24.4019 15.5497 23.8639 15.0247 23.5145C14.5005 23.1642 13.9148 22.9894 13.2692 22.9894Z" fill="#161616"/>
<path d="M24.6602 38.9308H26.8712L32.4589 46.1957V40.938C32.4589 40.4089 32.3376 40.0165 32.0957 39.7625C31.874 39.5295 31.5448 39.4082 31.1063 39.4001V38.9308H34.3512V39.4001C34.0195 39.4001 33.772 39.4462 33.6085 39.5376C33.4451 39.629 33.3019 39.7965 33.1806 40.0376C33.0592 40.2795 32.9986 40.544 32.9986 40.8312V48.1769H32.4096L26.6277 40.6136V46.1941C26.6277 46.6989 26.7547 47.0751 27.0095 47.3234C27.2643 47.5718 27.6591 47.6996 28.1931 47.7077V48.1769H24.6602V47.7077C25.1027 47.6907 25.4538 47.5467 25.7127 47.2741C25.9715 47.0015 26.101 46.6673 26.101 46.2717V40.0101L25.991 39.8895C25.7822 39.663 25.6342 39.5287 25.5468 39.4866C25.4263 39.4284 25.2701 39.3993 25.0784 39.3993H24.6602V38.9308Z" fill="#161616"/>
<path d="M40.5432 23.3445H44.6845V23.8227H44.2258C43.8431 23.8227 43.5948 23.8526 43.4799 23.9117C43.365 23.9715 43.3076 24.054 43.3076 24.16C43.3076 24.2709 43.3375 24.3704 43.3974 24.4602L45.7961 28.1775L47.5225 25.0087C47.5993 24.8687 47.6374 24.715 47.6374 24.5492C47.6374 24.3283 47.5646 24.1519 47.4197 24.0201C47.2749 23.8882 47.0686 23.8227 46.8 23.8227H46.3591V23.3445H49.9632V23.8227C49.5515 23.8227 49.227 23.8947 48.9892 24.0395C48.7514 24.1843 48.5224 24.4561 48.3016 24.8558L46.1156 28.8417V31.8269C46.1156 31.9847 46.1601 32.0971 46.2499 32.1651C46.3737 32.2541 46.5565 32.2994 46.7992 32.2994H47.6107V32.7775H43.272V32.2994H44.1279C44.3577 32.2994 44.5243 32.2581 44.6263 32.1748C44.7282 32.0915 44.78 31.9758 44.78 31.8269V28.925L41.8465 24.3647C41.7187 24.1689 41.5698 24.0322 41.3991 23.9529C41.2284 23.8744 40.9429 23.8308 40.5432 23.8219V23.3445Z" fill="#161616"/>
</g>
<defs>
<clipPath id="clip0_58_5912">
<rect width="56" height="56" fill="white"/>
</clipPath>
</defs>
</svg>
