<svg width="78" height="56" viewBox="0 0 78 56" fill="none" xmlns="http://www.w3.org/2000/svg">
<g clip-path="url(#clip0_58_5913)">
<path d="M37.2278 37.0599C37.2793 37.0599 37.3308 37.0599 37.3817 37.0593C38.2352 37.2492 39.1226 37.3431 40.0289 37.3431C40.9638 37.3431 41.9183 37.243 42.8762 37.0443C42.9569 37.028 43.0375 37.0103 43.1182 36.9919C43.1195 36.9939 43.1209 36.9953 43.1223 36.9966C43.3385 36.9456 43.5521 36.8911 43.7649 36.8319H43.7656C43.8225 36.817 43.8802 36.8006 43.9371 36.7843C44.0083 36.7645 44.0788 36.7434 44.1493 36.723C44.2137 36.704 44.2781 36.6842 44.3418 36.6638C44.4049 36.6448 44.4679 36.6243 44.5303 36.6039C44.531 36.6039 44.531 36.6032 44.5316 36.6032C50.4125 34.7118 55.0244 29.9732 56.7605 24.0033C56.7612 24.0006 56.7619 23.9985 56.7626 23.9958C56.772 23.9645 56.7809 23.9325 56.7897 23.9005C56.7924 23.8903 56.7958 23.8808 56.7985 23.8713C56.7998 23.8651 56.8019 23.8597 56.8032 23.8536C57.1334 22.6944 57.3544 21.47 57.4513 20.2006C57.452 20.1931 57.4527 20.1863 57.4533 20.1795C57.4554 20.1557 57.4561 20.1318 57.4581 20.108C57.4649 20.0175 57.471 19.927 57.4757 19.8358C57.4778 19.8024 57.4791 19.7684 57.4811 19.735C57.4852 19.654 57.49 19.573 57.4927 19.4914C57.4933 19.4825 57.4933 19.473 57.494 19.4641V19.4546C57.4967 19.3859 57.4988 19.3171 57.5008 19.2477C57.5015 19.2266 57.5015 19.2048 57.5022 19.183C57.5028 19.1442 57.5035 19.1048 57.5042 19.066C57.5049 19.0333 57.5056 19.0013 57.5062 18.9686C57.5069 18.8972 57.5076 18.8264 57.5076 18.7549C57.5076 18.7488 57.5076 18.7427 57.5076 18.7359C57.5076 18.7297 57.5076 18.7236 57.5076 18.7175C57.5076 18.646 57.5069 18.5739 57.5062 18.5024C57.5056 18.4697 57.5049 18.4377 57.5042 18.4051C57.5035 18.3663 57.5028 18.3275 57.5022 18.2887C57.5015 18.2676 57.5015 18.2458 57.5008 18.224C57.4988 18.1539 57.4967 18.0845 57.494 18.0151V18.0083C57.4933 17.9994 57.4933 17.9906 57.4927 17.9824C57.4893 17.8994 57.4852 17.817 57.4805 17.7346C57.4784 17.702 57.4771 17.6686 57.4757 17.6353C57.471 17.5461 57.4649 17.4576 57.4581 17.3691C57.4561 17.3433 57.4547 17.3174 57.4533 17.2916C57.4527 17.2834 57.452 17.2759 57.4513 17.2677C57.355 16.0038 57.1347 14.7848 56.8073 13.6304C56.8046 13.6202 56.8019 13.6093 56.7985 13.5991C56.7937 13.5814 56.7883 13.5644 56.7836 13.5467C56.7775 13.5263 56.772 13.5052 56.7659 13.4848C56.7639 13.4786 56.7626 13.4732 56.7605 13.4671C54.8115 6.76484 49.2445 1.63625 42.321 0.326705C42.1847 0.300841 42.0484 0.277019 41.9115 0.254558C41.8295 0.240945 41.7481 0.227332 41.6654 0.215081C41.6295 0.209636 41.5929 0.204871 41.557 0.199426C41.477 0.187855 41.3963 0.176285 41.3156 0.165395C41.2736 0.159949 41.2309 0.154504 41.1889 0.14974C41.1143 0.140211 41.0404 0.131363 40.9658 0.122514C40.919 0.117069 40.8716 0.112305 40.8241 0.10754C40.755 0.100053 40.6852 0.0925665 40.6153 0.0864408C40.5638 0.0816763 40.5123 0.0769119 40.4608 0.072828C40.4215 0.0694249 40.3821 0.065341 40.3421 0.0619379C40.3184 0.059896 40.294 0.0585347 40.2696 0.0571734C40.2432 0.0551315 40.2167 0.052409 40.1903 0.0503671C40.195 0.0510477 40.1998 0.0517283 40.2045 0.052409C40.0066 0.0381156 39.8073 0.0258642 39.6073 0.0170159C39.3476 0.00544509 39.0853 0 38.8216 0C30.4507 0 23.6655 5.45598 23.6655 12.1854C23.6655 12.2406 23.6662 12.295 23.6668 12.3495C23.6099 12.4039 23.5543 12.4584 23.4987 12.5142C18.7594 17.2725 19.7153 25.9479 25.6341 31.8905C29.021 35.291 33.2986 37.0599 37.2278 37.0599ZM29.7545 9.98425C30.2297 9.92707 30.7171 9.89781 31.2073 9.89781C32.5075 9.89781 33.8396 10.0972 35.169 10.49C34.3114 12.1548 33.7054 14.0436 33.42 16.0698C32.7929 16.8097 32.2363 17.5815 31.7503 18.3744C31.6011 18.1083 31.4588 17.8388 31.3245 17.5658C30.5016 15.8935 29.9877 14.1668 29.7965 12.4352C29.705 11.5974 29.6914 10.7786 29.7545 9.98425ZM49.8905 27.1608C49.8872 27.1662 49.8831 27.1717 49.8797 27.1771C49.4343 27.8326 48.8696 27.8326 48.8696 27.8326C48.8696 27.8326 49.4933 30.0092 48.9591 31.0527C48.49 31.9681 47.589 31.9198 46.6623 31.6924C47.3199 30.4578 47.7226 29.0877 47.8751 27.6488C48.5679 27.546 49.2425 27.3833 49.8905 27.1608ZM33.6416 18.7352C33.6416 17.8932 33.6972 17.0629 33.8071 16.2461C34.106 15.8983 34.4206 15.5566 34.746 15.2306C35.9913 13.9803 37.3803 12.9328 38.8772 12.114C40.1842 12.8858 41.4058 13.838 42.5108 14.9468C44.5574 17.0016 46.0603 19.4526 46.8711 22.0533C44.4767 23.3029 41.7014 23.9625 38.8223 23.9625C38.0088 23.9625 37.1966 23.9087 36.4048 23.8039C35.8293 23.3492 35.2754 22.8564 34.746 22.3242C34.4233 22.0002 34.1148 21.666 33.8199 21.3243C33.7013 20.4756 33.6416 19.6112 33.6416 18.7352ZM50.7773 19.6751C50.9318 19.7963 51.106 19.9202 51.3047 20.0515C52.611 20.9159 52.8788 21.3631 52.3737 21.8103C51.8687 22.2575 49.8797 23.1818 50.0871 23.7181C50.2953 24.2551 51.0376 24.9705 50.7108 25.4776C50.3841 25.984 49.7902 25.8948 49.7902 25.8948C49.7902 25.8948 50.0763 26.2303 50.0553 26.6673C49.3726 26.926 48.6561 27.1145 47.9117 27.2309C48.029 25.6205 47.8405 23.9325 47.3565 22.2561C48.6567 21.5428 49.8112 20.6709 50.7773 19.6751ZM48.3883 10.4103C48.8981 13.8101 48.5395 15.6145 49.0648 16.9329C49.5706 18.2022 49.8377 18.8243 50.4661 19.4104C49.5475 20.3531 48.4608 21.1753 47.2352 21.8566C46.4271 19.3096 44.937 16.8056 42.7975 14.6582C41.7095 13.5658 40.5299 12.6421 39.2988 11.8914C41.4871 10.7724 43.8164 10.181 46.0508 10.181C46.8006 10.181 47.5389 10.2483 48.2459 10.3811C48.2934 10.3899 48.3408 10.4008 48.3883 10.4103ZM34.4579 22.6128C34.8334 22.9898 35.2205 23.3458 35.6164 23.682C35.1493 23.5997 34.6863 23.4983 34.2314 23.3792C34.1182 22.9483 34.0213 22.5127 33.9406 22.0717C34.1081 22.2541 34.2802 22.4351 34.4579 22.6128ZM38.8216 24.3708C41.8295 24.3708 44.632 23.6664 46.9884 22.4515C47.4534 24.0965 47.6263 25.7212 47.5002 27.2874C47.0264 27.3439 46.543 27.3731 46.0495 27.3731C44.1398 27.3731 42.1217 26.9321 40.2127 26.0976C39.1022 25.6123 38.0433 25.0059 37.0448 24.2871C37.6278 24.3423 38.2203 24.3708 38.8216 24.3708ZM47.6229 6.79887C47.9436 7.98862 48.1653 9.04157 48.3205 9.97948C47.5836 9.84131 46.8237 9.77257 46.0502 9.77257C43.6978 9.77257 41.22 10.4069 38.884 11.6457C37.8664 11.0617 36.817 10.5948 35.7601 10.247C36.1587 9.53026 36.6075 8.85643 37.1065 8.23025C38.1857 6.87646 39.4412 5.81535 40.837 5.07482C42.2742 4.31251 43.7995 3.92659 45.3709 3.92659C45.6868 3.92659 46.0007 3.94292 46.3125 3.97423C46.8637 4.75833 47.3246 5.6908 47.6229 6.79887ZM38.4623 11.8778C37.0495 12.6775 35.6944 13.7012 34.4579 14.942C34.2741 15.1265 34.0958 15.3129 33.9223 15.5022C34.0769 14.6289 34.2938 13.774 34.5738 12.943C34.8497 12.1255 35.1805 11.3482 35.5635 10.6125C36.5519 10.9331 37.5241 11.3578 38.4623 11.8778ZM33.3298 16.826C33.2674 17.4515 33.2349 18.0886 33.2349 18.7352C33.2349 19.4158 33.2708 20.0862 33.34 20.7437C32.841 20.1148 32.3882 19.4587 31.9835 18.7787C32.3841 18.1056 32.8349 17.4515 33.3298 16.826ZM33.4349 21.5013C33.5223 22.0975 33.6369 22.6822 33.7779 23.2526C32.6302 22.9191 31.5374 22.4712 30.5232 21.9178C30.8425 20.9854 31.2547 20.0672 31.7516 19.1803C32.2411 19.9801 32.8024 20.7574 33.4349 21.5013ZM36.2442 24.1946C36.2448 24.1946 36.2448 24.1946 36.2455 24.1946C39.2805 26.5584 42.7853 27.7815 46.0502 27.7815C46.5261 27.7815 46.9965 27.755 47.4596 27.7032C47.3023 29.0768 46.9145 30.3543 46.3037 31.4998C46.2888 31.5284 46.2725 31.5563 46.2569 31.5842C45.1818 31.2779 41.6803 30.0439 41.0302 30.9635C40.8438 31.2276 40.8682 31.7959 41.0255 32.4922C40.9624 32.4602 40.8994 32.4289 40.837 32.3955C39.4412 31.6557 38.1864 30.5939 37.1065 29.2401C36.0218 27.8795 35.169 26.2943 34.5731 24.5274C34.4958 24.2973 34.4226 24.0652 34.3548 23.8318C34.969 23.9842 35.5995 24.1061 36.2442 24.1946ZM40.0296 0.619379C40.8621 0.619379 41.7149 0.703097 42.5711 0.86713C43.6822 1.40551 44.954 2.2461 45.9864 3.53726C45.7831 3.52433 45.5777 3.51821 45.3716 3.51821C41.2187 3.51821 37.5539 6.13389 35.3663 10.1217H35.3656C33.9718 9.70178 32.5692 9.48942 31.2079 9.48942C30.7314 9.48942 30.2595 9.51597 29.7952 9.56838C29.8745 8.87685 30.0141 8.20438 30.2134 7.55642C30.6927 5.99708 31.4994 4.64126 32.6105 3.52501C33.5617 2.57008 34.6958 1.83499 35.9804 1.34153C37.2271 0.862366 38.5897 0.619379 40.0296 0.619379ZM31.511 18.7774C30.9578 19.7357 30.5077 20.7213 30.1619 21.7164C28.6366 20.8315 27.3526 19.7378 26.3446 18.4643C24.9345 16.6844 24.1536 14.633 24.079 12.5237C25.0796 11.6014 26.2605 10.9086 27.5933 10.4641C28.1526 10.2769 28.7417 10.136 29.3444 10.0421C29.1383 12.8749 29.8786 15.9487 31.511 18.7774ZM30.3938 22.3126C31.473 22.8939 32.6485 23.3683 33.8993 23.7134C33.8993 23.7134 33.8993 23.7134 33.8999 23.7134C35.0863 28.0116 37.7654 31.4365 41.1604 33.0108C41.397 33.8249 41.7705 34.7403 42.1793 35.5285C41.8735 35.6823 41.5583 35.8219 41.2411 35.9417C40.0615 36.3902 38.7775 36.6277 37.4244 36.6495C35.5344 36.2207 33.9142 35.3393 32.6092 34.0291C31.675 33.0912 30.9524 31.9763 30.4616 30.7151C29.4949 28.2314 29.4711 25.2509 30.3938 22.3126ZM40.0289 36.9347C39.7483 36.9347 39.4697 36.9245 39.1938 36.9054C39.9503 36.7836 40.6845 36.5903 41.3861 36.3242C41.7237 36.1962 42.0532 36.0506 42.3738 35.8886C42.5284 36.1635 42.6857 36.4161 42.8409 36.6345C42.8253 36.6379 42.8097 36.6414 42.7948 36.6441C41.8647 36.8374 40.9346 36.9347 40.0289 36.9347ZM28.3587 3.88779C29.7131 2.79877 31.2927 1.94253 33.0525 1.34426C34.5053 0.850114 36.0313 0.550634 37.602 0.448539C35.6022 0.852156 33.7786 1.77442 32.3224 3.23642C30.608 4.95775 29.6392 7.19092 29.381 9.62215C29.381 9.62215 29.381 9.62215 29.3803 9.62215C28.7227 9.7188 28.0821 9.8699 27.4645 10.0761C26.2246 10.4893 25.0782 11.1216 24.0756 11.9799C24.1075 10.475 24.4905 9.01298 25.2165 7.63333C25.9534 6.2319 27.0103 4.97204 28.3587 3.88779ZM20.9742 21.7136C20.7843 19.9903 20.924 18.3486 21.3897 16.8342C21.8554 15.3198 22.6303 13.998 23.6919 12.9008C23.8458 15.0339 24.6803 17.0193 26.026 18.7182C27.0767 20.0461 28.4387 21.1998 30.0297 22.1118C29.061 25.1427 29.0596 28.2362 30.0833 30.8641C30.5829 32.1471 31.3273 33.3192 32.3224 34.3183C33.3203 35.3202 34.4924 36.0676 35.775 36.5692C34.3128 36.4059 32.8207 36.0016 31.3903 35.376C29.3816 34.498 27.5418 33.228 25.9223 31.6019C24.5068 30.1808 23.3563 28.5799 22.5022 26.8443C21.6785 25.172 21.1647 23.4452 20.9742 21.7136Z" fill="#676F50"/>
<path d="M1.72868 45.2221H0V49.9866H1.72868C3.20653 49.9866 4.1895 48.9928 4.1895 47.5975C4.1895 46.1954 3.20653 45.2221 1.72868 45.2221ZM1.72868 49.1358H1.01687V46.0729H1.72868C2.63708 46.0729 3.14552 46.6855 3.14552 47.5975C3.14552 48.5028 2.63708 49.1358 1.72868 49.1358Z" fill="#676F50"/>
<path d="M5.9251 47.0122L5.83697 46.4881H4.96924V49.9866H5.9251V48.2714C5.9251 47.7405 6.14203 47.3593 6.71147 47.3593H7.09111V46.4881H6.92841C6.38608 46.4881 6.11491 46.6991 5.9251 47.0122Z" fill="#676F50"/>
<path d="M10.7654 48.9588V47.7201C10.7654 46.8829 10.2027 46.4473 9.22652 46.4473C8.30456 46.4473 7.68088 46.8965 7.61309 47.5771H8.53505C8.57572 47.3185 8.82655 47.1483 9.1994 47.1483C9.59937 47.1483 9.82308 47.3525 9.82308 47.6656V47.8358H9.13161C8.08763 47.8358 7.53174 48.2578 7.53174 48.9997C7.53174 49.6667 8.07407 50.0274 8.82655 50.0274C9.36888 50.0274 9.7214 49.8028 9.96545 49.4148C9.95867 49.7484 10.1146 49.9866 10.6095 49.9866H11.0976V49.1766H10.9891C10.84 49.1766 10.7654 49.1426 10.7654 48.9588ZM9.82308 48.5436C9.81631 49.0201 9.51124 49.3332 9.00959 49.3332C8.69097 49.3332 8.49438 49.1766 8.49438 48.9316C8.49438 48.6389 8.72487 48.4756 9.12483 48.4756H9.82308V48.5436Z" fill="#676F50"/>
<path d="M12.2159 50.0274C12.5413 50.0274 12.7921 49.7892 12.7921 49.4625C12.7921 49.129 12.5413 48.8907 12.2159 48.8907C11.8837 48.8907 11.6396 49.129 11.6396 49.4625C11.6396 49.7892 11.8837 50.0274 12.2159 50.0274Z" fill="#676F50"/>
<path d="M19.2663 46.808C19.2663 45.8415 18.5816 45.2221 17.5512 45.2221H15.6191V49.9866H16.636V48.3871H17.5512C18.5816 48.3871 19.2663 47.7677 19.2663 46.808ZM17.4563 47.5363H16.636V46.0729H17.4563C17.9308 46.0729 18.2359 46.352 18.2359 46.808C18.2359 47.2572 17.9308 47.5363 17.4563 47.5363Z" fill="#676F50"/>
<path d="M20.8932 45.2221L19.1577 49.9866H20.2085L20.5746 48.9452H22.3778L22.7439 49.9866H23.8353L22.1134 45.2221H20.8932ZM20.8457 48.1216L21.4694 46.3111L22.0999 48.1216H20.8457Z" fill="#676F50"/>
<path d="M27.3332 45.2221H23.5708V46.1001H24.9402V49.9866H25.9571V46.1001H27.3332V45.2221Z" fill="#676F50"/>
<path d="M31.9096 49.9866L30.9741 48.1488C31.4689 47.9106 31.7876 47.4206 31.7876 46.808C31.7876 45.8415 31.0893 45.2221 30.0453 45.2221H28.1133V49.9866H29.1302V48.3871H29.9843L30.7843 49.9866H31.9096ZM29.964 47.5363H29.1302V46.0729H29.964C30.4453 46.0729 30.7504 46.3588 30.7504 46.808C30.7504 47.2504 30.4453 47.5363 29.964 47.5363Z" fill="#676F50"/>
<path d="M33.6917 45.2221H32.6748V49.9866H33.6917V45.2221Z" fill="#676F50"/>
<path d="M36.8174 46.0457C37.3801 46.0457 37.7597 46.3928 37.8817 46.9237H38.9121C38.7901 45.8891 37.997 45.1813 36.8716 45.1813C35.4345 45.1813 34.5464 46.141 34.5464 47.6043C34.5464 49.0677 35.4006 50.0274 36.8106 50.0274C37.9698 50.0274 38.7901 49.3195 38.9054 48.285H37.8817C37.7597 48.8159 37.3801 49.163 36.8038 49.163C36.0378 49.163 35.5836 48.5164 35.5836 47.6043C35.5829 46.6855 36.0446 46.0457 36.8174 46.0457Z" fill="#676F50"/>
<path d="M40.7351 45.2221H39.7183V49.9866H40.7351V45.2221Z" fill="#676F50"/>
<path d="M44.3561 45.2221H43.1358L41.4004 49.9866H42.4512L42.8172 48.9452H44.6205L44.9865 49.9866H46.078L44.3561 45.2221ZM43.0877 48.1216L43.7114 46.3111L44.3419 48.1216H43.0877Z" fill="#676F50"/>
<path d="M51.3104 47.5363C51.8527 47.4206 52.2052 47.0802 52.2052 46.4813C52.2052 45.6849 51.568 45.2221 50.4698 45.2221H48.6665V49.9866H50.5579C51.7239 49.9866 52.3747 49.4625 52.3747 48.6321C52.3747 47.9515 51.9408 47.6179 51.3104 47.5363ZM49.6834 46.0253H50.4969C50.9375 46.0253 51.1883 46.2499 51.1883 46.6038C51.1883 46.9577 50.9307 47.1823 50.4969 47.1823H49.6834V46.0253ZM50.5647 49.1766H49.6834V47.9719H50.5647C51.046 47.9719 51.3307 48.1965 51.3307 48.5845C51.3307 48.952 51.0528 49.1766 50.5647 49.1766Z" fill="#676F50"/>
<path d="M56.4084 46.1001V45.2221H53.2222V49.9866H56.4829V49.1085H54.239V48.0059H56.0016V47.1687H54.239V46.1001H56.4084Z" fill="#676F50"/>
<path d="M57.3306 45.2221V49.9866H60.232V49.1085H58.3474V45.2221H57.3306Z" fill="#676F50"/>
<path d="M62.4082 49.9866V46.1001H63.7844V45.2221H60.022V46.1001H61.3914V49.9866H62.4082Z" fill="#676F50"/>
<path d="M67.4248 48.1488C67.9196 47.9106 68.2383 47.4206 68.2383 46.808C68.2383 45.8415 67.54 45.2221 66.496 45.2221H64.564V49.9866H65.5808V48.3871H66.435L67.2349 49.9866H68.3603L67.4248 48.1488ZM66.4147 47.5363H65.5808V46.0729H66.4147C66.896 46.0729 67.201 46.3588 67.201 46.808C67.201 47.2504 66.896 47.5363 66.4147 47.5363Z" fill="#676F50"/>
<path d="M72.3124 43.8874H71.2209L70.7261 44.8471H71.4243L72.3124 43.8874Z" fill="#676F50"/>
<path d="M70.4479 45.2221L68.7124 49.9866H69.7632L70.1292 48.9452H71.9325L72.2986 49.9866H73.39L71.6681 45.2221H70.4479ZM70.4004 48.1216L71.0241 46.3111L71.6545 48.1216H70.4004Z" fill="#676F50"/>
<path d="M76.9969 45.2221V48.2237L74.9835 45.2221H74.0615V49.9866H75.0581V46.985L77.0715 49.9866H78.0002V45.2221H76.9969Z" fill="#676F50"/>
<path d="M9.45773 53.3347C8.72355 53.3347 8.2124 53.8962 8.2124 54.6673C8.2124 55.4385 8.72287 56 9.45773 56C10.1926 56 10.7031 55.4385 10.7031 54.6673C10.7031 53.8962 10.1919 53.3347 9.45773 53.3347ZM9.45773 55.7005C8.91336 55.7005 8.54458 55.2704 8.54458 54.6673C8.54458 54.065 8.91336 53.6341 9.45773 53.6341C10.0021 53.6341 10.3709 54.0643 10.3709 54.6673C10.3709 55.2704 10.0021 55.7005 9.45773 55.7005Z" fill="#676F50"/>
<path d="M11.687 53.6566H12.533V55.9776H12.8578V53.6566H13.7038V53.3571H11.687V53.6566Z" fill="#676F50"/>
<path d="M15.9338 53.3347C15.1996 53.3347 14.6885 53.8962 14.6885 54.6673C14.6885 55.4385 15.1989 56 15.9338 56C16.6687 56 17.1791 55.4385 17.1791 54.6673C17.1791 53.8962 16.6687 53.3347 15.9338 53.3347ZM15.9338 55.7005C15.3894 55.7005 15.0207 55.2704 15.0207 54.6673C15.0207 54.065 15.3894 53.6341 15.9338 53.6341C16.4782 53.6341 16.847 54.0643 16.847 54.6673C16.8476 55.2704 16.4782 55.7005 15.9338 55.7005Z" fill="#676F50"/>
<path d="M20.3896 54.1623C20.3896 53.6722 20.0432 53.3578 19.5212 53.3578H18.522V55.9782H18.846V54.9716H19.5022L20.0541 55.9782H20.4195L19.8344 54.9076C20.1693 54.8137 20.3896 54.5292 20.3896 54.1623ZM19.4948 54.6714H18.846V53.6573H19.4982C19.8371 53.6573 20.0574 53.856 20.0574 54.1623C20.0574 54.4693 19.8378 54.6714 19.4948 54.6714Z" fill="#676F50"/>
<path d="M23.5996 54.1623C23.5996 53.6722 23.2532 53.3578 22.7312 53.3578H21.7319V55.9782H22.056V54.9716H22.7122L23.264 55.9782H23.6294L23.0444 54.9076C23.3799 54.8137 23.5996 54.5292 23.5996 54.1623ZM22.7047 54.6714H22.056V53.6573H22.7081C23.0471 53.6573 23.2674 53.856 23.2674 54.1623C23.2681 54.4693 23.0478 54.6714 22.7047 54.6714Z" fill="#676F50"/>
<path d="M25.2659 53.3571H24.9419V55.9776H25.2659V53.3571Z" fill="#676F50"/>
<path d="M28.4058 55.3786L27.0038 53.3571H26.7056V55.9776H27.0222V53.9561L28.4241 55.9776H28.7224V53.3571H28.4058V55.3786Z" fill="#676F50"/>
<path d="M31.3103 53.3347C30.5761 53.3347 30.0649 53.8962 30.0649 54.6673C30.0649 55.4385 30.5754 56 31.3103 56C32.0451 56 32.5556 55.4385 32.5556 54.6673C32.5556 53.8962 32.0444 53.3347 31.3103 53.3347ZM31.3103 55.7005C30.7659 55.7005 30.3971 55.2704 30.3971 54.6673C30.3971 54.065 30.7659 53.6341 31.3103 53.6341C31.8546 53.6341 32.2234 54.0643 32.2234 54.6673C32.2234 55.2704 31.8546 55.7005 31.3103 55.7005Z" fill="#676F50"/>
<path d="M34.2222 53.3571H33.8975V55.9776H35.4112V55.6781H34.2222V53.3571Z" fill="#676F50"/>
<path d="M37.4844 53.3571L36.4893 55.9776H36.8248L37.1007 55.2704H38.2376L38.5135 55.9776H38.8599L37.8681 53.3571H37.4844ZM37.1977 54.9743L37.6675 53.7131L38.1407 54.9743H37.1977Z" fill="#676F50"/>
<path d="M41.9546 54.1623C41.9546 53.6722 41.6082 53.3578 41.0862 53.3578H40.0869V55.9782H40.411V54.9716H41.0672L41.619 55.9782H41.9844L41.3994 54.9076C41.7349 54.8137 41.9546 54.5292 41.9546 54.1623ZM41.0597 54.6714H40.411V53.6573H41.0631C41.4021 53.6573 41.6224 53.856 41.6224 54.1623C41.6231 54.4693 41.4027 54.6714 41.0597 54.6714Z" fill="#676F50"/>
<path d="M43.6219 53.3571H43.2979V55.9776H43.6219V53.3571Z" fill="#676F50"/>
<path d="M46.7612 55.3786L45.3593 53.3571H45.061V55.9776H45.3783V53.9561L46.7795 55.9776H47.0778V53.3571H46.7612V55.3786Z" fill="#676F50"/>
<path d="M49.6953 54.8586H50.4783V54.9484C50.4783 55.4126 50.1318 55.7005 49.6505 55.7005C49.1102 55.7005 48.7523 55.2738 48.7523 54.6673C48.7523 54.0609 49.1102 53.6341 49.658 53.6341C50.0532 53.6341 50.3325 53.8472 50.422 54.2106H50.7684C50.6789 53.6716 50.243 53.3347 49.6648 53.3347C48.9082 53.3347 48.4194 53.8737 48.4194 54.6673C48.4194 55.461 48.9224 56 49.6458 56C50.0932 56 50.3725 55.787 50.4918 55.5957L50.5142 55.9776H50.7935V54.5591H49.6939V54.8586H49.6953Z" fill="#676F50"/>
<path d="M53.383 53.3347C52.6488 53.3347 52.1377 53.8962 52.1377 54.6673C52.1377 55.4385 52.6482 56 53.383 56C54.1172 56 54.6283 55.4385 54.6283 54.6673C54.6283 53.8962 54.1172 53.3347 53.383 53.3347ZM53.383 55.7005C52.8387 55.7005 52.4699 55.2704 52.4699 54.6673C52.4699 54.065 52.8387 53.6341 53.383 53.6341C53.9274 53.6341 54.2962 54.0643 54.2962 54.6673C54.2962 55.2704 53.9274 55.7005 53.383 55.7005Z" fill="#676F50"/>
<path d="M56.2947 53.3571H55.9707V55.9776H57.4845V55.6781H56.2947V53.3571Z" fill="#676F50"/>
<path d="M59.6692 53.3347C58.935 53.3347 58.4238 53.8962 58.4238 54.6673C58.4238 55.4385 58.9343 56 59.6692 56C60.4033 56 60.9145 55.4385 60.9145 54.6673C60.9138 53.8962 60.4033 53.3347 59.6692 53.3347ZM59.6692 55.7005C59.1248 55.7005 58.756 55.2704 58.756 54.6673C58.756 54.065 59.1248 53.6341 59.6692 53.6341C60.2135 53.6341 60.5823 54.0643 60.5823 54.6673C60.5823 55.2704 60.2135 55.7005 59.6692 55.7005Z" fill="#676F50"/>
<path d="M63.435 54.8586H64.218V54.9484C64.218 55.4126 63.8716 55.7005 63.3903 55.7005C62.85 55.7005 62.492 55.2738 62.492 54.6673C62.492 54.0609 62.85 53.6341 63.3977 53.6341C63.793 53.6341 64.0723 53.8472 64.1617 54.2106H64.5082C64.4187 53.6716 63.9828 53.3347 63.4045 53.3347C62.648 53.3347 62.1592 53.8737 62.1592 54.6673C62.1592 55.461 62.6622 56 63.3855 56C63.8329 56 64.1122 55.787 64.2316 55.5957L64.2539 55.9776H64.5332V54.5591H63.4337V54.8586H63.435Z" fill="#676F50"/>
<path d="M66.0225 53.1291H66.2611L66.697 52.624H66.339L66.0225 53.1291Z" fill="#676F50"/>
<path d="M66.2977 53.3571H65.9736V55.9776H66.2977V53.3571Z" fill="#676F50"/>
<path d="M68.5206 53.3571L67.5254 55.9776H67.861L68.1369 55.2704H69.2737L69.5496 55.9776H69.8961L68.9043 53.3571H68.5206ZM68.2331 54.9743L68.7029 53.7131L69.1761 54.9743H68.2331Z" fill="#676F50"/>
</g>
<defs>
<clipPath id="clip0_58_5913">
<rect width="78" height="56" fill="white"/>
</clipPath>
</defs>
</svg>
