<svg width="164" height="56" viewBox="0 0 164 56" fill="none" xmlns="http://www.w3.org/2000/svg">
<g clip-path="url(#clip0_58_5914)">
<path d="M35.4183 36.6893C35.4183 36.6893 33.1969 25.4066 37.1541 18.8251C42.0205 10.7144 52.5489 9.70184 52.5489 9.70184C52.5489 9.70184 52.7762 18.5978 51.6294 21.6871C48.0751 31.2959 40.5843 29.3845 40.5843 29.3845C40.5843 29.3845 46.143 30.0664 49.0463 22.2967C50.2759 19.0214 49.5733 13.2251 49.5733 13.2251C49.5733 13.2251 44.1489 14.5476 39.6235 20.7159C35.8729 25.8406 35.4183 36.6893 35.4183 36.6893Z" fill="url(#paint0_linear_58_5914)"/>
<path d="M22.7617 36.8546C22.7617 36.8546 32.6805 31.048 40.2126 32.6185C49.4702 34.5402 53.8923 44.1594 53.8923 44.1594C53.8923 44.1594 45.575 47.3004 42.2687 47.2384C32.0296 47.0421 31.3684 39.3343 31.3684 39.3343C31.3684 39.3343 32.5462 44.8104 40.8532 44.9963C44.3558 45.079 49.5942 42.5166 49.5942 42.5166C49.5942 42.5166 46.5669 37.8259 39.2518 35.5838C33.1558 33.7137 22.7617 36.8546 22.7617 36.8546Z" fill="url(#paint1_linear_58_5914)"/>
<path d="M18.8976 23.7949C18.8976 23.7949 27.4733 31.4509 28.2999 39.0864C29.3124 48.4886 21.522 55.6487 21.522 55.6487C21.522 55.6487 15.9737 48.6952 15.0231 45.5336C12.0578 35.7284 19.1869 32.7321 19.1869 32.7321C19.1869 32.7321 14.3412 35.5321 16.7176 43.4879C17.7198 46.8458 21.77 51.0406 21.77 51.0406C21.77 51.0406 25.3036 46.7115 25.1796 39.0657C25.0866 32.7218 18.8976 23.7949 18.8976 23.7949Z" fill="url(#paint2_linear_58_5914)"/>
<path d="M29.7048 16.893C29.7048 16.893 24.8797 27.3284 17.8125 30.3454C9.12325 34.065 0 28.7026 0 28.7026C0 28.7026 5.03173 21.3668 7.78007 19.5277C16.2937 13.8347 21.2428 19.7757 21.2428 19.7757C21.2428 19.7757 17.141 15.9631 10.2288 20.5609C7.31513 22.493 4.4738 27.5971 4.4738 27.5971C4.4738 27.5971 9.63985 29.7151 16.924 27.3698C22.9786 25.417 29.7048 16.893 29.7048 16.893Z" fill="url(#paint3_linear_58_5914)"/>
<path d="M39.9441 24.6007C39.9441 24.6007 28.5271 23.2369 23.4747 17.4509C17.2548 10.3321 19.5382 0 19.5382 0C19.5382 0 28.0725 2.52103 30.6659 4.56679C38.7146 10.9107 34.5921 17.4406 34.5921 17.4406C34.5921 17.4406 36.9581 12.3675 30.4489 7.20148C27.7109 5.03173 21.9766 3.90553 21.9766 3.90553C21.9766 3.90553 21.5633 9.47454 26.0474 15.6738C29.767 20.8399 39.9441 24.6007 39.9441 24.6007Z" fill="url(#paint4_linear_58_5914)"/>
<path d="M55.4732 28.6923C55.5042 28.7543 55.5249 28.8886 55.5249 29.1055V32.3188C55.5249 32.4841 55.5146 32.6081 55.5042 32.6908C55.4836 32.7734 55.4629 32.8354 55.4216 32.8664C55.3802 32.8974 55.3286 32.9181 55.2666 32.9181H55.2149V32.9594H57.2917C57.6533 32.9594 57.9529 32.9388 58.1906 32.9078C58.4282 32.8664 58.6245 32.8044 58.7898 32.7114C58.9448 32.6185 59.0998 32.5048 59.2341 32.3705C59.3684 32.2362 59.5027 32.0709 59.6164 31.8849C59.7301 31.6989 59.823 31.5026 59.885 31.2856C59.947 31.0686 59.978 30.8517 59.978 30.6244C59.978 30.3764 59.947 30.1491 59.8644 29.9321C59.792 29.7151 59.6887 29.5292 59.5544 29.3638C59.4201 29.1985 59.2754 29.0642 59.1101 28.9609C58.9241 28.8369 58.6968 28.7336 58.4179 28.6613C58.1389 28.5889 57.7566 28.5476 57.2297 28.5476H55.2046V28.5889C55.3492 28.6096 55.4319 28.6406 55.4732 28.6923ZM56.0208 28.6509H56.7027C57.1987 28.6509 57.6223 28.7129 57.9736 28.8369C58.2422 28.9299 58.4799 29.0539 58.6762 29.2089C58.8725 29.3638 59.0275 29.5395 59.1411 29.7151C59.2548 29.8908 59.3374 30.0768 59.3891 30.2627C59.4408 30.4487 59.4717 30.6347 59.4717 30.8207C59.4717 31.0996 59.4098 31.3786 59.2961 31.6576C59.1825 31.9365 59.0378 32.1638 58.8518 32.3395C58.7278 32.4635 58.5832 32.5565 58.4282 32.6288C58.2732 32.7011 58.0976 32.7528 57.9013 32.7941C57.705 32.8251 57.4777 32.8458 57.2194 32.8458C56.8784 32.8458 56.6304 32.8148 56.4548 32.7631C56.2791 32.7011 56.1655 32.6185 56.1138 32.5151C56.0622 32.4118 56.0312 32.2568 56.0312 32.0709V28.6509H56.0208Z" fill="#1D1D1B"/>
<path d="M65.95 32.8664C65.8984 32.8974 65.8261 32.9181 65.7124 32.9284V32.9697H68.7294V32.3602H68.688C68.6674 32.5151 68.6261 32.6185 68.5847 32.6908C68.5434 32.7631 68.4711 32.7941 68.3781 32.8044C68.2851 32.8148 68.1404 32.8251 67.9338 32.8251H67.1589C66.9833 32.8251 66.8593 32.8148 66.7766 32.7941C66.694 32.7734 66.6423 32.7114 66.601 32.6185C66.5596 32.5255 66.539 32.3808 66.539 32.1742V30.8103H67.9235C68.0061 30.8103 68.0785 30.8207 68.1198 30.831C68.1611 30.8413 68.1921 30.8827 68.2024 30.955H68.2438V30.5417H68.2024C68.1921 30.6037 68.1714 30.645 68.1198 30.6657C68.0785 30.6864 67.9958 30.6864 67.8925 30.6864H66.539V28.7026H67.9855C68.1095 28.7026 68.1818 28.7129 68.2231 28.7233C68.2644 28.7336 68.2954 28.7749 68.3264 28.8266C68.3574 28.8782 68.3884 28.9919 68.4297 29.1572H68.4711V28.5476H65.7124V28.5993C65.8571 28.5993 65.9397 28.6303 65.9707 28.6819C66.0017 28.7336 66.0224 28.8576 66.0224 29.0332V32.5978C66.0224 32.7528 66.0017 32.8354 65.95 32.8664Z" fill="#1D1D1B"/>
<path d="M76.757 31.2133L76.726 31.1719L76.416 30.6967C76.5503 30.6243 76.6847 30.521 76.7983 30.4074C76.912 30.2937 77.005 30.1594 77.0773 30.0044C77.1496 29.8494 77.1806 29.6945 77.1806 29.5395C77.1806 29.3018 77.1186 29.1159 77.005 28.9609C76.8913 28.8059 76.7363 28.7026 76.54 28.6406C76.4367 28.5993 76.323 28.5786 76.1991 28.5683C76.0751 28.5579 75.8788 28.5579 75.5998 28.5579H74.3496V28.5993C74.4323 28.5993 74.4943 28.6096 74.5356 28.6302C74.5769 28.6509 74.6079 28.6819 74.6286 28.7336C74.6492 28.7852 74.6596 28.8782 74.6596 28.9919V32.5048C74.6596 32.6804 74.6389 32.7838 74.6079 32.8354C74.5769 32.8871 74.4839 32.9181 74.3496 32.9181V32.9594H75.4965V32.9181C75.4138 32.9181 75.3518 32.9077 75.3105 32.8871C75.2692 32.8664 75.2382 32.8354 75.2175 32.7838C75.1968 32.7321 75.1865 32.6494 75.1865 32.5358V30.8413H75.5481C75.6721 30.8413 75.7548 30.8413 75.7754 30.831L75.9408 30.8207L76.385 31.5026C76.3954 31.5232 76.3954 31.5232 76.3954 31.5336C76.664 31.9365 76.912 32.2775 77.1393 32.5564C77.2323 32.6701 77.3253 32.7528 77.4286 32.8251C77.5319 32.8974 77.6352 32.9284 77.7282 32.9594C77.8212 32.9904 77.9142 32.9904 78.0072 32.9904C78.1208 32.9904 78.2345 32.9801 78.3378 32.9594C78.4411 32.9387 78.5341 32.9181 78.5961 32.8974C78.7098 32.8457 78.8234 32.7838 78.9371 32.7011L78.9164 32.6391C78.8854 32.6598 78.8544 32.6701 78.8131 32.6908C78.7718 32.7114 78.7408 32.7321 78.7098 32.7424C78.6168 32.7838 78.5238 32.8044 78.4101 32.8044C78.2551 32.8044 78.1105 32.7631 77.9865 32.6908C77.8625 32.6184 77.7592 32.5358 77.6765 32.4428C77.5112 32.2465 77.3253 32.0088 77.1186 31.7195C76.9223 31.4612 76.7983 31.2856 76.757 31.2133ZM76.2817 30.6243C76.2197 30.6553 76.1164 30.6863 75.9821 30.7173C75.8478 30.738 75.7444 30.7483 75.6515 30.7483H75.1865V28.6819H75.5481C75.7548 28.6819 75.9201 28.7026 76.0544 28.7542C76.1887 28.8059 76.292 28.8679 76.385 28.9609C76.4677 29.0435 76.5297 29.1262 76.571 29.2192C76.6123 29.3122 76.6537 29.4155 76.6847 29.5291C76.7053 29.6325 76.7157 29.7358 76.7157 29.8184C76.7157 30.0251 76.6743 30.1904 76.5917 30.3247C76.509 30.4487 76.4057 30.552 76.2817 30.6243Z" fill="#1D1D1B"/>
<path d="M84.6407 28.5579V28.5992C84.837 28.5992 84.9713 28.6922 85.054 28.8679L85.116 29.0125L84.6097 32.5771C84.5994 32.6804 84.5787 32.7631 84.558 32.8044C84.5374 32.8561 84.5064 32.8871 84.4754 32.8974C84.4444 32.9077 84.3927 32.9181 84.3101 32.9181V32.9594H84.9816V32.9181C84.899 32.9181 84.837 32.8974 84.8163 32.8664C84.7957 32.8354 84.7853 32.7941 84.7853 32.7424C84.7853 32.6598 84.7853 32.6081 84.7957 32.5668L85.2399 29.3018H85.2503L86.8311 32.9491H86.8621L88.4326 29.2915H88.4429L88.8872 32.5358C88.8975 32.6184 88.9078 32.6804 88.9078 32.7114C88.9078 32.8457 88.8458 32.9077 88.7115 32.9077V32.9491H89.7034V32.9077C89.6311 32.8974 89.5794 32.8871 89.5381 32.8664C89.4968 32.8457 89.4658 32.8044 89.4451 32.7527C89.4245 32.7011 89.4038 32.6081 89.3831 32.4944L88.9182 29.1468C88.9078 29.0435 88.8975 28.9712 88.8975 28.9402C88.8975 28.7026 89.0112 28.5786 89.2488 28.5682V28.5269H88.5566L86.9964 32.1432L85.4466 28.5269H84.6407V28.5579Z" fill="#1D1D1B"/>
<path d="M95.7579 32.9284C95.6546 32.9284 95.6133 32.8974 95.6133 32.8251C95.6133 32.7838 95.6236 32.7321 95.6546 32.6804C95.6546 32.6804 95.6649 32.6494 95.6856 32.5978L96.3572 30.924H97.6384L98.279 32.4945C98.279 32.4945 98.2893 32.5048 98.2893 32.5254C98.2893 32.5461 98.2996 32.5564 98.31 32.5668C98.3616 32.6701 98.3823 32.7528 98.3823 32.8044C98.3823 32.8251 98.372 32.8561 98.3513 32.8767C98.3306 32.8974 98.2996 32.9181 98.2376 32.9181V32.9594H99.2708V32.9181C99.1469 32.9181 99.0642 32.8767 98.9919 32.8044C98.9196 32.7321 98.8679 32.6288 98.8162 32.5048L98.7956 32.4428C98.7852 32.4221 98.7749 32.4118 98.7749 32.3911L97.1941 28.4856H97.1218L95.5203 32.5254C95.4686 32.6598 95.417 32.7631 95.355 32.8251C95.3033 32.8871 95.2103 32.9181 95.0967 32.9284V32.9697H95.7579V32.9284ZM96.9875 29.3122L97.5867 30.8206H96.3985L96.9875 29.3122Z" fill="#1D1D1B"/>
<path d="M104.871 28.9402C104.861 28.8782 104.85 28.8369 104.85 28.8162C104.85 28.7646 104.871 28.7336 104.902 28.7129C104.933 28.7026 105.005 28.6923 105.119 28.6923H106.224V32.5461C106.224 32.6598 106.214 32.7424 106.193 32.7941C106.173 32.8458 106.142 32.8768 106.1 32.8974C106.059 32.9181 105.987 32.9284 105.883 32.9387V32.9801H107.082V32.9387C106.999 32.9387 106.927 32.9284 106.886 32.9181C106.844 32.9078 106.813 32.8768 106.793 32.8458C106.772 32.8148 106.751 32.7631 106.751 32.7011C106.751 32.6391 106.741 32.5668 106.741 32.4841V28.7026H107.898C107.971 28.7026 108.022 28.7026 108.053 28.7232C108.084 28.7336 108.105 28.7646 108.105 28.8162C108.105 28.8782 108.105 28.9196 108.095 28.9402H108.136L108.343 28.403H108.301C108.281 28.4753 108.239 28.5166 108.188 28.5373C108.136 28.5476 108.053 28.5579 107.94 28.5579H105.005C104.892 28.5579 104.819 28.5579 104.788 28.5373C104.747 28.5166 104.706 28.4753 104.675 28.403H104.633L104.84 28.9402H104.871Z" fill="#1D1D1B"/>
<path d="M114.418 32.4325C114.604 32.6288 114.821 32.7734 115.079 32.8767C115.338 32.9801 115.616 33.0317 115.926 33.0317C116.309 33.0317 116.66 32.9594 116.97 32.8251C117.28 32.6908 117.549 32.5048 117.766 32.2568C117.983 32.0192 118.148 31.7402 118.261 31.4302C118.375 31.1203 118.427 30.7897 118.427 30.459C118.427 30.1904 118.375 29.9321 118.282 29.6944C118.179 29.4568 118.045 29.2398 117.848 29.0642C117.662 28.8782 117.435 28.7439 117.177 28.6406C116.918 28.5373 116.629 28.4856 116.309 28.4856C115.906 28.4856 115.554 28.5579 115.234 28.7129C114.924 28.8679 114.656 29.0642 114.459 29.3122C114.253 29.5601 114.098 29.8288 113.994 30.1284C113.891 30.428 113.839 30.7173 113.839 30.9963C113.839 31.2649 113.891 31.5232 113.984 31.7712C114.077 32.0192 114.232 32.2361 114.418 32.4325ZM114.439 29.5601C114.614 29.2915 114.831 29.0849 115.1 28.9402C115.369 28.7956 115.637 28.7232 115.916 28.7232C116.143 28.7232 116.381 28.7749 116.65 28.8782C116.918 28.9815 117.156 29.1365 117.394 29.3328C117.621 29.5291 117.807 29.7771 117.952 30.0561C118.096 30.335 118.168 30.6553 118.168 30.9963C118.168 31.2443 118.117 31.4716 118.014 31.6989C117.91 31.9262 117.776 32.1122 117.6 32.2775C117.425 32.4428 117.228 32.5668 117.001 32.6598C116.774 32.7528 116.546 32.8044 116.319 32.8044C115.957 32.8044 115.606 32.6908 115.286 32.4738C114.955 32.2568 114.697 31.9572 114.501 31.5956C114.304 31.2339 114.201 30.8516 114.201 30.4384C114.191 30.1181 114.273 29.8288 114.439 29.5601Z" fill="#1D1D1B"/>
<path d="M124.895 28.7749C124.905 28.7232 124.936 28.6819 124.988 28.6509C125.039 28.6199 125.112 28.6096 125.225 28.6096V28.5682H124.037V28.6096C124.171 28.6096 124.264 28.6406 124.306 28.6819C124.347 28.7232 124.378 28.8265 124.378 28.9815V32.5978C124.378 32.7217 124.357 32.8147 124.316 32.8664C124.275 32.9181 124.182 32.949 124.047 32.949V32.9904H127.095V31.9262H127.054C127.044 32.1328 127.013 32.3085 126.971 32.4428C126.93 32.5771 126.847 32.6701 126.744 32.7424C126.63 32.8147 126.486 32.8457 126.29 32.8457H125.752C125.608 32.8457 125.473 32.8354 125.36 32.8044C125.246 32.7734 125.163 32.7424 125.091 32.6804C125.029 32.6288 124.977 32.5564 124.946 32.4634C124.915 32.3705 124.895 32.2568 124.895 32.1225V29.0228C124.874 28.8989 124.884 28.8265 124.895 28.7749Z" fill="#1D1D1B"/>
<path d="M132.819 31.0066C132.819 31.2752 132.871 31.5336 132.964 31.7815C133.057 32.0295 133.202 32.2465 133.388 32.4428C133.574 32.6391 133.791 32.7837 134.049 32.8871C134.307 32.9904 134.586 33.042 134.896 33.042C135.278 33.042 135.63 32.9697 135.94 32.8354C136.25 32.7011 136.518 32.5151 136.735 32.2671C136.952 32.0295 137.117 31.7505 137.231 31.4406C137.345 31.1306 137.396 30.8 137.396 30.4693C137.396 30.2007 137.345 29.9424 137.252 29.7048C137.148 29.4671 137.014 29.2502 136.818 29.0745C136.632 28.8885 136.405 28.7542 136.146 28.6509C135.888 28.5476 135.599 28.4959 135.278 28.4959C134.875 28.4959 134.524 28.5682 134.204 28.7232C133.894 28.8782 133.625 29.0745 133.429 29.3225C133.222 29.5704 133.067 29.8391 132.964 30.1387C132.861 30.4383 132.819 30.7173 132.819 31.0066ZM133.408 29.5601C133.584 29.2915 133.801 29.0848 134.07 28.9402C134.338 28.7955 134.607 28.7232 134.886 28.7232C135.113 28.7232 135.351 28.7749 135.619 28.8782C135.888 28.9815 136.126 29.1365 136.363 29.3328C136.591 29.5291 136.777 29.7771 136.921 30.0561C137.066 30.335 137.138 30.6553 137.138 30.9963C137.138 31.2443 137.086 31.4716 136.983 31.6989C136.88 31.9262 136.746 32.1121 136.57 32.2775C136.394 32.4428 136.198 32.5668 135.971 32.6597C135.743 32.7527 135.516 32.8044 135.289 32.8044C134.927 32.8044 134.576 32.6907 134.256 32.4738C133.925 32.2568 133.667 31.9572 133.47 31.5955C133.274 31.2339 133.171 30.8516 133.171 30.4383C133.15 30.1181 133.243 29.8288 133.408 29.5601Z" fill="#1D1D1B"/>
<path d="M144.588 28.6922C144.278 28.8265 144.009 29.0022 143.792 29.2295C143.575 29.4465 143.41 29.6944 143.306 29.9527C143.193 30.2214 143.141 30.4693 143.141 30.7276C143.141 31.0996 143.244 31.4509 143.451 31.7815C143.658 32.1225 143.937 32.4014 144.288 32.6184C144.453 32.7217 144.629 32.8044 144.805 32.8561C144.98 32.9077 145.135 32.9387 145.28 32.949C145.414 32.9594 145.569 32.9697 145.724 32.9697H147.501V32.9284H147.439C147.346 32.9284 147.274 32.8974 147.233 32.8354C147.191 32.7734 147.181 32.6701 147.181 32.5358V31.8435C147.181 31.7195 147.202 31.6265 147.243 31.5645C147.284 31.5129 147.367 31.4819 147.512 31.4819V31.4406H146.365V31.4819C146.468 31.4819 146.551 31.5025 146.602 31.5439C146.654 31.5852 146.685 31.6782 146.685 31.8022V32.4738C146.685 32.5874 146.664 32.6701 146.644 32.7217C146.623 32.7734 146.561 32.8044 146.478 32.8251C146.396 32.8457 146.272 32.8457 146.086 32.8561L145.848 32.8664C145.703 32.8664 145.507 32.8457 145.259 32.8147C145.011 32.7837 144.794 32.7011 144.598 32.5874C144.371 32.4634 144.164 32.2568 143.978 31.9778C143.792 31.6989 143.699 31.3269 143.699 30.862C143.699 30.5727 143.74 30.2937 143.833 30.0251C143.916 29.7564 144.05 29.5084 144.216 29.3018C144.381 29.0952 144.588 28.9298 144.836 28.8059C145.084 28.6819 145.352 28.6199 145.652 28.6199C145.972 28.6199 146.261 28.6819 146.54 28.8162C146.809 28.9402 147.026 29.1055 147.181 29.3018H147.222L147.036 28.7955C146.561 28.5992 146.096 28.5062 145.662 28.5062C145.249 28.4959 144.898 28.5579 144.588 28.6922Z" fill="#1D1D1B"/>
<path d="M153.359 28.6509C153.411 28.6819 153.432 28.7336 153.442 28.8059C153.452 28.8782 153.463 28.9712 153.463 29.1056V32.4635C153.463 32.6081 153.452 32.7115 153.442 32.7734C153.432 32.8354 153.401 32.8768 153.359 32.8974C153.318 32.9181 153.235 32.9388 153.132 32.9388V32.9801H154.31V32.9388C154.196 32.9388 154.124 32.9284 154.072 32.8974C154.02 32.8664 153.989 32.8251 153.979 32.7631C153.969 32.7011 153.958 32.5978 153.958 32.4635V29.0746C153.958 28.9506 153.958 28.8679 153.969 28.8472C153.969 28.7439 154.01 28.6716 154.082 28.6509C154.155 28.6199 154.227 28.6096 154.299 28.6199V28.5786H153.122V28.6199C153.235 28.5993 153.308 28.6096 153.359 28.6509Z" fill="#1D1D1B"/>
<path d="M154.289 27.3284H153.752L153.246 28.2583H153.38L154.289 27.3284Z" fill="#1D1D1B"/>
<path d="M163.754 32.8147C163.692 32.7321 163.63 32.6391 163.578 32.5151L163.557 32.4531C163.547 32.4324 163.537 32.4221 163.537 32.4014L161.956 28.4959H161.884L160.282 32.5358C160.23 32.6701 160.179 32.7734 160.117 32.8354C160.065 32.8974 159.972 32.9284 159.858 32.9387V32.98H160.52V32.9387C160.416 32.9387 160.375 32.9077 160.375 32.8354C160.375 32.7941 160.385 32.7424 160.416 32.6907C160.416 32.6907 160.427 32.6597 160.447 32.6081L161.119 30.9343H162.41L163.051 32.5048C163.051 32.5048 163.061 32.5151 163.061 32.5358C163.061 32.5564 163.072 32.5668 163.082 32.5771C163.134 32.6804 163.154 32.7631 163.154 32.8147C163.154 32.8354 163.144 32.8664 163.123 32.8871C163.103 32.9077 163.072 32.9284 163.01 32.9284V32.9697H164.043V32.9284C163.909 32.9284 163.816 32.8871 163.754 32.8147ZM161.16 30.8206L161.76 29.3121L162.359 30.8206H161.16Z" fill="#1D1D1B"/>
<path d="M57.5294 41.0598C57.3537 41.1218 57.1678 41.1528 56.9818 41.1528C56.7441 41.1528 56.5478 41.1011 56.3825 41.0081C56.2172 40.9151 56.0726 40.7911 55.9796 40.6465C55.8763 40.5019 55.8039 40.3469 55.7523 40.1816C55.7006 40.0266 55.6799 39.8819 55.6799 39.7579C55.6799 39.5823 55.7213 39.4273 55.8039 39.262C55.8866 39.107 56.0209 38.9727 56.1862 38.8694C56.3619 38.7661 56.5582 38.7144 56.8061 38.7144C56.9405 38.7144 57.0644 38.7351 57.1884 38.7764C57.3021 38.8177 57.3951 38.8694 57.4777 38.921C57.5501 38.9727 57.612 39.0244 57.6637 39.076H57.6844L57.5914 38.8177C57.5914 38.8177 57.581 38.8177 57.581 38.8074C57.5707 38.8074 57.5707 38.8074 57.5707 38.8074C57.4571 38.7557 57.3434 38.7247 57.2401 38.6937C57.1368 38.6627 57.0128 38.6524 56.8681 38.6524C56.6408 38.6524 56.4445 38.6937 56.2585 38.7661C56.0726 38.8384 55.9279 38.9417 55.8143 39.076C55.7006 39.2103 55.6076 39.3447 55.5456 39.51C55.4836 39.6649 55.4526 39.8303 55.4526 39.9956C55.4526 40.1919 55.494 40.3779 55.5766 40.5535C55.6593 40.7292 55.7626 40.8635 55.9072 40.9668C55.9796 41.0185 56.0519 41.0598 56.1449 41.1011C56.2379 41.1424 56.3412 41.1734 56.4755 41.1941C56.5995 41.2148 56.7441 41.2251 56.9095 41.2251C57.0644 41.2251 57.1884 41.2148 57.2814 41.2044C57.3744 41.1941 57.5397 41.1528 57.798 41.1011L57.9737 40.8325L57.953 40.8221C57.8394 40.9151 57.705 40.9978 57.5294 41.0598Z" fill="#1D1D1B"/>
<path d="M61.8479 40.8738C61.8272 40.9461 61.7756 40.9977 61.7136 41.0391C61.6516 41.0804 61.5689 41.0907 61.4553 41.0907H61.1556C61.073 41.0907 61.0006 41.0804 60.9387 41.0701C60.8767 41.0597 60.825 41.0287 60.794 40.9977C60.7527 40.9667 60.732 40.9254 60.7113 40.8738C60.6907 40.8221 60.6804 40.7601 60.6804 40.6774V38.9313C60.6804 38.8693 60.6804 38.828 60.6907 38.797C60.6907 38.766 60.7114 38.7453 60.7423 38.7247C60.7733 38.704 60.8147 38.704 60.8767 38.704V38.6833H60.2051V38.704C60.2774 38.704 60.3291 38.7247 60.3601 38.7453C60.3807 38.766 60.4014 38.828 60.4014 38.9107V40.9461C60.4014 41.0184 60.3911 41.0701 60.3704 41.1011C60.3497 41.1321 60.2981 41.1424 60.2154 41.1424V41.1631H61.9305V40.5638H61.9099C61.8892 40.6981 61.8789 40.8014 61.8479 40.8738Z" fill="#1D1D1B"/>
<path d="M64.6995 38.0015L64.4102 38.5181H64.4928L64.9991 38.0015H64.6995Z" fill="#1D1D1B"/>
<path d="M64.3482 38.7144C64.4102 38.7144 64.4515 38.7144 64.4722 38.7351C64.5032 38.7557 64.5135 38.7867 64.5239 38.8177C64.5342 38.8487 64.5342 38.9107 64.5342 38.983V40.8738C64.5342 40.9565 64.5342 41.0184 64.5239 41.0494C64.5135 41.0804 64.5032 41.1011 64.4722 41.1218C64.4515 41.1321 64.4102 41.1424 64.3482 41.1424V41.1631H65.0095V41.1424C64.9475 41.1424 64.9062 41.1321 64.8752 41.1218C64.8442 41.1011 64.8338 41.0804 64.8235 41.0494C64.8132 41.0184 64.8132 40.9565 64.8132 40.8841V38.9727C64.8132 38.9004 64.8132 38.859 64.8132 38.8487C64.8132 38.7867 64.8338 38.7557 64.8752 38.7351C64.9165 38.7144 64.9578 38.7144 64.9991 38.7144V38.6937H64.3379V38.7144H64.3482Z" fill="#1D1D1B"/>
<path d="M67.6754 41.0597C67.6651 41.0907 67.6548 41.1114 67.6238 41.1321C67.5928 41.1527 67.5514 41.1527 67.4895 41.1527V41.1734H67.9647V41.1527C67.9234 41.1424 67.8821 41.1424 67.8717 41.1424C67.8511 41.1424 67.8407 41.1321 67.8304 41.1114C67.8201 41.0907 67.8097 41.0701 67.7994 41.0494C67.7994 41.0184 67.7891 40.9874 67.7891 40.9358V39.0966L69.7728 41.2044V38.9417C69.7728 38.8487 69.7832 38.7867 69.8142 38.7557C69.8452 38.7247 69.8968 38.7143 69.9692 38.704V38.6833H69.4835V38.704C69.5455 38.704 69.5869 38.7143 69.6179 38.7453C69.6489 38.766 69.6592 38.828 69.6592 38.9107V40.6671L67.7994 38.6833H67.3345V38.704C67.4895 38.6937 67.5824 38.7453 67.6238 38.8383C67.6651 38.9313 67.6858 39.0553 67.6858 39.1896V40.8738C67.6858 40.9667 67.6858 41.0287 67.6754 41.0597Z" fill="#1D1D1B"/>
<path d="M72.3971 38.7144C72.459 38.7144 72.5004 38.7144 72.521 38.7351C72.552 38.7557 72.5624 38.7867 72.5727 38.8177C72.583 38.8487 72.583 38.9107 72.583 38.983V40.8738C72.583 40.9565 72.583 41.0184 72.5727 41.0494C72.5624 41.0804 72.552 41.1011 72.521 41.1218C72.5004 41.1321 72.459 41.1424 72.3971 41.1424V41.1631H73.0583V41.1424C72.9963 41.1424 72.955 41.1321 72.924 41.1218C72.893 41.1011 72.8827 41.0804 72.8723 41.0494C72.862 41.0184 72.862 40.9565 72.862 40.8841V38.9727C72.862 38.9004 72.862 38.859 72.862 38.8487C72.862 38.7867 72.8827 38.7557 72.924 38.7351C72.9653 38.7144 73.0066 38.7144 73.048 38.7144V38.6937H72.3867V38.7144H72.3971Z" fill="#1D1D1B"/>
<path d="M77.5943 41.0598C77.4187 41.1218 77.2327 41.1528 77.0467 41.1528C76.8091 41.1528 76.6128 41.1011 76.4475 41.0081C76.2822 40.9151 76.1375 40.7911 76.0445 40.6465C75.9412 40.5019 75.8689 40.3469 75.8172 40.1816C75.7655 40.0266 75.7449 39.8819 75.7449 39.7579C75.7449 39.5823 75.7862 39.4273 75.8689 39.262C75.9515 39.107 76.0858 38.9727 76.2512 38.8694C76.4268 38.7661 76.6231 38.7144 76.8711 38.7144C77.0054 38.7144 77.1294 38.7351 77.2534 38.7764C77.367 38.8177 77.46 38.8694 77.5427 38.921C77.615 38.9727 77.677 39.0244 77.7286 39.076H77.7493L77.6563 38.8177C77.6563 38.8177 77.646 38.8177 77.646 38.8074C77.6357 38.8074 77.6357 38.8074 77.6357 38.8074C77.522 38.7557 77.4084 38.7247 77.305 38.6937C77.2017 38.6627 77.0777 38.6524 76.9331 38.6524C76.7058 38.6524 76.5095 38.6937 76.3235 38.7661C76.1375 38.8384 75.9929 38.9417 75.8792 39.076C75.7655 39.2103 75.6726 39.3447 75.6106 39.51C75.5486 39.6649 75.5176 39.8303 75.5176 39.9956C75.5176 40.1919 75.5589 40.3779 75.6416 40.5535C75.7242 40.7292 75.8275 40.8635 75.9722 40.9668C76.0445 41.0185 76.1168 41.0598 76.2098 41.1011C76.3028 41.1424 76.4061 41.1734 76.5405 41.1941C76.6644 41.2148 76.8091 41.2251 76.9744 41.2251C77.1294 41.2251 77.2534 41.2148 77.3464 41.2044C77.4393 41.1941 77.6047 41.1528 77.863 41.1011L78.0386 40.8325L78.0179 40.8221C77.9043 40.9151 77.77 40.9978 77.5943 41.0598Z" fill="#1D1D1B"/>
<path d="M82.3366 40.9151L82.3263 40.8738C82.3159 40.8635 82.3159 40.8531 82.3159 40.8428L81.4274 38.6524H81.386L80.4871 40.9255C80.4562 40.9978 80.4252 41.0598 80.3942 41.0908C80.3632 41.1321 80.3115 41.1424 80.2495 41.1424V41.1631H80.6215V41.1424C80.5698 41.1424 80.5388 41.1218 80.5388 41.0908C80.5388 41.0701 80.5491 41.0391 80.5595 41.0081C80.5595 41.0081 80.5595 40.9875 80.5801 40.9668L80.9521 40.0266H81.6753L82.037 40.9151C82.037 40.9151 82.037 40.9255 82.0473 40.9358C82.0576 40.9461 82.0576 40.9565 82.0576 40.9565C82.0783 41.0185 82.099 41.0598 82.099 41.0908C82.099 41.1011 82.0886 41.1114 82.0783 41.1321C82.068 41.1424 82.0473 41.1528 82.0163 41.1528V41.1734H82.5949V41.1528C82.5226 41.1528 82.4709 41.1321 82.4399 41.0908C82.3986 41.0495 82.3676 40.9875 82.3366 40.9151ZM80.9728 39.9646L81.3034 39.1173L81.634 39.9646H80.9728Z" fill="#1D1D1B"/>
<path d="M96.6051 41.0598C96.4294 41.1218 96.2434 41.1528 96.0575 41.1528C95.8302 41.1528 95.6235 41.1011 95.4582 41.0081C95.2929 40.9151 95.1482 40.7911 95.0553 40.6465C94.9519 40.5019 94.8796 40.3469 94.8279 40.1816C94.7763 40.0266 94.7556 39.8819 94.7556 39.7579C94.7556 39.5823 94.797 39.417 94.8796 39.262C94.9623 39.107 95.0966 38.9727 95.2619 38.8694C95.4375 38.7661 95.6339 38.7144 95.8818 38.7144C96.0161 38.7144 96.1401 38.7351 96.2641 38.7764C96.3778 38.8177 96.4708 38.8694 96.5534 38.921C96.6257 38.9727 96.6877 39.0244 96.7394 39.076H96.7601L96.6671 38.8177C96.6671 38.8177 96.6567 38.8177 96.6567 38.8074C96.6464 38.8074 96.6464 38.8074 96.6464 38.8074C96.5327 38.7557 96.4191 38.7247 96.3158 38.6937C96.2125 38.6627 96.0885 38.6524 95.9438 38.6524C95.7165 38.6524 95.5202 38.6937 95.3342 38.7661C95.1482 38.8384 95.0036 38.9417 94.8899 39.076C94.7763 39.2103 94.6833 39.3447 94.6213 39.51C94.5593 39.6649 94.5283 39.8303 94.5283 39.9956C94.5283 40.1919 94.5696 40.3779 94.6523 40.5535C94.735 40.7292 94.8383 40.8635 94.9829 40.9668C95.0553 41.0185 95.1276 41.0598 95.2206 41.1011C95.3136 41.1424 95.4169 41.1734 95.5512 41.1941C95.6752 41.2148 95.8198 41.2251 95.9851 41.2251C96.1401 41.2251 96.2641 41.2148 96.3571 41.2044C96.4501 41.1941 96.6154 41.1528 96.8737 41.1011L97.0493 40.8325L97.0287 40.8221C96.9254 40.9151 96.791 40.9978 96.6051 41.0598Z" fill="#1D1D1B"/>
<path d="M101.616 38.983C101.513 38.8797 101.389 38.797 101.234 38.7454C101.089 38.6937 100.924 38.6627 100.748 38.6627C100.521 38.6627 100.325 38.704 100.149 38.7867C99.9733 38.8694 99.8286 38.983 99.715 39.1277C99.6013 39.262 99.5083 39.417 99.4567 39.5823C99.3947 39.7476 99.374 39.9129 99.374 40.0679C99.374 40.2229 99.405 40.3675 99.4567 40.5018C99.5083 40.6362 99.591 40.7601 99.6943 40.8738C99.7976 40.9874 99.9216 41.0701 100.066 41.1321C100.211 41.1941 100.366 41.2251 100.542 41.2251C100.759 41.2251 100.955 41.1838 101.13 41.1114C101.306 41.0391 101.461 40.9254 101.575 40.7911C101.688 40.6568 101.792 40.5018 101.854 40.3262C101.916 40.1505 101.947 39.9646 101.947 39.7786C101.947 39.6236 101.916 39.479 101.864 39.3446C101.802 39.2 101.73 39.0863 101.616 38.983ZM101.699 40.4708C101.637 40.5948 101.564 40.6981 101.471 40.7911C101.378 40.8841 101.265 40.9564 101.141 41.0081C101.017 41.0598 100.883 41.0908 100.759 41.0908C100.552 41.0908 100.356 41.0288 100.18 40.9048C99.9939 40.7808 99.8493 40.6155 99.7356 40.4088C99.622 40.2022 99.5703 39.9852 99.5703 39.7579C99.5703 39.5719 99.622 39.4066 99.715 39.2516C99.808 39.107 99.932 38.983 100.087 38.9004C100.242 38.8177 100.387 38.7764 100.542 38.7764C100.666 38.7764 100.8 38.8074 100.955 38.8694C101.099 38.9314 101.244 39.014 101.368 39.1277C101.492 39.2413 101.606 39.3756 101.678 39.5306C101.761 39.6856 101.802 39.8612 101.802 40.0576C101.792 40.2125 101.761 40.3469 101.699 40.4708Z" fill="#1D1D1B"/>
<path d="M105.429 39.8612C105.325 39.8095 105.212 39.7682 105.098 39.7372C105.057 39.7166 104.995 39.6959 104.912 39.6649C104.829 39.6339 104.767 39.6029 104.716 39.5719C104.664 39.5409 104.623 39.4893 104.592 39.4376C104.561 39.3859 104.54 39.3136 104.54 39.2413C104.54 39.1586 104.561 39.076 104.602 39.0036C104.643 38.9313 104.705 38.8693 104.788 38.8177C104.871 38.766 104.974 38.7453 105.088 38.7453C105.181 38.7453 105.263 38.7557 105.336 38.7867C105.408 38.8177 105.47 38.8487 105.511 38.89C105.563 38.9313 105.604 38.9727 105.646 39.0243C105.666 39.045 105.666 39.045 105.666 39.0553H105.687L105.573 38.7453C105.573 38.7453 105.573 38.7453 105.563 38.7453C105.553 38.7453 105.553 38.7453 105.542 38.7453C105.387 38.704 105.243 38.6833 105.129 38.6833C104.984 38.6833 104.85 38.7143 104.747 38.7763C104.633 38.8383 104.55 38.921 104.499 39.0243C104.447 39.1276 104.416 39.2413 104.416 39.3653C104.416 39.4583 104.437 39.5512 104.468 39.6236C104.509 39.7062 104.55 39.7786 104.612 39.8405C104.664 39.8819 104.716 39.9232 104.767 39.9439C104.829 39.9749 104.922 40.0162 105.067 40.0575C105.201 40.1092 105.315 40.1505 105.398 40.1918C105.48 40.2332 105.542 40.2848 105.604 40.3572C105.656 40.4295 105.687 40.5121 105.687 40.6155C105.687 40.6568 105.677 40.7084 105.666 40.7601C105.656 40.8118 105.625 40.8738 105.573 40.9254C105.522 40.9771 105.46 41.0287 105.367 41.0701C105.284 41.1114 105.17 41.1217 105.036 41.1217C104.902 41.1217 104.788 41.1114 104.695 41.0804C104.602 41.0494 104.54 41.0081 104.488 40.9461C104.437 40.8841 104.406 40.8221 104.385 40.7498C104.364 40.6774 104.354 40.5845 104.354 40.4811H104.333V41.2044H104.995C105.036 41.2044 105.108 41.1941 105.222 41.1837C105.325 41.1734 105.408 41.1527 105.449 41.1321C105.553 41.0804 105.646 40.9977 105.718 40.8841C105.79 40.7704 105.832 40.6464 105.832 40.4915C105.832 40.3365 105.79 40.2022 105.708 40.0988C105.625 39.9852 105.532 39.9025 105.429 39.8612Z" fill="#1D1D1B"/>
<path d="M108.373 41.0597C108.373 41.0184 108.373 40.9874 108.384 40.9668L108.632 39.1276H108.642L109.531 41.1837H109.551L110.44 39.1276H110.45L110.698 40.9564C110.709 41.0081 110.709 41.0391 110.709 41.0597C110.709 41.1321 110.667 41.1734 110.595 41.1631V41.1837H111.153V41.1631C111.111 41.1631 111.08 41.1527 111.06 41.1424C111.039 41.1321 111.018 41.1114 111.008 41.0804C110.998 41.0494 110.987 40.9978 110.977 40.9358L110.719 39.0553C110.709 38.9933 110.709 38.952 110.709 38.9417C110.709 38.8073 110.771 38.735 110.905 38.735V38.7144H110.512L109.634 40.7498L108.756 38.7144H108.291V38.735C108.404 38.735 108.477 38.7867 108.528 38.89L108.57 38.9727L108.291 40.9771C108.28 41.0391 108.27 41.0804 108.26 41.1114C108.249 41.1424 108.229 41.1527 108.218 41.1631C108.208 41.1734 108.167 41.1734 108.125 41.1734V41.1941H108.508V41.1734C108.456 41.1734 108.425 41.1631 108.415 41.1424C108.404 41.1217 108.373 41.0907 108.373 41.0597Z" fill="#1D1D1B"/>
<path d="M114.376 38.0015L114.087 38.5181H114.17L114.676 38.0015H114.376Z" fill="#1D1D1B"/>
<path d="M113.612 41.1218C113.581 41.1424 113.54 41.1528 113.478 41.1528V41.1734H115.172V40.8325H115.151C115.141 40.9151 115.12 40.9771 115.089 41.0184C115.058 41.0494 115.017 41.0804 114.976 41.0804C114.924 41.0908 114.841 41.0908 114.728 41.0908H114.294C114.201 41.0908 114.128 41.0804 114.077 41.0701C114.025 41.0598 113.994 41.0288 113.973 40.9771C113.953 40.9255 113.942 40.8428 113.942 40.7292V39.9646H114.728C114.779 39.9646 114.81 39.9646 114.841 39.9749C114.862 39.9852 114.883 40.0059 114.883 40.0472H114.903V39.8096H114.883C114.883 39.8509 114.862 39.8716 114.841 39.8819C114.81 39.8922 114.769 39.8923 114.717 39.8923H113.953V38.7764H114.769C114.831 38.7764 114.883 38.7764 114.903 38.7867C114.924 38.797 114.945 38.8177 114.965 38.8487C114.976 38.8797 114.996 38.9417 115.027 39.0347H115.048V38.6937H113.488V38.7247C113.571 38.7247 113.612 38.7454 113.633 38.7764C113.653 38.8074 113.664 38.8797 113.664 38.9727V40.9771C113.653 41.0494 113.643 41.1011 113.612 41.1218Z" fill="#1D1D1B"/>
<path d="M119.253 38.7764C119.295 38.7764 119.326 38.7764 119.336 38.7867C119.357 38.7971 119.367 38.8074 119.367 38.8384C119.367 38.8694 119.367 38.9004 119.357 38.9107H119.377L119.491 38.6111H119.47C119.46 38.6524 119.439 38.6834 119.408 38.6834C119.377 38.6937 119.336 38.6937 119.264 38.6937H117.61C117.548 38.6937 117.507 38.6937 117.486 38.6834C117.466 38.6731 117.445 38.6524 117.424 38.6111H117.404L117.517 38.9107H117.538C117.528 38.8797 117.528 38.8591 117.528 38.8384C117.528 38.8074 117.538 38.7867 117.559 38.7867C117.579 38.7867 117.621 38.7764 117.683 38.7764H118.303V40.9358C118.303 40.9978 118.292 41.0495 118.282 41.0701C118.272 41.1011 118.251 41.1115 118.23 41.1218C118.21 41.1321 118.168 41.1424 118.106 41.1424V41.1631H118.778V41.1424C118.726 41.1424 118.695 41.1424 118.664 41.1321C118.633 41.1218 118.623 41.1115 118.613 41.0908C118.602 41.0701 118.592 41.0495 118.592 41.0081C118.592 40.9771 118.582 40.9358 118.582 40.8841V38.7557H119.253V38.7764Z" fill="#1D1D1B"/>
<path d="M121.805 38.7144C121.867 38.7144 121.909 38.7144 121.929 38.7351C121.96 38.7557 121.971 38.7867 121.981 38.8177C121.981 38.859 121.991 38.9107 121.991 38.983V40.8738C121.991 40.9565 121.991 41.0184 121.981 41.0494C121.971 41.0804 121.96 41.1011 121.929 41.1218C121.909 41.1321 121.857 41.1424 121.805 41.1424V41.1631H122.467V41.1424C122.405 41.1424 122.363 41.1321 122.332 41.1218C122.301 41.1011 122.291 41.0804 122.281 41.0494C122.281 41.0184 122.27 40.9565 122.27 40.8841V38.9727C122.27 38.9004 122.27 38.859 122.27 38.8487C122.27 38.7867 122.291 38.7557 122.332 38.7351C122.374 38.7144 122.415 38.7144 122.456 38.7144V38.6937H121.795V38.7144H121.805Z" fill="#1D1D1B"/>
<path d="M127.002 41.0598C126.826 41.1218 126.641 41.1528 126.455 41.1528C126.227 41.1528 126.021 41.1011 125.855 41.0081C125.69 40.9151 125.556 40.7911 125.452 40.6465C125.349 40.5019 125.277 40.3469 125.225 40.1816C125.173 40.0266 125.153 39.8819 125.153 39.7579C125.153 39.5823 125.194 39.417 125.277 39.262C125.359 39.107 125.494 38.9727 125.659 38.8694C125.835 38.7661 126.041 38.7144 126.279 38.7144C126.413 38.7144 126.548 38.7351 126.661 38.7764C126.775 38.8177 126.868 38.8694 126.95 38.921C127.033 38.9727 127.085 39.0244 127.136 39.076H127.157L127.064 38.8177C127.064 38.8177 127.054 38.8177 127.043 38.8074C127.033 38.8074 127.033 38.8074 127.033 38.8074C126.919 38.7557 126.816 38.7247 126.702 38.6937C126.589 38.6627 126.475 38.6524 126.331 38.6524C126.103 38.6524 125.907 38.6937 125.721 38.7661C125.535 38.8384 125.39 38.9417 125.277 39.076C125.163 39.2103 125.07 39.3447 125.008 39.51C124.946 39.6649 124.915 39.8303 124.915 39.9956C124.915 40.1919 124.956 40.3779 125.039 40.5535C125.122 40.7292 125.235 40.8635 125.37 40.9668C125.442 41.0185 125.514 41.0598 125.607 41.1011C125.7 41.1424 125.804 41.1734 125.938 41.1941C126.062 41.2148 126.217 41.2251 126.372 41.2251C126.527 41.2251 126.651 41.2148 126.744 41.2044C126.837 41.1941 127.002 41.1528 127.26 41.1011L127.436 40.8325L127.415 40.8221C127.312 40.9151 127.178 40.9978 127.002 41.0598Z" fill="#1D1D1B"/>
<path d="M131.745 40.9151L131.734 40.8738C131.724 40.8635 131.724 40.8531 131.724 40.8428L130.836 38.6524H130.794L129.895 40.9255C129.864 40.9978 129.833 41.0598 129.802 41.0908C129.771 41.1321 129.72 41.1424 129.658 41.1424V41.1631H130.03V41.1424C129.978 41.1424 129.947 41.1218 129.947 41.0908C129.947 41.0701 129.957 41.0391 129.968 41.0081C129.968 41.0081 129.978 40.9875 129.988 40.9668L130.36 40.0266H131.084L131.445 40.9151C131.445 40.9151 131.445 40.9255 131.456 40.9358C131.456 40.9461 131.466 40.9565 131.466 40.9565C131.497 41.0185 131.507 41.0598 131.507 41.0908C131.507 41.1011 131.497 41.1114 131.486 41.1321C131.476 41.1424 131.455 41.1528 131.425 41.1528V41.1734H132.003V41.1528C131.931 41.1528 131.879 41.1321 131.848 41.0908C131.807 41.0495 131.776 40.9875 131.745 40.9151ZM130.381 39.9646L130.712 39.1173L131.042 39.9646H130.381Z" fill="#1D1D1B"/>
<path d="M144.329 38.8177C144.34 38.7867 144.35 38.766 144.381 38.7454C144.412 38.7247 144.453 38.7247 144.515 38.7247V38.704H143.854V38.7247C143.926 38.7247 143.978 38.7454 144.009 38.766C144.03 38.7867 144.05 38.8487 144.05 38.9313V40.9668C144.05 41.0391 144.04 41.0908 144.019 41.1218C143.999 41.1527 143.947 41.1631 143.864 41.1631V41.1837H145.579V40.5845H145.559C145.548 40.7085 145.538 40.8015 145.517 40.8738C145.497 40.9461 145.445 40.9978 145.383 41.0391C145.321 41.0804 145.238 41.0908 145.125 41.0908H144.825C144.743 41.0908 144.67 41.0804 144.608 41.0701C144.546 41.0598 144.495 41.0288 144.464 40.9978C144.422 40.9668 144.402 40.9254 144.381 40.8738C144.36 40.8221 144.35 40.7601 144.35 40.6775V38.9313C144.319 38.89 144.319 38.8384 144.329 38.8177Z" fill="#1D1D1B"/>
<path d="M149.681 40.9358C149.681 40.9461 149.691 40.9564 149.691 40.9564C149.722 41.0184 149.733 41.0598 149.733 41.0908C149.733 41.1011 149.722 41.1114 149.712 41.1321C149.702 41.1424 149.681 41.1528 149.65 41.1528V41.1734H150.229V41.1528C150.156 41.1528 150.105 41.1321 150.074 41.0908C150.032 41.0494 150.001 40.9874 149.981 40.9254L149.97 40.8841C149.96 40.8738 149.96 40.8635 149.96 40.8531L149.071 38.6627H149.03L148.131 40.9358C148.1 41.0081 148.069 41.0701 148.038 41.1011C148.007 41.1424 147.956 41.1528 147.894 41.1528V41.1734H148.266V41.1528C148.214 41.1528 148.183 41.1321 148.183 41.1011C148.183 41.0804 148.193 41.0494 148.204 41.0184C148.204 41.0184 148.214 40.9978 148.224 40.9771L148.596 40.0369H149.319L149.681 40.9254C149.671 40.9254 149.681 40.9255 149.681 40.9358ZM148.606 39.9646L148.937 39.1173L149.268 39.9646H148.606Z" fill="#1D1D1B"/>
<path d="M153.762 40.9048C153.711 40.9564 153.649 41.0081 153.566 41.0494C153.483 41.0907 153.37 41.1011 153.235 41.1011C153.101 41.1011 152.987 41.0907 152.894 41.0598C152.801 41.0288 152.739 40.9874 152.688 40.9254C152.636 40.8634 152.605 40.8015 152.584 40.7291C152.564 40.6568 152.553 40.5638 152.553 40.4605H152.533V41.1837H153.194C153.235 41.1837 153.308 41.1734 153.421 41.1631C153.525 41.1527 153.607 41.1321 153.649 41.1114C153.762 41.0598 153.845 40.9771 153.917 40.8634C153.99 40.7498 154.031 40.6258 154.031 40.4708C154.031 40.3158 153.99 40.1815 153.907 40.0782C153.824 39.9749 153.731 39.9026 153.628 39.8509C153.525 39.7992 153.411 39.7579 153.297 39.7269C153.256 39.7062 153.194 39.6856 153.111 39.6546C153.029 39.6236 152.967 39.5926 152.915 39.5616C152.863 39.5306 152.822 39.4789 152.791 39.4273C152.76 39.3756 152.75 39.3033 152.75 39.231C152.75 39.1483 152.77 39.0657 152.812 38.9933C152.853 38.921 152.915 38.859 152.998 38.8074C153.08 38.7557 153.184 38.735 153.297 38.735C153.39 38.735 153.473 38.7454 153.545 38.7764C153.618 38.8074 153.68 38.8383 153.721 38.8797C153.773 38.921 153.814 38.9623 153.855 39.014C153.876 39.0347 153.876 39.0347 153.876 39.045H153.897L153.783 38.735C153.783 38.735 153.783 38.735 153.773 38.735C153.762 38.735 153.762 38.735 153.752 38.735C153.597 38.6937 153.452 38.673 153.328 38.673C153.184 38.673 153.049 38.704 152.946 38.766C152.832 38.828 152.75 38.9107 152.698 39.014C152.646 39.1173 152.615 39.231 152.615 39.355C152.615 39.4479 152.636 39.5409 152.667 39.6133C152.708 39.6959 152.75 39.7682 152.812 39.8302C152.853 39.8716 152.905 39.9129 152.967 39.9336C153.029 39.9645 153.122 40.0059 153.266 40.0472C153.401 40.0989 153.514 40.1402 153.597 40.1815C153.68 40.2229 153.742 40.2745 153.804 40.3468C153.855 40.4192 153.886 40.5018 153.886 40.6051C153.886 40.6465 153.876 40.6981 153.866 40.7498C153.835 40.7911 153.804 40.8428 153.762 40.9048Z" fill="#1D1D1B"/>
<path d="M156.552 41.1218C156.521 41.1424 156.48 41.1528 156.418 41.1528V41.1734H158.112V40.8325H158.092C158.081 40.9151 158.061 40.9771 158.03 41.0184C157.999 41.0494 157.957 41.0804 157.916 41.0804C157.864 41.0908 157.782 41.0908 157.668 41.0908H157.234C157.141 41.0908 157.069 41.0804 157.017 41.0701C156.966 41.0598 156.935 41.0288 156.914 40.9771C156.893 40.9255 156.883 40.8428 156.883 40.7292V39.9646H157.668C157.72 39.9646 157.751 39.9646 157.782 39.9749C157.802 39.9852 157.823 40.0059 157.823 40.0472H157.844V39.8096H157.823C157.823 39.8509 157.802 39.8716 157.782 39.8819C157.751 39.8922 157.709 39.8923 157.658 39.8923H156.893V38.7764H157.709C157.771 38.7764 157.823 38.7764 157.844 38.7867C157.864 38.797 157.885 38.8177 157.906 38.8487C157.916 38.8797 157.937 38.9417 157.968 39.0347H157.988V38.6937H156.428V38.7247C156.511 38.7247 156.552 38.7454 156.573 38.7764C156.594 38.8074 156.604 38.8797 156.604 38.9727V40.9771C156.594 41.0494 156.583 41.1011 156.552 41.1218Z" fill="#1D1D1B"/>
<path d="M162.989 41.0391C162.968 41.0494 162.948 41.0598 162.927 41.0701C162.875 41.0908 162.824 41.1011 162.762 41.1011C162.679 41.1011 162.597 41.0804 162.524 41.0391C162.452 40.9978 162.39 40.9461 162.349 40.9048C162.256 40.8015 162.152 40.6568 162.039 40.5018C161.925 40.3365 161.853 40.2332 161.832 40.1919L161.811 40.1712L161.636 39.9026C161.718 39.8613 161.78 39.8096 161.853 39.7373C161.925 39.6649 161.977 39.603 162.008 39.51C162.039 39.417 162.07 39.3343 162.07 39.2517C162.07 39.1173 162.039 39.014 161.977 38.921C161.915 38.8384 161.822 38.7764 161.718 38.7454C161.656 38.7247 161.594 38.7144 161.522 38.7041C161.45 38.6937 161.336 38.6937 161.191 38.6937H160.489V38.7144C160.54 38.7144 160.571 38.7247 160.592 38.7351C160.613 38.7454 160.633 38.7661 160.644 38.797C160.654 38.828 160.664 38.8797 160.664 38.9417V40.9151C160.664 41.0081 160.654 41.0701 160.633 41.1011C160.613 41.1321 160.561 41.1424 160.489 41.1528V41.1734H161.129V41.1528C161.078 41.1528 161.047 41.1424 161.026 41.1321C161.005 41.1218 160.985 41.1011 160.974 41.0701C160.964 41.0391 160.954 40.9978 160.954 40.9358V39.9852H161.15C161.222 39.9852 161.264 39.9852 161.274 39.9852H161.367L161.615 40.3675C161.615 40.3779 161.625 40.3779 161.625 40.3882C161.78 40.6155 161.915 40.8015 162.049 40.9668C162.101 41.0288 162.152 41.0804 162.214 41.1114C162.276 41.1424 162.328 41.1734 162.38 41.1838C162.431 41.1941 162.483 41.2044 162.535 41.2044C162.597 41.2044 162.659 41.2044 162.721 41.1838C162.782 41.1734 162.834 41.1631 162.865 41.1424C162.927 41.1114 162.989 41.0804 163.051 41.0288L163.041 40.9978C163.041 41.0081 163.02 41.0185 162.989 41.0391ZM161.563 39.8613C161.522 39.8819 161.47 39.8922 161.398 39.9129C161.326 39.9336 161.264 39.9336 161.212 39.9336H160.954V38.7661H161.16C161.274 38.7661 161.367 38.7764 161.439 38.8074C161.512 38.8384 161.574 38.8694 161.625 38.921C161.667 38.9624 161.708 39.014 161.729 39.0657C161.76 39.1173 161.78 39.1793 161.791 39.2413C161.801 39.3033 161.811 39.355 161.811 39.4066C161.811 39.5203 161.791 39.6133 161.739 39.6959C161.698 39.7579 161.636 39.8199 161.563 39.8613Z" fill="#1D1D1B"/>
<path d="M88.1018 40.5225C88.33 40.5225 88.515 40.3375 88.515 40.1092C88.515 39.881 88.33 39.6959 88.1018 39.6959C87.8735 39.6959 87.6885 39.881 87.6885 40.1092C87.6885 40.3375 87.8735 40.5225 88.1018 40.5225Z" fill="#1D1D1B"/>
<path d="M138.223 40.5225C138.451 40.5225 138.636 40.3375 138.636 40.1092C138.636 39.881 138.451 39.6959 138.223 39.6959C137.995 39.6959 137.81 39.881 137.81 40.1092C137.81 40.3375 137.995 40.5225 138.223 40.5225Z" fill="#1D1D1B"/>
<path d="M163.113 35.6354H55.3076V36.0384H163.113V35.6354Z" fill="#1D1D1B"/>
<path d="M59.5855 24.0841C59.9265 24.0221 60.2158 23.9188 60.4637 23.7638C60.691 23.6192 60.908 23.4332 61.1147 23.2266C61.311 23.0199 61.4969 22.7616 61.6623 22.462C61.8276 22.1727 61.9619 21.8524 62.0549 21.5218C62.1479 21.1911 62.1995 20.8295 62.1995 20.4679C62.1995 20.0753 62.1479 19.7136 62.0342 19.3727C61.9309 19.0317 61.7759 18.7321 61.5899 18.4635C61.4039 18.2052 61.187 17.9882 60.939 17.8125C60.66 17.6162 60.3294 17.4613 59.9368 17.3373C59.5442 17.2236 58.9656 17.1616 58.2217 17.1616H55.2563V17.3269H55.308C55.4423 17.3269 55.6076 17.3476 55.649 17.4509C55.68 17.5129 55.711 17.6679 55.711 18.0812V23.1129C55.711 23.3712 55.7006 23.5675 55.68 23.6915C55.6593 23.8155 55.6283 23.8982 55.5766 23.9395C55.5353 23.9808 55.463 24.0015 55.3803 24.0015H55.2563V24.1668H58.294C58.8209 24.1771 59.2549 24.1461 59.5855 24.0841ZM60.5154 23.1129C60.3397 23.2989 60.1434 23.4435 59.9265 23.5572C59.7095 23.6708 59.4615 23.7535 59.1825 23.8155C58.9036 23.8672 58.5833 23.8982 58.2113 23.8982C57.7361 23.8982 57.3641 23.8568 57.1265 23.7638C56.8888 23.6812 56.7338 23.5572 56.6615 23.4022C56.5789 23.2369 56.5479 23.0096 56.5479 22.7306V17.4199H57.4778C58.1803 17.4199 58.7899 17.5129 59.2962 17.7092C59.6785 17.8539 60.0194 18.0398 60.2881 18.2878C60.5671 18.5255 60.784 18.7941 60.939 19.0627C61.094 19.3417 61.218 19.631 61.2903 19.9203C61.3626 20.2096 61.4039 20.4989 61.4039 20.7882C61.4039 21.2118 61.3213 21.6458 61.1663 22.0797C60.9907 22.4827 60.7737 22.8339 60.5154 23.1129Z" fill="#1D1D1B"/>
<path d="M64.6688 17.4509C64.6998 17.5129 64.7412 17.6472 64.7412 17.9779V23.5675C64.7412 23.8155 64.6895 23.8982 64.6585 23.9188C64.5965 23.9705 64.4932 23.9911 64.3382 24.0118H64.2969V24.1771H68.75V23.1232H68.595L68.5847 23.1646C68.5537 23.3919 68.502 23.5572 68.4401 23.6502C68.3781 23.7432 68.2954 23.7948 68.1714 23.8155C68.0474 23.8362 67.8305 23.8465 67.5308 23.8465H66.4046C66.1567 23.8465 65.981 23.8258 65.8777 23.7948C65.7744 23.7638 65.702 23.6812 65.6504 23.5572C65.5987 23.4229 65.5677 23.1956 65.5677 22.8856V20.7985H67.5205C67.6445 20.7985 67.7271 20.8089 67.7788 20.8295C67.8201 20.8502 67.8511 20.9018 67.8718 20.9845L67.8821 21.0258H68.0371V20.2716H67.8718V20.3129C67.8615 20.4369 67.7995 20.4576 67.7891 20.4679C67.7271 20.4886 67.6238 20.4989 67.4792 20.4989H65.5781V17.4922H67.6238C67.8305 17.4922 67.9234 17.5129 67.9544 17.5232C68.0061 17.5439 68.0371 17.5852 68.0784 17.6679C68.1198 17.7609 68.1714 17.9365 68.2334 18.1742L68.2437 18.2155H68.3987V17.1616H64.2969V17.3373H64.3485C64.5138 17.3373 64.6275 17.3786 64.6688 17.4509Z" fill="#1D1D1B"/>
<path d="M72.3766 24.0118H72.3249C72.2113 24.0014 72.1183 23.9911 72.0666 23.9705C72.0253 23.9498 71.984 23.9085 71.9633 23.8361C71.9323 23.7535 71.922 23.6398 71.922 23.4642V20.8708H72.3869C72.6349 20.8708 72.6969 20.8605 72.7175 20.8605L72.9242 20.8502L73.5441 21.8937C73.5544 21.9144 73.5544 21.9144 73.5544 21.9144V21.9247L73.5648 21.935C73.9471 22.555 74.3087 23.1026 74.6496 23.5468C74.784 23.7225 74.9286 23.8671 75.0836 23.9705C75.2386 24.0738 75.3832 24.1461 75.5279 24.1771C75.6622 24.2081 75.8068 24.2288 75.9412 24.2288C76.1065 24.2288 76.2718 24.2081 76.4371 24.1771C76.5921 24.1461 76.7264 24.1151 76.8297 24.0738C77.0054 23.9911 77.1707 23.8878 77.3257 23.7535L77.3463 23.7328L77.2947 23.5468L77.243 23.5778C77.2017 23.5985 77.15 23.6295 77.088 23.6708C77.026 23.7121 76.9847 23.7328 76.9434 23.7535C76.8194 23.8155 76.6851 23.8465 76.5301 23.8465C76.3131 23.8465 76.1168 23.7845 75.9412 23.6708C75.7655 23.5572 75.6209 23.4332 75.5175 23.2989C75.2799 22.9992 75.0113 22.6169 74.7116 22.1727C74.412 21.7077 74.2364 21.4391 74.1847 21.3254L73.7197 20.5505C73.9057 20.4369 74.0814 20.2922 74.2364 20.1166C74.412 19.9306 74.5463 19.7136 74.6496 19.476C74.753 19.2383 74.8046 18.98 74.8046 18.7217C74.8046 18.3498 74.722 18.0295 74.5463 17.7815C74.3707 17.5336 74.1434 17.3579 73.8541 17.2649C73.6991 17.2029 73.5234 17.1719 73.3478 17.1616C73.1618 17.1513 72.8725 17.1409 72.4902 17.1409H70.6304V17.3062H70.6821C70.8268 17.3166 70.8991 17.3372 70.9404 17.3476C70.9817 17.3682 71.0231 17.4096 71.0437 17.4819C71.0747 17.5645 71.0851 17.6989 71.0851 17.8745V23.3712C71.0851 23.6915 71.0437 23.8155 71.0127 23.8671C70.9714 23.9291 70.8578 23.9705 70.6718 23.9808H70.6201V24.1461H72.3662V24.0118H72.3766ZM71.922 20.5919V17.4509H72.3972C72.6865 17.4509 72.9242 17.4819 73.0998 17.5542C73.2755 17.6265 73.4304 17.7299 73.5648 17.8745C73.6784 17.9882 73.7611 18.1225 73.8334 18.2671C73.9057 18.4118 73.9574 18.5668 73.9884 18.7321C74.0194 18.8974 74.04 19.0524 74.04 19.1764C74.04 19.4863 73.9781 19.7446 73.8644 19.9409C73.7404 20.1476 73.5958 20.3026 73.4201 20.4059C73.3375 20.4575 73.1928 20.4989 73.0068 20.5402C72.8209 20.5712 72.6659 20.5919 72.5419 20.5919H71.922Z" fill="#1D1D1B"/>
<path d="M79.9397 24.0118H79.888C79.7847 24.0118 79.7124 23.9911 79.6917 23.9601C79.6607 23.9188 79.6504 23.8568 79.6504 23.7948C79.6504 23.6812 79.6607 23.5882 79.6711 23.5365L80.291 18.5875L82.5227 24.1875H82.6364L84.8578 18.5771L85.488 23.4952C85.5087 23.6192 85.5087 23.7122 85.5087 23.7638C85.5087 23.8568 85.488 23.9291 85.4467 23.9601C85.4054 23.9911 85.3537 24.0118 85.2814 24.0118H85.2297V24.1771H86.7589V24.0118H86.7176C86.6246 24.0015 86.5522 23.9808 86.5006 23.9601C86.4593 23.9291 86.4179 23.8775 86.3973 23.8052C86.3663 23.7225 86.3353 23.5882 86.3146 23.4229L85.6533 18.1845C85.6327 17.9675 85.6327 17.8952 85.6327 17.8642C85.6327 17.5232 85.7773 17.3476 86.0873 17.3373H86.139V17.172H85.0541L82.812 22.7306L80.6113 17.1616H79.3301V17.3373H79.3818C79.6401 17.3373 79.826 17.4613 79.9397 17.7299L80.0327 17.9469L79.3094 23.5159C79.2888 23.6812 79.2681 23.7948 79.2371 23.8672C79.2061 23.9291 79.1854 23.9705 79.1545 23.9808C79.1131 23.9911 79.0408 24.0015 78.9271 24.0118H78.8755V24.1771H79.95V24.0118H79.9397Z" fill="#1D1D1B"/>
<path d="M89.3209 24.0118H89.2692C89.1039 24.0118 89.1039 23.9395 89.1039 23.9085C89.1039 23.8465 89.1246 23.7845 89.1556 23.7121V23.7018C89.1556 23.7018 89.1659 23.6811 89.1969 23.5882L90.1475 21.0051H91.9349L92.8441 23.4332L92.8545 23.4435C92.8545 23.4435 92.8545 23.4538 92.8648 23.4745C92.8751 23.5055 92.8855 23.5262 92.8855 23.5365C92.9475 23.6915 92.9785 23.8155 92.9785 23.8878C92.9785 23.9085 92.9681 23.9395 92.9474 23.9704C92.9268 24.0014 92.8751 24.0118 92.8235 24.0118H92.7821V24.1771H94.3733V24.0118H94.3216C94.1666 24.0118 94.0427 23.9601 93.96 23.8465C93.867 23.7328 93.7843 23.5778 93.7224 23.3919L93.6914 23.2885L93.681 23.2782C93.6707 23.2575 93.6604 23.2369 93.6604 23.2265V23.2162L91.3873 17.0996L91.377 17.0686H91.2013L88.8869 23.4332C88.8146 23.6398 88.732 23.7948 88.6596 23.8878C88.5873 23.9704 88.484 24.0221 88.329 24.0221H88.2773V24.1874H89.3209V24.0118ZM90.2508 20.7055L91.036 18.5461L91.8213 20.7055H90.2508Z" fill="#1D1D1B"/>
<path d="M100.501 17.4302C100.542 17.4715 100.583 17.5749 100.583 17.8642V23.5262C100.583 23.7121 100.563 23.8465 100.511 23.9188C100.47 23.9808 100.346 24.0221 100.16 24.0221H100.108V24.1874H104.592V22.4206H104.437V22.4723C104.427 22.8029 104.385 23.0612 104.323 23.2679C104.261 23.4642 104.158 23.6088 104.013 23.7121C103.869 23.8155 103.652 23.8671 103.383 23.8671H102.608C102.402 23.8671 102.216 23.8465 102.061 23.8051C101.916 23.7638 101.792 23.7018 101.699 23.6295C101.606 23.5468 101.544 23.4435 101.503 23.3092C101.461 23.1749 101.441 22.9992 101.441 22.7926V17.9365C101.441 17.7815 101.451 17.6575 101.461 17.5852C101.472 17.5129 101.503 17.4612 101.565 17.4199C101.627 17.3786 101.73 17.3579 101.875 17.3579H101.926V17.1823H100.118V17.3476H100.17C100.325 17.3372 100.449 17.3682 100.501 17.4302Z" fill="#1D1D1B"/>
<path d="M107.444 24.0118H107.392C107.227 24.0118 107.227 23.9395 107.227 23.9085C107.227 23.8465 107.247 23.7845 107.278 23.7121V23.7018C107.278 23.7018 107.289 23.6811 107.32 23.5882L108.27 21.0051H110.058L110.967 23.4332L110.977 23.4435C110.977 23.4435 110.977 23.4538 110.987 23.4745C110.998 23.5055 111.008 23.5262 111.008 23.5365C111.07 23.6915 111.101 23.8155 111.101 23.8878C111.101 23.9085 111.091 23.9395 111.07 23.9704C111.049 24.0014 110.998 24.0118 110.946 24.0118H110.894V24.1771H112.486V24.0118H112.434C112.279 24.0118 112.155 23.9601 112.072 23.8465C111.979 23.7328 111.897 23.5778 111.835 23.3919L111.804 23.2885L111.793 23.2782C111.783 23.2575 111.773 23.2369 111.773 23.2265V23.2162L109.5 17.0996L109.489 17.0686H109.314L106.999 23.4332C106.927 23.6398 106.844 23.7948 106.772 23.8878C106.7 23.9704 106.596 24.0221 106.441 24.0221H106.39V24.1874H107.433V24.0118H107.444ZM108.373 20.7055L109.159 18.5461L109.944 20.7055H108.373Z" fill="#1D1D1B"/>
<path d="M116.536 24.1254C116.815 24.0841 117.011 24.0428 117.125 23.9808C117.414 23.8258 117.652 23.5882 117.848 23.2679C118.044 22.9476 118.137 22.5756 118.137 22.1623C118.137 21.7077 118.023 21.3358 117.817 21.0465C117.6 20.7572 117.362 20.5402 117.094 20.4059C116.825 20.2716 116.536 20.1476 116.226 20.0443C116.122 20.0029 115.967 19.9513 115.74 19.8583C115.533 19.7756 115.368 19.693 115.244 19.6C115.12 19.507 115.027 19.3933 114.955 19.2487C114.883 19.104 114.841 18.9284 114.841 18.7218C114.841 18.5048 114.893 18.2878 114.996 18.0708C115.099 17.8642 115.254 17.6989 115.461 17.5749C115.668 17.4509 115.916 17.3889 116.205 17.3889C116.432 17.3889 116.639 17.4302 116.815 17.5026C116.99 17.5749 117.145 17.6782 117.259 17.7815C117.383 17.8952 117.486 18.0088 117.59 18.1432C117.621 18.1845 117.641 18.2052 117.652 18.2052L117.672 18.2361L117.817 18.2052L117.497 17.2856V17.2546H117.466C117.466 17.2546 117.455 17.2546 117.445 17.2443C117.424 17.2339 117.414 17.2339 117.393 17.2339C116.99 17.1203 116.618 17.0583 116.308 17.0583C115.926 17.0583 115.585 17.1513 115.296 17.3269C115.007 17.5026 114.79 17.7402 114.645 18.0398C114.5 18.3291 114.418 18.6598 114.418 19.0007C114.418 19.2694 114.469 19.5173 114.562 19.755C114.655 19.9823 114.79 20.1889 114.955 20.3646C115.079 20.4885 115.213 20.5919 115.368 20.6745C115.523 20.7572 115.781 20.8708 116.143 21.0052C116.494 21.1395 116.784 21.2635 116.98 21.3668C117.176 21.4701 117.352 21.6251 117.486 21.8007C117.621 21.9867 117.693 22.214 117.693 22.4826C117.693 22.5963 117.672 22.7409 117.631 22.8856C117.59 23.0302 117.517 23.1852 117.393 23.3299C117.28 23.4745 117.114 23.6088 116.897 23.7018C116.68 23.8052 116.412 23.8568 116.081 23.8568C115.74 23.8568 115.451 23.8155 115.234 23.7328C115.017 23.6502 114.841 23.5365 114.717 23.3815C114.593 23.2266 114.511 23.0509 114.459 22.8546C114.418 22.6583 114.387 22.4103 114.376 22.1107V22.059H114.211V24.1771H115.957C116.071 24.1771 116.267 24.1564 116.536 24.1254Z" fill="#1D1D1B"/>
<path d="M124.584 23.1232H124.43L124.419 23.1646C124.388 23.3919 124.337 23.5572 124.275 23.6502C124.213 23.7432 124.13 23.7948 124.006 23.8155C123.882 23.8362 123.665 23.8465 123.365 23.8465H122.239C121.991 23.8465 121.815 23.8258 121.712 23.7948C121.609 23.7638 121.537 23.6812 121.485 23.5572C121.433 23.4229 121.402 23.1956 121.402 22.8856V20.7985H123.355C123.479 20.7985 123.562 20.8089 123.613 20.8295C123.655 20.8502 123.686 20.9018 123.706 20.9845L123.717 21.0258H123.872V20.2716H123.706V20.3129C123.696 20.4369 123.634 20.4576 123.624 20.4679C123.562 20.4886 123.458 20.4989 123.314 20.4989H121.413V17.4922H123.458C123.624 17.4922 123.737 17.5026 123.789 17.5232C123.841 17.5439 123.872 17.5852 123.913 17.6679C123.954 17.7609 124.006 17.9365 124.068 18.1742L124.078 18.2155H124.233V17.1616H120.131V17.3373H120.183C120.359 17.3373 120.472 17.3786 120.514 17.4406C120.545 17.5026 120.586 17.6369 120.586 17.9675V23.5572C120.586 23.8052 120.534 23.8878 120.503 23.9085C120.441 23.9601 120.338 23.9808 120.183 24.0015H120.142V24.1668H124.595V23.1232H124.584Z" fill="#1D1D1B"/>
<path d="M128.232 24.0118H128.18C128.066 24.0014 127.973 23.9911 127.922 23.9705C127.88 23.9498 127.839 23.9085 127.818 23.8361C127.787 23.7535 127.777 23.6295 127.777 23.4642V20.8708H128.242C128.49 20.8708 128.552 20.8605 128.573 20.8605L128.779 20.8502L129.399 21.8937C129.409 21.9144 129.409 21.9144 129.409 21.9144V21.9247L129.42 21.935C129.802 22.555 130.164 23.1026 130.505 23.5468C130.639 23.7225 130.784 23.8671 130.939 23.9705C131.094 24.0738 131.238 24.1461 131.383 24.1771C131.517 24.2081 131.662 24.2288 131.796 24.2288C131.961 24.2288 132.127 24.2081 132.292 24.1771C132.447 24.1461 132.581 24.1151 132.685 24.0738C132.86 23.9911 133.026 23.8878 133.181 23.7535L133.201 23.7328L133.15 23.5468L133.098 23.5778C133.057 23.5985 133.005 23.6295 132.943 23.6708C132.881 23.7121 132.84 23.7328 132.798 23.7535C132.674 23.8155 132.54 23.8465 132.385 23.8465C132.168 23.8465 131.972 23.7845 131.796 23.6708C131.62 23.5572 131.476 23.4332 131.373 23.2989C131.135 22.9992 130.866 22.6169 130.567 22.1727C130.267 21.7077 130.091 21.4391 130.04 21.3254L129.575 20.5505C129.761 20.4369 129.936 20.2922 130.091 20.1166C130.267 19.9306 130.401 19.7136 130.505 19.476C130.608 19.2383 130.66 18.98 130.66 18.7217C130.66 18.3498 130.577 18.0295 130.401 17.7815C130.226 17.5336 129.998 17.3579 129.709 17.2649C129.544 17.2029 129.378 17.1719 129.203 17.1616C129.017 17.1513 128.727 17.1409 128.345 17.1409H126.485V17.3062H126.537C126.682 17.3166 126.754 17.3372 126.795 17.3476C126.837 17.3682 126.878 17.4096 126.899 17.4819C126.93 17.5645 126.94 17.6989 126.94 17.8745V23.3712C126.94 23.6915 126.899 23.8155 126.868 23.8671C126.826 23.9291 126.713 23.9705 126.527 23.9808H126.475V24.1461H128.221V24.0118H128.232ZM127.777 20.5919V17.4509H128.252C128.542 17.4509 128.779 17.4819 128.955 17.5542C129.13 17.6265 129.285 17.7299 129.42 17.8745C129.533 17.9882 129.616 18.1225 129.688 18.2671C129.761 18.4118 129.812 18.5668 129.843 18.7321C129.874 18.8974 129.895 19.0524 129.895 19.1764C129.895 19.4863 129.833 19.7343 129.719 19.9409C129.595 20.1476 129.451 20.3026 129.275 20.4059C129.182 20.4575 129.048 20.4989 128.862 20.5402C128.676 20.5712 128.521 20.5919 128.397 20.5919H127.777Z" fill="#1D1D1B"/>
<path d="M141.002 24.0015H140.951C140.796 24.0118 140.682 24.0015 140.62 23.9498C140.558 23.9085 140.517 23.8465 140.496 23.7638C140.475 23.6708 140.475 23.5262 140.475 23.3196V20.8708L143.988 23.7742C144.195 23.9395 144.205 23.9911 144.205 23.9911C144.205 23.9911 144.195 24.0015 144.174 24.0015C144.123 24.0118 144.05 24.0118 143.968 24.0118H143.916V24.1771H146.179V24.0118H146.127C145.993 24.0118 145.869 23.9911 145.765 23.9498C145.662 23.9085 145.559 23.8568 145.455 23.7845C145.352 23.7122 145.156 23.5675 144.908 23.3919C144.763 23.2886 144.629 23.1749 144.474 23.0613C144.453 23.0509 144.443 23.0406 144.433 23.0406L141.199 20.3646L144.443 17.7299C144.753 17.4716 145.084 17.3373 145.424 17.3269H145.476V17.1616H143.999V17.3373H144.05C144.236 17.3373 144.257 17.3683 144.257 17.3683C144.257 17.3786 144.257 17.4096 144.164 17.4819L140.465 20.4989V17.9572C140.465 17.6369 140.517 17.5026 140.548 17.4406C140.599 17.3579 140.734 17.3269 140.951 17.3373H141.002V17.1616H139.081V17.3373H139.132C139.298 17.3269 139.411 17.3476 139.473 17.3786C139.535 17.4096 139.577 17.4613 139.597 17.5439C139.618 17.6369 139.628 17.7919 139.628 17.9985V23.3506C139.628 23.5572 139.618 23.7018 139.597 23.7845C139.577 23.8568 139.546 23.9188 139.473 23.9601C139.411 24.0015 139.287 24.0118 139.132 24.0118H139.081V24.1771H140.992V24.0015H141.002Z" fill="#1D1D1B"/>
<path d="M149.805 24.0118H149.753C149.629 24.0015 149.536 23.9911 149.485 23.9808C149.433 23.9705 149.402 23.9395 149.371 23.8981C149.34 23.8568 149.319 23.7948 149.309 23.7122C149.299 23.6295 149.299 23.5055 149.299 23.3712V17.5026H149.702C150.167 17.5026 150.508 17.5749 150.725 17.7195C150.931 17.8539 151.086 18.0605 151.2 18.3085C151.314 18.5668 151.365 18.8561 151.365 19.166C151.365 19.4553 151.303 19.7136 151.19 19.9306C151.076 20.1476 150.911 20.3026 150.714 20.4162C150.518 20.5299 150.291 20.5815 150.053 20.5815H150.001V20.7468H150.053C150.342 20.7572 150.621 20.7262 150.869 20.6642C151.128 20.6022 151.355 20.4989 151.551 20.3542C151.747 20.2096 151.902 20.0236 152.006 19.786C152.109 19.5587 152.171 19.2797 152.171 18.9594C152.171 18.4221 152.037 18.0192 151.768 17.7505C151.5 17.4922 151.2 17.3269 150.88 17.2649C150.57 17.2029 150.229 17.1719 149.877 17.1719H148.018V17.3476H148.069C148.193 17.3476 148.297 17.3682 148.348 17.4096C148.4 17.4509 148.431 17.5026 148.452 17.5646C148.462 17.6369 148.472 17.7505 148.472 17.9055V23.6295C148.472 23.7948 148.441 23.8981 148.369 23.9395C148.297 23.9911 148.193 24.0221 148.069 24.0221H148.018V24.1874H149.795V24.0118H149.805Z" fill="#1D1D1B"/>
<path d="M154.351 17.5026C154.444 17.6265 154.537 17.8229 154.62 18.0812L156.697 24.2908H156.872L158.546 19.104L160.261 24.2598L160.272 24.2908H160.447L162.514 17.9778C162.534 17.9262 162.576 17.8125 162.648 17.6575C162.658 17.6265 162.689 17.5646 162.782 17.4716C162.855 17.3992 162.948 17.3579 163.072 17.3476H163.113V17.1823H162.08V17.3579H162.131C162.286 17.3579 162.307 17.4199 162.307 17.4819C162.307 17.4922 162.297 17.5232 162.255 17.6679C162.255 17.6782 162.255 17.6885 162.245 17.6989C162.245 17.7092 162.235 17.7195 162.235 17.7299V17.7505C162.224 17.7815 162.214 17.7919 162.214 17.8022L160.613 22.7099L158.97 17.8229C158.97 17.8125 158.959 17.7919 158.939 17.7505C158.887 17.5749 158.877 17.5232 158.877 17.5026C158.877 17.3992 158.928 17.3476 159.042 17.3476H159.094V17.1719H157.503V17.3476H157.554C157.699 17.3476 157.802 17.3992 157.906 17.5232C158.009 17.6472 158.112 17.8642 158.216 18.1741L158.34 18.5668L157.017 22.6789L155.374 17.7712C155.333 17.6575 155.312 17.5542 155.312 17.4716C155.312 17.4096 155.333 17.3476 155.478 17.3476H155.529V17.1719H153.928V17.3476H153.979C154.145 17.3269 154.269 17.3889 154.351 17.5026Z" fill="#1D1D1B"/>
<path d="M30.9449 52.6007L30.7382 52.1874L30.5316 51.9808L30.1183 51.7845H29.705L29.2917 51.9808L29.0024 52.2597L29.581 50.4H28.7338V50.493H29.2607L28.4858 53.0037V53.6029L28.6925 54.2125L28.8991 54.4295L29.3124 54.6361H29.7257L30.3353 54.4295L30.7382 53.8199L30.9449 53.2103V52.6007ZM30.6659 53.1896L30.4696 53.7682L30.0873 54.3468L29.705 54.5328H29.3331L28.9714 54.3468L28.7751 53.7786V53.0037L28.9508 52.4354L29.3537 52.0531L29.736 51.8568H30.108L30.4799 52.0428L30.6659 52.4147V53.1896Z" fill="#1D1D1B"/>
<path d="M36.2035 51.8155L35.7902 53.2413L35.4286 53.9542L35.036 54.3469L34.664 54.5328H34.3024L33.9304 54.1609V53.7993L34.323 52.6111V52.0015L34.0957 51.7742H33.4758L33.0625 52.1875L32.8662 52.5904L32.9385 52.6317L33.1348 52.2391L33.5068 51.8672H33.8684L34.0441 52.0325V52.6007L33.6411 53.7786V54.2022L33.8581 54.4192L34.261 54.6258H34.6847L35.0979 54.4192L35.5009 54.0162L35.6455 53.7269L35.2219 55.1528L34.85 55.721L34.4677 55.907H33.8994L33.5171 55.7107L33.3415 55.5454V55.3801L33.4965 55.2251L33.6308 55.3594L33.4551 55.5247L33.5275 55.5867L33.7548 55.3594L33.4965 55.1011L33.2485 55.3491V55.5764L33.4655 55.7934L33.8788 56H34.4883L35.0979 55.7934L35.5009 55.1838L36.4928 51.8362L36.3998 51.8155H36.2035Z" fill="#1D1D1B"/>
<path d="M47.3832 51.4229L47.1869 50.8133L46.9699 50.5963L46.3603 50.3896H44.5832V50.4826H45.1101L43.953 54.5225H43.395V54.6155H45.1721L45.9677 54.4192L46.3707 54.2229L46.7736 53.8199L47.1766 53.0243L47.3729 52.2288V51.4229H47.3832ZM47.1042 52.2081L46.9079 52.983L46.5153 53.7579L46.133 54.1299L45.9471 54.2229L45.1618 54.5225H44.2526L45.3994 50.4826H46.3397L46.722 50.6686L46.9079 50.8546L47.1042 51.4332V52.2081Z" fill="#1D1D1B"/>
<path d="M52.3423 52.0015L52.115 51.7742H51.6914L51.2781 51.9808L50.8752 52.3838L50.6582 52.8074L50.7615 52.4148V52.0015L50.5342 51.7742H49.9143L49.501 52.1875L49.3047 52.5904L49.377 52.6317L49.5733 52.2391L49.9453 51.8672H50.3069L50.4722 52.0325V52.4044L49.8833 54.5638L49.9763 54.5845H50.1726L50.5445 53.2207L50.9578 52.4354L51.3401 52.0531L51.7121 51.8672H52.0737L52.2493 52.0325V52.1978L52.0944 52.3528L51.96 52.2081L52.1357 52.0531L52.0634 51.9808L51.8361 52.2081L52.0944 52.4768L52.3423 52.2288V52.0015Z" fill="#1D1D1B"/>
<path d="M57.4053 54.1609L57.0333 54.5328H56.6717L56.496 54.3675V53.9956L56.6924 53.2103L57.085 51.8362L57.0023 51.8155H56.806L56.496 52.8797V52.6007L56.2997 51.9808L55.8761 51.7742H55.4628L54.8532 51.9705L54.4503 52.5904L54.2437 53.2V53.8096L54.4503 54.2229L54.6569 54.4295L55.0702 54.6362H55.4835L55.8968 54.4295L56.2377 53.9336L56.2171 54.0059V54.4192L56.4444 54.6465H57.0643L57.4776 54.2332L57.6739 53.8406L57.6016 53.7993L57.4053 54.1609ZM56.4134 53.1897L56.2171 53.7579L55.8348 54.3365L55.4525 54.5225H55.0806L54.7086 54.3365L54.5226 53.9646V53.2103L54.7189 52.6317L55.1012 52.0531L55.4835 51.8672H55.8555L56.2171 52.0531L56.4134 52.6214V53.1897Z" fill="#1D1D1B"/>
<path d="M59.3892 54.3779L59.6475 54.6362L59.9058 54.3779L59.6475 54.1196L59.3892 54.3779Z" fill="#1D1D1B"/>
<path d="M71.519 50.493H72.1803L69.122 52.8073L69.7832 50.493H70.3412V50.4H68.967V50.493H69.4939L68.3367 54.5328H67.7788V54.6258H69.1633V54.5328H68.6364L69.0807 52.9417L70.0829 52.1874L70.8681 54.5328H70.3412V54.6258H71.519V54.5328H71.1574L70.3205 52.0118L72.3249 50.493H72.7072V50.4H71.519V50.493Z" fill="#1D1D1B"/>
<path d="M77.2222 54.1609L76.8502 54.5328H76.4886L76.3129 54.3675V53.9956L76.5093 53.2103L76.9019 51.8362L76.8192 51.8155H76.6229L76.3129 52.8797V52.6007L76.1166 51.9808L75.693 51.7742H75.2797L74.6701 51.9705L74.2672 52.5801L74.0605 53.1897V53.7993L74.2672 54.2125L74.4738 54.4192L74.8871 54.6258H75.3004L75.7137 54.4192L76.0546 53.9232L76.034 53.9956V54.4089L76.2613 54.6362H76.8812L77.2945 54.2229L77.4908 53.8303L77.4185 53.7889L77.2222 54.1609ZM76.2406 53.1897L76.0443 53.7579L75.662 54.3365L75.2797 54.5225H74.9078L74.5358 54.3365L74.3498 53.9646V53.2103L74.5462 52.6317L74.9284 52.0531L75.3107 51.8672H75.6827L76.0443 52.0531L76.2406 52.6214V53.1897Z" fill="#1D1D1B"/>
<path d="M80.8902 50.4516L80.7972 50.431H80.6009L80.2289 51.7741H79.4644V51.8671H80.1979L79.6193 53.9852V54.3985L79.8363 54.6258H80.4666L80.8799 54.2125L81.0762 53.8096L81.0038 53.7682L80.8075 54.1609L80.4356 54.5328H80.074L79.8983 54.3675V53.9955L80.4872 51.8671H81.2311H81.2415V51.7741H80.5182L80.8902 50.4516Z" fill="#1D1D1B"/>
<path d="M85.0231 53.2413L85.6327 52.8384L85.8497 52.4148L85.6327 51.9808L85.2194 51.7742H84.6098L84.0002 51.9705L83.5973 52.5801L83.3906 53.1897V53.7993L83.5973 54.2125L83.8039 54.4192L84.2172 54.6258H84.6305L85.2401 54.4192L85.643 54.0266L85.581 53.9542L85.1987 54.3469L84.6201 54.5328H84.2482L83.8762 54.3469L83.6903 53.9749V53.6236L85.0231 53.2413ZM83.6696 53.5306V53.2103L83.8659 52.6317L84.2482 52.0531L84.6305 51.8672H85.1987L85.5707 52.0531L85.7463 52.4148L85.5707 52.7764L84.9921 53.1587L83.6696 53.5306Z" fill="#1D1D1B"/>
<path d="M90.7984 52.0015L90.5711 51.7742H90.1475L89.7342 51.9808L89.3312 52.3838L89.1142 52.8074L89.2176 52.4148V52.0015L88.9903 51.7742H88.3703L87.957 52.1875L87.7607 52.5904L87.8331 52.6317L88.0294 52.2391L88.4013 51.8672H88.763L88.9283 52.0325V52.4044L88.3393 54.5638L88.4323 54.5845H88.6286L89.0006 53.2207L89.4139 52.4354L89.7962 52.0531L90.1681 51.8672H90.5297L90.7054 52.0325V52.1978L90.5504 52.3528L90.4161 52.2081L90.5917 52.0531L90.5194 51.9808L90.2921 52.2081L90.5504 52.4768L90.7984 52.2288V52.0015Z" fill="#1D1D1B"/>
<path d="M95.665 51.8155L95.2414 53.2413L94.8797 53.9542L94.4975 54.3469L94.1255 54.5328H93.7535L93.3919 54.1609V53.7993L93.7845 52.6111V52.0015L93.5572 51.7742H92.9373L92.5137 52.1875L92.3174 52.5904L92.4 52.6317L92.5964 52.2391L92.9683 51.8672H93.3196L93.4952 52.0325V52.6007L93.1026 53.7786V54.2022L93.3093 54.4192L93.7225 54.6258H94.1358L94.5491 54.4192L94.9521 54.0162L95.0967 53.7269L94.6834 55.1528L94.3011 55.721L93.9189 55.907H93.3506L92.9786 55.7107L92.7927 55.5454V55.3801L92.9476 55.2251L93.082 55.3594L92.9166 55.5247L92.9786 55.5867L93.2059 55.3594L92.9476 55.1011L92.71 55.3491V55.5764L92.9166 55.7934L93.3299 56H93.9395L94.5491 55.7934L94.9521 55.1838L95.9439 51.8362L95.8613 51.8155H95.665Z" fill="#1D1D1B"/>
<path d="M101.606 54.1506L101.234 54.5328H100.872L100.707 54.3675V53.7993L101.1 52.6111V52.1978L100.883 51.9808L100.48 51.7742H100.056L99.6532 51.9808L99.2399 52.3838L99.0229 52.8074L99.1263 52.4148V52.0015L98.9093 51.7742H98.279L97.8657 52.1875L97.6694 52.5904L97.7418 52.6317L97.9381 52.2391L98.31 51.8672H98.6716L98.8473 52.0325V52.4044L98.2584 54.5638L98.341 54.5845H98.5373L98.9093 53.2207L99.3226 52.4354L99.7049 52.0531L100.077 51.8672H100.449L100.81 52.2288V52.6007L100.418 53.7786V54.3985L100.645 54.6258H101.265L101.689 54.2125L101.885 53.8096L101.802 53.7683L101.606 54.1506Z" fill="#1D1D1B"/>
<path d="M112.971 51.0199L112.765 50.5963L112.145 50.3896H109.779V50.4826H110.305L109.148 54.5225H108.59V54.6155H109.965V54.5225H109.438L109.975 52.642H111.556L112.362 52.4354L112.775 52.0221L112.981 51.4125V51.0199H112.971ZM112.692 51.4229L112.506 52.0015L112.124 52.3734L111.556 52.5594H110.016L110.605 50.4826H112.134L112.506 50.6686L112.692 51.0406V51.4229Z" fill="#1D1D1B"/>
<path d="M116.526 53.2413L117.135 52.8384L117.352 52.4148L117.135 51.9808L116.722 51.7742H116.112L115.503 51.9705L115.1 52.5801L114.893 53.1897V53.7993L115.1 54.2125L115.306 54.4192L115.72 54.6258H116.133L116.743 54.4192L117.145 54.0266L117.083 53.9542L116.701 54.3469L116.123 54.5328H115.751L115.379 54.3469L115.193 53.9749V53.6236L116.526 53.2413ZM115.172 53.5306V53.2103L115.368 52.6317L115.751 52.0531L116.133 51.8672H116.701L117.073 52.0531L117.249 52.4148L117.073 52.7764L116.495 53.1587L115.172 53.5306Z" fill="#1D1D1B"/>
<path d="M122.291 52.0015L122.063 51.7742H121.65L121.237 51.9808L120.834 52.3838L120.606 52.8074L120.72 52.4148V52.0015L120.493 51.7742H119.873L119.449 52.1875L119.253 52.5904L119.336 52.6317L119.532 52.2391L119.904 51.8672H120.255L120.431 52.0325V52.4044L119.842 54.5638L119.925 54.5845H120.131L120.493 53.2207L120.906 52.4354L121.288 52.0531L121.671 51.8672H122.032L122.208 52.0325V52.1978L122.053 52.3528L121.919 52.2081L122.084 52.0531L122.022 51.9808L121.795 52.2081L122.053 52.4768L122.291 52.2288V52.0015Z" fill="#1D1D1B"/>
<path d="M125.845 53.2413L126.454 52.8384L126.671 52.4148L126.454 51.9808L126.041 51.7742H125.432L124.822 51.9705L124.419 52.5801L124.212 53.1897V53.7993L124.419 54.2125L124.626 54.4192L125.039 54.6258H125.452L126.062 54.4192L126.465 54.0266L126.403 53.9542L126.021 54.3469L125.442 54.5328H125.07L124.698 54.3469L124.512 53.9749V53.6236L125.845 53.2413ZM124.491 53.5306V53.2103L124.688 52.6317L125.07 52.0531L125.452 51.8672H126.021L126.392 52.0531L126.568 52.4148L126.392 52.7764L125.814 53.1587L124.491 53.5306Z" fill="#1D1D1B"/>
<path d="M131.197 52.6421L131.61 52.2391L131.807 51.8465L131.724 51.7948L131.538 52.1668H131.187L130.401 51.7742H129.782L129.379 52.1771H129.368L129.172 52.5904L129.244 52.6317L129.441 52.2494L129.813 52.0635H130.381L131.166 52.2598H131.466L131.145 52.5801L129.575 53.7579L129.172 54.1506L128.965 54.5535L129.048 54.5948L129.234 54.2229H129.585L130.381 54.6155H130.99L131.414 54.2125L131.61 53.8096L131.528 53.7683L131.342 54.1506L130.97 54.3365H130.391L129.616 54.1402H129.317L129.627 53.8199L131.197 52.6421Z" fill="#1D1D1B"/>
<path d="M143.048 50.4V50.493H143.564L141.963 53.8612L142.314 50.4H142.035L140.392 53.8612L140.723 50.493H141.281V50.4H139.896V50.493H140.434L140.051 54.6258H140.124L141.994 50.6893L141.622 54.6258H141.705L143.668 50.493H144.236V50.4H143.048Z" fill="#1D1D1B"/>
<path d="M147.284 50.6376L147.026 50.3793L146.757 50.6376L147.026 50.8959L147.284 50.6376Z" fill="#1D1D1B"/>
<path d="M147.377 54.1506L147.005 54.5328H146.644L146.478 54.3675V53.7993L146.871 52.6111V52.0015L146.644 51.7742H146.024L145.6 52.1875L145.414 52.5904L145.486 52.6317L145.683 52.2391L146.055 51.8672H146.416L146.582 52.0325V52.6007L146.189 53.7786V54.3985L146.416 54.6258H147.036L147.449 54.2125L147.646 53.8096L147.573 53.7683L147.377 54.1506Z" fill="#1D1D1B"/>
<path d="M150.756 54.1505L150.384 54.5328H150.022L149.857 54.3675V53.9955L150.859 50.4H150.012V50.493H150.539L149.567 53.9852V54.3985L149.795 54.6258H150.415L150.838 54.2125L151.035 53.8096L150.952 53.7682L150.756 54.1505Z" fill="#1D1D1B"/>
<path d="M154.331 54.1505L153.959 54.5328H153.608L153.432 54.3675V53.9955L154.434 50.4H153.587V50.493H154.114L153.143 53.9852V54.3985L153.37 54.6258H154L154.413 54.2125L154.61 53.8096L154.527 53.7682L154.331 54.1505Z" fill="#1D1D1B"/>
<path d="M157.688 50.6376L157.957 50.8959L158.205 50.6376L157.957 50.3793L157.688 50.6376Z" fill="#1D1D1B"/>
<path d="M158.308 54.1506L157.936 54.5328H157.575L157.41 54.3675V53.7993L157.802 52.6111V52.0015L157.575 51.7742H156.955L156.531 52.1875L156.335 52.5904L156.418 52.6317L156.614 52.2391L156.986 51.8672H157.348L157.513 52.0325V52.6007L157.12 53.7786V54.3985L157.337 54.6258H157.967L158.381 54.2125L158.577 53.8096L158.505 53.7683L158.308 54.1506Z" fill="#1D1D1B"/>
<path d="M162.731 51.9808L162.121 51.7742H161.522L160.912 51.9808L160.695 52.1978V52.6214L160.912 52.8384L162.286 53.6236L162.462 53.8096V54.1609L162.286 54.3365L161.718 54.5328H161.14L160.561 54.3365L160.385 54.1609V54.0266H160.499V54.1816H160.592V53.9439H160.303V54.2022L160.52 54.4192L161.129 54.6258H161.729L162.338 54.4192L162.555 54.2022V53.572L162.348 53.3653L160.964 52.5801L160.788 52.3941V52.2288L160.964 52.0531L161.532 51.8672H162.111L162.689 52.0531L162.865 52.2288V52.3631H162.751V52.2081H162.669V52.4561H162.948V52.1978L162.731 51.9808Z" fill="#1D1D1B"/>
</g>
<defs>
<linearGradient id="paint0_linear_58_5914" x1="34.8012" y1="23.1925" x2="52.5689" y2="23.1925" gradientUnits="userSpaceOnUse">
<stop stop-color="#77A9DB"/>
<stop offset="0.6022" stop-color="#5DB3C7"/>
<stop offset="1" stop-color="#52B7BE"/>
</linearGradient>
<linearGradient id="paint1_linear_58_5914" x1="22.7617" y1="39.7946" x2="53.8861" y2="39.7946" gradientUnits="userSpaceOnUse">
<stop stop-color="#77A9DB"/>
<stop offset="0.6022" stop-color="#5DB3C7"/>
<stop offset="1" stop-color="#52B7BE"/>
</linearGradient>
<linearGradient id="paint2_linear_58_5914" x1="14.3021" y1="39.7295" x2="28.3893" y2="39.7295" gradientUnits="userSpaceOnUse">
<stop stop-color="#77A9DB"/>
<stop offset="0.6022" stop-color="#5DB3C7"/>
<stop offset="1" stop-color="#52B7BE"/>
</linearGradient>
<linearGradient id="paint3_linear_58_5914" x1="0" y1="24.278" x2="29.71" y2="24.278" gradientUnits="userSpaceOnUse">
<stop stop-color="#77A9DB"/>
<stop offset="0.6022" stop-color="#5DB3C7"/>
<stop offset="1" stop-color="#52B7BE"/>
</linearGradient>
<linearGradient id="paint4_linear_58_5914" x1="19.1316" y1="12.303" x2="39.9493" y2="12.303" gradientUnits="userSpaceOnUse">
<stop stop-color="#77A9DB"/>
<stop offset="0.6022" stop-color="#5DB3C7"/>
<stop offset="1" stop-color="#52B7BE"/>
</linearGradient>
<clipPath id="clip0_58_5914">
<rect width="164" height="56" fill="white"/>
</clipPath>
</defs>
</svg>
