<svg width="205" height="56" viewBox="0 0 205 56" fill="none" xmlns="http://www.w3.org/2000/svg">
<g clip-path="url(#clip0_58_5910)">
<path d="M10.9908 30.0825C13.0784 29.5394 16.6057 27.8791 16.6057 22.8185C16.6057 15.6298 9.48705 15.2973 9.48705 15.2973H3.49628V15.2241H0V15.2973V19.9966V40.665H3.49628V30.3374H6.83333L13.7087 40.7403H18.0343L10.9908 30.0825ZM8.99612 27.0634H4.67055H3.49628V25.2856V18.7398V18.5713H9.48705C9.48705 18.5713 13.1713 18.8839 13.1713 22.5768C13.1713 26.7708 9.48705 27.0634 9.48705 27.0634H8.99612Z" fill="#1C97B2"/>
<path d="M25.5974 15.2241H22.1011V40.6672H25.5974V15.2241Z" fill="#1C97B2"/>
<path d="M48.9081 15.2241V33.2169L35.4206 17.545L33.4237 15.2241H31.9243V18.9326V40.665H35.4206V22.9936L48.9081 38.6655L50.6286 40.665H52.4044V37.2779V15.2241H48.9081Z" fill="#1C97B2"/>
<path d="M66.6949 7.61871C66.6949 7.61871 63.7271 13.1338 65.1756 19.0834C65.8965 22.0493 66.8895 24.9044 68.9372 27.2186C70.0717 28.4998 71.4561 29.5084 72.606 30.7808C77.1284 35.7883 79.1076 42.9814 76.5402 49.4164C74.802 53.77 72.993 55.0756 72.993 55.0756C72.993 55.0756 74.6582 49.3433 71.7612 46.1491C68.8665 42.957 65.5361 42.0859 64.7023 42.159C63.8686 42.2322 61.77 43.4647 60.5404 41.7955C59.5984 40.4167 60.5404 40.4899 59.5984 39.3283C58.6563 38.1668 59.961 37.2247 59.961 37.2247C59.961 37.2247 58.9172 36.5708 59.2578 35.192C59.5984 33.8132 59.3816 33.0152 58.6585 32.8689C57.9354 32.7226 56.0512 31.9978 55.7637 30.4018C55.474 28.8057 56.7766 28.8789 57.7916 27.7883C58.8045 26.6999 61.8452 23.4347 61.3388 21.0407C60.8323 18.6489 60.107 11.5378 66.6949 7.61871Z" fill="#1C97B2"/>
<path d="M72.6323 28.4466C72.6323 28.4466 75.3413 30.6234 77.4621 35.0501C77.4621 35.0501 86.3875 30.2599 85.4476 18.6511C84.5055 7.04016 74.8769 7.04016 76.1087 0.00219727C76.1087 0.00219727 73.068 3.41367 76.1087 10.3785C79.1472 17.3433 77.1193 24.0909 72.6323 28.4466Z" fill="#1C97B2"/>
<path d="M78.4683 38.4239C78.4683 38.4239 78.7182 42.292 78.6894 42.9836C78.6894 42.9836 87.0818 39.6652 88.9549 30.2776C90.4542 23.3084 87.1238 17.7179 87.1238 17.7179C87.1238 17.7179 87.7541 30.7143 78.4683 38.4239Z" fill="#1C97B2"/>
<path d="M67.0881 43.826C67.0881 43.826 70.4915 45.6725 71.365 47.3616C71.365 47.3616 68.3375 52.8058 73.1762 55.9978C73.1762 55.9978 69.054 55.4658 66.9001 50.7708C65.5578 47.519 67.0881 43.826 67.0881 43.826Z" fill="#1C97B2"/>
<path d="M117.476 15.2241L115.428 18.19L106.403 31.2574L97.195 17.924L95.3308 15.2241H93.6987V18.3496V40.665H97.195V23.4125L104.508 34.0016L106.403 36.7481L108.299 34.0016L115.428 23.6785V40.665H118.925V18.6156V15.2241H117.476Z" fill="#1C97B2"/>
<path d="M141.523 40.665H145.019L134.877 15.2241H132.858L122.717 40.6672H126.213L128.716 34.3851H139.017L141.523 40.665ZM130.105 30.9005L133.867 21.4619L137.628 30.9005H130.105Z" fill="#1C97B2"/>
<path d="M158.781 26.1923V29.6969H167.098V34.3829C167.098 34.3829 164.086 37.8498 158.781 37.8498C153.476 37.8498 149.291 33.0928 149.541 28.5242C149.791 23.9557 152.098 18.1967 158.781 18.1967C165.464 18.1967 167.399 21.7634 167.399 21.7634L169.834 19.4469C169.834 19.4469 165.959 14.752 158.781 14.752C151.602 14.752 146.169 20.8856 146.169 27.5822C146.169 34.2788 150.475 41.1017 158.781 41.1017C167.087 41.1017 170.594 35.7152 170.594 35.7152V29.6947V26.9903V26.1901H158.781V26.1923Z" fill="#1C97B2"/>
<path d="M179.117 15.2241H175.621V40.6672H179.117V15.2241Z" fill="#1C97B2"/>
<path d="M201.504 40.665H205L194.858 15.2241H192.839L182.698 40.6672H186.194L188.697 34.3851H198.998L201.504 40.665ZM190.086 30.9005L193.848 21.4619L197.609 30.9005H190.086Z" fill="#1C97B2"/>
</g>
<defs>
<clipPath id="clip0_58_5910">
<rect width="205" height="56" fill="white"/>
</clipPath>
</defs>
</svg>
