<svg width="178" height="56" viewBox="0 0 178 56" fill="none" xmlns="http://www.w3.org/2000/svg">
<g clip-path="url(#clip0_58_5908)">
<path d="M35.3423 51.8754C35.3423 52.5006 34.8353 53.009 34.2149 53.009H21.6337C21.0103 53.009 20.5033 52.5006 20.5033 51.8754V45.7888H17.5206V51.8754C17.5206 54.1546 19.3609 56 21.6337 56H34.2178C36.4877 56 38.328 54.1546 38.328 51.8754V27.9207H35.3453V51.8754H35.3423ZM34.2149 0H21.6337C19.3579 0 17.5176 1.84543 17.5176 4.12455V27.8161H20.5003V4.12455C20.5003 3.49944 21.0074 2.99097 21.6308 2.99097H34.2149C34.8353 2.99097 35.3423 3.49944 35.3423 4.12455V10.2501H38.3251V4.12455C38.3251 1.84543 36.4877 0 34.2149 0Z" fill="#616160"/>
<path d="M51.7324 20.557C52.3557 20.557 52.8628 21.0654 52.8628 21.6875V34.3065C52.8628 34.9316 52.3557 35.44 51.7324 35.44H45.6625V38.431H51.7324C54.0052 38.431 55.8455 36.5856 55.8455 34.3065V21.6905C55.8455 19.4144 54.0052 17.569 51.7324 17.569H27.8437V20.5599H51.7324V20.557ZM0 21.6905V34.3095C0 36.5886 1.84034 38.434 4.11318 38.434H27.7393V35.443H4.11318C3.48979 35.443 2.98272 34.9346 2.98272 34.3095V21.6905C2.98272 21.0684 3.48979 20.5599 4.11318 20.5599H10.2218V17.569H4.11318C1.84034 17.566 0 19.4114 0 21.6905Z" fill="#616160"/>
<path d="M84.0802 27.8998V27.9536H82.7409L79.3735 22.9707H77.8224V27.9536H76.6592V15.9329H80.0267C80.7306 15.9329 81.3749 16.0885 81.9565 16.4025C82.5381 16.7136 83.0004 17.1383 83.3405 17.6737C83.6805 18.2091 83.8505 18.8072 83.8505 19.4683C83.8505 20.3745 83.5612 21.1372 82.9855 21.7563C82.4099 22.3755 81.6344 22.7613 80.659 22.9139L84.0802 27.8998ZM79.973 21.9059C80.8081 21.9059 81.4673 21.6816 81.9565 21.2329C82.4427 20.7843 82.6873 20.201 82.6873 19.4832C82.6873 19.0226 82.5739 18.6039 82.3442 18.218C82.1146 17.8352 81.8014 17.5361 81.4017 17.3177C81.002 17.0994 80.5427 16.9917 80.0267 16.9917H77.8224V21.9059H79.973Z" fill="#616160"/>
<path d="M86.2217 15.9329H87.3849V27.9507H86.2217V15.9329Z" fill="#616160"/>
<path d="M99.2713 15.9329V28.0404H98.7613L91.7548 19.238C91.5789 19.0256 91.2895 18.6966 90.8898 18.2479C90.9256 18.6128 90.9435 18.9957 90.9435 19.3965V27.9507H89.7803V15.8432H90.2724L97.2609 24.6097L98.1438 25.6177C98.12 25.3246 98.108 24.9058 98.108 24.3615V15.9329H99.2713Z" fill="#616160"/>
<path d="M104.661 27.3256C103.739 26.7662 103.014 26.0095 102.492 25.0554C101.97 24.1013 101.708 23.0574 101.708 21.9269C101.708 20.7484 101.968 19.6896 102.484 18.7445C103 17.8023 103.721 17.0635 104.643 16.5252C105.565 15.9898 106.609 15.7206 107.772 15.7206C108.947 15.7206 109.997 15.9898 110.919 16.5252C111.84 17.0605 112.559 17.8023 113.078 18.7445C113.594 19.6866 113.854 20.7484 113.854 21.9269C113.854 23.0694 113.594 24.1162 113.078 25.0644C112.562 26.0125 111.84 26.7662 110.919 27.3256C109.997 27.8849 108.947 28.166 107.772 28.166C106.618 28.163 105.583 27.8849 104.661 27.3256ZM110.334 26.3954C111.08 25.9348 111.658 25.3126 112.07 24.523C112.482 23.7334 112.687 22.869 112.687 21.9239C112.687 20.9458 112.482 20.0695 112.07 19.2888C111.658 18.5112 111.08 17.901 110.334 17.4583C109.588 17.0157 108.732 16.7943 107.769 16.7943C106.817 16.7943 105.967 17.0157 105.222 17.4583C104.476 17.901 103.897 18.5112 103.486 19.2888C103.074 20.0665 102.868 20.9458 102.868 21.9239C102.868 22.866 103.077 23.7334 103.495 24.523C103.912 25.3126 104.491 25.9377 105.231 26.3954C105.97 26.856 106.817 27.0833 107.769 27.0833C108.735 27.0863 109.588 26.856 110.334 26.3954Z" fill="#616160"/>
<path d="M115.995 15.9329H122.032V16.9947H117.158V20.7992H121.901V21.861H117.158V27.9566H115.995V15.9329Z" fill="#616160"/>
<path d="M134.276 27.9178V27.9537H133.059L131.225 23.9667L125.934 23.9517L123.965 27.9537H122.748V27.9178L128.317 15.8462H128.705L134.276 27.9178ZM127.843 19.5042L126.315 22.9827L130.718 22.9647L129.182 19.5042C128.878 18.7983 128.654 18.2599 128.511 17.895C128.373 18.2599 128.15 18.7953 127.843 19.5042Z" fill="#616160"/>
<path d="M162.845 27.9178V27.9537H161.628L159.794 23.9667L154.502 23.9517L152.534 27.9537H151.317V27.9178L156.886 15.8462H157.273L162.845 27.9178ZM156.411 19.5042L154.884 22.9827L159.287 22.9647L157.751 19.5042C157.446 18.7983 157.223 18.2599 157.08 17.895C156.939 18.2599 156.716 18.7953 156.411 19.5042Z" fill="#616160"/>
<path d="M138.494 27.3256C137.525 26.7662 136.77 26.0125 136.227 25.0644C135.685 24.1162 135.413 23.0694 135.413 21.9269C135.413 20.7484 135.685 19.6896 136.227 18.7445C136.77 17.8023 137.528 17.0635 138.503 16.5252C139.479 15.9898 140.576 15.7206 141.796 15.7206C142.76 15.7206 143.616 15.8821 144.37 16.2081C145.122 16.5311 145.844 17.0246 146.536 17.6827L145.814 18.3885C145.283 17.8711 144.695 17.4763 144.054 17.2041C143.413 16.9319 142.661 16.7973 141.796 16.7973C140.797 16.7973 139.905 17.0217 139.121 17.4703C138.336 17.9189 137.725 18.5321 137.289 19.3097C136.851 20.0874 136.633 20.9608 136.633 21.9269C136.633 22.869 136.851 23.7364 137.289 24.526C137.728 25.3156 138.339 25.9407 139.121 26.3984C139.905 26.859 140.797 27.0863 141.796 27.0863C142.646 27.0863 143.425 26.9098 144.129 26.5569C144.833 26.2039 145.423 25.7134 145.906 25.0913L146.777 25.7463C146.234 26.4881 145.536 27.0773 144.686 27.514C143.836 27.9507 142.873 28.169 141.799 28.169C140.564 28.163 139.464 27.8849 138.494 27.3256Z" fill="#616160"/>
<path d="M148.868 15.9329H150.031V27.9507H148.868V15.9329Z" fill="#616160"/>
<path d="M164.596 15.9329H165.759V26.8919H170.475V27.9536H164.596V15.9329Z" fill="#616160"/>
<path d="M64.4658 38.428V38.3024H64.6388C64.8327 38.3024 64.9699 38.2396 65.0534 38.1139C65.1041 38.0422 65.128 37.8717 65.128 37.6085V34.6175C65.128 34.3274 65.0952 34.1449 65.0325 34.0731C64.9431 33.9744 64.8118 33.9236 64.6388 33.9236H64.4658V33.798H66.3449C67.0339 33.798 67.5589 33.8757 67.9168 34.0343C68.2777 34.1898 68.5671 34.453 68.7848 34.8179C69.0055 35.1828 69.1159 35.6045 69.1159 36.0891C69.1159 36.43 69.0622 36.7441 68.9518 37.0312C68.8415 37.3183 68.6774 37.5636 68.4627 37.77C68.2449 37.9764 67.9765 38.1379 67.6514 38.2545C67.3292 38.3712 66.9534 38.428 66.5299 38.428H64.4658ZM65.7842 38.093C66.0675 38.1558 66.3091 38.1887 66.509 38.1887C66.7715 38.1887 67.0131 38.1409 67.2368 38.0422C67.4605 37.9435 67.6543 37.8089 67.8184 37.6294C67.9824 37.45 68.1107 37.2346 68.2032 36.9804C68.2956 36.7261 68.3434 36.439 68.3434 36.122C68.3434 35.8019 68.2986 35.5178 68.2062 35.2606C68.1137 35.0033 67.9854 34.788 67.8214 34.6115C67.6573 34.4351 67.4605 34.2945 67.2338 34.1988C67.0041 34.1031 66.7565 34.0552 66.4851 34.0552C66.3837 34.0552 66.2734 34.0642 66.157 34.0791C66.0407 34.0971 65.9184 34.121 65.7872 34.1539V38.093H65.7842Z" fill="#616160"/>
<path d="M70.5149 35.2067V35.9096C70.7774 35.44 71.0458 35.2067 71.3173 35.2067C71.3799 35.2067 71.4366 35.2157 71.4873 35.2366C71.538 35.2576 71.5857 35.2845 71.6245 35.3204C71.6633 35.3563 71.6961 35.3952 71.7169 35.443C71.7378 35.4879 71.7498 35.5357 71.7498 35.5866C71.7498 35.6763 71.7199 35.7511 71.6603 35.8109C71.6006 35.8737 71.532 35.9036 71.4485 35.9036C71.4097 35.9036 71.368 35.8917 71.3202 35.8647C71.2725 35.8408 71.2248 35.8139 71.1801 35.784C71.1323 35.7541 71.0906 35.7301 71.0518 35.7032C71.013 35.6793 70.9832 35.6643 70.9623 35.6643C70.9325 35.6643 70.8997 35.6763 70.8639 35.7032C70.8281 35.7301 70.7893 35.766 70.7505 35.8139C70.7118 35.8617 70.673 35.9156 70.6312 35.9814C70.5895 36.0472 70.5507 36.116 70.5119 36.1937V37.6922C70.5119 37.7849 70.5179 37.8687 70.5298 37.9435C70.5418 38.0182 70.5656 38.0811 70.6044 38.1349C70.6432 38.1887 70.6969 38.2276 70.7684 38.2575C70.84 38.2874 70.9385 38.2994 71.0578 38.2994V38.422H69.462V38.2994C69.5604 38.2994 69.644 38.2934 69.7066 38.2785C69.7692 38.2635 69.8199 38.2366 69.8557 38.1977C69.8915 38.1558 69.9184 38.099 69.9303 38.0212C69.9452 37.9465 69.9512 37.8448 69.9512 37.7191V36.5078C69.9512 36.1399 69.9422 35.9216 69.9273 35.8588C69.8975 35.7242 69.8229 35.6584 69.7006 35.6584C69.629 35.6584 69.5515 35.6763 69.462 35.7092L69.4292 35.5866L70.3717 35.2037H70.5149V35.2067Z" fill="#616160"/>
<path d="M72.1942 37.764C72.2449 37.764 72.2956 37.773 72.3403 37.7939C72.3851 37.8149 72.4268 37.8388 72.4596 37.8747C72.4925 37.9076 72.5223 37.9495 72.5402 37.9973C72.5611 38.0452 72.57 38.093 72.57 38.1469C72.57 38.2007 72.5611 38.2486 72.5402 38.2934C72.5193 38.3383 72.4925 38.3802 72.4596 38.4131C72.4268 38.446 72.3851 38.4759 72.3403 38.4938C72.2956 38.5118 72.2449 38.5237 72.1942 38.5237C72.1405 38.5237 72.0928 38.5148 72.048 38.4938C72.0033 38.4729 71.9615 38.446 71.9287 38.4131C71.8959 38.3802 71.8661 38.3383 71.8482 38.2934C71.8273 38.2486 71.8184 38.1977 71.8184 38.1469C71.8184 38.093 71.8273 38.0422 71.8482 37.9973C71.8691 37.9525 71.8959 37.9106 71.9287 37.8777C71.9615 37.8448 72.0033 37.8179 72.048 37.7969C72.0928 37.773 72.1405 37.764 72.1942 37.764Z" fill="#616160"/>
<path d="M77.6615 38.428L75.8778 34.5308V37.6234C75.8778 37.9076 75.9076 38.084 75.9703 38.1558C76.0538 38.2515 76.188 38.2994 76.37 38.2994H76.534V38.425H74.9263V38.2994H75.0904C75.2842 38.2994 75.4244 38.2396 75.505 38.1229C75.5557 38.0511 75.5795 37.8866 75.5795 37.6234V34.5966C75.5795 34.3962 75.5557 34.2496 75.5109 34.1539C75.496 34.121 75.4751 34.0881 75.4453 34.0612C75.4185 34.0343 75.3827 34.0073 75.335 33.9864C75.2872 33.9655 75.2335 33.9505 75.1649 33.9385C75.0963 33.9266 75.0188 33.9206 74.9233 33.9206V33.798H76.2298L77.9061 37.42L79.5555 33.798H80.8619V33.9236H80.7009C80.504 33.9236 80.3638 33.9834 80.2833 34.1001C80.2326 34.1718 80.2087 34.3363 80.2087 34.5996V37.6264C80.2087 37.9106 80.2415 38.087 80.3042 38.1588C80.3877 38.2545 80.5219 38.3024 80.7039 38.3024H80.8649V38.428H78.9023V38.3024H79.0663C79.2602 38.3024 79.4004 38.2426 79.4809 38.1259C79.5316 38.0541 79.5555 37.8896 79.5555 37.6264V34.5338L77.7748 38.431H77.6615V38.428Z" fill="#616160"/>
<path d="M82.3026 35.2067V37.7192C82.3026 37.8179 82.3055 37.9016 82.3115 37.9644C82.3175 38.0272 82.3294 38.0781 82.3413 38.117C82.3533 38.1558 82.3712 38.1858 82.395 38.2037C82.4159 38.2246 82.4398 38.2396 82.4696 38.2575C82.5292 38.2904 82.6307 38.3054 82.7768 38.3054V38.428H81.2616V38.3054C81.3391 38.3054 81.4018 38.3024 81.4495 38.2964C81.4972 38.2904 81.539 38.2785 81.5688 38.2635C81.5986 38.2486 81.6225 38.2276 81.6404 38.2037C81.6583 38.1798 81.6732 38.1499 81.6911 38.117C81.7239 38.0452 81.7388 37.9166 81.7388 37.7251V36.5198C81.7388 36.3224 81.7358 36.1668 81.7299 36.0532C81.7239 35.9395 81.712 35.8528 81.6941 35.796C81.6762 35.7391 81.6523 35.7032 81.6195 35.6883C81.5867 35.6733 81.545 35.6674 81.4942 35.6674C81.4316 35.6674 81.3541 35.6853 81.2616 35.7182L81.2139 35.5956L82.1534 35.2127H82.3026V35.2067ZM82.0222 33.5707C82.0699 33.5707 82.1147 33.5797 82.1564 33.5976C82.1982 33.6155 82.234 33.6395 82.2668 33.6724C82.2966 33.7023 82.3205 33.7382 82.3413 33.783C82.3592 33.8249 82.3682 33.8698 82.3682 33.9176C82.3682 33.9655 82.3592 34.0104 82.3413 34.0522C82.3234 34.0941 82.2996 34.13 82.2668 34.1629C82.234 34.1958 82.2011 34.2197 82.1564 34.2377C82.1147 34.2556 82.0699 34.2646 82.0222 34.2646C81.9745 34.2646 81.9297 34.2556 81.888 34.2377C81.8462 34.2197 81.8104 34.1958 81.7776 34.1629C81.7448 34.13 81.7209 34.0941 81.703 34.0522C81.6851 34.0104 81.6762 33.9655 81.6762 33.9176C81.6762 33.8698 81.6851 33.8249 81.703 33.783C81.7209 33.7412 81.7448 33.7053 81.7776 33.6724C81.8074 33.6425 81.8462 33.6185 81.888 33.5976C81.9267 33.5797 81.9745 33.5707 82.0222 33.5707Z" fill="#616160"/>
<path d="M83.9994 37.2855C83.8056 37.1897 83.6594 37.0611 83.558 36.8936C83.4566 36.7291 83.4059 36.5437 83.4059 36.3373C83.4059 36.1818 83.4357 36.0352 83.4983 35.8976C83.561 35.7601 83.6445 35.6404 83.7578 35.5387C83.8712 35.437 83.9994 35.3563 84.1516 35.2935C84.3037 35.2336 84.4677 35.2037 84.6497 35.2037C84.9479 35.2037 85.2074 35.2755 85.4222 35.4221H86.0814C86.1321 35.4221 86.1679 35.4221 86.1947 35.4251C86.2216 35.4251 86.2395 35.4281 86.2514 35.4311C86.2633 35.434 86.2723 35.437 86.2723 35.443C86.2753 35.449 86.2782 35.455 86.2812 35.461C86.2961 35.4819 86.3021 35.5178 86.3021 35.5716C86.3021 35.6045 86.3021 35.6344 86.2991 35.6554C86.2991 35.6763 86.2902 35.6943 86.2782 35.7062C86.2663 35.7182 86.2454 35.7242 86.2126 35.7272C86.1798 35.7301 86.1351 35.7331 86.0754 35.7331H85.6698C85.798 35.9006 85.8607 36.11 85.8607 36.3612C85.8607 36.5048 85.8308 36.6394 85.7742 36.768C85.7175 36.8966 85.634 37.0103 85.5266 37.103C85.4192 37.1987 85.291 37.2735 85.1388 37.3303C84.9867 37.3871 84.8167 37.4171 84.6318 37.4171C84.4797 37.4171 84.3216 37.3931 84.1575 37.3483C84.0561 37.435 83.9875 37.5098 83.9547 37.5756C83.9219 37.6414 83.904 37.6952 83.904 37.7401C83.904 37.773 83.91 37.8029 83.9249 37.8298C83.9398 37.8537 83.9696 37.8747 84.0233 37.8926C84.074 37.9106 84.1486 37.9225 84.25 37.9345C84.3484 37.9465 84.4856 37.9524 84.6586 37.9554C84.8913 37.9614 85.0852 37.9704 85.2343 37.9764C85.3864 37.9824 85.4968 37.9913 85.5654 38.0033C85.6698 38.0182 85.7652 38.0452 85.8517 38.084C85.9382 38.1259 86.0128 38.1768 86.0724 38.2366C86.1321 38.2994 86.1798 38.3682 86.2126 38.4489C86.2454 38.5297 86.2633 38.6134 86.2633 38.7092C86.2633 38.9664 86.144 39.2086 85.9024 39.433C85.5445 39.765 85.0852 39.9325 84.5155 39.9325C84.3574 39.9325 84.1993 39.9145 84.0382 39.8816C83.8771 39.8487 83.731 39.8009 83.5998 39.744C83.4685 39.6872 83.3611 39.6184 83.2776 39.5377C83.1941 39.4569 83.1523 39.3732 83.1523 39.2804C83.1523 39.2475 83.1583 39.2116 83.1673 39.1757C83.1762 39.1399 83.1941 39.104 83.215 39.0621C83.2359 39.0232 83.2657 38.9783 83.3015 38.9305C83.3373 38.8826 83.379 38.8258 83.4297 38.763C83.4446 38.7421 83.561 38.6194 83.7757 38.3951C83.6564 38.3233 83.5759 38.2605 83.5252 38.2067C83.4745 38.1528 83.4506 38.087 83.4506 38.0182C83.4506 37.9764 83.4566 37.9345 83.4685 37.8896C83.4804 37.8448 83.5043 37.7939 83.5431 37.7371C83.5819 37.6803 83.6355 37.6145 83.7071 37.5427C83.7817 37.4739 83.8771 37.3871 83.9994 37.2855ZM83.9636 38.428C83.7489 38.6613 83.6415 38.8617 83.6415 39.0292C83.6415 39.104 83.6713 39.1728 83.734 39.2356C83.7966 39.2984 83.8801 39.3492 83.9875 39.3941C84.0949 39.436 84.2202 39.4719 84.3633 39.4958C84.5065 39.5197 84.6616 39.5317 84.8227 39.5317C85.0285 39.5317 85.2045 39.5107 85.3566 39.4689C85.5087 39.427 85.631 39.3761 85.7294 39.3103C85.8279 39.2445 85.8994 39.1728 85.9472 39.092C85.9949 39.0112 86.0187 38.9305 86.0187 38.8527C86.0187 38.7929 86.0068 38.7421 85.98 38.7032C85.9561 38.6613 85.9114 38.6284 85.8457 38.6015C85.7801 38.5746 85.6906 38.5536 85.5773 38.5387C85.464 38.5237 85.3178 38.5147 85.1418 38.5088C84.8853 38.5028 84.6586 38.4908 84.4647 38.4789C84.2709 38.4609 84.1038 38.446 83.9636 38.428ZM84.59 35.3712C84.5095 35.3712 84.4319 35.3892 84.3574 35.4221C84.2858 35.455 84.2231 35.5058 84.1695 35.5716C84.1158 35.6374 84.074 35.7242 84.0442 35.8289C84.0143 35.9335 83.9994 36.0532 83.9994 36.1937C83.9994 36.3493 84.0143 36.4899 84.0442 36.6215C84.074 36.7531 84.1187 36.8637 84.1784 36.9564C84.2381 37.0522 84.3096 37.1239 84.3932 37.1778C84.4767 37.2286 84.5721 37.2555 84.6795 37.2555C84.766 37.2555 84.8465 37.2406 84.9181 37.2077C84.9897 37.1748 85.0523 37.1269 85.106 37.0611C85.1567 36.9953 85.1985 36.9116 85.2283 36.8099C85.2581 36.7082 85.2731 36.5886 85.2731 36.451C85.2731 36.2984 85.2581 36.1579 85.2283 36.0263C85.1985 35.8947 85.1538 35.781 85.0941 35.6853C85.0374 35.5896 84.9658 35.5118 84.8823 35.458C84.7988 35.4041 84.7004 35.3712 84.59 35.3712Z" fill="#616160"/>
<path d="M89.3864 35.2994V37.1957C89.3864 37.5636 89.3953 37.7849 89.4103 37.8627C89.4281 37.9435 89.455 37.9973 89.4938 38.0302C89.5296 38.0631 89.5743 38.0781 89.625 38.0781C89.6936 38.0781 89.7712 38.0601 89.8636 38.0212L89.9113 38.1409L88.9778 38.5267H88.8256V37.8657C88.5542 38.1558 88.3514 38.3413 88.2112 38.416C88.071 38.4908 87.9219 38.5297 87.7638 38.5297C87.5878 38.5297 87.4387 38.4788 87.3104 38.3801C87.1822 38.2814 87.0927 38.1498 87.042 37.9853C86.9913 37.8268 86.9674 37.6025 86.9674 37.3094V35.9126C86.9674 35.8109 86.9584 35.7271 86.9435 35.6643C86.9256 35.6015 86.8988 35.5507 86.86 35.5178C86.8212 35.4849 86.7705 35.461 86.7079 35.449C86.6453 35.437 86.5707 35.431 86.4812 35.431H86.4395V35.3054H87.5341V37.3991C87.5341 37.5487 87.549 37.6713 87.5759 37.764C87.6027 37.8567 87.6415 37.9285 87.6892 37.9794C87.7369 38.0302 87.7906 38.0661 87.8533 38.081C87.9159 38.099 87.9815 38.105 88.0501 38.105C88.0979 38.105 88.1486 38.099 88.2052 38.084C88.2619 38.0721 88.3186 38.0481 88.3812 38.0123C88.4438 37.9794 88.5124 37.9315 88.584 37.8747C88.6556 37.8178 88.7362 37.7461 88.8227 37.6593V35.8887C88.8227 35.7989 88.8167 35.7271 88.8018 35.6673C88.7898 35.6105 88.763 35.5626 88.7242 35.5268C88.6884 35.4909 88.6347 35.4669 88.5721 35.452C88.5095 35.437 88.423 35.4281 88.3216 35.4251V35.2994H89.3864Z" fill="#616160"/>
<path d="M90.6629 36.4779C90.6629 36.7112 90.6927 36.9176 90.7554 37.103C90.818 37.2884 90.8985 37.444 91.0029 37.5726C91.1073 37.7012 91.2296 37.7999 91.3668 37.8657C91.504 37.9315 91.6502 37.9674 91.8023 37.9674C92.0051 37.9674 92.1841 37.9106 92.3362 37.7969C92.4883 37.6833 92.6136 37.4918 92.715 37.2197L92.8194 37.2884C92.7955 37.441 92.7478 37.5905 92.6762 37.7401C92.6046 37.8866 92.5152 38.0212 92.4048 38.1349C92.2944 38.2515 92.1662 38.3443 92.02 38.416C91.8739 38.4878 91.7128 38.5237 91.5428 38.5237C91.3579 38.5237 91.1819 38.4848 91.0178 38.4101C90.8538 38.3353 90.7076 38.2246 90.5853 38.087C90.4601 37.9465 90.3646 37.776 90.29 37.5786C90.2185 37.3782 90.1797 37.1568 90.1797 36.9086C90.1797 36.6364 90.2155 36.3971 90.29 36.1878C90.3646 35.9784 90.466 35.7989 90.5943 35.6524C90.7225 35.5058 90.8776 35.3952 91.0536 35.3204C91.2296 35.2456 91.4175 35.2067 91.6203 35.2067C91.7933 35.2067 91.9514 35.2366 92.0976 35.2965C92.2437 35.3563 92.372 35.443 92.4764 35.5537C92.5838 35.6643 92.6673 35.7989 92.7269 35.9545C92.7866 36.11 92.8164 36.2865 92.8164 36.4779H90.6629ZM90.6629 36.2775H92.1065C92.0976 36.0771 92.0737 35.9365 92.0349 35.8528C91.9783 35.7242 91.8948 35.6255 91.7814 35.5537C91.6681 35.4819 91.5517 35.443 91.4294 35.443C91.337 35.443 91.2475 35.461 91.161 35.4998C91.0745 35.5387 90.997 35.5926 90.9254 35.6643C90.8538 35.7361 90.7971 35.8229 90.7494 35.9246C90.7017 36.0292 90.6748 36.1459 90.6629 36.2775Z" fill="#616160"/>
<path d="M94.3078 33.5707V37.7192C94.3078 37.8179 94.3108 37.9016 94.3167 37.9644C94.3227 38.0272 94.3346 38.0781 94.3465 38.114C94.3615 38.1529 94.3764 38.1798 94.4002 38.2007C94.4211 38.2216 94.448 38.2396 94.4808 38.2545C94.5345 38.2874 94.6448 38.3024 94.8119 38.3024V38.425H93.2817V38.3024C93.3831 38.3024 93.4637 38.2934 93.5263 38.2785C93.586 38.2635 93.6337 38.2336 93.6665 38.1887C93.6993 38.1469 93.7202 38.087 93.7291 38.0123C93.7381 37.9375 93.744 37.8388 93.744 37.7192V34.8777C93.744 34.7013 93.7411 34.5577 93.7381 34.45C93.7351 34.3423 93.7291 34.2676 93.7202 34.2287C93.7023 34.1479 93.6754 34.0911 93.6426 34.0612C93.6098 34.0313 93.5651 34.0163 93.5084 34.0163C93.4458 34.0163 93.3712 34.0343 93.2847 34.0702L93.228 33.9505L94.1586 33.5677H94.3078V33.5707Z" fill="#616160"/>
<path d="M98.1318 35.9455H100.276V34.6205C100.276 34.5098 100.273 34.4231 100.27 34.3543C100.264 34.2855 100.258 34.2287 100.244 34.1838C100.229 34.1389 100.214 34.1031 100.187 34.0791C100.163 34.0522 100.13 34.0283 100.088 34.0044C99.99 33.9505 99.8856 33.9236 99.7782 33.9236H99.6142V33.798H101.592L101.589 33.9236H101.425C101.383 33.9236 101.335 33.9266 101.288 33.9356C101.24 33.9445 101.195 33.9595 101.15 33.9804C101.109 34.0014 101.07 34.0253 101.037 34.0582C101.004 34.0881 100.98 34.127 100.962 34.1689C100.939 34.2436 100.927 34.3932 100.927 34.6205V37.6085C100.927 37.7191 100.93 37.8059 100.933 37.8747C100.939 37.9435 100.945 38.0003 100.959 38.0452C100.974 38.09 100.989 38.1229 101.013 38.1498C101.037 38.1738 101.07 38.1977 101.112 38.2216C101.21 38.2755 101.314 38.3024 101.425 38.3024H101.589V38.428H99.6142V38.3024H99.7782C99.9632 38.3024 100.1 38.2456 100.19 38.1349C100.247 38.0631 100.276 37.8896 100.276 37.6085V36.1997H98.1318V37.6085C98.1318 37.7191 98.1348 37.8059 98.1378 37.8747C98.1407 37.9435 98.1497 38.0003 98.1646 38.0422C98.1765 38.084 98.1944 38.1199 98.2213 38.1468C98.2451 38.1738 98.2779 38.1977 98.3197 38.2216C98.4181 38.2755 98.5195 38.3024 98.6299 38.3024H98.7969V38.428H96.8194V38.3024H96.9834C97.1773 38.3024 97.3145 38.2456 97.398 38.1349C97.4517 38.0631 97.4786 37.8896 97.4786 37.6085V34.6205C97.4786 34.5098 97.4756 34.4231 97.4726 34.3543C97.4666 34.2855 97.4607 34.2287 97.4458 34.1838C97.4309 34.1389 97.4159 34.1031 97.3921 34.0791C97.3682 34.0522 97.3354 34.0283 97.2936 34.0044C97.1952 33.9505 97.0878 33.9236 96.9805 33.9236H96.8164V33.798H98.794V33.9236H98.6269C98.5822 33.9236 98.5345 33.9266 98.4897 33.9356C98.442 33.9445 98.4002 33.9595 98.3555 33.9804C98.3137 34.0014 98.275 34.0253 98.2421 34.0582C98.2093 34.0881 98.1855 34.127 98.1676 34.1689C98.1407 34.2406 98.1258 34.3932 98.1258 34.6205V35.9455H98.1318Z" fill="#616160"/>
<path d="M103.027 35.2067V37.7192C103.027 37.8179 103.03 37.9016 103.036 37.9644C103.042 38.0272 103.054 38.0781 103.065 38.117C103.077 38.1558 103.095 38.1858 103.119 38.2037C103.14 38.2246 103.164 38.2396 103.194 38.2575C103.253 38.2904 103.355 38.3054 103.501 38.3054V38.428H101.986V38.3054C102.063 38.3054 102.126 38.3024 102.174 38.2964C102.221 38.2904 102.263 38.2785 102.293 38.2635C102.323 38.2486 102.347 38.2276 102.365 38.2037C102.382 38.1798 102.397 38.1499 102.415 38.117C102.448 38.0452 102.463 37.9166 102.463 37.7251V36.5198C102.463 36.3224 102.46 36.1668 102.454 36.0532C102.448 35.9395 102.436 35.8528 102.418 35.796C102.4 35.7391 102.376 35.7032 102.344 35.6883C102.311 35.6733 102.269 35.6674 102.218 35.6674C102.156 35.6674 102.078 35.6853 101.986 35.7182L101.938 35.5956L102.878 35.2127H103.027V35.2067ZM102.743 33.5707C102.791 33.5707 102.836 33.5797 102.878 33.5976C102.919 33.6155 102.955 33.6395 102.988 33.6724C103.018 33.7023 103.042 33.7382 103.062 33.783C103.08 33.8249 103.089 33.8698 103.089 33.9176C103.089 33.9655 103.08 34.0104 103.062 34.0522C103.045 34.0941 103.021 34.13 102.988 34.1629C102.955 34.1958 102.922 34.2197 102.878 34.2377C102.836 34.2556 102.791 34.2646 102.743 34.2646C102.696 34.2646 102.651 34.2556 102.609 34.2377C102.567 34.2197 102.532 34.1958 102.499 34.1629C102.466 34.13 102.442 34.0941 102.424 34.0522C102.406 34.0104 102.397 33.9655 102.397 33.9176C102.397 33.8698 102.406 33.8249 102.424 33.783C102.442 33.7412 102.466 33.7053 102.499 33.6724C102.529 33.6425 102.567 33.6185 102.609 33.5976C102.651 33.5797 102.696 33.5707 102.743 33.5707Z" fill="#616160"/>
<path d="M106.093 38.0751C105.941 38.2336 105.791 38.3503 105.648 38.419C105.505 38.4878 105.347 38.5237 105.177 38.5237C105.007 38.5237 104.846 38.4848 104.691 38.4101C104.536 38.3353 104.401 38.2276 104.285 38.093C104.169 37.9584 104.076 37.7969 104.005 37.6085C103.936 37.4231 103.9 37.2167 103.9 36.9953C103.9 36.5467 104.041 36.1369 104.324 35.7661C104.607 35.3922 104.971 35.2067 105.41 35.2067C105.681 35.2067 105.908 35.2935 106.09 35.4699V34.447C106.09 34.4052 106.093 34.3603 106.096 34.3124C106.099 34.2646 106.096 34.2167 106.084 34.1749C106.072 34.133 106.051 34.0971 106.015 34.0672C105.982 34.0403 105.926 34.0253 105.848 34.0253C105.785 34.0253 105.708 34.0433 105.612 34.0791L105.568 33.9595L106.498 33.5767H106.65V37.1927C106.65 37.5636 106.659 37.788 106.674 37.8657C106.692 37.9465 106.719 38.0003 106.758 38.0332C106.794 38.0661 106.838 38.0811 106.889 38.0811C106.949 38.0811 107.029 38.0631 107.134 38.0242L107.169 38.1439L106.242 38.5297H106.087V38.0751H106.093ZM106.093 37.8358V36.2237C106.081 36.0951 106.051 35.9784 106.006 35.8797C105.958 35.781 105.902 35.6943 105.836 35.6255C105.771 35.5567 105.696 35.5028 105.615 35.467C105.535 35.4311 105.454 35.4131 105.371 35.4131C105.252 35.4131 105.138 35.443 105.037 35.5058C104.935 35.5686 104.846 35.6584 104.768 35.772C104.694 35.8857 104.631 36.0233 104.589 36.1848C104.548 36.3463 104.524 36.5228 104.524 36.7202C104.524 36.9505 104.551 37.1539 104.607 37.3303C104.664 37.5068 104.736 37.6563 104.828 37.779C104.918 37.8986 105.022 37.9913 105.138 38.0512C105.255 38.114 105.371 38.1439 105.493 38.1439C105.699 38.1469 105.899 38.0422 106.093 37.8358Z" fill="#616160"/>
<path d="M109.141 37.9764C108.822 38.2276 108.619 38.3712 108.539 38.4071C108.419 38.4639 108.288 38.4938 108.148 38.4938C108.041 38.4938 107.942 38.4759 107.853 38.437C107.763 38.3981 107.683 38.3443 107.617 38.2725C107.551 38.2007 107.501 38.1169 107.462 38.0182C107.426 37.9195 107.405 37.8089 107.405 37.6892C107.405 37.5995 107.417 37.5187 107.441 37.444C107.465 37.3692 107.501 37.2974 107.548 37.2316C107.596 37.1658 107.656 37.1 107.73 37.0372C107.805 36.9744 107.891 36.9146 107.99 36.8577C108.223 36.7202 108.607 36.5527 109.141 36.3582V36.2356C109.141 36.0771 109.129 35.9485 109.102 35.8438C109.076 35.7391 109.04 35.6554 108.989 35.5926C108.941 35.5298 108.879 35.4849 108.807 35.458C108.736 35.431 108.652 35.4191 108.563 35.4191C108.491 35.4191 108.425 35.431 108.366 35.452C108.306 35.4729 108.258 35.5028 108.217 35.5387C108.175 35.5746 108.145 35.6135 108.124 35.6614C108.103 35.7092 108.091 35.7541 108.091 35.8019L108.097 35.9993C108.097 36.104 108.07 36.1848 108.017 36.2416C107.963 36.2984 107.894 36.3283 107.808 36.3283C107.724 36.3283 107.656 36.2984 107.602 36.2386C107.548 36.1788 107.522 36.098 107.522 35.9963C107.522 35.9006 107.545 35.8049 107.599 35.7122C107.65 35.6195 107.724 35.5357 107.82 35.461C107.915 35.3862 108.035 35.3264 108.178 35.2785C108.321 35.2307 108.482 35.2097 108.664 35.2097C108.906 35.2097 109.108 35.2456 109.275 35.3144C109.442 35.3862 109.565 35.5058 109.639 35.6793C109.681 35.778 109.702 35.9784 109.702 36.2805V37.3423C109.702 37.4918 109.705 37.6145 109.708 37.7042C109.711 37.7939 109.714 37.8567 109.72 37.8926C109.732 37.9584 109.75 38.0033 109.777 38.0272C109.803 38.0511 109.833 38.0601 109.866 38.0601C109.89 38.0601 109.911 38.0571 109.932 38.0511C109.953 38.0452 109.976 38.0302 110.003 38.0093C110.03 37.9883 110.063 37.9614 110.099 37.9255C110.134 37.8896 110.182 37.8448 110.239 37.7879V37.9794C109.982 38.3203 109.741 38.4908 109.511 38.4908C109.401 38.4908 109.314 38.4519 109.246 38.3742C109.177 38.2964 109.141 38.1618 109.141 37.9764ZM109.141 37.755V36.5646C108.968 36.6334 108.828 36.6902 108.718 36.7381C108.607 36.786 108.527 36.8248 108.479 36.8548C108.3 36.9564 108.172 37.0611 108.094 37.1718C108.017 37.2825 107.978 37.3991 107.978 37.5277C107.978 37.6085 107.99 37.6862 108.017 37.755C108.044 37.8238 108.079 37.8836 108.121 37.9375C108.166 37.9883 108.217 38.0272 108.276 38.0571C108.336 38.087 108.396 38.099 108.461 38.099C108.634 38.096 108.861 37.9824 109.141 37.755Z" fill="#616160"/>
<path d="M111.542 33.5707V37.7192C111.542 37.8179 111.545 37.9016 111.551 37.9644C111.557 38.0272 111.569 38.0781 111.581 38.114C111.596 38.1529 111.611 38.1798 111.635 38.2007C111.655 38.2216 111.682 38.2396 111.715 38.2545C111.769 38.2874 111.879 38.3024 112.046 38.3024V38.425H110.516V38.3024C110.618 38.3024 110.698 38.2934 110.761 38.2785C110.82 38.2635 110.868 38.2336 110.901 38.1887C110.934 38.1469 110.955 38.087 110.963 38.0123C110.972 37.9375 110.978 37.8388 110.978 37.7192V34.8777C110.978 34.7013 110.975 34.5577 110.972 34.45C110.969 34.3423 110.963 34.2676 110.955 34.2287C110.937 34.1479 110.91 34.0911 110.877 34.0612C110.844 34.0313 110.799 34.0163 110.743 34.0163C110.68 34.0163 110.606 34.0343 110.519 34.0702L110.462 33.9505L111.393 33.5677H111.542V33.5707Z" fill="#616160"/>
<path d="M113.242 37.2855C113.048 37.1897 112.902 37.0611 112.801 36.8936C112.699 36.7291 112.649 36.5437 112.649 36.3373C112.649 36.1818 112.678 36.0352 112.741 35.8976C112.804 35.7601 112.887 35.6404 113.001 35.5387C113.114 35.437 113.242 35.3563 113.394 35.2935C113.546 35.2336 113.71 35.2037 113.892 35.2037C114.191 35.2037 114.45 35.2755 114.665 35.4221H115.324C115.375 35.4221 115.411 35.4221 115.437 35.4251C115.464 35.4251 115.482 35.4281 115.494 35.4311C115.506 35.434 115.515 35.437 115.515 35.443C115.518 35.449 115.521 35.455 115.524 35.461C115.539 35.4819 115.545 35.5178 115.545 35.5716C115.545 35.6045 115.545 35.6344 115.542 35.6554C115.542 35.6763 115.533 35.6943 115.521 35.7062C115.509 35.7182 115.488 35.7242 115.455 35.7272C115.422 35.7301 115.378 35.7331 115.318 35.7331H114.912C115.041 35.9006 115.103 36.11 115.103 36.3612C115.103 36.5048 115.073 36.6394 115.017 36.768C114.96 36.8966 114.877 37.0103 114.769 37.103C114.662 37.1987 114.534 37.2735 114.382 37.3303C114.229 37.3871 114.059 37.4171 113.874 37.4171C113.722 37.4171 113.564 37.3931 113.4 37.3483C113.299 37.435 113.23 37.5098 113.197 37.5756C113.165 37.6414 113.147 37.6952 113.147 37.7401C113.147 37.773 113.153 37.8029 113.168 37.8298C113.182 37.8537 113.212 37.8747 113.266 37.8926C113.317 37.9106 113.391 37.9225 113.493 37.9345C113.591 37.9465 113.728 37.9524 113.901 37.9554C114.134 37.9614 114.328 37.9704 114.477 37.9764C114.629 37.9824 114.739 37.9913 114.808 38.0033C114.912 38.0182 115.008 38.0452 115.094 38.084C115.181 38.1259 115.255 38.1768 115.315 38.2366C115.375 38.2994 115.422 38.3682 115.455 38.4489C115.488 38.5297 115.506 38.6134 115.506 38.7092C115.506 38.9664 115.387 39.2086 115.145 39.433C114.787 39.765 114.328 39.9325 113.758 39.9325C113.6 39.9325 113.442 39.9145 113.281 39.8816C113.12 39.8487 112.974 39.8009 112.842 39.744C112.711 39.6872 112.604 39.6184 112.52 39.5377C112.437 39.4569 112.395 39.3732 112.395 39.2804C112.395 39.2475 112.401 39.2116 112.41 39.1757C112.419 39.1399 112.437 39.104 112.458 39.0621C112.479 39.0232 112.508 38.9783 112.544 38.9305C112.58 38.8826 112.622 38.8258 112.672 38.763C112.687 38.7421 112.804 38.6194 113.018 38.3951C112.899 38.3233 112.819 38.2605 112.768 38.2067C112.717 38.1528 112.693 38.087 112.693 38.0182C112.693 37.9764 112.699 37.9345 112.711 37.8896C112.723 37.8448 112.747 37.7939 112.786 37.7371C112.825 37.6803 112.878 37.6145 112.95 37.5427C113.027 37.4739 113.123 37.3871 113.242 37.2855ZM113.209 38.428C112.995 38.6613 112.887 38.8617 112.887 39.0292C112.887 39.104 112.917 39.1728 112.98 39.2356C113.042 39.2984 113.126 39.3492 113.233 39.3941C113.341 39.436 113.466 39.4719 113.609 39.4958C113.752 39.5197 113.907 39.5317 114.068 39.5317C114.274 39.5317 114.45 39.5107 114.602 39.4689C114.754 39.427 114.877 39.3761 114.975 39.3103C115.074 39.2445 115.145 39.1728 115.193 39.092C115.241 39.0112 115.264 38.9305 115.264 38.8527C115.264 38.7929 115.252 38.7421 115.226 38.7032C115.202 38.6613 115.157 38.6284 115.091 38.6015C115.026 38.5746 114.936 38.5536 114.823 38.5387C114.71 38.5237 114.563 38.5147 114.387 38.5088C114.131 38.5028 113.904 38.4908 113.71 38.4789C113.514 38.4609 113.347 38.446 113.209 38.428ZM113.836 35.3712C113.755 35.3712 113.678 35.3892 113.603 35.4221C113.531 35.455 113.469 35.5058 113.415 35.5716C113.361 35.6374 113.32 35.7242 113.29 35.8289C113.26 35.9335 113.245 36.0532 113.245 36.1937C113.245 36.3493 113.26 36.4899 113.29 36.6215C113.32 36.7531 113.364 36.8637 113.424 36.9564C113.484 37.0522 113.555 37.1239 113.639 37.1778C113.722 37.2286 113.818 37.2555 113.925 37.2555C114.012 37.2555 114.092 37.2406 114.164 37.2077C114.235 37.1748 114.298 37.1269 114.352 37.0611C114.402 36.9953 114.444 36.9116 114.474 36.8099C114.504 36.7082 114.519 36.5886 114.519 36.451C114.519 36.2984 114.504 36.1579 114.474 36.0263C114.444 35.8947 114.399 35.781 114.34 35.6853C114.283 35.5896 114.211 35.5118 114.128 35.458C114.044 35.4041 113.943 35.3712 113.836 35.3712Z" fill="#616160"/>
<path d="M117.421 35.2067C117.642 35.2067 117.844 35.2486 118.026 35.3353C118.211 35.4221 118.369 35.5387 118.501 35.6853C118.632 35.8318 118.736 35.9993 118.811 36.1937C118.885 36.3882 118.921 36.5915 118.921 36.8039C118.921 37.0282 118.882 37.2436 118.808 37.45C118.733 37.6563 118.626 37.8388 118.489 37.9973C118.351 38.1558 118.19 38.2844 118.003 38.3772C117.815 38.4699 117.609 38.5177 117.382 38.5177C117.161 38.5177 116.962 38.4729 116.78 38.3802C116.601 38.2904 116.446 38.1678 116.314 38.0153C116.183 37.8627 116.085 37.6892 116.016 37.4948C115.944 37.3004 115.912 37.097 115.912 36.8877C115.912 36.6753 115.947 36.4689 116.022 36.2655C116.094 36.0621 116.198 35.8827 116.329 35.7242C116.463 35.5656 116.622 35.44 116.806 35.3443C116.991 35.2486 117.194 35.2067 117.421 35.2067ZM117.314 35.4281C117.215 35.4281 117.117 35.449 117.027 35.4909C116.935 35.5327 116.854 35.6015 116.783 35.6972C116.711 35.793 116.654 35.9126 116.61 36.0621C116.568 36.2117 116.544 36.3941 116.544 36.6065C116.544 36.8278 116.568 37.0402 116.613 37.2406C116.66 37.444 116.726 37.6204 116.809 37.776C116.896 37.9285 116.997 38.0511 117.12 38.1439C117.242 38.2366 117.376 38.2814 117.525 38.2814C117.636 38.2814 117.734 38.2605 117.827 38.2186C117.919 38.1768 118 38.108 118.065 38.0153C118.134 37.9195 118.187 37.7969 118.226 37.6414C118.265 37.4858 118.283 37.2974 118.283 37.0701C118.283 36.8458 118.262 36.6334 118.217 36.436C118.173 36.2386 118.11 36.0651 118.029 35.9156C117.946 35.766 117.844 35.6494 117.722 35.5627C117.606 35.4729 117.469 35.4281 117.314 35.4281Z" fill="#616160"/>
<path d="M124.466 35.446H125.895V35.5716C125.698 35.5896 125.552 35.6344 125.457 35.7062C125.364 35.778 125.218 35.9963 125.018 36.3553C124.815 36.7172 124.592 37.0552 124.344 37.3692C124.446 37.4888 124.541 37.5875 124.631 37.6683C124.72 37.7491 124.804 37.8149 124.887 37.8657C124.968 37.9166 125.048 37.9524 125.126 37.9734C125.203 37.9943 125.284 38.0063 125.364 38.0063C125.522 38.0063 125.654 37.9644 125.764 37.8777C125.874 37.7909 125.949 37.6653 125.997 37.5008L126.122 37.5935C126.038 37.9136 125.901 38.1498 125.716 38.3024C125.531 38.4549 125.314 38.5297 125.066 38.5297C124.974 38.5297 124.881 38.5177 124.786 38.4938C124.693 38.4699 124.598 38.431 124.499 38.3772C124.401 38.3233 124.299 38.2545 124.195 38.1708C124.091 38.087 123.983 37.9853 123.87 37.8627C123.587 38.114 123.333 38.2874 123.106 38.3861C122.883 38.4818 122.641 38.5297 122.385 38.5297C122.197 38.5297 122.027 38.5028 121.877 38.4489C121.728 38.3951 121.6 38.3203 121.493 38.2276C121.385 38.1349 121.305 38.0272 121.248 37.9046C121.191 37.782 121.162 37.6504 121.162 37.5128C121.162 37.2376 121.26 36.9624 121.457 36.6903C121.651 36.4151 122.024 36.1309 122.569 35.8378C122.516 35.7182 122.471 35.6105 122.435 35.5148C122.399 35.4191 122.373 35.3353 122.349 35.2546C122.325 35.1738 122.313 35.102 122.304 35.0333C122.295 34.9645 122.292 34.8927 122.292 34.8209C122.292 34.6504 122.322 34.4949 122.385 34.3573C122.447 34.2197 122.531 34.1001 122.638 34.0014C122.745 33.9027 122.871 33.8249 123.017 33.7711C123.16 33.7172 123.315 33.6903 123.482 33.6903C123.613 33.6903 123.736 33.7112 123.849 33.7561C123.962 33.801 124.058 33.8578 124.141 33.9326C124.222 34.0074 124.288 34.0971 124.332 34.1958C124.377 34.2945 124.401 34.4051 124.401 34.5218C124.401 34.7641 124.317 34.9764 124.153 35.1559C124.073 35.2456 123.959 35.3413 123.813 35.44C123.67 35.5387 123.491 35.6434 123.279 35.7511C123.426 36.0113 123.572 36.2566 123.721 36.4929C123.87 36.7261 124.025 36.9505 124.18 37.1658C124.58 36.6843 124.78 36.2835 124.78 35.9575C124.78 35.9156 124.774 35.8707 124.759 35.8259C124.747 35.781 124.726 35.7421 124.699 35.7062C124.672 35.6703 124.639 35.6404 124.601 35.6165C124.562 35.5926 124.514 35.5746 124.463 35.5686V35.446H124.466ZM123.694 37.6683C123.545 37.4619 123.417 37.2825 123.315 37.1359C123.211 36.9894 123.13 36.8667 123.071 36.771C123.011 36.6753 122.951 36.5706 122.889 36.454C122.826 36.3373 122.76 36.2087 122.689 36.0681C122.143 36.3852 121.869 36.762 121.869 37.2017C121.869 37.3213 121.889 37.438 121.931 37.5487C121.973 37.6593 122.03 37.755 122.104 37.8418C122.179 37.9255 122.271 37.9943 122.376 38.0452C122.483 38.096 122.602 38.1229 122.736 38.1229C122.808 38.1229 122.88 38.1169 122.945 38.105C123.011 38.093 123.08 38.0721 123.154 38.0392C123.226 38.0063 123.306 37.9614 123.393 37.9016C123.476 37.8418 123.578 37.764 123.694 37.6683ZM123.166 35.5357C123.727 35.2666 124.007 34.9256 124.007 34.5068C124.007 34.4261 123.992 34.3513 123.965 34.2825C123.939 34.2137 123.9 34.1539 123.855 34.1001C123.807 34.0492 123.754 34.0103 123.688 33.9804C123.622 33.9535 123.554 33.9386 123.479 33.9386C123.381 33.9386 123.291 33.9595 123.217 33.9984C123.142 34.0373 123.08 34.0881 123.029 34.1479C122.978 34.2077 122.942 34.2735 122.915 34.3453C122.892 34.4171 122.88 34.4859 122.88 34.5487C122.88 34.6085 122.883 34.6654 122.892 34.7252C122.901 34.782 122.915 34.8478 122.936 34.9226C122.957 34.9944 122.987 35.0811 123.023 35.1798C123.059 35.2785 123.106 35.3952 123.166 35.5357Z" fill="#616160"/>
<path d="M132.275 33.6903L132.379 35.2636H132.275C132.203 35.0303 132.12 34.8269 132.018 34.6594C131.917 34.4919 131.804 34.3543 131.672 34.2466C131.544 34.139 131.401 34.0612 131.243 34.0103C131.085 33.9595 130.915 33.9356 130.733 33.9356C130.423 33.9356 130.151 34.0103 129.913 34.1629C129.674 34.3154 129.486 34.5457 129.343 34.8598C129.265 35.0333 129.206 35.2307 129.167 35.449C129.128 35.6673 129.104 35.9156 129.104 36.1878C129.104 36.6035 129.17 36.9684 129.304 37.2765C129.373 37.435 129.459 37.5726 129.561 37.6892C129.665 37.8089 129.781 37.9076 129.913 37.9853C130.044 38.0631 130.187 38.1259 130.342 38.1648C130.497 38.2067 130.658 38.2276 130.828 38.2276C131.019 38.2276 131.183 38.2097 131.323 38.1708C131.461 38.1319 131.589 38.0721 131.702 37.9943C131.816 37.9166 131.926 37.8149 132.03 37.6952C132.135 37.5756 132.251 37.432 132.379 37.2705L132.484 37.3393C132.367 37.5427 132.242 37.7221 132.108 37.8717C131.974 38.0212 131.827 38.1469 131.672 38.2426C131.514 38.3413 131.347 38.4131 131.162 38.4609C130.98 38.5088 130.784 38.5297 130.572 38.5297C129.805 38.5297 129.212 38.2456 128.794 37.6773C128.481 37.2526 128.323 36.7561 128.323 36.1818C128.323 35.9066 128.362 35.6404 128.436 35.3802C128.511 35.123 128.627 34.8837 128.782 34.6654C128.892 34.5098 129.015 34.3723 129.155 34.2496C129.295 34.127 129.444 34.0253 129.608 33.9416C129.769 33.8578 129.942 33.795 130.121 33.7531C130.3 33.7112 130.485 33.6873 130.673 33.6873C131.007 33.6873 131.335 33.7681 131.66 33.9326C131.759 33.9864 131.827 34.0103 131.866 34.0074C131.938 34.0074 132 33.9774 132.048 33.9176C132.096 33.8578 132.132 33.78 132.153 33.6873H132.275V33.6903Z" fill="#616160"/>
<path d="M134.02 35.2067V37.7192C134.02 37.8179 134.023 37.9016 134.029 37.9644C134.035 38.0272 134.047 38.0781 134.059 38.117C134.071 38.1558 134.088 38.1858 134.112 38.2037C134.133 38.2246 134.157 38.2396 134.187 38.2575C134.247 38.2904 134.348 38.3054 134.494 38.3054V38.428H132.979V38.3054C133.056 38.3054 133.119 38.3024 133.167 38.2964C133.215 38.2904 133.256 38.2785 133.286 38.2635C133.316 38.2486 133.34 38.2276 133.358 38.2037C133.376 38.1798 133.39 38.1499 133.408 38.117C133.441 38.0452 133.456 37.9166 133.456 37.7251V36.5198C133.456 36.3224 133.453 36.1668 133.447 36.0532C133.441 35.9395 133.429 35.8528 133.411 35.796C133.393 35.7391 133.37 35.7032 133.337 35.6883C133.304 35.6733 133.262 35.6674 133.212 35.6674C133.149 35.6674 133.071 35.6853 132.979 35.7182L132.931 35.5956L133.871 35.2127H134.02V35.2067ZM133.736 33.5707C133.784 33.5707 133.829 33.5797 133.871 33.5976C133.912 33.6155 133.948 33.6395 133.981 33.6724C134.011 33.7023 134.035 33.7382 134.056 33.783C134.074 33.8249 134.082 33.8698 134.082 33.9176C134.082 33.9655 134.074 34.0104 134.056 34.0522C134.038 34.0941 134.014 34.13 133.981 34.1629C133.948 34.1958 133.915 34.2197 133.871 34.2377C133.829 34.2556 133.784 34.2646 133.736 34.2646C133.689 34.2646 133.644 34.2556 133.602 34.2377C133.561 34.2197 133.525 34.1958 133.492 34.1629C133.459 34.13 133.435 34.0941 133.417 34.0522C133.399 34.0104 133.39 33.9655 133.39 33.9176C133.39 33.8698 133.399 33.8249 133.417 33.783C133.435 33.7412 133.459 33.7053 133.492 33.6724C133.522 33.6425 133.561 33.6185 133.602 33.5976C133.644 33.5797 133.689 33.5707 133.736 33.5707Z" fill="#616160"/>
<path d="M135.795 35.2067V35.9096C136.057 35.44 136.326 35.2067 136.597 35.2067C136.66 35.2067 136.716 35.2157 136.767 35.2366C136.818 35.2576 136.865 35.2845 136.904 35.3204C136.943 35.3563 136.976 35.3952 136.997 35.443C137.018 35.4879 137.03 35.5357 137.03 35.5866C137.03 35.6763 137 35.7511 136.94 35.8109C136.88 35.8737 136.812 35.9036 136.728 35.9036C136.69 35.9036 136.648 35.8917 136.6 35.8647C136.552 35.8408 136.505 35.8139 136.46 35.784C136.412 35.7541 136.37 35.7301 136.332 35.7032C136.293 35.6793 136.263 35.6643 136.242 35.6643C136.212 35.6643 136.179 35.6763 136.144 35.7032C136.108 35.7301 136.069 35.766 136.03 35.8139C135.992 35.8617 135.953 35.9156 135.911 35.9814C135.869 36.0472 135.83 36.116 135.792 36.1937V37.6922C135.792 37.7849 135.798 37.8687 135.81 37.9435C135.822 38.0182 135.845 38.0811 135.884 38.1349C135.923 38.1887 135.977 38.2276 136.048 38.2575C136.12 38.2874 136.218 38.2994 136.338 38.2994V38.422H134.742V38.2994C134.84 38.2994 134.924 38.2934 134.986 38.2785C135.049 38.2635 135.1 38.2366 135.136 38.1977C135.171 38.1558 135.198 38.099 135.21 38.0212C135.225 37.9465 135.231 37.8448 135.231 37.7191V36.5078C135.231 36.1399 135.222 35.9216 135.207 35.8588C135.177 35.7242 135.103 35.6584 134.98 35.6584C134.909 35.6584 134.831 35.6763 134.742 35.7092L134.709 35.5866L135.652 35.2037H135.795V35.2067Z" fill="#616160"/>
<path d="M139.938 35.2994V37.1957C139.938 37.5636 139.947 37.7849 139.962 37.8627C139.979 37.9435 140.006 37.9973 140.045 38.0302C140.081 38.0631 140.126 38.0781 140.176 38.0781C140.245 38.0781 140.322 38.0601 140.415 38.0212L140.463 38.1409L139.529 38.5267H139.377V37.8657C139.105 38.1558 138.903 38.3413 138.762 38.416C138.622 38.4908 138.473 38.5297 138.315 38.5297C138.139 38.5297 137.99 38.4788 137.862 38.3801C137.733 38.2814 137.644 38.1498 137.593 37.9853C137.543 37.8268 137.519 37.6025 137.519 37.3094V35.9126C137.519 35.8109 137.51 35.7271 137.495 35.6643C137.477 35.6015 137.45 35.5507 137.411 35.5178C137.373 35.4849 137.322 35.461 137.259 35.449C137.197 35.437 137.122 35.431 137.032 35.431H136.991V35.3054H138.085V37.3991C138.085 37.5487 138.1 37.6713 138.127 37.764C138.154 37.8567 138.193 37.9285 138.24 37.9794C138.288 38.0302 138.342 38.0661 138.405 38.081C138.467 38.099 138.533 38.105 138.601 38.105C138.649 38.105 138.7 38.099 138.756 38.084C138.813 38.0721 138.87 38.0481 138.932 38.0123C138.995 37.9794 139.064 37.9315 139.135 37.8747C139.207 37.8178 139.287 37.7461 139.374 37.6593V35.8887C139.374 35.7989 139.368 35.7271 139.353 35.6673C139.341 35.6105 139.314 35.5626 139.275 35.5268C139.24 35.4909 139.186 35.4669 139.123 35.452C139.061 35.437 138.974 35.4281 138.873 35.4251V35.2994H139.938Z" fill="#616160"/>
<path d="M141.775 35.2067V38.3562C141.775 38.6284 141.745 38.8617 141.685 39.0591C141.626 39.2565 141.539 39.421 141.432 39.5496C141.324 39.6782 141.193 39.7769 141.044 39.8398C140.895 39.9026 140.731 39.9355 140.549 39.9355C140.442 39.9355 140.352 39.9235 140.274 39.9026C140.197 39.8816 140.134 39.8547 140.087 39.8218C140.036 39.7889 140 39.753 139.976 39.7111C139.952 39.6693 139.94 39.6304 139.94 39.5915C139.94 39.5496 139.946 39.5137 139.961 39.4779C139.976 39.442 139.997 39.412 140.024 39.3851C140.051 39.3582 140.081 39.3373 140.113 39.3223C140.146 39.3074 140.182 39.3014 140.221 39.3014C140.248 39.3014 140.272 39.3014 140.295 39.3044C140.316 39.3044 140.34 39.3133 140.37 39.3253C140.397 39.3373 140.43 39.3582 140.471 39.3881C140.513 39.418 140.564 39.4599 140.626 39.5167C140.737 39.6154 140.829 39.6663 140.907 39.6663C140.958 39.6663 141.011 39.6453 141.065 39.6035C141.119 39.5616 141.157 39.4898 141.181 39.3881C141.193 39.3373 141.202 39.2595 141.208 39.1548C141.214 39.0501 141.217 38.9126 141.217 38.7481V36.5228C141.217 36.3194 141.214 36.1609 141.208 36.0472C141.202 35.9335 141.187 35.8468 141.169 35.79C141.151 35.7332 141.128 35.6973 141.095 35.6853C141.062 35.6733 141.023 35.6644 140.972 35.6644C140.91 35.6644 140.832 35.6823 140.74 35.7152L140.692 35.5926L141.632 35.2097H141.775V35.2067ZM141.48 33.5677C141.527 33.5677 141.572 33.5767 141.617 33.5946C141.658 33.6126 141.697 33.6395 141.73 33.6694C141.763 33.7023 141.787 33.7382 141.805 33.783C141.823 33.8249 141.831 33.8728 141.831 33.9206C141.831 33.9685 141.823 34.0133 141.805 34.0552C141.787 34.0971 141.763 34.133 141.73 34.1659C141.697 34.1988 141.661 34.2227 141.617 34.2407C141.572 34.2586 141.527 34.2676 141.48 34.2676C141.432 34.2676 141.387 34.2586 141.345 34.2407C141.304 34.2227 141.268 34.1988 141.235 34.1659C141.202 34.133 141.178 34.0971 141.16 34.0552C141.142 34.0133 141.134 33.9685 141.134 33.9206C141.134 33.8728 141.142 33.8279 141.16 33.783C141.178 33.7412 141.202 33.7023 141.235 33.6694C141.268 33.6365 141.304 33.6126 141.345 33.5946C141.387 33.5767 141.432 33.5677 141.48 33.5677Z" fill="#616160"/>
<path d="M144.397 37.9764C144.078 38.2276 143.875 38.3712 143.795 38.4071C143.675 38.4639 143.544 38.4938 143.404 38.4938C143.296 38.4938 143.198 38.4759 143.109 38.437C143.019 38.3981 142.939 38.3443 142.873 38.2725C142.807 38.2007 142.757 38.1169 142.718 38.0182C142.682 37.9195 142.661 37.8089 142.661 37.6892C142.661 37.5995 142.673 37.5187 142.697 37.444C142.721 37.3692 142.757 37.2974 142.804 37.2316C142.852 37.1658 142.912 37.1 142.986 37.0372C143.061 36.9744 143.147 36.9146 143.246 36.8577C143.478 36.7202 143.863 36.5527 144.397 36.3582V36.2356C144.397 36.0771 144.385 35.9485 144.358 35.8438C144.331 35.7391 144.296 35.6554 144.245 35.5926C144.197 35.5298 144.135 35.4849 144.063 35.458C143.991 35.431 143.908 35.4191 143.818 35.4191C143.747 35.4191 143.681 35.431 143.622 35.452C143.562 35.4729 143.514 35.5028 143.472 35.5387C143.431 35.5746 143.401 35.6135 143.38 35.6614C143.359 35.7092 143.347 35.7541 143.347 35.8019L143.353 35.9993C143.353 36.104 143.326 36.1848 143.273 36.2416C143.219 36.2984 143.15 36.3283 143.064 36.3283C142.98 36.3283 142.912 36.2984 142.858 36.2386C142.804 36.1788 142.777 36.098 142.777 35.9963C142.777 35.9006 142.801 35.8049 142.855 35.7122C142.906 35.6195 142.98 35.5357 143.076 35.461C143.171 35.3862 143.29 35.3264 143.434 35.2785C143.577 35.2307 143.738 35.2097 143.92 35.2097C144.161 35.2097 144.364 35.2456 144.531 35.3144C144.698 35.3862 144.821 35.5058 144.895 35.6793C144.937 35.778 144.958 35.9784 144.958 36.2805V37.3423C144.958 37.4918 144.961 37.6145 144.964 37.7042C144.967 37.7939 144.97 37.8567 144.976 37.8926C144.988 37.9584 145.006 38.0033 145.032 38.0272C145.059 38.0511 145.089 38.0601 145.122 38.0601C145.146 38.0601 145.167 38.0571 145.188 38.0511C145.208 38.0452 145.232 38.0302 145.259 38.0093C145.286 37.9883 145.319 37.9614 145.355 37.9255C145.39 37.8896 145.438 37.8448 145.495 37.7879V37.9794C145.238 38.3203 144.997 38.4908 144.767 38.4908C144.657 38.4908 144.57 38.4519 144.501 38.3742C144.433 38.2964 144.397 38.1618 144.397 37.9764ZM144.397 37.755V36.5646C144.224 36.6334 144.084 36.6902 143.974 36.7381C143.863 36.786 143.783 36.8248 143.735 36.8548C143.556 36.9564 143.428 37.0611 143.35 37.1718C143.273 37.2825 143.234 37.3991 143.234 37.5277C143.234 37.6085 143.246 37.6862 143.273 37.755C143.299 37.8238 143.335 37.8836 143.377 37.9375C143.422 37.9883 143.472 38.0272 143.532 38.0571C143.592 38.087 143.651 38.099 143.717 38.099C143.887 38.096 144.114 37.9824 144.397 37.755Z" fill="#616160"/>
<path d="M146.634 35.8677C147.001 35.4251 147.347 35.2067 147.678 35.2067C147.794 35.2067 147.902 35.2247 147.997 35.2636C148.093 35.3024 148.179 35.3682 148.254 35.458C148.325 35.5477 148.382 35.6703 148.424 35.8199C148.465 35.9694 148.486 36.1579 148.486 36.3822V37.7162C148.486 37.8507 148.492 37.9554 148.507 38.0332C148.522 38.111 148.546 38.1708 148.585 38.2097C148.62 38.2485 148.671 38.2755 148.731 38.2844C148.793 38.2934 148.868 38.2994 148.964 38.2994V38.422H147.421V38.2994H147.487C147.588 38.2994 147.669 38.2904 147.726 38.2725C147.782 38.2545 147.827 38.2216 147.857 38.1798C147.887 38.1379 147.905 38.0751 147.914 38.0003C147.923 37.9255 147.926 37.8298 147.926 37.7162V36.436C147.926 36.1519 147.89 35.9455 147.815 35.8169C147.741 35.6883 147.618 35.6225 147.442 35.6225C147.171 35.6225 146.902 35.772 146.634 36.0651V37.7132C146.634 37.9195 146.646 38.0511 146.673 38.105C146.688 38.1379 146.706 38.1678 146.726 38.1947C146.744 38.2186 146.771 38.2396 146.804 38.2545C146.837 38.2695 146.879 38.2814 146.932 38.2874C146.986 38.2934 147.055 38.2964 147.141 38.2964V38.419H145.599V38.2964H145.668C145.748 38.2964 145.817 38.2874 145.867 38.2695C145.918 38.2515 145.96 38.2186 145.993 38.1738C146.026 38.1289 146.043 38.0691 146.055 37.9943C146.067 37.9195 146.073 37.8268 146.073 37.7132V36.5527C146.073 36.1818 146.064 35.9545 146.046 35.8677C146.031 35.787 146.005 35.7301 145.969 35.7002C145.933 35.6703 145.885 35.6554 145.829 35.6554C145.766 35.6554 145.688 35.6733 145.602 35.7062L145.551 35.5836L146.491 35.2007H146.637V35.8677H146.634Z" fill="#616160"/>
<path d="M150.735 35.2067C150.956 35.2067 151.159 35.2486 151.341 35.3353C151.526 35.4221 151.684 35.5387 151.815 35.6853C151.946 35.8318 152.051 35.9993 152.125 36.1937C152.2 36.3882 152.236 36.5915 152.236 36.8039C152.236 37.0282 152.197 37.2436 152.122 37.45C152.048 37.6563 151.94 37.8388 151.803 37.9973C151.666 38.1558 151.505 38.2844 151.317 38.3772C151.129 38.4699 150.923 38.5177 150.697 38.5177C150.476 38.5177 150.276 38.4729 150.094 38.3802C149.915 38.2904 149.76 38.1678 149.629 38.0153C149.498 37.8627 149.399 37.6892 149.33 37.4948C149.259 37.3004 149.226 37.097 149.226 36.8877C149.226 36.6753 149.262 36.4689 149.336 36.2655C149.408 36.0621 149.512 35.8827 149.644 35.7242C149.778 35.5656 149.936 35.44 150.121 35.3443C150.306 35.2486 150.512 35.2067 150.735 35.2067ZM150.631 35.4281C150.533 35.4281 150.434 35.449 150.345 35.4909C150.252 35.5327 150.172 35.6015 150.1 35.6972C150.028 35.793 149.972 35.9126 149.927 36.0621C149.885 36.2117 149.861 36.3941 149.861 36.6065C149.861 36.8278 149.885 37.0402 149.93 37.2406C149.978 37.444 150.043 37.6204 150.127 37.776C150.213 37.9285 150.315 38.0511 150.437 38.1439C150.559 38.2366 150.694 38.2814 150.843 38.2814C150.953 38.2814 151.052 38.2605 151.144 38.2186C151.236 38.1768 151.317 38.108 151.383 38.0153C151.451 37.9195 151.505 37.7969 151.544 37.6414C151.582 37.4858 151.6 37.2974 151.6 37.0701C151.6 36.8458 151.579 36.6334 151.535 36.436C151.49 36.2386 151.427 36.0651 151.347 35.9156C151.263 35.766 151.162 35.6494 151.04 35.5627C150.923 35.4729 150.786 35.4281 150.631 35.4281Z" fill="#616160"/>
<path d="M154.714 35.2067V36.2715H154.601C154.559 36.104 154.508 35.9634 154.455 35.8528C154.401 35.7421 154.338 35.6554 154.27 35.5896C154.201 35.5238 154.124 35.4759 154.037 35.449C153.951 35.4221 153.858 35.4071 153.754 35.4071C153.673 35.4071 153.602 35.4191 153.539 35.443C153.473 35.4669 153.42 35.4969 153.372 35.5357C153.324 35.5746 153.288 35.6165 153.262 35.6643C153.235 35.7122 153.223 35.763 153.223 35.8139C153.223 35.8767 153.232 35.9365 153.25 35.9904C153.268 36.0442 153.306 36.101 153.363 36.1608C153.42 36.2177 153.503 36.2805 153.611 36.3463C153.718 36.4121 153.864 36.4899 154.046 36.5796C154.213 36.6603 154.356 36.7411 154.47 36.8219C154.583 36.9026 154.678 36.9804 154.75 37.0611C154.822 37.1419 154.872 37.2226 154.902 37.3094C154.932 37.3961 154.947 37.4829 154.947 37.5726C154.947 37.7162 154.917 37.8478 154.857 37.9644C154.798 38.0811 154.717 38.1798 154.622 38.2635C154.523 38.3443 154.413 38.4101 154.288 38.4549C154.162 38.4998 154.037 38.5237 153.906 38.5237C153.81 38.5237 153.709 38.5147 153.599 38.4998C153.488 38.4848 153.375 38.4579 153.253 38.422C153.214 38.4101 153.181 38.4011 153.151 38.3951C153.121 38.3891 153.095 38.3861 153.071 38.3861C153.02 38.3861 152.981 38.416 152.948 38.4759H152.835V37.3602H152.948C152.981 37.5188 153.029 37.6593 153.092 37.779C153.154 37.8986 153.229 38.0003 153.315 38.0781C153.402 38.1588 153.494 38.2186 153.599 38.2575C153.703 38.2994 153.807 38.3203 153.918 38.3203C153.995 38.3203 154.067 38.3084 154.13 38.2814C154.192 38.2545 154.252 38.2216 154.3 38.1798C154.347 38.1379 154.383 38.087 154.41 38.0302C154.437 37.9734 154.449 37.9106 154.449 37.8448C154.449 37.767 154.437 37.6982 154.416 37.6354C154.392 37.5726 154.35 37.5128 154.291 37.4529C154.228 37.3931 154.144 37.3303 154.04 37.2675C153.933 37.2017 153.796 37.1269 153.628 37.0432C153.461 36.9624 153.324 36.8847 153.223 36.8159C153.118 36.7441 153.038 36.6753 152.978 36.6035C152.919 36.5317 152.88 36.457 152.859 36.3792C152.838 36.3014 152.829 36.2117 152.829 36.11C152.829 35.9814 152.853 35.8647 152.898 35.7541C152.945 35.6434 153.008 35.5477 153.095 35.4669C153.178 35.3862 153.279 35.3234 153.393 35.2755C153.509 35.2277 153.634 35.2067 153.775 35.2067C153.816 35.2067 153.873 35.2127 153.942 35.2277C154.01 35.2426 154.079 35.2576 154.147 35.2725C154.216 35.2875 154.279 35.3024 154.335 35.3174C154.392 35.3323 154.431 35.3383 154.452 35.3383C154.487 35.3383 154.517 35.3294 154.538 35.3144C154.559 35.2994 154.583 35.2636 154.61 35.2097H154.714V35.2067Z" fill="#616160"/>
<path d="M159.743 36.8757H157.956L157.643 37.6055C157.565 37.782 157.527 37.9166 157.527 38.0093C157.527 38.0452 157.533 38.0781 157.545 38.111C157.556 38.1409 157.583 38.1708 157.622 38.1977C157.661 38.2246 157.715 38.2456 157.786 38.2635C157.858 38.2815 157.947 38.2934 158.061 38.3024V38.428H156.605V38.3024C156.796 38.2695 156.921 38.2246 156.981 38.1708C157.04 38.1169 157.1 38.0332 157.163 37.9225C157.225 37.8119 157.294 37.6743 157.366 37.5038L158.991 33.6933H159.11L160.718 37.5457C160.784 37.7042 160.843 37.8328 160.9 37.9285C160.957 38.0242 161.013 38.102 161.073 38.1528C161.133 38.2067 161.195 38.2426 161.264 38.2635C161.333 38.2844 161.416 38.2964 161.512 38.2994V38.425H159.689V38.2994C159.779 38.2964 159.856 38.2844 159.916 38.2695C159.978 38.2545 160.026 38.2336 160.062 38.2067C160.098 38.1827 160.122 38.1528 160.137 38.1199C160.151 38.087 160.157 38.0541 160.157 38.0153C160.16 37.9644 160.148 37.9016 160.125 37.8238C160.101 37.7461 160.065 37.6504 160.02 37.5427L159.743 36.8757ZM159.647 36.6245L158.866 34.7521L158.064 36.6245H159.647Z" fill="#616160"/>
<path d="M162.878 33.5707V37.7192C162.878 37.8179 162.881 37.9016 162.887 37.9644C162.893 38.0272 162.904 38.0781 162.916 38.114C162.931 38.1529 162.946 38.1798 162.97 38.2007C162.991 38.2216 163.018 38.2396 163.051 38.2545C163.104 38.2874 163.215 38.3024 163.382 38.3024V38.425H161.852V38.3024C161.953 38.3024 162.033 38.2934 162.096 38.2785C162.156 38.2635 162.203 38.2336 162.236 38.1887C162.269 38.1469 162.29 38.087 162.299 38.0123C162.308 37.9375 162.314 37.8388 162.314 37.7192V34.8777C162.314 34.7013 162.311 34.5577 162.308 34.45C162.305 34.3423 162.299 34.2676 162.29 34.2287C162.272 34.1479 162.245 34.0911 162.212 34.0612C162.18 34.0313 162.135 34.0163 162.078 34.0163C162.016 34.0163 161.941 34.0343 161.855 34.0702L161.798 33.9505L162.728 33.5677H162.878V33.5707Z" fill="#616160"/>
<path d="M164.82 35.2067V37.7192C164.82 37.8179 164.823 37.9016 164.829 37.9644C164.835 38.0272 164.847 38.0781 164.858 38.117C164.87 38.1558 164.888 38.1858 164.912 38.2037C164.933 38.2246 164.957 38.2396 164.987 38.2575C165.046 38.2904 165.148 38.3054 165.294 38.3054V38.428H163.779V38.3054C163.856 38.3054 163.919 38.3024 163.967 38.2964C164.014 38.2904 164.056 38.2785 164.086 38.2635C164.116 38.2486 164.14 38.2276 164.157 38.2037C164.175 38.1798 164.19 38.1499 164.208 38.117C164.241 38.0452 164.256 37.9166 164.256 37.7251V36.5198C164.256 36.3224 164.253 36.1668 164.247 36.0532C164.241 35.9395 164.229 35.8528 164.211 35.796C164.193 35.7391 164.169 35.7032 164.137 35.6883C164.104 35.6733 164.062 35.6674 164.011 35.6674C163.949 35.6674 163.871 35.6853 163.779 35.7182L163.731 35.5956L164.671 35.2127H164.82V35.2067ZM164.536 33.5707C164.584 33.5707 164.629 33.5797 164.671 33.5976C164.712 33.6155 164.748 33.6395 164.781 33.6724C164.811 33.7023 164.835 33.7382 164.855 33.783C164.873 33.8249 164.882 33.8698 164.882 33.9176C164.882 33.9655 164.873 34.0104 164.855 34.0522C164.838 34.0941 164.814 34.13 164.781 34.1629C164.748 34.1958 164.715 34.2197 164.671 34.2377C164.629 34.2556 164.584 34.2646 164.536 34.2646C164.489 34.2646 164.444 34.2556 164.402 34.2377C164.36 34.2197 164.325 34.1958 164.292 34.1629C164.259 34.13 164.235 34.0941 164.217 34.0522C164.199 34.0104 164.19 33.9655 164.19 33.9176C164.19 33.8698 164.199 33.8249 164.217 33.783C164.235 33.7412 164.259 33.7053 164.292 33.6724C164.322 33.6425 164.36 33.6185 164.402 33.5976C164.444 33.5797 164.489 33.5707 164.536 33.5707Z" fill="#616160"/>
<path d="M167.447 37.9764C167.128 38.2276 166.925 38.3712 166.845 38.4071C166.726 38.4639 166.594 38.4938 166.454 38.4938C166.347 38.4938 166.248 38.4759 166.159 38.437C166.069 38.3981 165.989 38.3443 165.923 38.2725C165.858 38.2007 165.807 38.1169 165.768 38.0182C165.732 37.9195 165.711 37.8089 165.711 37.6892C165.711 37.5995 165.723 37.5187 165.747 37.444C165.771 37.3692 165.807 37.2974 165.855 37.2316C165.902 37.1658 165.962 37.1 166.037 37.0372C166.111 36.9744 166.198 36.9146 166.296 36.8577C166.529 36.7202 166.913 36.5527 167.447 36.3582V36.2356C167.447 36.0771 167.435 35.9485 167.409 35.8438C167.382 35.7391 167.346 35.6554 167.295 35.5926C167.248 35.5298 167.185 35.4849 167.113 35.458C167.042 35.431 166.958 35.4191 166.869 35.4191C166.797 35.4191 166.732 35.431 166.672 35.452C166.612 35.4729 166.564 35.5028 166.523 35.5387C166.481 35.5746 166.451 35.6135 166.43 35.6614C166.409 35.7092 166.397 35.7541 166.397 35.8019L166.403 35.9993C166.403 36.104 166.377 36.1848 166.323 36.2416C166.269 36.2984 166.201 36.3283 166.114 36.3283C166.031 36.3283 165.962 36.2984 165.908 36.2386C165.855 36.1788 165.828 36.098 165.828 35.9963C165.828 35.9006 165.852 35.8049 165.905 35.7122C165.956 35.6195 166.031 35.5357 166.126 35.461C166.221 35.3862 166.341 35.3264 166.484 35.2785C166.627 35.2307 166.788 35.2097 166.97 35.2097C167.212 35.2097 167.415 35.2456 167.582 35.3144C167.749 35.3862 167.871 35.5058 167.945 35.6793C167.987 35.778 168.008 35.9784 168.008 36.2805V37.3423C168.008 37.4918 168.011 37.6145 168.014 37.7042C168.017 37.7939 168.02 37.8567 168.026 37.8926C168.038 37.9584 168.056 38.0033 168.083 38.0272C168.11 38.0511 168.139 38.0601 168.172 38.0601C168.196 38.0601 168.217 38.0571 168.238 38.0511C168.259 38.0452 168.283 38.0302 168.309 38.0093C168.336 37.9883 168.369 37.9614 168.405 37.9255C168.441 37.8896 168.488 37.8448 168.545 37.7879V37.9794C168.288 38.3203 168.047 38.4908 167.817 38.4908C167.707 38.4908 167.62 38.4519 167.552 38.3742C167.483 38.2964 167.447 38.1618 167.447 37.9764ZM167.447 37.755V36.5646C167.274 36.6334 167.134 36.6902 167.024 36.7381C166.913 36.786 166.833 36.8248 166.785 36.8548C166.606 36.9564 166.478 37.0611 166.4 37.1718C166.323 37.2825 166.284 37.3991 166.284 37.5277C166.284 37.6085 166.296 37.6862 166.323 37.755C166.35 37.8238 166.386 37.8836 166.427 37.9375C166.472 37.9883 166.523 38.0272 166.582 38.0571C166.642 38.087 166.702 38.099 166.767 38.099C166.94 38.096 167.167 37.9824 167.447 37.755Z" fill="#616160"/>
<path d="M170.979 38.0751C170.827 38.2336 170.678 38.3503 170.534 38.419C170.391 38.4878 170.233 38.5237 170.063 38.5237C169.893 38.5237 169.732 38.4848 169.577 38.4101C169.422 38.3353 169.288 38.2276 169.171 38.093C169.055 37.9584 168.963 37.7969 168.891 37.6085C168.822 37.4231 168.787 37.2167 168.787 36.9953C168.787 36.5467 168.927 36.1369 169.21 35.7661C169.494 35.3922 169.857 35.2067 170.296 35.2067C170.567 35.2067 170.794 35.2935 170.976 35.4699V34.447C170.976 34.4052 170.979 34.3603 170.982 34.3124C170.985 34.2646 170.982 34.2167 170.97 34.1749C170.958 34.133 170.937 34.0971 170.901 34.0672C170.869 34.0403 170.812 34.0253 170.734 34.0253C170.672 34.0253 170.594 34.0433 170.499 34.0791L170.454 33.9595L171.385 33.5767H171.537V37.1927C171.537 37.5636 171.546 37.788 171.561 37.8657C171.578 37.9465 171.605 38.0003 171.644 38.0332C171.68 38.0661 171.725 38.0811 171.775 38.0811C171.835 38.0811 171.915 38.0631 172.02 38.0242L172.056 38.1439L171.128 38.5297H170.973V38.0751H170.979ZM170.979 37.8358V36.2237C170.967 36.0951 170.937 35.9784 170.892 35.8797C170.845 35.781 170.788 35.6943 170.722 35.6255C170.657 35.5567 170.582 35.5028 170.502 35.467C170.421 35.4311 170.341 35.4131 170.257 35.4131C170.138 35.4131 170.024 35.443 169.923 35.5058C169.822 35.5686 169.732 35.6584 169.655 35.772C169.58 35.8857 169.517 36.0233 169.476 36.1848C169.434 36.3463 169.41 36.5228 169.41 36.7202C169.41 36.9505 169.437 37.1539 169.494 37.3303C169.55 37.5068 169.622 37.6563 169.714 37.779C169.804 37.8986 169.908 37.9913 170.024 38.0512C170.141 38.114 170.257 38.1439 170.379 38.1439C170.588 38.1469 170.788 38.0422 170.979 37.8358Z" fill="#616160"/>
<path d="M173.789 35.2067C174.009 35.2067 174.212 35.2486 174.394 35.3353C174.579 35.4221 174.737 35.5387 174.868 35.6853C175 35.8318 175.104 35.9993 175.178 36.1937C175.253 36.3882 175.289 36.5915 175.289 36.8039C175.289 37.0282 175.25 37.2436 175.176 37.45C175.101 37.6563 174.994 37.8388 174.856 37.9973C174.719 38.1558 174.558 38.2844 174.37 38.3772C174.182 38.4699 173.976 38.5177 173.75 38.5177C173.529 38.5177 173.329 38.4729 173.147 38.3802C172.968 38.2904 172.813 38.1678 172.682 38.0153C172.551 37.8627 172.452 37.6892 172.384 37.4948C172.312 37.3004 172.279 37.097 172.279 36.8877C172.279 36.6753 172.315 36.4689 172.39 36.2655C172.461 36.0621 172.566 35.8827 172.697 35.7242C172.831 35.5656 172.989 35.44 173.174 35.3443C173.359 35.2486 173.565 35.2067 173.789 35.2067ZM173.684 35.4281C173.586 35.4281 173.487 35.449 173.398 35.4909C173.305 35.5327 173.225 35.6015 173.153 35.6972C173.082 35.793 173.025 35.9126 172.98 36.0621C172.938 36.2117 172.915 36.3941 172.915 36.6065C172.915 36.8278 172.938 37.0402 172.983 37.2406C173.031 37.444 173.097 37.6204 173.18 37.776C173.267 37.9285 173.368 38.0511 173.49 38.1439C173.613 38.2366 173.747 38.2814 173.896 38.2814C174.006 38.2814 174.105 38.2605 174.197 38.2186C174.29 38.1768 174.37 38.108 174.436 38.0153C174.504 37.9195 174.558 37.7969 174.597 37.6414C174.636 37.4858 174.654 37.2974 174.654 37.0701C174.654 36.8458 174.633 36.6334 174.588 36.436C174.543 36.2386 174.481 36.0651 174.4 35.9156C174.316 35.766 174.215 35.6494 174.093 35.5627C173.976 35.4729 173.839 35.4281 173.684 35.4281Z" fill="#616160"/>
<path d="M177.767 35.2067V36.2715H177.654C177.612 36.104 177.562 35.9634 177.508 35.8528C177.454 35.7421 177.392 35.6554 177.323 35.5896C177.254 35.5238 177.177 35.4759 177.09 35.449C177.004 35.4221 176.911 35.4071 176.807 35.4071C176.726 35.4071 176.655 35.4191 176.592 35.443C176.527 35.4669 176.473 35.4969 176.425 35.5357C176.377 35.5746 176.342 35.6165 176.315 35.6643C176.288 35.7122 176.276 35.763 176.276 35.8139C176.276 35.8767 176.285 35.9365 176.303 35.9904C176.321 36.0442 176.36 36.101 176.416 36.1608C176.473 36.2177 176.556 36.2805 176.664 36.3463C176.771 36.4121 176.917 36.4899 177.099 36.5796C177.266 36.6603 177.409 36.7411 177.523 36.8219C177.636 36.9026 177.732 36.9804 177.803 37.0611C177.875 37.1419 177.925 37.2226 177.955 37.3094C177.985 37.3961 178 37.4829 178 37.5726C178 37.7162 177.97 37.8478 177.911 37.9644C177.851 38.0811 177.77 38.1798 177.675 38.2635C177.577 38.3443 177.466 38.4101 177.341 38.4549C177.216 38.4998 177.09 38.5237 176.959 38.5237C176.864 38.5237 176.762 38.5147 176.652 38.4998C176.542 38.4848 176.428 38.4579 176.306 38.422C176.267 38.4101 176.234 38.4011 176.204 38.3951C176.175 38.3891 176.148 38.3861 176.124 38.3861C176.073 38.3861 176.034 38.416 176.002 38.4759H175.888V37.3602H176.002C176.034 37.5188 176.082 37.6593 176.145 37.779C176.207 37.8986 176.282 38.0003 176.369 38.0781C176.455 38.1588 176.547 38.2186 176.652 38.2575C176.756 38.2994 176.861 38.3203 176.971 38.3203C177.049 38.3203 177.12 38.3084 177.183 38.2814C177.245 38.2545 177.305 38.2216 177.353 38.1798C177.401 38.1379 177.436 38.087 177.463 38.0302C177.49 37.9734 177.502 37.9106 177.502 37.8448C177.502 37.767 177.49 37.6982 177.469 37.6354C177.445 37.5726 177.404 37.5128 177.344 37.4529C177.281 37.3931 177.198 37.3303 177.093 37.2675C176.986 37.2017 176.849 37.1269 176.682 37.0432C176.515 36.9624 176.377 36.8847 176.276 36.8159C176.172 36.7441 176.091 36.6753 176.031 36.6035C175.972 36.5317 175.933 36.457 175.912 36.3792C175.891 36.3014 175.882 36.2117 175.882 36.11C175.882 35.9814 175.906 35.8647 175.951 35.7541C175.999 35.6434 176.061 35.5477 176.148 35.4669C176.231 35.3862 176.333 35.3234 176.446 35.2755C176.562 35.2277 176.688 35.2067 176.828 35.2067C176.87 35.2067 176.926 35.2127 176.995 35.2277C177.063 35.2426 177.132 35.2576 177.201 35.2725C177.269 35.2875 177.332 35.3024 177.389 35.3174C177.445 35.3323 177.484 35.3383 177.505 35.3383C177.541 35.3383 177.571 35.3294 177.591 35.3144C177.612 35.2994 177.636 35.2636 177.663 35.2097H177.767V35.2067Z" fill="#616160"/>
</g>
<defs>
<clipPath id="clip0_58_5908">
<rect width="178" height="56" fill="white"/>
</clipPath>
</defs>
</svg>
